<svg width="60" height="60" viewBox="0 0 60 60" fill="none" xmlns="http://www.w3.org/2000/svg">
<path d="M48.8086 43.957C47.9766 43.957 48.0821 45.2461 48.9024 45.2461C49.7461 45.2461 49.6407 43.957 48.8086 43.957ZM50.3438 46.8164C50.2032 46.6992 50.0508 46.6523 49.8633 46.6523H49.7461C49.5821 46.6523 49.418 46.7578 49.3126 46.875C49.1954 47.0039 49.1368 47.1797 49.1485 47.3555C49.1602 47.5195 49.2422 47.6836 49.3711 47.7891C49.5118 47.9062 49.6641 47.9531 49.8516 47.9531H49.9688C50.1329 47.9531 50.2969 47.8477 50.4024 47.7305C50.5196 47.6016 50.5782 47.4258 50.5665 47.25C50.543 47.0859 50.4727 46.9219 50.3438 46.8164Z" fill="black"/>
<path d="M35.2617 14.7656C34.1953 14.6953 33.4687 15.4218 32.8125 16.1601C32.4375 16.5703 32.0625 17.0039 31.6523 17.3789C31.8984 17.6718 32.1562 17.9648 32.414 18.2226C32.5078 18.3281 32.5664 18.4336 32.5898 18.5507C32.6132 18.4218 32.625 18.2929 32.625 18.1757C32.6367 17.3554 33.914 17.2382 33.914 18.082V18.4336C33.914 18.5507 33.8906 18.6445 33.8437 18.7265C33.5742 20.1562 32.5429 21.3164 30.914 21.1054C30.0937 21 30.3398 19.7343 31.1601 19.8398C31.6992 19.9101 32.0976 19.6406 32.332 19.2304C32.121 19.4179 31.8046 19.4531 31.5468 19.1953C31.207 18.8554 30.8789 18.4922 30.5625 18.1054C30.4921 18.1406 30.4218 18.164 30.3515 18.1992C29.8007 18.4101 29.2148 18.4922 28.6406 18.6211C28.207 18.7148 27.6093 18.8203 27.2812 19.1601C26.6953 19.7695 26.6835 21.1875 27.4804 21.5976C27.621 21.5859 27.7617 21.6093 27.8789 21.7031C27.8906 21.7031 27.9023 21.7031 27.9257 21.7031C28.4062 21.7265 28.6406 22.1836 28.582 22.5351C30.2929 24.2695 33.2343 24.3398 35.4375 23.5429C37.0781 22.9453 38.7421 21.75 39.164 19.957C39.7734 17.4492 37.8398 14.9296 35.2617 14.7656Z" fill="#EF4754"/>
<path d="M48.7969 41.4141C47.7891 41.8477 46.7344 42.1523 45.6563 42.3398C43.3125 42.75 40.8516 42.7969 38.4844 42.4687C37.1836 42.293 35.8828 42.0469 34.5703 41.9414C33.3633 41.8477 32.1797 41.7305 31.043 41.2617C30.4102 41.707 29.6602 41.9531 28.8516 41.8477C28.0078 41.7305 27.3047 41.3086 26.8008 40.7109C26.7305 40.7578 26.6367 40.793 26.5313 40.8047C25.5235 40.9219 24.5156 40.4883 23.5196 40.3711C22.4766 40.2422 21.4688 40.0664 20.4727 39.75C18.6797 39.1875 16.8985 38.5547 15.2578 37.6289C14.9531 38.7422 14.2031 39.8555 12.9727 39.9492C11.8125 40.0312 10.4531 39.1641 10.1602 37.9805C9.9844 37.2656 10.043 36.5156 10.0664 35.7773C10.0781 35.6016 10.0781 35.4258 10.0899 35.25C10.0664 35.2383 10.0547 35.2383 10.0313 35.2266C9.0469 34.793 8.00393 34.4883 7.04299 33.9961C6.66799 33.7969 6.24611 33.5625 5.88283 33.2812C5.84768 33.293 5.81252 33.293 5.76565 33.3047C5.76565 33.3281 5.75393 33.3633 5.75393 33.3867C5.74221 33.5742 5.76565 33.7734 5.77736 33.9609C5.83596 34.4648 5.90627 34.7578 6.14065 35.25C6.85549 36.7148 8.19143 37.8516 9.44533 38.8711C11.8828 40.8516 15.0586 41.6836 18.0938 42.2578C21.4336 42.8906 24.75 43.2891 28.1602 43.3594C30.0235 43.3945 31.8867 43.3945 33.75 43.4766C35.5664 43.5586 37.3711 43.7578 39.1875 43.875C40.9922 43.9922 42.9375 44.1094 44.7188 43.7578C45.6797 43.5703 46.6406 43.2422 47.5313 42.8438C48.7735 42.3047 50.5196 41.4023 51.1641 40.0664C50.4727 40.6289 49.6055 41.0625 48.7969 41.4141Z" fill="#EF4823"/>
<path d="M48.6562 51.9375C47.496 52.4648 46.1484 52.5937 44.8827 52.6055C43.3359 52.6172 41.789 52.4531 40.2656 52.2305C38.7304 52.0078 37.1952 51.7383 35.6484 51.6211C34.1249 51.4922 32.5898 51.6328 31.0546 51.5508C29.2265 51.4453 27.3984 51.0703 25.6054 50.7422C23.8827 50.4258 22.1601 50.1797 20.414 49.957C17.5546 49.6055 14.6484 49.2891 11.9062 48.375C9.8554 47.6953 7.47649 46.6875 6.17571 44.8711C6.16399 45.1289 6.15227 45.3867 6.15227 45.6445C6.12883 46.8867 6.11712 48.2344 6.64446 49.3945C7.87493 52.1133 11.3671 52.2773 13.8984 52.7812C15.7851 53.1562 17.6601 53.5898 19.5585 53.8945C21.4218 54.1992 23.3085 54.3867 25.1952 54.4922C29.0273 54.7148 32.871 54.6914 36.7148 54.7969C38.6484 54.8555 40.582 54.9258 42.5156 54.9609C43.9804 54.9844 45.4452 55.043 46.8398 54.5508C48.832 53.8594 50.2734 52.4062 50.6249 50.4492C50.0976 51.0586 49.4531 51.5742 48.6562 51.9375Z" fill="#C56528"/>
<path d="M28.7812 11.7773C28.8164 11.9648 28.8633 12.1406 28.9102 12.3164C29.2734 13.7109 29.9883 15.1172 30.8672 16.3594C30.8789 16.3477 30.8906 16.3359 30.9141 16.3242C31.3945 15.8555 31.8047 15.3398 32.2734 14.8594C32.4258 14.707 32.5781 14.5664 32.7422 14.4375C32.5195 12.7266 30.3633 11.9766 28.7812 11.7773Z" fill="#FCBF95"/>
<path d="M51.2109 42.0703C49.875 43.3008 47.9297 44.1328 46.4648 44.5898C44.4375 45.2227 42.3164 45.2695 40.207 45.1758C38.3203 45.0937 36.4453 44.9062 34.5586 44.7891C34.8515 45.1641 34.7344 45.832 34.1367 45.832C33.5039 45.832 33.3047 45.0937 33.5976 44.7305C33.1523 44.707 32.7187 44.6836 32.2734 44.6836C29.6367 44.625 26.9883 44.6484 24.3633 44.4375C24.3984 44.5078 24.4219 44.5898 24.4219 44.6719V44.9062C24.4219 45.082 24.3867 45.2461 24.2578 45.3867C24.1523 45.5156 23.9883 45.5859 23.8242 45.6094C23.6484 45.6211 23.4844 45.5625 23.3437 45.4453C23.2265 45.3398 23.1211 45.1758 23.1211 45.0117V44.7773C23.1211 44.6133 23.1562 44.4727 23.2383 44.3555C22.6172 44.2852 21.9844 44.2148 21.3633 44.1094C18.375 43.6289 15.3398 43.1719 12.5039 42.0586C11.1445 41.5312 9.82029 40.8516 8.69529 39.9258C8.60154 39.8555 8.50779 39.7734 8.41404 39.6914C8.35545 39.9141 8.16795 40.0898 7.86326 40.0898C7.16014 40.0898 6.98436 39.1523 7.45311 38.8828C6.72654 38.2266 6.03514 37.5234 5.49608 36.7266C5.23826 37.4531 5.64842 38.4727 5.8242 39.1406C6.07029 40.1016 6.16404 41.0977 6.36326 42.0703C6.37498 42.1289 6.3867 42.1875 6.39842 42.2461C6.45701 42.2227 6.51561 42.1992 6.58592 42.1992C6.7617 42.1875 6.92576 42.2461 7.06639 42.3633C7.18358 42.4687 7.28904 42.6328 7.28904 42.7969V42.9141C7.28904 43.0898 7.25389 43.2539 7.12498 43.3945C7.05467 43.4766 6.9492 43.5469 6.84373 43.582C7.06639 44.0508 7.37108 44.4727 7.78123 44.8125C8.55467 45.457 9.42186 45.9844 10.3359 46.4062C14.2265 48.1875 18.5625 48.3398 22.7344 48.9375C22.8281 48.9492 22.9336 48.9727 23.0273 48.9844C23.0039 48.9727 22.9922 48.9609 22.9687 48.9492C22.8164 48.8203 22.7344 48.6094 22.7344 48.4102C22.7344 48.2344 22.7695 48.0703 22.8984 47.9297C23.0039 47.8008 23.1679 47.7305 23.332 47.707C23.5078 47.6953 23.6719 47.7539 23.8125 47.8711C23.8476 47.8945 23.8711 47.9297 23.8945 47.9648C23.9062 47.9766 23.9179 47.9766 23.9297 47.9883C24.0586 48.0937 24.1289 48.2578 24.1523 48.4219C24.164 48.5977 24.1054 48.7617 23.9883 48.9023C23.9179 48.9844 23.8125 49.0547 23.6953 49.0898C25.1836 49.3359 26.6601 49.6406 28.1484 49.875C28.0898 49.8516 28.0429 49.8164 27.9961 49.7812C27.8789 49.6758 27.7734 49.5117 27.7734 49.3477V49.2305C27.7734 49.0547 27.8086 48.8906 27.9375 48.75C28.0429 48.6211 28.207 48.5508 28.3711 48.5273C28.5469 48.5156 28.7109 48.5742 28.8515 48.6914C28.9687 48.7969 29.0742 48.9609 29.0742 49.125V49.2422C29.0742 49.418 29.039 49.582 28.9101 49.7226C28.8047 49.8398 28.664 49.9102 28.5117 49.9336C29.3789 50.0742 30.2344 50.2266 31.125 50.2734C31.207 50.2734 31.2773 50.2734 31.3594 50.2852C31.2422 50.2617 31.1367 50.2266 31.0429 50.1445C30.914 50.0391 30.8437 49.875 30.8203 49.7109C30.8086 49.5352 30.8672 49.3711 30.9844 49.2305C31.0078 49.1953 31.0429 49.1719 31.0781 49.1484C31.0898 49.1367 31.0898 49.125 31.1015 49.1133C31.207 48.9844 31.3711 48.9141 31.5351 48.8906C31.7109 48.8789 31.875 48.9375 32.0156 49.0547C32.1328 49.1602 32.2383 49.3242 32.2383 49.4883C32.2383 49.5703 32.2383 49.6523 32.2265 49.7344C32.2031 49.8633 32.1445 49.9687 32.0625 50.0625C31.9453 50.2031 31.7812 50.2734 31.6054 50.2852C32.3203 50.3086 33.0234 50.3086 33.7383 50.2969C34.664 50.2852 35.5898 50.3555 36.5039 50.4492C36.4804 50.3906 36.4687 50.3437 36.457 50.2734C36.4453 50.0977 36.5039 49.9336 36.6211 49.793C36.7265 49.6641 36.8906 49.5937 37.0547 49.5703C37.2187 49.5586 37.4062 49.6055 37.5351 49.7344C37.5937 49.793 37.6523 49.8633 37.7109 49.9336C37.7578 49.9922 37.7812 50.0625 37.8164 50.1211C37.8515 50.2031 37.8633 50.3086 37.8633 50.4023C37.8633 50.4727 37.8515 50.543 37.8398 50.6016C39.9961 50.8945 42.1406 51.2812 44.3203 51.3047C45.6211 51.3164 47.1445 51.293 48.3164 50.6367C48.3047 50.5898 48.2929 50.543 48.2929 50.4961C48.2812 50.3203 48.3398 50.1562 48.457 50.0156C48.5625 49.8984 48.7265 49.793 48.8906 49.793H49.0078C49.125 49.793 49.2304 49.8047 49.3242 49.8516C49.8047 49.3594 50.1914 48.7617 50.4609 48.1172C51.2929 46.2422 51.3984 44.1094 51.2109 42.0703ZM8.60154 42.3164C7.76951 42.3164 7.67576 41.0273 8.50779 41.0273C9.32811 41.0273 9.43358 42.3164 8.60154 42.3164ZM10.3242 44.6719L10.207 44.7891C10.0898 44.9062 9.9492 44.9883 9.77342 45.0117C9.59764 45.0234 9.43358 44.9648 9.29295 44.8477C9.04686 44.625 8.98826 44.1914 9.23436 43.9336L9.35154 43.8164C9.46873 43.6992 9.60936 43.6172 9.78514 43.5937C9.96092 43.582 10.125 43.6406 10.2656 43.7578C10.5117 43.9922 10.5703 44.4258 10.3242 44.6719ZM14.2383 43.0195C15.0703 43.0195 15.164 44.3086 14.332 44.3086C13.5117 44.3086 13.418 43.0195 14.2383 43.0195ZM15.1758 46.2773C15.1758 47.1094 13.8867 47.2031 13.8867 46.3711V46.2891C13.8867 45.457 15.1758 45.3633 15.1758 46.1953V46.2773ZM18.914 45.2461C18.082 45.2461 17.9883 43.957 18.8203 43.957C19.6406 43.957 19.7461 45.2461 18.914 45.2461ZM21.4922 47.2383C20.6601 47.2383 20.5664 45.9492 21.3984 45.9492C22.2187 45.9492 22.3242 47.2383 21.4922 47.2383ZM28.957 46.6641C28.8515 46.7812 28.6875 46.8867 28.5234 46.8867C28.4414 46.8867 28.3594 46.8867 28.2773 46.875C28.1484 46.8516 28.0429 46.793 27.9492 46.7109C27.7969 46.582 27.7148 46.3711 27.7148 46.1719C27.7148 45.9961 27.75 45.832 27.8789 45.6914C27.9844 45.5625 28.1484 45.4922 28.3125 45.4687C28.4883 45.457 28.6523 45.5156 28.7929 45.6328C28.8281 45.6562 28.8515 45.6914 28.875 45.7266C28.8867 45.7383 28.8984 45.7383 28.9101 45.75C29.039 45.8555 29.1094 46.0195 29.1328 46.1836C29.1328 46.3594 29.0742 46.5352 28.957 46.6641ZM37.5117 47.25C37.4062 47.3789 37.2422 47.4492 37.0781 47.4727C36.9023 47.4844 36.7383 47.4258 36.5976 47.3086C36.5625 47.2852 36.539 47.25 36.5156 47.2148C36.5039 47.2031 36.4922 47.2031 36.4804 47.1914C36.3515 47.0859 36.2812 46.9219 36.2578 46.7578C36.2461 46.582 36.3047 46.418 36.4219 46.2773C36.5273 46.1602 36.6914 46.0547 36.8554 46.0547C36.9375 46.0547 37.0195 46.0547 37.1015 46.0664C37.2304 46.0898 37.3359 46.1484 37.4297 46.2305C37.582 46.3594 37.664 46.5703 37.664 46.7695C37.6758 46.957 37.6289 47.1211 37.5117 47.25ZM39.3164 47.3437C39.3047 47.168 39.3633 47.0039 39.4804 46.8633C39.5859 46.7461 39.75 46.6406 39.914 46.6406H40.0312C40.207 46.6406 40.3711 46.6758 40.5117 46.8047C40.6406 46.9102 40.7109 47.0742 40.7344 47.2383C40.7461 47.4141 40.6875 47.5781 40.5703 47.7187C40.4648 47.8359 40.3008 47.9414 40.1367 47.9414H40.0195C39.8437 47.9414 39.6797 47.9062 39.539 47.7773C39.4101 47.6719 39.3281 47.5078 39.3164 47.3437ZM41.0742 50.0625C41.0742 50.2383 41.039 50.4023 40.9101 50.543C40.8047 50.6719 40.6406 50.7422 40.4765 50.7656C40.3008 50.7773 40.1367 50.7187 39.9961 50.6016C39.8789 50.4961 39.7734 50.332 39.7734 50.168V50.0508C39.7734 49.875 39.8086 49.7109 39.9375 49.5703C40.0429 49.4414 40.207 49.3711 40.3711 49.3477C40.5469 49.3359 40.7109 49.3945 40.8515 49.5117C40.9687 49.6172 41.0742 49.7812 41.0742 49.9453V50.0625ZM42.3164 46.3125L42.1992 46.4297C42.082 46.5469 41.9414 46.6289 41.7656 46.6523C41.5898 46.6641 41.4258 46.6055 41.2851 46.4883C41.039 46.2656 40.9804 45.832 41.2265 45.5742L41.3437 45.457C41.4609 45.3398 41.6015 45.2578 41.7773 45.2344C41.9531 45.2227 42.1172 45.2812 42.2578 45.3984C42.5039 45.6328 42.5625 46.0664 42.3164 46.3125ZM44.4492 48.5977C44.332 48.4922 44.2265 48.3281 44.2265 48.1641V48.0469C44.2265 47.8711 44.2617 47.707 44.3906 47.5664C44.4961 47.4375 44.6601 47.3672 44.8242 47.3437C45 47.332 45.164 47.3906 45.3047 47.5078C45.4219 47.6133 45.5273 47.7773 45.5273 47.9414V48.0586C45.5273 48.2344 45.4922 48.3984 45.3633 48.5391C45.2578 48.668 45.0937 48.7383 44.9297 48.7617C44.7539 48.7734 44.5781 48.7148 44.4492 48.5977ZM45.3984 51.1055C44.5664 51.1055 44.4726 49.8164 45.3047 49.8164C46.125 49.8164 46.2304 51.1055 45.3984 51.1055ZM47.2734 46.1836C46.4414 46.1836 46.3476 44.8945 47.1797 44.8945C48 44.8945 48.1054 46.1836 47.2734 46.1836ZM48.914 45.2461C48.082 45.2461 47.9883 43.957 48.8203 43.957C49.6406 43.957 49.7461 45.2461 48.914 45.2461ZM50.4023 47.7187C50.2969 47.8359 50.1328 47.9414 49.9687 47.9414H49.8515C49.6758 47.9414 49.5117 47.9062 49.3711 47.7773C49.2422 47.6719 49.1719 47.5078 49.1484 47.3437C49.1367 47.168 49.1953 47.0039 49.3125 46.8633C49.4179 46.7461 49.582 46.6406 49.7461 46.6406H49.8633C50.039 46.6406 50.2031 46.6758 50.3437 46.8047C50.4726 46.9102 50.5429 47.0742 50.5664 47.2383C50.5781 47.4141 50.5195 47.5898 50.4023 47.7187Z" fill="#D6E5E5"/>
<path d="M50.4257 28.207C49.3593 26.9062 48.1874 25.6992 46.9569 24.5508C44.8944 22.6289 42.703 20.8359 40.6054 18.9609C40.6054 19.0781 40.6054 19.1836 40.5937 19.3008C40.4765 21.2461 39.246 22.9336 37.6171 23.9297C34.4765 25.8516 29.4726 26.0273 27.1405 22.7695C25.9687 22.2539 25.3124 20.8828 25.6757 19.5469C26.1444 17.8711 27.5507 17.5664 29.0507 17.2266C29.2968 17.168 29.5429 17.1094 29.7655 17.0273C28.6523 15.4336 27.7968 13.6055 27.4804 11.7422C27.4804 11.7305 27.4804 11.707 27.4687 11.6953C26.414 11.6836 25.3827 11.8125 24.3749 12.1875C22.828 12.7617 21.3866 13.6055 19.9335 14.3672C17.0858 15.8437 14.1444 17.1914 11.3554 18.7851C10.1132 19.5 8.871 20.2851 7.87491 21.3164C7.4296 21.7734 6.8671 22.3476 6.77335 23.0039C6.65616 23.7891 7.28897 24 7.78116 24.4219C16.3241 26.9883 24.996 29.1211 33.6796 31.1836C35.4726 31.6055 37.3007 31.9805 39.0585 32.543C40.7108 33.0703 42.328 33.7031 44.0155 34.125C45.5976 34.5234 47.1444 34.7109 48.7616 34.4414C49.9335 34.2422 51.8437 33.7851 52.1601 32.4023C52.4999 30.8437 51.3397 29.332 50.4257 28.207Z" fill="#FCBF95"/>
<path d="M26.0977 39.4336C25.7227 38.3086 25.6641 37.125 25.2891 36C25.1602 35.625 24.9844 34.9219 24.5742 34.7578C24.1875 34.6055 23.7773 35.1328 23.5781 35.3789C22.9219 36.1524 22.1602 37.3008 21.0117 37.2656C19.8281 37.2305 19.1836 36.211 18.8672 35.1914C18.5977 34.336 18.2695 32.6133 16.9922 33.4453C16.418 33.8203 15.9844 34.3477 15.7266 34.9805C15.5508 35.3906 15.4922 35.836 15.457 36.2695C15.4805 36.2813 15.4922 36.293 15.5156 36.3047C17.1914 37.2891 19.043 37.9805 20.8945 38.543C21.832 38.8242 22.793 38.9766 23.7539 39.1055C24.5273 39.1992 25.3477 39.5274 26.1328 39.5391C26.1211 39.4922 26.1094 39.4571 26.0977 39.4336Z" fill="#C56528"/>
<path d="M49.8516 35.5195C48.3633 35.8594 46.8867 35.9649 45.375 35.7188C43.6758 35.4375 42.0469 34.8867 40.4297 34.3359C36.9023 33.1289 33.2461 32.4024 29.625 31.5352C22.207 29.7539 14.8008 27.8672 7.48827 25.6758C7.40624 25.6523 7.32421 25.6055 7.26562 25.5586C7.16015 25.5469 7.05468 25.4883 6.94921 25.4063C6.65624 25.1484 6.26952 25.0078 6.02343 24.6914C5.98827 24.6445 5.95312 24.5977 5.91796 24.5508C5.76562 25.1953 5.64843 25.8516 5.57812 26.5078C5.57812 26.5547 5.5664 26.8008 5.5664 26.5898C5.5664 26.6953 5.55468 26.7891 5.54296 26.8945C5.51952 27.1289 5.48437 27.3633 5.46093 27.5859C5.40234 28.1367 5.34374 28.6875 5.3789 29.2383C5.40234 29.5898 5.41406 30.3516 5.78906 30.5508C6.30468 30.8203 6.78515 30.4102 7.19531 30.1289C7.99218 29.6016 9.03515 29.0977 9.96093 29.6367C11.5195 30.5391 11.4258 32.8594 11.3789 34.418C11.3555 35.2852 11.2734 36.1641 11.3203 37.0313C11.3437 37.5 11.332 37.6406 11.6133 38.0039C11.9062 38.3789 12.4453 38.8125 12.9609 38.6367C14.4023 38.1328 14.0508 36.0469 14.3906 34.8867C14.7305 33.7149 15.7383 32.3438 16.9805 32.0391C18.3047 31.7109 19.2773 32.3906 19.7226 33.6328C19.9101 34.1602 20.168 36.0469 21.0234 35.9766C21.5039 35.9414 21.8906 35.4024 22.1719 35.0508C22.5117 34.6406 22.8281 34.207 23.25 33.8789C24.1992 33.1524 25.4531 33.4102 26.0273 34.4531C26.5898 35.4727 26.8008 36.5977 27 37.7227C27.1992 38.8594 27.5625 40.3711 28.9219 40.5586C30.3984 40.7578 31.2891 39.3047 31.7695 38.1211C32.2266 37.0078 32.6484 35.8008 33.832 35.2852C35.0625 34.7578 36.5156 34.7578 37.6523 35.5078C38.8125 36.2813 39.1289 37.5352 39.9258 38.6016C40.6758 39.6211 41.7891 39.4219 42.7852 38.8008C43.957 38.0742 45.0469 37.0781 46.5117 37.1367C47.7891 37.1953 49.1719 37.9102 50.3086 36.9609C50.8476 36.5039 51.1992 35.9297 51.4687 35.3086C51.4805 35.1797 51.5273 35.0625 51.6094 34.9688C51.6328 34.8984 51.668 34.8281 51.6914 34.7578C51.1523 35.1094 50.5195 35.3555 49.8516 35.5195Z" fill="#D6E5E5"/>
<path d="M50.918 38.1328C50.2852 38.5547 49.5352 38.789 48.7617 38.7539C48.3867 38.7305 48.0117 38.707 47.6484 38.6367C47.2734 38.5664 46.8516 38.414 46.4648 38.4258C45.0117 38.4609 44.0508 39.7969 42.75 40.289C41.6602 40.6992 40.3828 40.8515 39.457 39.9961C39.0352 39.6094 38.707 39.1289 38.4375 38.625C38.1328 38.0625 37.8984 37.4297 37.4297 36.9726C36.9727 36.5273 36.375 36.164 35.7188 36.1875C35.168 36.1992 34.3828 36.2929 33.9727 36.7148C33.1172 37.5937 32.9414 38.9765 32.2734 39.9961C32.2148 40.0898 32.1445 40.1719 32.0859 40.2656C32.9766 40.5351 33.9023 40.5937 34.8281 40.6758C35.918 40.7695 36.9961 40.9453 38.0742 41.1094C40.1953 41.4258 42.3281 41.4726 44.4609 41.2148C46.3828 40.9805 48.2695 40.4414 49.8984 39.3633C50.4961 38.9648 50.9648 38.4492 51.3047 37.8398C51.1758 37.9453 51.0469 38.039 50.918 38.1328Z" fill="#C56528"/>
<path d="M53.3555 32.7304C53.4493 32.4257 53.5079 32.0976 53.5079 31.7461C53.5547 29.6718 51.7618 27.7382 50.4844 26.2968C47.379 22.7812 43.5587 19.9922 40.1485 16.8047C40.1368 16.7929 40.1133 16.7812 40.0899 16.7578C39.3516 15.1992 37.8868 14.0156 36.1524 13.5937C35.3438 13.3945 34.5938 13.4531 33.9141 13.7226C33.3868 11.8711 31.1954 10.9101 29.4024 10.5586C29.1329 10.5 28.8516 10.4648 28.5704 10.4297C28.5001 9.79684 28.4883 9.15231 28.5235 8.56637C28.5469 8.19137 28.629 7.82809 28.711 7.46481C28.7462 7.31247 28.793 7.14841 28.8516 6.99606C28.9219 6.832 29.1212 6.66794 28.9102 6.76169C29.6837 6.457 29.2618 5.23825 28.4883 5.54294C27.6797 5.85934 27.4805 6.99606 27.3282 7.74606C27.1641 8.58981 27.1876 9.48044 27.2813 10.3593C26.6133 10.3593 25.9571 10.4297 25.3243 10.5586C23.6954 10.8984 22.254 11.6953 20.7891 12.457C17.6368 14.0976 14.4258 15.6445 11.2969 17.332C9.92584 18.0703 8.5899 18.9023 7.42975 19.9453C7.04303 20.2968 6.62115 20.6953 6.28131 21.1523C5.05084 21.1875 4.60553 24.457 4.47662 25.1836C4.336 25.9687 4.2774 26.6132 4.19537 27.3281C4.06647 28.4414 3.92584 29.6953 4.39459 30.75C4.54693 31.0898 4.75787 31.3476 5.00397 31.5351C4.98053 31.6054 4.98053 31.6757 4.98053 31.7461C4.99225 31.8632 5.00397 31.9687 5.03912 32.0859C4.64068 32.3672 4.4649 33.0117 4.47662 33.5976C4.47662 34.2422 4.61725 34.8515 4.86334 35.4375C4.8399 35.4609 4.81647 35.4726 4.80475 35.4961C3.85553 36.5507 4.25397 38.0273 4.58209 39.2461C4.75787 39.914 4.87506 40.6054 4.98053 41.2851C4.8985 41.3906 4.86334 41.5312 4.87506 41.707C5.17975 44.4257 4.32428 47.3437 5.49615 49.9453C6.83209 52.9101 10.1602 53.3203 12.9844 53.8828C16.7462 54.6328 20.4493 55.4179 24.2813 55.6992C28.0665 55.9687 31.8751 55.957 35.6719 56.039C37.9102 56.0859 40.1602 56.1797 42.3985 56.2265C44.1212 56.2617 45.7852 56.2734 47.4258 55.7109C50.3438 54.7031 52.2188 52.1015 51.9962 48.9961C51.9844 48.7968 51.8907 48.6445 51.7735 48.5507C52.6876 46.3242 52.7227 43.5703 52.4649 41.3789C52.4415 41.1679 52.336 41.0156 52.1954 40.9218C52.629 40.1953 52.8516 39.375 52.6993 38.4492C52.6876 38.3554 52.6524 38.2734 52.6172 38.2031C53.1094 37.2656 53.3438 36.1757 52.8985 35.2851C53.1212 34.6992 53.3204 34.0898 53.5782 33.5156C53.6719 33.2226 53.5665 32.9179 53.3555 32.7304ZM35.2618 14.7656C37.8282 14.9297 39.7735 17.4492 39.1876 19.9453C38.7657 21.7382 37.1016 22.9336 35.461 23.5312C33.2579 24.3281 30.3282 24.2578 28.6055 22.5234C28.6641 22.1601 28.4297 21.7031 27.9493 21.6914C27.9376 21.6914 27.9258 21.6914 27.9024 21.6914C27.7852 21.5976 27.6329 21.5625 27.504 21.5859C26.7071 21.1757 26.7188 19.7578 27.3047 19.1484C27.6329 18.8086 28.2305 18.7148 28.6641 18.6093C29.2383 18.4804 29.8243 18.3984 30.3751 18.1875C30.4454 18.164 30.5157 18.1289 30.586 18.0937C30.9024 18.4804 31.2305 18.8437 31.5704 19.1836C31.8282 19.4414 32.1446 19.4062 32.3555 19.2187C32.1094 19.6172 31.7227 19.8984 31.1837 19.8281C30.3633 19.7226 30.1172 20.9882 30.9376 21.0937C32.5547 21.3164 33.5977 20.1445 33.8672 18.7148C33.9141 18.6328 33.9376 18.5273 33.9376 18.4218V18.0703C33.9376 17.2382 32.6719 17.3437 32.6485 18.164C32.6485 18.2929 32.6368 18.4218 32.6133 18.539C32.5899 18.4218 32.5313 18.3164 32.4376 18.2109C32.1797 17.9414 31.9219 17.6601 31.6758 17.3672C32.0977 16.9922 32.4727 16.5703 32.836 16.1484C33.4688 15.4218 34.2071 14.6953 35.2618 14.7656ZM32.7305 14.4257C32.5665 14.5547 32.4141 14.6953 32.2618 14.8476C31.793 15.3164 31.3829 15.8437 30.9024 16.3125C30.8907 16.3242 30.879 16.3359 30.8555 16.3476C29.9766 15.1054 29.2735 13.6992 28.8985 12.3047C28.8516 12.1289 28.8165 11.9531 28.7696 11.7656C30.3633 11.9765 32.5196 12.7265 32.7305 14.4257ZM46.8282 54.5508C45.4219 55.0312 43.9571 54.9843 42.504 54.9609C40.5704 54.9258 38.6368 54.8554 36.7032 54.7968C32.8594 54.6914 29.0157 54.7148 25.1837 54.4922C23.2969 54.375 21.4102 54.1875 19.5469 53.8945C17.6485 53.5898 15.7618 53.1562 13.8868 52.7812C11.3555 52.2773 7.85162 52.1133 6.63287 49.3945C6.10553 48.2343 6.11725 46.8984 6.14069 45.6445C6.14069 45.3867 6.1524 45.1289 6.16412 44.8711C7.47662 46.6875 9.84381 47.6953 11.8946 48.375C14.6368 49.2773 17.543 49.6054 20.4024 49.957C22.1485 50.1679 23.8712 50.414 25.5938 50.7422C27.3985 51.0703 29.2149 51.457 31.043 51.5507C32.5665 51.6328 34.1133 51.5039 35.6368 51.6211C37.1837 51.75 38.7188 52.0195 40.254 52.2304C41.7891 52.4531 43.3243 52.6172 44.8712 52.6054C46.1368 52.5937 47.4844 52.4765 48.6446 51.9375C49.4415 51.5742 50.086 51.0586 50.6016 50.4492C50.2735 52.4062 48.8321 53.8593 46.8282 54.5508ZM50.4962 48.1406C50.2266 48.7968 49.8399 49.3828 49.3594 49.875C49.2657 49.8281 49.1602 49.8164 49.043 49.8164H48.9258C48.7618 49.8164 48.5977 49.9218 48.4922 50.039C48.3751 50.1679 48.3165 50.3437 48.3282 50.5195C48.3282 50.5664 48.3399 50.6132 48.3516 50.6601C47.168 51.3164 45.6563 51.3281 44.3555 51.3281C42.1758 51.3164 40.0313 50.9297 37.8751 50.625C37.8868 50.5547 37.8985 50.4961 37.8985 50.4257C37.8985 50.332 37.8868 50.2265 37.8516 50.1445C37.8282 50.0859 37.793 50.0039 37.7462 49.957C37.6876 49.8867 37.629 49.8281 37.5704 49.7578C37.4532 49.6406 37.254 49.582 37.0899 49.5937C36.9258 49.6054 36.7618 49.6875 36.6563 49.8164C36.5391 49.9453 36.4805 50.1211 36.4922 50.2968C36.4922 50.3554 36.5157 50.414 36.5391 50.4726C35.6251 50.3789 34.6993 50.3086 33.7735 50.3203C33.0587 50.332 32.3555 50.3203 31.6407 50.3086C31.8165 50.2851 31.9805 50.2148 32.0977 50.0859C32.1797 49.9922 32.2383 49.8867 32.2618 49.7578C32.2735 49.6758 32.2735 49.5937 32.2735 49.5117C32.2735 49.3476 32.168 49.1836 32.0508 49.0781C31.9219 48.9609 31.7462 48.9023 31.5704 48.914C31.4063 48.9257 31.2422 49.0078 31.1368 49.1367C31.1251 49.1484 31.1251 49.1601 31.1133 49.1718C31.0782 49.1953 31.043 49.2304 31.0196 49.2539C30.9024 49.3828 30.8438 49.5586 30.8555 49.7343C30.8672 49.8984 30.9493 50.0625 31.0782 50.1679C31.1719 50.25 31.2774 50.2968 31.3946 50.3086C31.3126 50.3086 31.2422 50.3086 31.1602 50.2968C30.2813 50.25 29.4141 50.0976 28.5469 49.957C28.6993 49.9336 28.8399 49.8633 28.9454 49.7461C29.0626 49.6054 29.1094 49.4531 29.1094 49.2656V49.1484C29.1094 48.9843 29.004 48.8203 28.8868 48.7148C28.7579 48.5976 28.5821 48.539 28.4063 48.5507C28.2422 48.5625 28.0782 48.6445 27.9727 48.7734C27.8555 48.914 27.8087 49.0664 27.8087 49.2539V49.3711C27.8087 49.5351 27.9141 49.6992 28.0313 49.8047C28.0782 49.8398 28.1251 49.875 28.1837 49.8984C26.6954 49.6757 25.2188 49.3593 23.7305 49.1133C23.836 49.0781 23.9415 49.0078 24.0235 48.9258C24.1407 48.7968 24.1993 48.6211 24.1876 48.4453C24.1758 48.2812 24.0938 48.1172 23.9649 48.0117C23.9532 48 23.9415 48 23.9297 47.9883C23.9063 47.9531 23.8712 47.9179 23.8477 47.8945C23.7188 47.7773 23.543 47.7187 23.3672 47.7304C23.2032 47.7422 23.0391 47.8242 22.9337 47.9531C22.8165 48.0937 22.7696 48.2461 22.7696 48.4336C22.7696 48.6328 22.8399 48.8437 23.004 48.9726C23.0157 48.9843 23.0391 48.9961 23.0626 49.0078C22.9688 48.9961 22.8633 48.9726 22.7696 48.9609C18.5977 48.3632 14.2618 48.2109 10.3712 46.4297C9.44537 46.0078 8.5899 45.4804 7.81647 44.8359C7.40631 44.4961 7.10162 44.0625 6.87897 43.6054C6.98443 43.5703 7.07818 43.5117 7.16022 43.4179C7.2774 43.2773 7.32428 43.125 7.32428 42.9375V42.8203C7.32428 42.6562 7.21881 42.4922 7.10162 42.3867C6.97272 42.2695 6.79693 42.2109 6.62115 42.2226C6.56256 42.2226 6.49225 42.2461 6.43365 42.2695C6.42194 42.2109 6.41022 42.1523 6.3985 42.0937C6.19928 41.1211 6.10553 40.125 5.85943 39.164C5.68365 38.4961 5.2735 37.4765 5.53131 36.75C6.07037 37.5468 6.76178 38.25 7.48834 38.9062C7.00787 39.1758 7.18365 40.1132 7.8985 40.1132C8.20319 40.1132 8.37897 39.9375 8.44928 39.7148C8.54303 39.7968 8.63678 39.8672 8.73053 39.9492C9.86725 40.875 11.1915 41.5429 12.5391 42.082C15.3751 43.1836 18.4102 43.6523 21.3985 44.1328C22.0196 44.2383 22.6407 44.3086 23.2735 44.3789C23.1797 44.5078 23.1563 44.6484 23.1563 44.8007V45.0351C23.1563 45.1992 23.2618 45.3633 23.379 45.4687C23.5079 45.5859 23.6837 45.6445 23.8594 45.6328C24.0235 45.6211 24.1876 45.539 24.293 45.4101C24.4102 45.2695 24.4571 45.1172 24.4571 44.9297V44.6953C24.4571 44.6132 24.4337 44.5429 24.3985 44.4609C27.0235 44.6601 29.6719 44.6484 32.3087 44.707C32.754 44.7187 33.1876 44.7304 33.6329 44.7539C33.3399 45.1172 33.5508 45.8554 34.1719 45.8554C34.7696 45.8554 34.8868 45.1875 34.5938 44.8125C36.4805 44.9297 38.3555 45.1172 40.2422 45.1992C42.3516 45.2929 44.4727 45.2461 46.5001 44.6133C47.9649 44.1562 49.9102 43.3242 51.2462 42.0937C51.3985 44.1093 51.293 46.2422 50.4962 48.1406ZM7.03131 33.9843C7.99225 34.4765 9.0235 34.7929 10.0196 35.2148C10.043 35.2265 10.0547 35.2265 10.0782 35.2383C10.0665 35.414 10.0665 35.5898 10.0547 35.7656C10.0313 36.4922 9.97272 37.2539 10.1485 37.9687C10.4297 39.1523 11.8008 40.0195 12.961 39.9375C14.2032 39.8554 14.9415 38.7304 15.2462 37.6172C16.8868 38.5312 18.668 39.1758 20.461 39.7383C21.4571 40.0547 22.4766 40.2187 23.5079 40.3593C24.504 40.4882 25.5118 40.9101 26.5196 40.7929C26.6251 40.7812 26.7188 40.7461 26.7891 40.6992C27.293 41.3086 27.9962 41.7304 28.8399 41.8359C29.6368 41.9414 30.3985 41.6953 31.0313 41.25C32.1563 41.707 33.3399 41.8242 34.5587 41.9297C35.8712 42.0351 37.1719 42.2812 38.4727 42.457C40.8282 42.7851 43.2891 42.7383 45.6446 42.3281C46.7227 42.1406 47.7774 41.8359 48.7852 41.4023C49.5938 41.0507 50.461 40.6172 51.1524 40.0312C50.5079 41.3672 48.7735 42.2695 47.5196 42.8086C46.6172 43.1953 45.668 43.5234 44.7071 43.7226C42.9258 44.0742 40.9805 43.957 39.1758 43.8398C37.3594 43.7226 35.5547 43.5234 33.7383 43.4414C31.8751 43.3593 30.0118 43.3593 28.1485 43.3242C24.7501 43.2539 21.4219 42.8554 18.0821 42.2226C15.0469 41.6484 11.8829 40.8281 9.43365 38.8359C8.19147 37.8281 6.85553 36.6797 6.12897 35.2148C5.88287 34.7226 5.81256 34.4179 5.76568 33.9257C5.74225 33.7382 5.73053 33.539 5.74225 33.3515C5.74225 33.3281 5.75397 33.2929 5.75397 33.2695C5.78912 33.2695 5.836 33.2578 5.87115 33.2461C6.23443 33.5508 6.65631 33.7851 7.03131 33.9843ZM6.31647 31.8867C6.64459 31.8515 6.97272 31.7578 7.28912 31.5937C7.94537 31.2656 8.84772 30.3281 9.49225 30.8789C9.98443 31.289 10.0313 32.2734 10.0782 32.8945C10.1016 33.2226 10.1133 33.5507 10.1133 33.8789C9.44537 33.6093 8.76568 33.375 8.10943 33.082C7.6524 32.8593 6.57428 32.4609 6.31647 31.8867ZM15.4571 36.2578C15.504 35.8125 15.5508 35.3789 15.7266 34.9687C15.9962 34.3359 16.4297 33.8086 16.9922 33.4336C18.2696 32.6015 18.5977 34.3125 18.8672 35.1797C19.1837 36.1992 19.8282 37.2187 21.0118 37.2539C22.1602 37.289 22.9219 36.1406 23.5782 35.3672C23.7891 35.1211 24.1876 34.5937 24.5743 34.7461C24.9844 34.9101 25.1602 35.6133 25.2891 35.9883C25.6641 37.1133 25.7227 38.2968 26.0977 39.4218C26.1094 39.457 26.1212 39.4804 26.1329 39.5156C25.3477 39.5156 24.5274 39.1758 23.754 39.082C22.7813 38.9648 21.8321 38.8125 20.8946 38.5195C19.043 37.957 17.1915 37.2656 15.5157 36.2812C15.4922 36.2812 15.4805 36.2695 15.4571 36.2578ZM49.8868 39.3632C48.2579 40.4414 46.3712 40.9804 44.4493 41.2148C42.3165 41.4726 40.1837 41.4257 38.0626 41.1093C36.9844 40.9453 35.9063 40.7695 34.8165 40.6758C33.8907 40.6054 32.9649 40.5351 32.0743 40.2656C32.1446 40.1718 32.2032 40.0898 32.2618 39.9961C32.9297 38.9765 33.1055 37.5937 33.961 36.7148C34.3712 36.2929 35.1563 36.1992 35.7071 36.1875C36.3751 36.1757 36.961 36.5273 37.418 36.9726C37.8751 37.4179 38.1212 38.0625 38.4258 38.625C38.6954 39.1289 39.0235 39.5976 39.4454 39.9961C40.3712 40.8515 41.6485 40.6992 42.7383 40.289C44.0274 39.7968 44.9883 38.4609 46.4532 38.4257C46.8399 38.414 47.2618 38.5664 47.6368 38.6367C48.0118 38.707 48.3751 38.7304 48.7501 38.7539C49.5235 38.789 50.2618 38.5664 50.9063 38.1328C51.0469 38.039 51.1758 37.9453 51.293 37.8398C50.9532 38.4492 50.4844 38.9648 49.8868 39.3632ZM51.6329 34.9687C51.5508 35.0625 51.4922 35.1797 51.4922 35.3086C51.2227 35.9297 50.8712 36.5039 50.3321 36.9609C49.1954 37.9218 47.8243 37.1953 46.5352 37.1367C45.0704 37.0781 43.9688 38.0742 42.8087 38.8008C41.8126 39.4218 40.6993 39.6211 39.9493 38.6015C39.1641 37.5351 38.8477 36.2812 37.6758 35.5078C36.5391 34.7578 35.086 34.7461 33.8555 35.2851C32.6602 35.8007 32.2383 37.0078 31.793 38.1211C31.3126 39.2929 30.4219 40.7578 28.9454 40.5586C27.5743 40.3711 27.2227 38.8593 27.0235 37.7226C26.8243 36.5859 26.6133 35.4609 26.0508 34.4531C25.4766 33.4101 24.2227 33.1523 23.2735 33.8789C22.8516 34.207 22.5235 34.6406 22.1954 35.0507C21.9141 35.3906 21.5391 35.9297 21.0469 35.9765C20.1915 36.0468 19.9454 34.1601 19.7462 33.6328C19.3008 32.4023 18.3282 31.7226 17.004 32.039C15.7618 32.3437 14.754 33.7148 14.4141 34.8867C14.0743 36.0468 14.4376 38.1328 12.9844 38.6367C12.4688 38.8125 11.9297 38.3789 11.6368 38.0039C11.3555 37.6406 11.3555 37.4883 11.3438 37.0312C11.3087 36.164 11.3907 35.2851 11.4024 34.4179C11.4493 32.8593 11.543 30.5507 9.98443 29.6367C9.04693 29.0859 8.01568 29.5898 7.21881 30.1289C6.79693 30.4101 6.31647 30.8203 5.81256 30.5508C5.43756 30.3515 5.42584 29.5898 5.4024 29.2382C5.36725 28.6875 5.42584 28.1367 5.48443 27.5859C5.50787 27.3515 5.54303 27.1172 5.56647 26.8945C5.57818 26.789 5.5899 26.6953 5.5899 26.5898C5.5899 26.8125 5.60162 26.5547 5.60162 26.5078C5.67193 25.8515 5.80084 25.1953 5.94147 24.5507C5.97662 24.5976 6.01178 24.6445 6.04693 24.6914C6.29303 25.0078 6.67975 25.1484 6.97272 25.4062C7.07818 25.4882 7.18365 25.5468 7.28912 25.5586C7.34772 25.6054 7.42975 25.6406 7.51178 25.6757C14.8243 27.8789 22.2305 29.7539 29.6485 31.5351C33.2696 32.4023 36.9258 33.1289 40.4532 34.3359C42.0821 34.8867 43.6993 35.4375 45.3985 35.7187C46.9102 35.9648 48.3868 35.8711 49.8751 35.5195C50.543 35.3672 51.1876 35.1211 51.7383 34.7695C51.6797 34.8281 51.6563 34.8984 51.6329 34.9687ZM52.1485 32.3789C51.8321 33.7617 49.9337 34.2304 48.7501 34.4179C47.1329 34.6875 45.586 34.5 44.004 34.1015C42.3165 33.6797 40.6993 33.0468 39.0469 32.5195C37.2891 31.957 35.461 31.5937 33.668 31.1601C24.9844 29.1093 16.3243 26.9765 7.76959 24.3984C7.26569 23.9765 6.64459 23.7773 6.76178 22.9804C6.85553 22.3242 7.42975 21.75 7.86334 21.2929C8.85943 20.2617 10.1133 19.4765 11.3438 18.7617C14.1212 17.1562 17.0743 15.8203 19.9219 14.3437C21.3751 13.582 22.8165 12.7382 24.3633 12.164C25.3712 11.789 26.4024 11.6484 27.4571 11.6718C27.4571 11.6836 27.4571 11.707 27.4688 11.7187C27.7735 13.5703 28.629 15.3984 29.754 17.0039C29.5313 17.0859 29.2969 17.1562 29.0391 17.2031C27.5391 17.5429 26.1329 17.8476 25.6641 19.5234C25.2891 20.8593 25.9454 22.2304 27.129 22.7461C29.461 26.0039 34.4649 25.8281 37.6055 23.9062C39.2344 22.9101 40.4649 21.2226 40.5821 19.2773C40.5938 19.1601 40.5938 19.0547 40.5938 18.9375C42.7032 20.8125 44.8829 22.6054 46.9454 24.5273C48.1758 25.6757 49.3594 26.8828 50.4141 28.1836C51.3399 29.332 52.5001 30.8437 52.1485 32.3789Z" fill="black"/>
<path d="M18.8086 43.957C17.9766 43.957 18.0821 45.2461 18.9024 45.2461C19.7461 45.2461 19.6407 43.957 18.8086 43.957ZM13.8867 46.2891V46.3828C13.8867 47.2148 15.1758 47.1094 15.1758 46.2891V46.1953C15.1758 45.3633 13.8867 45.4687 13.8867 46.2891ZM14.2383 43.0195C13.4063 43.0195 13.5117 44.3086 14.3321 44.3086C15.1758 44.3086 15.0703 43.0195 14.2383 43.0195ZM10.2657 43.7695C10.1367 43.6523 9.96097 43.5937 9.78518 43.6055C9.6094 43.6172 9.46878 43.6992 9.35159 43.8281L9.2344 43.9453C8.98831 44.1914 9.0469 44.6367 9.293 44.8594C9.4219 44.9766 9.59768 45.0352 9.77347 45.0234C9.94925 45.0117 10.0899 44.9297 10.2071 44.8008L10.3242 44.6836C10.5703 44.4258 10.5117 43.9922 10.2657 43.7695ZM37.4414 46.2422C37.3477 46.1602 37.2422 46.1016 37.1133 46.0781C37.0313 46.0664 36.9492 46.0664 36.8672 46.0664C36.7032 46.0664 36.5391 46.1719 36.4336 46.2891C36.3164 46.418 36.2578 46.5938 36.2696 46.7695C36.2813 46.9336 36.3633 47.0977 36.4922 47.2031C36.5039 47.2148 36.5157 47.2148 36.5274 47.2266C36.5508 47.2617 36.586 47.2969 36.6094 47.3203C36.7383 47.4375 36.9141 47.4961 37.0899 47.4844C37.2539 47.4727 37.418 47.3906 37.5235 47.2617C37.6407 47.1211 37.6875 46.9688 37.6875 46.7813C37.6758 46.582 37.5938 46.3711 37.4414 46.2422ZM40.8516 49.5117C40.7227 49.3945 40.5469 49.3359 40.3711 49.3477C40.2071 49.3594 40.043 49.4414 39.9375 49.5703C39.8203 49.7109 39.7735 49.8633 39.7735 50.0508V50.168C39.7735 50.332 39.8789 50.4961 39.9961 50.6016C40.125 50.7187 40.3008 50.7773 40.4766 50.7656C40.6407 50.7539 40.8047 50.6719 40.9102 50.543C41.0274 50.4023 41.0742 50.25 41.0742 50.0625V49.9453C41.0742 49.7813 40.9688 49.6172 40.8516 49.5117ZM45.3047 47.5195C45.1758 47.4023 45 47.3437 44.8242 47.3555C44.6602 47.3672 44.4961 47.4492 44.3907 47.5781C44.2735 47.7187 44.2266 47.8711 44.2266 48.0586V48.1758C44.2266 48.3398 44.3321 48.5039 44.4492 48.6094C44.5782 48.7266 44.7539 48.7852 44.9297 48.7734C45.0938 48.7617 45.2578 48.6797 45.3633 48.5508C45.4805 48.4102 45.5274 48.2578 45.5274 48.0703V47.9531C45.5274 47.7891 45.4219 47.625 45.3047 47.5195ZM47.168 44.8945C46.336 44.8945 46.4414 46.1836 47.2617 46.1836C48.1055 46.1836 48 44.8945 47.168 44.8945ZM28.8985 45.7617C28.8867 45.75 28.875 45.75 28.8633 45.7383C28.8399 45.7031 28.8047 45.668 28.7813 45.6445C28.6524 45.5273 28.4766 45.4687 28.3008 45.4805C28.1367 45.4922 27.9727 45.5742 27.8672 45.7031C27.75 45.8437 27.7032 45.9961 27.7032 46.1836C27.7032 46.3828 27.7735 46.5938 27.9375 46.7227C28.0313 46.8047 28.1367 46.8633 28.2657 46.8867C28.3477 46.8984 28.4297 46.8984 28.5117 46.8984C28.6758 46.8984 28.8399 46.793 28.9453 46.6758C29.0625 46.5469 29.1211 46.3711 29.1094 46.1953C29.0977 46.0313 29.0274 45.8672 28.8985 45.7617ZM21.3867 45.9492C20.5547 45.9492 20.6602 47.2383 21.4805 47.2383C22.3242 47.2383 22.2188 45.9492 21.3867 45.9492ZM42.2578 45.4102C42.1289 45.293 41.9532 45.2344 41.7774 45.2461C41.6016 45.2578 41.461 45.3398 41.3438 45.4687L41.2266 45.5859C40.9805 45.832 41.0391 46.2773 41.2852 46.5C41.4141 46.6172 41.5899 46.6758 41.7657 46.6641C41.9414 46.6523 42.0821 46.5703 42.1993 46.4414L42.3164 46.3242C42.5625 46.0664 42.5039 45.6328 42.2578 45.4102ZM45.293 49.8164C44.461 49.8164 44.5664 51.1055 45.3867 51.1055C46.2305 51.1055 46.125 49.8164 45.293 49.8164ZM40.5 46.8164C40.3594 46.6992 40.2071 46.6523 40.0196 46.6523H39.9024C39.7383 46.6523 39.5742 46.7578 39.4688 46.875C39.3516 47.0039 39.293 47.1797 39.3047 47.3555C39.3164 47.5195 39.3985 47.6836 39.5274 47.7891C39.668 47.9062 39.8203 47.9531 40.0078 47.9531H40.125C40.2891 47.9531 40.4532 47.8477 40.5586 47.7305C40.6758 47.6016 40.7344 47.4258 40.7227 47.25C40.6992 47.0859 40.6289 46.9219 40.5 46.8164Z" fill="black"/>
</svg>
