<svg width="60" height="60" viewBox="0 0 60 60" fill="none" xmlns="http://www.w3.org/2000/svg">
<path d="M38.06 8.92999C35.915 6.55749 33.7975 5.99124 30.6113 5.71999C27.3438 5.44249 23.8213 6.63874 21.995 9.36249C19.9863 12.3562 20.2838 16.52 18.0713 19.3662C17.05 20.6787 15.5975 21.5687 14.235 22.5225C11.8588 24.1862 9.67375 26.1212 7.73625 28.28C6.9725 29.1312 6.23 30.0475 5.89375 31.14C5.61625 32.04 5.63375 33.005 5.745 33.94C6.3225 38.7675 9.27 42.9337 12.1238 46.8687C13.62 48.9325 15.4188 51.5437 17.7725 52.5225C22.5438 54.5062 27.6563 50.3937 32.8113 50.7562C34.6188 50.8825 36.355 51.5062 38.1513 51.7437C40.4675 52.05 42.905 51.6812 44.9213 50.5C46.9375 49.3187 48.4888 47.2875 48.8825 44.985C49.2013 43.1225 48.7825 41.155 49.3475 39.3512C49.9125 37.5487 51.3625 36.1925 52.4563 34.6525C54.3288 32.0125 55.8388 28.265 55.45 25.0525C55.23 23.2375 53.975 21.8887 53.3363 20.1762C52.675 18.4012 51.9525 16.6312 50.89 15.0637C48.8288 12.0225 45.3938 9.32874 41.72 9.37499C40.0988 9.39499 39.0588 10.0337 38.06 8.92999Z" fill="#D6E5E5"/>
<path d="M20.6088 53.69C19.5775 53.69 18.5488 53.5225 17.5313 53.1C15.135 52.105 13.3138 49.5837 11.85 47.5575L11.6175 47.2375C8.99754 43.6225 5.73504 39.1262 5.12379 34.015C4.97754 32.7862 5.03129 31.8137 5.29504 30.9562C5.68254 29.7 6.51879 28.7 7.27129 27.8625C9.24004 25.67 11.4625 23.7012 13.8763 22.01L14.4938 21.5825C15.6638 20.78 16.7688 20.0225 17.5775 18.9812C18.6538 17.5987 19.0963 15.865 19.5638 14.0287C20.0025 12.31 20.455 10.5337 21.4763 9.01374C23.2863 6.31374 26.8863 4.77624 30.665 5.09624C34.0188 5.38124 36.2638 6.00874 38.525 8.50874C38.9963 9.02999 39.4075 8.99999 40.375 8.86749C40.7788 8.81249 41.22 8.75374 41.7125 8.74749C41.7463 8.74749 41.7813 8.74749 41.8163 8.74749C45.905 8.74749 49.4475 11.8175 51.4088 14.7112C52.5538 16.4 53.3075 18.3037 53.9225 19.955C54.1538 20.5737 54.4713 21.1412 54.8075 21.7437C55.3563 22.7262 55.9238 23.7412 56.0725 24.975C56.5038 28.54 54.7525 32.4975 52.9688 35.0112C52.6463 35.4662 52.2925 35.9075 51.9388 36.3462C51.1038 37.385 50.3138 38.3662 49.9475 39.5362C49.6525 40.4775 49.6513 41.4862 49.65 42.5537C49.6488 43.3825 49.6475 44.2387 49.5013 45.0875C49.09 47.49 47.4963 49.7137 45.24 51.0375C43.2013 52.2312 40.6563 52.7012 38.0725 52.3625C37.2575 52.2537 36.455 52.07 35.68 51.8925C34.6813 51.6625 33.7375 51.4462 32.77 51.3787C30.6813 51.235 28.515 51.8875 26.4213 52.5187C24.5063 53.0987 22.5525 53.69 20.6088 53.69ZM29.6713 6.30499C26.6813 6.30499 23.9363 7.59124 22.5138 9.71124C21.6138 11.0525 21.2063 12.65 20.775 14.3387C20.2963 16.2175 19.8 18.1612 18.5638 19.7487C17.635 20.9437 16.3975 21.7937 15.2 22.615L14.5925 23.0337C12.2563 24.6712 10.1063 26.5762 8.20129 28.6975C7.53754 29.4375 6.80254 30.31 6.49004 31.325C6.27879 32.01 6.23879 32.8175 6.36504 33.8662C6.93754 38.655 9.96129 42.825 12.6288 46.5025L12.8638 46.8275C14.235 48.725 15.9425 51.0862 18.0113 51.9462C20.535 52.9975 23.2163 52.1837 26.055 51.325C28.2563 50.66 30.53 49.9775 32.8538 50.1337C33.9188 50.21 34.9538 50.4462 35.955 50.6762C36.7025 50.8487 37.475 51.025 38.2325 51.125C40.5413 51.4337 42.805 51.0162 44.6038 49.9612C46.5475 48.8237 47.9163 46.9225 48.2663 44.8812C48.3938 44.135 48.395 43.3675 48.3963 42.5562C48.3975 41.4412 48.4 40.2887 48.7513 39.1662C49.1875 37.7725 50.0888 36.65 50.9613 35.5662C51.3 35.1462 51.6375 34.7262 51.9463 34.2912C53.595 31.9662 55.2175 28.3387 54.8288 25.1287C54.7088 24.1387 54.2263 23.2725 53.7138 22.3562C53.37 21.74 53.0138 21.1025 52.75 20.395C52.1588 18.81 51.4388 16.9887 50.3713 15.415C48.5775 12.7675 45.3513 9.96999 41.7263 9.99999C41.29 10.0062 40.8988 10.06 40.5413 10.1087C39.55 10.24 38.5288 10.3812 37.5975 9.35124V9.34999C35.6038 7.14499 33.6638 6.60749 30.5588 6.34374C30.26 6.31874 29.965 6.30499 29.6713 6.30499Z" fill="black"/>
<path d="M39.9625 21.755C39.4013 20.865 37.185 19.9563 36.1425 19.7913C34.5 19.53 32.8238 19.3213 31.1775 19.555C29.5313 19.79 27.895 20.5188 26.8838 21.8338C25.9888 22.9975 25.66 24.5163 25.7063 25.9813C25.7525 27.4463 26.1475 28.875 26.5775 30.2763C26.765 30.8888 26.9675 31.51 27.35 32.025C27.895 32.7575 28.7513 33.1938 29.6075 33.5163C31.1863 34.11 32.8775 34.4025 34.5638 34.3738C35.8575 34.3525 37.1925 34.125 38.2638 33.4025C38.8538 33.0038 39.34 32.4688 39.7525 31.89C42.1538 28.5163 42.8338 24.7388 39.9625 21.755Z" fill="#FEBF10"/>
<path d="M34.3413 35C32.6651 35 30.9576 34.69 29.3901 34.1C28.6313 33.815 27.5426 33.3288 26.8501 32.3975C26.4213 31.8213 26.2026 31.1775 25.9826 30.4588C25.5738 29.13 25.1338 27.5788 25.0838 26C25.0276 24.2375 25.4913 22.6225 26.3901 21.4525C27.4201 20.115 29.0888 19.2213 31.0913 18.935C32.8688 18.68 34.6826 18.925 36.2426 19.1725C37.2926 19.3388 39.6951 20.2563 40.455 21.3625C43.2013 24.2538 43.1338 28.2188 40.2651 32.25C39.7538 32.9688 39.2151 33.515 38.6163 33.9188C37.5838 34.6175 36.2626 34.97 34.5776 34.9963C34.4976 34.9988 34.4188 35 34.3413 35ZM32.6863 20.0788C32.2101 20.0788 31.7351 20.105 31.2663 20.1725C29.6138 20.4075 28.1963 21.1513 27.3801 22.2138C26.6563 23.155 26.2851 24.485 26.3313 25.96C26.3776 27.3838 26.7738 28.7825 27.1763 30.0925C27.3626 30.6975 27.5413 31.2338 27.8526 31.65C28.2363 32.165 28.8451 32.5613 29.8301 32.93C31.3251 33.4925 32.9651 33.7788 34.5563 33.7463C35.9913 33.7225 37.0901 33.4413 37.9163 32.8825C38.3888 32.5638 38.8238 32.1213 39.2451 31.525C40.7151 29.4613 42.7038 25.5025 39.5126 22.1875L39.4338 22.0875C39.0213 21.4325 37.0188 20.5613 36.0463 20.4075C35.0038 20.2425 33.8451 20.0788 32.6863 20.0788Z" fill="black"/>
</svg>
