<svg width="48" height="48" viewBox="0 0 48 48" fill="none" xmlns="http://www.w3.org/2000/svg">
<path d="M31.7344 27.6094C28.6969 27.7031 25.6688 27.975 22.6406 28.1719C19.5844 28.3688 16.5281 28.5 13.4625 28.5188C12.7219 28.5188 11.9625 28.4719 11.2219 28.5188C10.9125 28.5375 10.6031 28.6031 10.2938 28.6219C10.2844 28.6219 10.2656 28.6219 10.2563 28.6219C10.2938 28.875 10.3313 29.1281 10.3781 29.3813C10.6125 29.325 10.8656 29.4094 10.9594 29.7C11.0438 29.9625 11.4375 30.15 11.6719 30.2719C12.0563 30.4781 12.45 30.6563 12.8438 30.825C13.1719 30.9656 13.5094 31.0969 13.8281 31.2469C14.1 31.3781 14.5219 31.3969 14.8313 31.4438C15.1313 31.4906 15.4219 31.5375 15.7219 31.575C18.2344 31.875 20.8313 31.8563 23.3625 31.7344C25.9406 31.6125 28.5375 31.2938 31.0125 30.5156C33.3281 29.7844 35.5125 28.7813 37.6781 27.6938C37.8563 27.6094 38.0063 27.6281 38.1188 27.7125C38.1375 27.6 38.1844 27.4969 38.2781 27.4031C36.1031 27.4781 33.9188 27.5438 31.7344 27.6094Z" fill="#D6E5E5"/>
<path d="M38.025 28.6781C35.6625 29.8594 33.2531 30.9844 30.7031 31.6875C28.1156 32.4 25.4344 32.7188 22.7438 32.7938C20.0063 32.8781 17.1656 32.9344 14.4563 32.4375C13.4906 32.2594 12.6187 31.8844 11.7375 31.4625C11.4281 31.3125 11.0625 31.1438 10.7344 30.9281C11.5313 33.8063 13.0594 36.4781 15.6188 38.1C15.5531 37.9406 15.5625 37.7531 15.7125 37.5938C16.3031 36.9188 17.475 36.8719 18.3 36.8156C19.4344 36.7313 20.5781 36.75 21.7125 36.7313C24.9375 36.675 28.1719 35.8313 31.3875 36.4969C32.0344 36.6281 31.8469 37.6406 31.1906 37.5094C28.125 36.8813 25.0406 37.6969 21.975 37.7625C20.8875 37.7813 19.7906 37.7625 18.7031 37.8281C18.2063 37.8563 17.7094 37.8938 17.2219 37.9875C16.95 38.0438 16.5937 38.1563 16.4906 38.2781C16.4062 38.3813 16.3031 38.4281 16.2 38.4469C16.2281 38.4563 16.2469 38.475 16.275 38.4844C20.3438 40.65 25.5469 40.4344 29.7 38.6156C31.8563 37.6688 33.8344 36.2531 35.3063 34.4063C36.6656 32.7 37.5094 30.6844 38.1281 28.6031C38.0906 28.6313 38.0625 28.6594 38.025 28.6781Z" fill="#D6E5E5"/>
<path d="M43.8187 17.9531C42.9656 15.7594 41.7375 13.6969 40.2469 11.8687C37.2469 8.18436 33.0375 5.20311 28.2844 4.38749C23.1656 3.49686 17.7375 5.35311 13.6125 8.37186C11.4937 9.91874 9.59062 11.8219 8.27812 14.1094C7.52812 15.4125 6.94687 16.7812 6.47812 18.1969C5.9625 19.1344 5.59687 20.1656 5.31562 21.1875C5.04375 22.1719 4.85625 23.1937 4.7625 24.2156C4.74375 24.3 4.71562 24.3937 4.6875 24.4781C4.66875 24.5344 4.65 24.5812 4.62187 24.6187C4.56562 25.1156 4.52812 25.6125 4.52812 26.1281C4.51875 27.8062 4.71562 29.4937 5.11875 31.1156C6.14062 35.2594 8.31562 39.3562 11.775 41.9625C13.8094 43.4906 16.2187 44.2687 18.7219 44.5594C21.4687 44.8875 24.3094 44.7844 27.0375 44.4C29.7469 44.0156 32.4844 43.3406 34.9219 42.0656C37.1062 40.9219 38.9062 39.3469 40.4062 37.3875C43.1812 33.75 44.85 29.1469 44.9156 24.5625C44.9531 22.3219 44.6344 20.0625 43.8187 17.9531ZM29.1 20.025C29.4562 18.2812 31.2187 17.5875 32.8406 17.8594C34.2656 18.0937 35.8875 19.125 35.5406 20.7844C35.4094 21.4312 34.3969 21.2437 34.5281 20.5875C34.7437 19.5375 33.4781 18.9937 32.6344 18.8719C31.575 18.7219 30.3469 19.0406 30.0937 20.2219C29.9719 20.8781 28.9594 20.6812 29.1 20.025ZM13.35 20.775C13.6406 19.3781 15.2812 18.4312 16.6312 18.3C18.2719 18.1406 19.5094 19.2094 20.475 20.4C20.8969 20.9156 20.0344 21.4875 19.6219 20.9812C18.9375 20.1375 17.9156 19.1156 16.7156 19.3312C15.8437 19.4906 14.5687 19.9969 14.3719 20.9812C14.2219 21.6281 13.2094 21.4312 13.35 20.775ZM39.4969 27.3844C39.4969 27.4312 39.4969 27.4875 39.4875 27.5437C38.7281 30.5719 37.5844 33.6562 35.3531 35.925C33.3562 37.95 30.9375 39.4594 28.2 40.275C23.9531 41.55 18.7687 41.4469 14.9719 38.9156C11.4656 36.5719 9.77812 32.6719 9.20625 28.6125C9.19687 28.5281 9.19687 28.4531 9.225 28.3875C8.98125 28.125 9.12187 27.7219 9.3375 27.4781C9.61875 27.1687 10.0312 27.3187 10.1812 27.6C10.3125 27.5906 10.4344 27.5812 10.5562 27.5625C10.95 27.5156 11.325 27.4969 11.7281 27.4969C13.2 27.4969 14.6625 27.4969 16.1344 27.4594C19.0031 27.3937 21.8812 27.2062 24.7406 27C27.5906 26.7937 30.45 26.5687 33.3094 26.5594C35.3062 26.5594 37.3031 26.3812 39.3094 26.3719C39.9375 26.3625 40.0406 27.2719 39.4969 27.3844Z" fill="#FEBF10"/>
<path d="M44.9906 18.3937C44.2781 16.1906 43.1063 14.1094 41.7469 12.2437C38.9344 8.39062 34.9688 5.29687 30.3844 3.89999C25.4813 2.39999 20.2781 3.50624 15.8344 5.84999C12.9094 7.38749 10.2188 9.59999 8.29688 12.3C7.15313 13.9125 6.31875 15.7031 5.68125 17.5594C5.65313 17.5875 5.61563 17.625 5.5875 17.6625C5.48438 17.8219 5.39063 17.9906 5.29688 18.1687C5.025 18.6656 4.84688 19.2375 4.66875 19.7625C4.6125 19.9312 4.50938 20.175 4.44375 20.4375C4.40625 20.4937 4.37813 20.55 4.35938 20.6344C4.11563 21.825 3.81563 23.0062 3.675 24.2156C3.55313 25.2562 3.53438 26.2969 3.58125 27.3469C3.68438 29.5125 4.15313 31.6781 4.875 33.7219C6.29063 37.725 8.86875 41.475 12.5625 43.6687C14.8313 45.0187 17.55 45.525 20.1563 45.675C22.9125 45.8344 25.6969 45.6562 28.4063 45.1781C31.0594 44.7094 33.6563 43.9031 36.0188 42.5812C38.1188 41.4094 39.8438 39.7406 41.2875 37.8281C43.5469 34.8187 45.0188 31.2469 45.6 27.5344V20.9156C45.4688 20.0625 45.2625 19.2187 44.9906 18.3937ZM44.9156 24.5719C44.85 29.1562 43.1719 33.7594 40.4063 37.3969C38.9156 39.3562 37.1063 40.9312 34.9219 42.075C32.4844 43.35 29.7469 44.025 27.0375 44.4094C24.3094 44.7937 21.4594 44.8875 18.7219 44.5687C16.2094 44.2687 13.8 43.5 11.775 41.9719C8.30625 39.3656 6.13125 35.2687 5.11875 31.125C4.71563 29.4937 4.52813 27.8156 4.52813 26.1375C4.52813 25.6312 4.56563 25.125 4.62188 24.6281C4.65 24.5906 4.66875 24.5437 4.6875 24.4875C4.71563 24.4031 4.74375 24.3094 4.7625 24.225C4.85625 23.2031 5.04375 22.1812 5.31563 21.1969C5.59688 20.175 5.9625 19.1437 6.47813 18.2062C6.94688 16.7906 7.52813 15.4219 8.27813 14.1187C9.59063 11.8406 11.4938 9.92812 13.6125 8.38124C17.7375 5.36249 23.1656 3.50624 28.2844 4.39687C33.0281 5.22187 37.2469 8.20312 40.2469 11.8781C41.7375 13.7062 42.9656 15.7687 43.8188 17.9625C44.6344 20.0625 44.9531 22.3219 44.9156 24.5719Z" fill="#010101"/>
<path d="M20.4656 20.4C19.5 19.2094 18.2625 18.1407 16.6219 18.3C15.2812 18.4313 13.6312 19.3782 13.3406 20.775C13.2094 21.4219 14.2219 21.6188 14.3531 20.9719C14.5594 19.9969 15.825 19.4813 16.6969 19.3219C17.8969 19.1063 18.9187 20.1282 19.6031 20.9719C20.025 21.4875 20.8875 20.9157 20.4656 20.4ZM32.8406 17.8594C31.2187 17.5875 29.4562 18.2813 29.1 20.025C28.9687 20.6719 29.9812 20.8688 30.1125 20.2219C30.3562 19.0407 31.5844 18.7219 32.6531 18.8719C33.4969 18.9938 34.7625 19.5469 34.5469 20.5875C34.4156 21.2344 35.4281 21.4313 35.5594 20.7844C35.8875 19.1344 34.2656 18.0938 32.8406 17.8594ZM39.3094 26.3625C37.3125 26.3719 35.3156 26.55 33.3094 26.55C30.45 26.55 27.5906 26.775 24.7406 26.9907C21.8719 27.1969 19.0031 27.3844 16.1344 27.45C14.6719 27.4875 13.2 27.4875 11.7281 27.4875C11.325 27.4875 10.95 27.5063 10.5562 27.5532C10.4344 27.5719 10.3031 27.5813 10.1812 27.5907C10.0219 27.3094 9.61875 27.1594 9.3375 27.4688C9.12187 27.7032 8.98125 28.1063 9.225 28.3782C9.20625 28.4438 9.19687 28.5188 9.20625 28.6032C9.77812 32.6719 11.4562 36.5625 14.9719 38.9063C18.7687 41.4375 23.9531 41.5407 28.2 40.2657C30.9375 39.45 33.3469 37.9407 35.3531 35.9157C37.5844 33.6563 38.7187 30.5625 39.4875 27.5344C39.4969 27.4782 39.5062 27.4219 39.4969 27.375C40.0406 27.2719 39.9375 26.3625 39.3094 26.3625ZM35.3062 34.4063C33.8344 36.2532 31.8562 37.6688 29.7 38.6157C25.5562 40.4344 20.3437 40.65 16.275 38.4844C16.2469 38.475 16.2281 38.4563 16.2 38.4469C16.3031 38.4282 16.3969 38.3813 16.4906 38.2782C16.5937 38.1563 16.95 38.0438 17.2219 37.9875C17.7094 37.8844 18.2062 37.8563 18.7031 37.8282C19.7906 37.7625 20.8875 37.7907 21.975 37.7625C25.05 37.6969 28.1344 36.8813 31.1906 37.5094C31.8469 37.6407 32.0344 36.6282 31.3875 36.4969C28.1719 35.8407 24.9375 36.675 21.7125 36.7313C20.5781 36.75 19.4344 36.7313 18.3 36.8157C17.475 36.8719 16.3031 36.9282 15.7125 37.5938C15.5719 37.7625 15.5531 37.95 15.6187 38.1C13.0594 36.4688 11.5312 33.8063 10.7344 30.9282C11.0531 31.1438 11.4281 31.3125 11.7375 31.4625C12.6187 31.8844 13.4906 32.2594 14.4562 32.4375C17.1656 32.9344 20.0062 32.8782 22.7437 32.7938C25.425 32.7094 28.1062 32.4 30.7031 31.6875C33.2531 30.9844 35.6625 29.8594 38.025 28.6782C38.0625 28.6594 38.1 28.6407 38.1281 28.6125C37.5094 30.6938 36.6656 32.7 35.3062 34.4063ZM38.1281 27.7219C38.0156 27.6375 37.8656 27.6094 37.6875 27.7032C35.5219 28.7813 33.3281 29.7938 31.0219 30.525C28.5469 31.3032 25.95 31.6219 23.3719 31.7438C20.8406 31.8657 18.2531 31.8938 15.7312 31.5844C15.4312 31.5469 15.1406 31.5 14.8406 31.4532C14.5406 31.4063 14.1187 31.3875 13.8375 31.2563C13.5187 31.0969 13.1812 30.975 12.8531 30.8344C12.4594 30.6657 12.0656 30.4875 11.6812 30.2813C11.4562 30.1594 11.0531 29.9719 10.9687 29.7094C10.875 29.4188 10.6219 29.3344 10.3875 29.3907C10.3406 29.1375 10.3031 28.8844 10.2656 28.6313C10.275 28.6313 10.2937 28.6313 10.3031 28.6313C10.6125 28.6032 10.9219 28.5469 11.2312 28.5282C11.9719 28.4719 12.7312 28.5282 13.4719 28.5282C16.5375 28.5188 19.5937 28.3875 22.65 28.1813C25.6781 27.9844 28.7062 27.7125 31.7437 27.6188C33.9281 27.5532 36.1031 27.4969 38.2875 27.4313C38.1844 27.5063 38.1375 27.6188 38.1281 27.7219Z" fill="#010101"/>
</svg>
