<svg width="92" height="92" viewBox="0 0 92 92" fill="none" xmlns="http://www.w3.org/2000/svg">
<path d="M34.2305 43.9695C33.7633 42.0469 33.2961 40.1242 32.8828 38.2016C30.6367 38.3094 28.3727 38.3633 26.1266 38.4352C24.1859 38.4891 22.2633 38.5609 20.3227 38.6688C20.3227 38.7047 20.3047 38.7406 20.2867 38.7945C20.2867 38.8305 20.2867 38.8844 20.2867 38.9203C20.3047 39.2078 20.3406 39.4774 20.3945 39.7649C20.5203 40.4836 20.7539 41.4 20.9875 42.2266C21.2391 43.1789 21.5266 44.1313 21.8141 45.0656C26.0727 45.2453 30.3313 45.443 34.5899 45.5688C34.4641 45.0297 34.3563 44.5086 34.2305 43.9695ZM37.0875 55.5594C35.668 55.5953 34.2664 55.6313 32.8469 55.6852C30.3852 55.757 27.9414 55.8289 25.4797 55.8649C25.6055 56.2063 25.7313 56.5297 25.857 56.8711C26.3961 58.2188 26.8453 59.6922 27.6539 60.7703C28.6242 60.7344 29.6125 60.7344 30.5828 60.7524C33.2781 60.7703 35.9914 60.7703 38.6688 60.8781C38.6867 60.8781 38.7047 60.8781 38.7227 60.8781C38.0938 59.1172 37.5727 57.3383 37.0875 55.5594ZM46.7008 55.182C44.1852 55.3258 41.6516 55.4156 39.118 55.4875C39.6031 57.2664 40.1602 59.0453 40.825 60.7524C40.8609 60.8242 40.8789 60.8961 40.8789 60.968C42.9274 61.1117 44.9758 61.3094 47.0063 61.525C47.1859 61.543 47.3477 61.5609 47.5274 61.5789C47.5274 61.5609 47.5274 61.543 47.5274 61.525V61.1656C47.5274 60.8961 47.5813 60.6445 47.7789 60.4289C47.9406 60.2313 48.1922 60.1234 48.4438 60.0875C48.7133 60.0695 48.9828 60.1594 49.1805 60.3391C49.2524 60.393 49.3063 60.4648 49.3602 60.5367C49.3961 58.6859 49.4859 56.8352 49.6477 54.9844C48.6414 55.0742 47.6711 55.1281 46.7008 55.182ZM35.65 50.2227C35.3984 49.3422 35.2008 48.4438 35.0031 47.5453C30.7984 47.4195 26.6117 47.2399 22.407 47.0602C22.6586 47.8508 22.9102 48.6234 23.1797 49.4141C23.6828 50.9234 24.2039 52.4328 24.743 53.9242C28.6781 53.8703 32.6313 53.7984 36.5664 53.6727C36.2789 52.5047 35.9734 51.3547 35.65 50.2227ZM66.1609 39.2617C65.9274 38.4711 65.4961 37.9141 64.9211 37.5367C64.8492 37.5008 64.7774 37.4649 64.7055 37.4109C63.3758 36.6563 61.4891 36.6922 59.9797 36.782C58.0391 36.8899 56.1164 37.0156 54.1758 37.0875C54.1758 37.375 54.05 37.6445 53.7445 37.8602C53.5828 37.968 53.3313 38.4711 53.2055 38.9024C52.9899 39.675 52.8461 40.4656 52.7383 41.2563C52.5586 42.6039 52.4688 43.9695 52.4328 45.3352C53.5109 45.2274 54.607 45.1016 55.6852 44.9399C56.943 44.7602 58.2008 44.5086 59.4586 44.257C60.5188 44.0414 61.7406 43.5922 62.8367 43.5742C63.3039 43.5742 63.7711 43.5203 64.2203 43.4664C64.2563 43.4664 64.3102 43.4484 64.3461 43.4484C64.4899 43.3047 64.7055 43.2149 64.975 43.2149C65.2984 43.2149 65.7117 43.1969 66.0172 43.3586C66.0352 43.2328 66.0531 43.125 66.0711 42.9992C66.2867 41.8133 66.5024 40.4477 66.1609 39.2617ZM43.5383 37.2313C42.0289 37.3211 40.5195 37.6086 39.0102 37.7703C37.6266 37.9141 36.243 38.0219 34.8594 38.0938C35.2727 40.0524 35.7758 41.993 36.243 43.9516C36.3688 44.5086 36.4945 45.0656 36.6203 45.6227C38.0578 45.6586 39.4953 45.6945 40.9508 45.7125C44.1313 45.7484 47.2938 45.7125 50.4563 45.4789C50.5102 43.6641 50.6 41.8492 50.9055 40.0703C51.0672 39.1359 51.2648 37.9859 51.8039 37.0875C49.0547 37.1055 46.2875 37.0695 43.5383 37.2313ZM63.268 45.5328C62.2617 45.5867 61.2555 45.8922 60.2672 46.0899C59.1352 46.3234 58.0031 46.557 56.8711 46.7367C55.3797 46.9703 53.8703 47.15 52.3789 47.2938C52.3789 47.725 52.3609 48.1383 52.3609 48.5695C52.3609 49.8813 52.0016 51.2469 51.8399 52.5586C51.8219 52.6664 51.8219 52.7563 51.8039 52.8641C54.2656 52.7024 56.7273 52.5586 59.1891 52.5945C60.5188 52.6125 61.8844 52.6305 63.1961 52.882C63.5734 52.9539 63.9867 53.0438 64.382 53.2055C64.6336 51.7859 64.8672 50.3484 65.0648 48.9109C65.2445 47.6891 65.4602 46.4852 65.6578 45.2813C64.9391 45.5328 63.9328 45.4969 63.268 45.5328ZM63.8609 55.182C63.8609 55.1641 63.843 55.1461 63.843 55.1461C63.7891 55.1102 63.6992 55.0563 63.6633 55.0383C62.9805 54.7328 61.7047 54.625 60.7523 54.5891C59.1711 54.5172 57.5899 54.5531 56.0086 54.625C54.5352 54.6789 53.0617 54.7688 51.5883 54.8766C51.3906 57.1586 51.2828 59.4586 51.2648 61.7406C51.2648 61.7945 51.2649 61.8484 51.2469 61.9024C52.6484 61.9922 54.05 62.0281 55.4695 61.9563C57.6078 61.8664 59.7461 61.6688 61.9024 61.5969C61.9203 61.525 61.9383 61.4531 61.9742 61.3813C62.8727 59.4406 63.4656 57.4102 63.9328 55.3258C63.9328 55.2719 63.8969 55.2359 63.8609 55.182ZM41.7953 47.6891C40.2141 47.6711 38.6328 47.6352 37.0336 47.5992C37.1953 48.3359 37.375 49.0906 37.5906 49.8273C37.932 51.0672 38.2555 52.325 38.5969 53.5828C42.1727 53.457 45.7305 53.2774 49.3063 53.0258C49.4859 53.0078 49.6477 53.0078 49.8273 52.9899C49.8633 52.7203 49.8813 52.4508 49.9172 52.1813C50.0789 50.9055 50.4024 49.6117 50.4024 48.3359C50.4024 48.0484 50.4024 47.743 50.4024 47.4555C47.5453 47.6531 44.6883 47.725 41.7953 47.6891Z" fill="#14B6B9"/>
<path d="M80.4102 20.6281C77.643 19.9273 74.6242 19.8195 71.8211 20.3766C64.5617 21.7961 66.2508 30.5469 66.3766 36.0992C66.6641 36.3328 66.9336 36.6023 67.1852 36.9078C69.3773 39.7469 67.832 43.9875 67.3469 47.1141C66.5922 52.0016 66.0172 56.9789 64.0766 61.5609C64.3641 61.6148 64.6516 61.7586 64.8133 62.0102C65.6039 61.9383 66.5922 62.5492 67.275 62.8547C67.6883 63.0344 68.3891 63.3398 68.7844 62.9445C69.1617 62.5672 69.4133 62.118 69.6109 61.6148C70.7609 58.7039 70.5453 55.3617 70.8149 52.2891C71.2281 47.3656 71.1922 42.4781 71.1922 37.5547C71.1922 33.6914 71.2281 28.8578 75.0555 26.7375C78.0742 25.0664 81.632 24.9227 85.0281 24.9047C85.0281 24.8867 85.0281 24.8867 85.0281 24.8687C85.1 22.3351 82.5305 21.1492 80.4102 20.6281Z" fill="#BCBCBC"/>
<path d="M67.275 68.1375C66.5203 66.125 63.9149 65.3523 61.9563 65.3703C60.968 65.3883 59.8539 65.5141 59.0453 66.0351C58.3086 66.5023 58.0211 66.9875 58.1289 67.85C58.2008 68.407 57.8414 68.7484 57.4102 68.8562C57.482 69.557 57.6977 70.2398 58.0391 70.8508C59.2609 72.9531 61.7945 74.5164 64.2742 73.9953C65.4242 73.7617 66.3406 72.9172 66.8078 71.875C67.311 70.7969 67.7242 69.2875 67.275 68.1375Z" fill="#D6E5E5"/>
<path d="M56.35 63.8969C53.9062 64.0227 51.5164 63.9328 49.0906 63.6992C46.5211 63.4656 43.9516 63.1422 41.382 62.9625C38.9562 62.7828 36.5484 62.8008 34.1227 62.7469C29.8102 62.675 25.5695 62.7828 21.293 63.2141C20.2148 63.3219 18.5617 63.4656 17.807 64.3461C16.8906 65.4063 18.0406 66.8617 19.2445 66.9336C19.3344 66.9336 19.4062 66.9516 19.4961 66.9695C20.5383 65.0649 23.2156 64.2563 25.5516 64.4359C28.0133 64.6156 30.8164 65.7297 32.1461 67.9219C32.2359 68.0656 32.3078 68.2094 32.3797 68.3531C40.0703 68.3531 47.743 68.0297 55.4336 67.9938C55.4336 67.7781 55.4516 67.5625 55.4695 67.3469C55.5055 66.8258 55.8648 66.5922 56.2601 66.5742C56.6734 65.0109 58.1289 64.0945 59.7641 63.6813C58.6141 63.7711 57.482 63.843 56.35 63.8969Z" fill="#BCBCBC"/>
<path d="M18.8133 41.6695C18.6516 40.9687 18.2203 39.7648 18.2922 38.7945C15.0398 39.0281 11.7875 39.4055 8.58906 40.1062C8.51718 40.1242 8.44531 40.1242 8.3914 40.1242C8.49922 40.3039 8.55312 40.5375 8.51718 40.7891C8.51718 40.825 8.49922 40.825 8.49922 40.825C8.49922 40.843 8.51718 40.8789 8.51718 40.9508C8.51718 40.9148 8.57109 41.2383 8.55312 41.1484C8.64297 41.4719 8.73281 41.7953 8.85859 42.1008C9.14609 42.8555 9.4875 43.5922 9.84687 44.3109C10.0805 44.7781 10.3141 45.2453 10.5656 45.6945C10.4758 45.1734 10.7453 44.6164 11.4281 44.6344C14.1953 44.7242 16.9445 44.832 19.7117 44.9578C19.3883 43.8797 19.0828 42.7836 18.8133 41.6695ZM21.0234 49.1625C20.7898 48.4258 20.5562 47.707 20.3227 46.9703C17.4117 46.8445 14.5008 46.7187 11.5898 46.6289C11.3203 46.6289 11.1047 46.5211 10.943 46.3773C11.4641 47.3297 12.0031 48.282 12.5602 49.2164C13.4945 50.8156 14.5367 52.3969 15.525 53.9961C17.3758 53.9961 19.2266 53.9781 21.0773 53.9602C21.6164 53.9602 22.1555 53.9422 22.6945 53.9422C22.0836 52.343 21.5445 50.7617 21.0234 49.1625ZM23.8805 57.2125C23.7008 56.7812 23.5391 56.332 23.3773 55.9008C21.1312 55.9367 18.8852 55.9547 16.6391 55.9727C17.6094 57.7336 18.4359 59.5484 18.8852 61.4891C18.9031 61.543 18.9031 61.5969 18.9031 61.6508C19.4422 61.507 19.9992 61.3992 20.5383 61.3273C21.2031 61.2375 21.8859 61.2914 22.5328 61.2016C23.4672 61.0578 24.4195 60.968 25.3719 60.8961C24.7789 59.7281 24.3297 58.3625 23.8805 57.2125Z" fill="#14B6B9"/>
<path d="M30.5649 69.1797C29.3789 67.2031 26.7555 66.3047 24.5453 66.3945C22.425 66.4844 20.6461 67.3648 21.1133 69.6469C21.257 70.3117 20.7539 70.6711 20.2148 70.6531C20.9516 73.5641 23.9883 75.307 27.0609 74.8758C28.4086 74.6961 29.9719 74.0852 30.6188 72.7734C31.1398 71.7133 31.1938 70.2219 30.5649 69.1797Z" fill="#D6E5E5"/>
<path d="M74.9836 18.0766C72.2703 18.1125 69.3055 18.5437 67.2031 20.4125C64.4898 22.8562 64.1305 26.7734 64.1484 30.1875C64.1664 31.8406 64.2922 33.4758 64.3641 35.1289C62.693 34.6617 60.7703 34.7336 59.1531 34.8414C56.4578 35.0211 53.7984 35.1289 51.1031 35.1469C48.2281 35.1469 45.1914 34.9492 42.3344 35.3805C30.9242 37.1234 19.2625 35.8117 7.92422 38.2555C7.16954 38.4172 7.11563 39.1539 7.45704 39.657C7.04376 39.657 6.64844 39.8906 6.5586 40.4297C6.36094 41.7234 7.07969 43.125 7.60079 44.257C8.44532 46.0898 9.45157 47.8508 10.4578 49.6117C11.3203 51.1211 12.2008 52.6305 13.1172 54.1039C14.7164 56.6375 16.3156 59.225 17.0164 62.1539C17.0344 62.2438 17.0703 62.3336 17.1063 62.4055C16.8188 62.6031 16.5313 62.8188 16.2977 63.0703C15.7406 63.6453 15.6328 64.3461 15.507 65.0828C15.2375 66.6102 16.5852 68.2273 18.0586 68.7305C18.0227 69.1617 18.0406 69.593 18.0406 70.0063C18.0406 71.9469 19.3883 73.9953 20.8438 75.1453C23.4852 77.2477 27.4023 77.4813 30.3133 75.8102C32.2719 74.6781 33.1523 72.468 32.9188 70.3477C40.5016 70.3297 48.0664 70.0242 55.6313 69.9883C56.1344 71.9648 57.3922 73.6539 59.225 74.8219C61.4352 76.2594 64.5438 76.5648 66.7539 74.9836C68.9461 73.4203 70.0781 69.7367 69.0359 67.2211C68.6227 66.2328 67.9039 65.4422 67.0414 64.8492C67.7781 65.0828 68.5508 65.1367 69.3234 64.8852C70.6711 64.4359 71.3359 62.7648 71.7312 61.5609C72.7016 58.5781 72.5039 55.3438 72.8094 52.2531C73.3125 47.2039 73.1867 42.1547 73.1867 37.0875C73.1867 34.9492 73.2227 32.6492 74.0133 30.6367C74.6781 28.9836 76.3312 28.1031 77.9484 27.6C80.5 26.7914 83.3031 26.8273 85.9625 26.8273C86.4117 26.8273 86.7531 26.432 86.8609 26.0367C88.4062 19.4781 79.6195 18.0047 74.9836 18.0766ZM52.7383 41.2383C52.8461 40.4477 52.9898 39.657 53.2055 38.8844C53.3313 38.4531 53.6008 37.95 53.7445 37.8422C54.05 37.6445 54.1758 37.357 54.1758 37.0695C56.1164 36.9977 58.0391 36.8719 59.9797 36.7641C61.4891 36.6922 63.3758 36.6383 64.7055 37.393C64.7773 37.4469 64.8492 37.4828 64.9211 37.5188C65.4961 37.8961 65.9453 38.4531 66.1609 39.2437C66.5023 40.4297 66.2867 41.7953 66.0891 42.9812C66.0711 43.107 66.0531 43.2148 66.0352 43.3406C65.7297 43.1789 65.3164 43.2148 64.993 43.1969C64.7055 43.1969 64.5078 43.2867 64.3641 43.4305C64.3281 43.4305 64.2742 43.4484 64.2383 43.4484C63.7711 43.5023 63.3039 43.5383 62.8547 43.5562C61.7766 43.5742 60.5547 44.0234 59.4766 44.2391C58.2188 44.4906 56.9789 44.7242 55.7031 44.9219C54.625 45.0836 53.5289 45.2094 52.4508 45.3172C52.4687 43.9516 52.5586 42.5859 52.7383 41.2383ZM51.8578 52.5586C52.0195 51.2469 52.3789 49.8812 52.3789 48.5695C52.3789 48.1383 52.3789 47.725 52.3969 47.2938C53.8883 47.15 55.3977 46.9703 56.8891 46.7367C58.0211 46.557 59.1531 46.3055 60.2852 46.0898C61.2734 45.8922 62.2797 45.5867 63.2859 45.5328C63.9508 45.4969 64.957 45.5328 65.6937 45.2633C65.4781 46.4672 65.2805 47.6711 65.1008 48.893C64.8852 50.3305 64.6695 51.75 64.418 53.1875C64.0227 53.0258 63.6094 52.9359 63.232 52.8641C61.9203 52.6125 60.5547 52.5945 59.225 52.5766C56.7633 52.5586 54.3016 52.6844 51.8398 52.8461C51.8398 52.7563 51.8398 52.6664 51.8578 52.5586ZM63.9688 55.3258C63.5016 57.3922 62.8906 59.4406 62.0102 61.3813C61.9742 61.4531 61.9563 61.525 61.9383 61.5969C59.8 61.6867 57.6617 61.8664 55.5055 61.9562C54.0859 62.0102 52.6844 61.9742 51.2828 61.9023C51.2828 61.8484 51.3008 61.7945 51.3008 61.7406C51.3008 59.4406 51.4086 57.1586 51.6242 54.8766C53.0977 54.7867 54.5711 54.6789 56.0445 54.625C57.6258 54.5531 59.207 54.5352 60.7883 54.5891C61.7406 54.625 63.0164 54.7328 63.6992 55.0383C63.7352 55.0562 63.825 55.1102 63.8789 55.1461C63.8789 55.1641 63.8969 55.1641 63.8969 55.182C63.8969 55.2359 63.9328 55.2719 63.9688 55.3258ZM39.0102 37.7703C40.5195 37.6266 42.0289 37.3211 43.5383 37.2313C46.2875 37.0695 49.0367 37.1055 51.7859 37.0875C51.2469 37.968 51.0492 39.1359 50.8875 40.0703C50.582 41.8492 50.4922 43.682 50.4383 45.4789C47.2758 45.6945 44.1133 45.7484 40.9328 45.7125C39.4953 45.6945 38.0578 45.6586 36.6023 45.6227C36.4766 45.0656 36.3508 44.5086 36.225 43.9516C35.7578 41.993 35.2547 40.0523 34.8414 38.0938C36.243 38.0219 37.6266 37.9141 39.0102 37.7703ZM47.5273 61.5789C47.3477 61.5609 47.1859 61.543 47.0063 61.525C44.9578 61.3094 42.9273 61.1117 40.8789 60.968C40.8609 60.8961 40.843 60.8242 40.825 60.7523C40.1422 59.0273 39.6031 57.2664 39.118 55.4875C41.6516 55.4156 44.1852 55.3258 46.7008 55.182C47.6711 55.1281 48.6594 55.0563 49.6297 55.0023C49.468 56.8531 49.3781 58.7039 49.3422 60.5547C49.2883 60.4828 49.2344 60.4109 49.1625 60.357C48.9648 60.1773 48.6953 60.0875 48.4258 60.1055C48.1742 60.1234 47.9227 60.2492 47.7609 60.4469C47.5812 60.6625 47.5094 60.8961 47.5094 61.1836V61.543C47.5273 61.543 47.5273 61.5609 47.5273 61.5789ZM49.3062 53.0258C45.7484 53.2773 42.1727 53.457 38.5969 53.5828C38.2734 52.325 37.95 51.0672 37.5906 49.8273C37.393 49.0906 37.2133 48.3539 37.0336 47.5992C38.6148 47.6352 40.1961 47.6711 41.7953 47.6891C44.6703 47.725 47.5453 47.6531 50.4023 47.4555C50.4023 47.743 50.4023 48.0484 50.4023 48.3359C50.4023 49.6117 50.0789 50.9055 49.9172 52.1813C49.8812 52.4508 49.8453 52.7203 49.8273 52.9898C49.6477 53.0078 49.468 53.0258 49.3062 53.0258ZM32.8469 55.6672C34.2484 55.6312 35.668 55.5953 37.0875 55.5414C37.5727 57.3383 38.0938 59.1172 38.7406 60.8422C38.7227 60.8422 38.7047 60.8422 38.6867 60.8422C35.9914 60.7344 33.2961 60.7523 30.6008 60.7164C29.6305 60.7164 28.6422 60.7164 27.6719 60.7344C26.8453 59.6562 26.4141 58.1828 25.875 56.8352C25.7492 56.5117 25.6234 56.1703 25.4977 55.8289C27.9414 55.8109 30.4031 55.7391 32.8469 55.6672ZM24.7609 53.9062C24.2219 52.4148 23.7008 50.9055 23.1977 49.3961C22.9281 48.6234 22.6766 47.8328 22.425 47.0422C26.6117 47.2219 30.8164 47.4016 35.0211 47.5273C35.2188 48.4258 35.4164 49.3242 35.668 50.2047C35.9914 51.3367 36.2969 52.4867 36.5844 53.6367C32.6313 53.7805 28.6961 53.8523 24.7609 53.9062ZM20.2867 38.7945C20.3047 38.7406 20.3047 38.7047 20.3227 38.6688C22.2633 38.5609 24.1859 38.4891 26.1266 38.4352C28.3906 38.3633 30.6367 38.3094 32.8828 38.2016C33.2781 40.1422 33.7633 42.0469 34.2305 43.9695C34.3563 44.5086 34.482 45.0297 34.5898 45.5688C30.3313 45.443 26.0727 45.2453 21.8141 45.0656C21.5266 44.1133 21.257 43.1789 20.9875 42.2266C20.7539 41.4 20.5383 40.4836 20.3945 39.7648C20.3406 39.4953 20.3047 39.2078 20.2867 38.9203C20.2867 38.8844 20.2867 38.8484 20.2867 38.7945ZM10.5656 45.7125C10.3141 45.2453 10.0805 44.7961 9.84688 44.3289C9.48751 43.6102 9.1461 42.8734 8.8586 42.1187C8.73282 41.8133 8.64297 41.4898 8.55313 41.1664C8.5711 41.2742 8.51719 40.9508 8.51719 40.9688C8.49922 40.8789 8.49922 40.843 8.49922 40.843C8.49922 40.843 8.49922 40.843 8.51719 40.807C8.55313 40.5375 8.49922 40.3219 8.39141 40.1422C8.46329 40.1422 8.51719 40.1242 8.58907 40.1242C11.7875 39.4414 15.0398 39.0461 18.2922 38.8125C18.2203 39.7828 18.6336 40.9867 18.8133 41.6875C19.0828 42.8016 19.3883 43.8977 19.7117 44.9937C16.9445 44.868 14.1953 44.7602 11.4281 44.6703C10.7453 44.6344 10.4758 45.1914 10.5656 45.7125ZM12.5422 49.2164C12.0031 48.282 11.4461 47.3297 10.925 46.3773C11.0867 46.5211 11.3023 46.6109 11.5719 46.6289C14.4828 46.7188 17.3938 46.8445 20.3047 46.9703C20.5383 47.707 20.7719 48.4258 21.0055 49.1625C21.5266 50.7617 22.0836 52.3609 22.6406 53.9422C22.1016 53.9422 21.5625 53.9602 21.0234 53.9602C19.1727 53.9781 17.3219 53.9961 15.4711 53.9961C14.5188 52.3789 13.4586 50.7977 12.5422 49.2164ZM16.657 55.9727C18.9031 55.9727 21.1492 55.9367 23.3953 55.9008C23.557 56.35 23.7188 56.7812 23.8984 57.2125C24.3477 58.3625 24.7789 59.7102 25.4078 60.8781C24.4555 60.95 23.5211 61.0398 22.5688 61.1836C21.9219 61.2734 21.2391 61.2375 20.5742 61.3094C20.0172 61.3813 19.4781 61.4891 18.9391 61.6328C18.9391 61.5789 18.9211 61.525 18.9211 61.4711C18.4359 59.5484 17.6273 57.7336 16.657 55.9727ZM30.6188 72.7914C29.9719 74.1031 28.4086 74.6961 27.0609 74.8938C23.9883 75.325 20.9516 73.5641 20.2148 70.6711C20.7539 70.6711 21.257 70.3297 21.1133 69.6649C20.6461 67.4008 22.425 66.5023 24.5453 66.4125C26.7734 66.3227 29.3789 67.2031 30.5648 69.1977C31.1938 70.2219 31.1398 71.7133 30.6188 72.7914ZM56.2422 66.5922C55.8469 66.6102 55.5055 66.8438 55.4516 67.3648C55.4336 67.5805 55.4156 67.7961 55.4156 68.0117C47.725 68.0477 40.0523 68.3531 32.3617 68.3711C32.2898 68.2273 32.218 68.0836 32.1281 67.9398C30.7984 65.7297 27.9953 64.6336 25.5336 64.4539C23.1977 64.2742 20.5203 65.0828 19.4781 66.9875C19.4063 66.9695 19.3164 66.9516 19.2266 66.9516C18.0227 66.8797 16.8727 65.4242 17.7891 64.3641C18.5438 63.4836 20.1969 63.3398 21.275 63.232C25.5516 62.8188 29.8102 62.693 34.1047 62.7648C36.5305 62.8008 38.9562 62.8008 41.3641 62.9805C43.9336 63.1781 46.5031 63.4836 49.0727 63.7172C51.4984 63.9508 53.9062 64.0227 56.332 63.9148C57.4641 63.8609 58.5961 63.7891 59.7281 63.7172C58.1109 64.1125 56.6375 65.0289 56.2422 66.5922ZM67.275 68.1375C67.7242 69.3055 67.3109 70.7969 66.8258 71.875C66.3406 72.9172 65.4242 73.7617 64.2922 73.9953C61.8125 74.5164 59.2789 72.9352 58.057 70.8508C57.7156 70.2578 57.5 69.557 57.4281 68.8563C57.8594 68.7664 58.2008 68.425 58.1469 67.85C58.057 67.0055 58.3445 66.5023 59.0633 66.0352C59.8719 65.5141 61.0039 65.3883 61.9742 65.3703C63.9328 65.3523 66.5203 66.125 67.275 68.1375ZM85.0641 24.8867C81.668 24.9047 78.1102 25.0484 75.0914 26.7195C71.2641 28.8398 71.2102 33.6734 71.2281 37.5367C71.2281 42.4781 71.2641 47.3477 70.8508 52.2711C70.5992 55.3438 70.7969 58.6859 69.6469 61.5969C69.4492 62.1 69.1977 62.5492 68.8203 62.9266C68.425 63.3219 67.7242 63.0164 67.3109 62.8367C66.6281 62.5492 65.6398 61.9383 64.8492 61.9922C64.6875 61.7406 64.4 61.5789 64.1125 61.543C66.0531 56.9609 66.6281 51.9836 67.3828 47.0961C67.868 43.9695 69.4133 39.7289 67.2211 36.8898C66.9875 36.5844 66.718 36.3148 66.4125 36.0813C66.2867 30.5289 64.5977 21.7781 71.857 20.3586C74.6602 19.8016 77.6789 19.9273 80.4461 20.6102C82.5664 21.1492 85.118 22.3172 85.1 24.8508C85.0641 24.8687 85.0641 24.8867 85.0641 24.8867Z" fill="black"/>
<path d="M45.8383 24.8508C45.1375 21.868 42.532 20.3047 39.675 20.682C39.3875 19.0828 39.136 17.4836 38.9742 15.8844C38.9024 15.1297 38.7945 14.2313 38.9024 13.3867C39.8906 13.3508 40.9867 13.4586 41.7594 14.0516C42.7656 14.8242 44.0774 13.3508 43.0711 12.5602C42.0289 11.7695 40.7891 11.4281 39.4953 11.3922C39.4235 10.6195 38.1297 10.1883 37.5727 11.0688C37.4828 11.2305 37.393 11.3922 37.3211 11.5539C36.4945 11.6977 35.668 11.9133 34.9313 12.1649C34.7695 12.2188 34.5899 12.2906 34.4281 12.3445C34.4281 12.3266 34.4281 12.3086 34.4281 12.2906C34.4281 12.2367 34.4461 12.2008 34.4461 12.1649C34.8594 11.8055 35.0031 11.1766 34.4281 10.7813C32.775 9.64923 32.4516 11.6258 32.4156 13.3149C30.5828 14.393 29.0375 15.9203 28.3906 17.9688C27.9234 19.4781 28.3547 21.0953 29.0735 22.443C29.8281 23.8805 31.3195 24.5094 32.8828 24.5094C32.9367 24.5094 33.0086 24.5094 33.0625 24.5094C32.9906 26.0547 32.9367 27.6 32.9727 29.1453C32.9727 29.361 32.9906 29.5586 32.9906 29.7922C32.7031 29.7203 32.4156 29.6305 32.1281 29.5406C31.9844 29.1633 31.6609 28.8578 31.1578 28.8578H30.0797C29.1094 28.8578 28.8399 30.3492 29.7203 30.7266C30.8164 31.1938 31.9844 31.607 33.1883 31.9125C33.332 32.6852 33.5836 33.4039 34.0149 33.9969C34.7695 35.0211 36.4227 33.907 35.65 32.8828C35.5242 32.7211 35.4164 32.5235 35.3445 32.3258C36.5305 32.4875 37.7164 32.5594 38.8844 32.4875C38.9024 32.5594 38.9203 32.6133 38.9383 32.6852C39.2438 33.8352 40.9149 33.332 40.843 32.2539C41.1305 32.2 41.4 32.1281 41.6875 32.0563C44.9399 31.1758 46.593 28.0672 45.8383 24.8508ZM30.9242 21.6524C29.2531 19.3703 30.6367 17.1242 32.5055 15.6508C32.6492 17.9328 33.1164 20.2328 33.1344 22.5149C32.2899 22.5688 31.4813 22.407 30.9242 21.6524ZM34.7516 18.7414C34.6078 17.3578 34.482 15.9922 34.4281 14.6086C34.4281 14.5727 34.4281 14.5188 34.4281 14.4828C35.2188 14.1055 36.0633 13.836 36.9078 13.6383C36.8899 14.2313 36.9078 14.8063 36.9438 15.3453C37.0516 17.1961 37.375 19.0289 37.6985 20.8617C37.7164 20.9516 37.7344 21.0594 37.7524 21.1492C36.8719 21.4367 36.0094 21.7781 35.1289 22.0656C35.111 20.9695 34.8774 19.8375 34.7516 18.7414ZM36.9258 30.457C36.2789 30.4031 35.65 30.3313 35.0031 30.2235C34.9852 29.8641 34.9852 29.5227 34.9672 29.1992C34.8953 27.5281 34.9672 25.8391 35.0391 24.168C35.8836 23.9344 36.7102 23.611 37.5188 23.3414C37.6985 23.2695 37.8961 23.2156 38.0758 23.1438C38.2016 24.0602 38.3094 24.9766 38.3453 25.9289C38.3992 27.4563 38.3992 29.0016 38.561 30.5289C38.0039 30.5289 37.4469 30.493 36.9258 30.457ZM42.7836 29.3789C42.1367 29.882 41.3461 30.1875 40.5016 30.3492C40.3219 28.8399 40.3578 27.2766 40.3219 25.7852C40.286 24.725 40.1602 23.6649 39.9985 22.6227C40.5016 22.5508 41.0227 22.5508 41.5438 22.6586C44.3289 23.2875 44.886 27.7078 42.7836 29.3789Z" fill="black"/>
</svg>
