<svg width="60" height="60" viewBox="0 0 60 60" fill="none" xmlns="http://www.w3.org/2000/svg">
<path d="M43.957 40.4414C43.5703 39.5977 43.3359 38.6484 42.7734 37.9219C42.3164 38.1445 41.8477 38.3789 41.4258 38.6602C41.9648 39.2578 42.3633 39.9844 42.5977 40.793C42.6328 40.8984 42.6328 40.9922 42.6211 41.0859C43.0195 41.0273 43.4062 40.9688 43.8047 40.9102C43.8164 40.9102 43.8281 40.9102 43.8398 40.9102C43.8398 40.7578 43.8867 40.6172 43.9805 40.5C43.9687 40.4766 43.957 40.4531 43.957 40.4414ZM30.2109 40.6406C28.3477 39.082 24.9023 40.4883 24.082 42.6328C26.0156 42.5742 27.9375 42.4805 29.8594 42.3633C29.8359 41.7305 29.9648 41.1562 30.2109 40.6406ZM48.7383 38.3555C48.0352 38.2031 47.6016 38.5781 47.2031 39.1172C46.875 39.5625 46.5586 40.0664 46.1953 40.5C47.1563 40.3242 48.1289 40.1719 49.1016 40.0898C49.5234 40.0547 49.9453 40.0312 50.3789 39.9961C50.0977 39.3047 49.4883 38.5078 48.7383 38.3555ZM29.5312 38.9062C30.0352 39.0469 30.5039 39.2695 30.9258 39.5859C31.2656 39.2227 31.6523 38.9063 32.0859 38.625C31.2656 38.0391 29.9883 37.7812 29.5312 38.9062Z" fill="#EF4823"/>
<path d="M52.3242 43.9688C48.2344 45.293 43.9453 46.0312 39.668 46.3828C36 46.6875 32.3203 46.7344 28.6406 46.7695C24.8906 46.8047 21.1406 46.9805 17.3906 47.0859C15.6211 47.1328 13.8516 47.1563 12.082 47.0742C12.3398 47.2617 12.5977 47.4492 12.832 47.6719C13.5703 48.3516 14.1563 49.1484 14.8008 49.9102C15.2695 50.4609 15.8203 50.9766 16.5 51.2461C17.25 51.5391 18.1172 51.6328 18.9141 51.668C20.6719 51.75 22.4414 51.6563 24.1992 51.5742C28.0195 51.4102 31.8398 51.0117 35.6484 50.6133C39.4219 50.2148 43.0898 49.4531 46.8047 48.7266C48.1406 48.4687 49.8867 48.3164 50.8945 47.2734C51.7734 46.3711 52.0898 45.1055 52.5117 43.9219C52.4414 43.9336 52.3828 43.9453 52.3242 43.9688Z" fill="#74CCCF"/>
<path d="M41.3789 41.2266C41.0391 40.043 40.3125 39.0586 39.1289 38.6367C38.0274 38.2383 36.7969 38.3789 35.6719 38.6016C34.4297 38.8477 32.7305 39.457 31.8047 40.5234C32.0039 40.9336 31.6758 41.332 31.2891 41.4023C31.1953 41.6719 31.1367 41.9766 31.1485 42.293C33.4805 42.1289 35.8008 41.9297 38.1211 41.6719C39.2109 41.5547 40.3008 41.4141 41.3906 41.2734C41.3906 41.2383 41.3789 41.2383 41.3789 41.2266Z" fill="#EF4823"/>
<path d="M56.2617 38.6719C56.0039 39.0937 55.6523 39.4687 55.2656 39.7852C53.5781 41.1445 51.2695 41.1914 49.207 41.3672C46.6641 41.5898 44.1563 42.1875 41.625 42.5273C39.0703 42.8789 36.5039 43.1484 33.9258 43.3594C30.1406 43.6758 26.3555 43.8633 22.5703 43.9687C18.832 44.0742 15.0586 44.0977 11.332 43.8633C10.2305 43.793 9.09375 43.7812 8.00391 43.5703C7.23047 43.418 6.35156 43.1836 5.71875 42.668C5.80078 43.2539 6.14063 43.8633 6.50391 44.3086C7.19531 45.1641 8.29687 45.4687 9.33984 45.5977C12.2578 45.9609 15.2695 45.8672 18.2109 45.7617C21.9492 45.6328 25.6758 45.5039 29.4258 45.4687C33.1055 45.4336 36.7969 45.3633 40.4531 45.0117C44.0508 44.6602 47.5664 44.0039 51.0469 43.0078C52.4883 42.5977 53.8359 42.0703 54.9258 41.0039C55.418 40.5234 56.3438 39.5039 56.2617 38.6719Z" fill="#74CCCF"/>
<path d="M57.1992 26.1445C57.0352 25.8047 56.9414 25.4648 56.9414 25.0898C56.9297 24.4219 56.9414 23.8711 56.3789 23.4258C55.8516 23.0039 55.3594 22.6406 54.6563 22.6875C53.4258 22.7695 51.8555 23.1328 50.8828 22.1133C50.543 21.7617 50.4727 20.9297 49.9805 20.7539C49.4766 20.5781 48.7031 21.1289 48.3281 21.4219C47.4024 22.1367 46.0664 23.2031 45.0586 21.9492C44.8008 21.6328 44.4375 20.4844 43.9219 20.5195C43.418 20.5664 43.0196 21.2344 42.7383 21.5977C42.3985 22.0547 42.0117 22.7695 41.4024 22.9102C40.9102 23.0273 40.4649 22.9336 40.0664 22.5937C39.4102 22.043 38.6719 20.4258 37.5938 20.9531C36.9492 21.2695 37.3594 22.0312 37.6289 22.4648C37.9453 22.9922 38.2149 23.4844 38.3672 24.0586C38.7774 24.1875 39.1875 24.3281 39.586 24.4805C40.9102 25.0078 42.2344 25.6289 43.4414 26.4023C43.6758 25.5586 43.6875 24.6914 43.6875 23.8125C43.6875 22.9805 44.9766 22.8867 44.9766 23.7187C44.9766 24.9141 44.918 26.0508 44.543 27.1758C45.4219 27.8555 46.207 28.6406 46.8633 29.5664C47.1797 29.6836 47.4844 29.7539 47.7891 29.7422C47.8008 29.6953 47.8008 29.6602 47.8008 29.6133C47.8477 29.0273 48.4336 28.2891 48.7735 27.832C49.1133 27.375 49.2539 26.7422 49.5235 26.2383C49.793 25.7344 50.0977 25.2539 50.5313 24.8555C51.1406 24.3047 52.1133 25.1484 51.5039 25.7109C50.7305 26.4141 50.4727 27.4102 49.9922 28.2891C50.2149 28.0547 50.4375 27.8086 50.6602 27.5508C51.211 26.8945 51.7617 26.2852 52.4883 25.793C53.1445 25.3477 53.836 24.9727 54.5391 24.6211C54.9258 24.4219 55.3242 24.5273 55.5117 24.9375C56.0508 26.1914 56.0742 27.5977 55.6992 28.9336C55.711 28.9219 55.7227 28.9102 55.7227 28.8984C55.9922 28.5469 56.4024 28.2656 56.7539 28.0195C57.0586 27.8203 57.586 27.5625 57.7149 27.1875C57.7969 26.9414 57.3164 26.3906 57.1992 26.1445ZM48.7969 24.7969C48.0703 25.793 47.4727 27.1758 47.5547 28.418C47.6016 29.25 46.3242 29.3438 46.2656 28.5117C46.1602 26.9063 46.8985 25.207 47.836 23.9297C48.3164 23.2734 49.2891 24.1289 48.7969 24.7969Z" fill="#3AB37C"/>
<path d="M9.66797 41.168C9.33985 40.7578 9.02344 40.3477 8.73047 39.9258C8.75391 39.8672 8.75391 39.7852 8.70704 39.7148C8.41407 39.2695 8.08594 38.8711 7.72266 38.4961C7.11328 38.5664 6.69141 39.2578 6.55078 39.9375C6.64453 40.0078 6.73828 40.0898 6.83203 40.1719C6.77344 40.2187 6.72656 40.2773 6.67969 40.3242C6.63281 40.2656 6.57422 40.207 6.52735 40.1484C6.45703 40.7695 6.63281 41.3086 7.16016 41.2969C7.69922 41.2852 7.92188 41.8125 7.80469 42.1992H7.81641C8.625 42.3984 9.4336 42.4219 10.2539 42.4922C10.6406 42.5273 11.0273 42.5508 11.4258 42.5742C10.7227 42.1992 10.1602 41.7656 9.66797 41.168Z" fill="#EF4823"/>
<path d="M54.75 37.8867C54.6328 38.0391 54.7383 37.9219 54.7383 37.8281C54.7383 37.7461 54.7383 37.6523 54.7266 37.5703C54.7031 37.3477 54.6797 37.1133 54.6328 36.8906C54.5273 36.4219 54.3867 35.9648 54.1289 35.5547C53.4961 34.5703 52.5469 33.8906 51.6445 33.1758C51.3398 32.9297 51.3516 32.3555 51.7148 32.1563C53.7656 31.043 55.0781 28.4063 54.5156 26.0977C53.8945 26.4258 53.2852 26.7774 52.7461 27.2227C51.9961 27.832 51.457 28.6758 50.7773 29.3555C50.2148 29.9297 49.5937 30.5156 48.8437 30.832C48.8086 30.9141 48.7617 30.9961 48.7031 31.0664C48.457 31.3359 47.9531 31.3711 47.7188 31.0547C47.2148 31.043 46.7227 30.9024 46.2539 30.7149C46.207 30.7031 46.1602 30.6797 46.1133 30.6563C45.9609 30.5742 45.8789 30.4688 45.832 30.3399C44.1445 27.9492 41.2383 26.2969 38.4727 25.4649C32.3203 23.6133 25.2891 23.8242 19.2422 25.9688C16.1602 27.0586 13.1016 28.8047 10.8047 31.1484C10.1602 31.793 9.5625 32.4961 9.01172 33.2227C8.69531 33.6445 8.37891 34.0899 8.15625 34.582C8.08594 34.7461 8.00391 34.8984 7.98047 35.0742C7.96875 35.1445 8.01563 35.3203 7.96875 35.2383C8.13281 35.5078 8.07422 35.7773 7.92188 35.9766C8.19141 36.5742 8.48438 37.1602 8.82422 37.7227C9.16406 38.2969 9.59766 38.7891 9.97266 39.3398C10.3594 39.9258 10.7695 40.5469 11.332 40.9922C11.4844 41.1211 11.6484 41.2148 11.8242 41.3203C11.8945 41.3555 11.9531 41.4023 12.0234 41.4375C12.3516 41.4141 12.7031 41.5898 12.7734 42C12.832 42.3164 12.7266 42.5156 12.5508 42.6328C13.5234 42.6797 14.5078 42.7031 15.4922 42.7031C17.2383 42.7148 18.9961 42.7148 20.7422 42.6914C20.7188 42.5391 20.7656 42.3633 20.9062 42.2109C21.4687 41.5898 21.4922 40.3125 21.5625 39.5273C21.668 38.4492 21.6914 37.3594 21.6797 36.2813C21.6797 35.3906 21.668 34.4883 21.5742 33.5977C21.4922 32.8594 21.3398 32.1445 21.2344 31.4063C21.1406 30.7969 21.082 30.1875 20.9414 29.5899C20.8359 29.1211 20.7187 28.5117 20.3789 28.1367C19.8164 27.5274 20.6602 26.5547 21.2344 27.1641C22.1367 28.1484 22.2773 29.6133 22.4531 30.8789C22.5703 31.6758 22.7461 32.4727 22.8398 33.2813C22.9453 34.2422 22.9687 35.2148 22.9687 36.1875C22.9687 37.4414 22.9453 38.6836 22.8164 39.9258C22.7227 40.793 22.6289 41.8828 22.1602 42.6797C22.418 42.6797 22.6875 42.668 22.9453 42.6562C22.8633 42.5039 22.8516 42.3164 22.9219 42.1289C23.6602 40.043 26.0391 38.707 28.2773 38.7305C28.6172 37.7344 29.3203 36.9023 30.4453 36.832C31.4648 36.7617 32.4375 37.1719 33.1875 37.8281C33.2461 37.8867 33.293 37.9453 33.3281 38.0039C34.0781 37.6758 34.875 37.4531 35.6016 37.3125C37.0547 37.043 38.6133 36.9375 39.9844 37.582C40.1367 37.6523 40.2891 37.7344 40.4297 37.8281C40.4414 37.8164 40.4648 37.793 40.4883 37.7813C41.1797 37.2539 41.9766 36.9141 42.75 36.5391C42.9492 36.4453 43.2422 36.5156 43.3945 36.668C44.3437 37.5586 44.5664 38.7773 45.1289 39.8672C45.4336 39.5625 45.6797 39.1289 45.8789 38.8359C46.3008 38.2266 46.7461 37.5586 47.4492 37.2422C49.2656 36.4336 51.0352 38.0156 51.668 39.6328C51.7031 39.7148 51.7148 39.7852 51.7148 39.8555C52.418 39.75 53.1094 39.5742 53.7539 39.2695C54.0352 39.1406 54.4102 38.8945 54.7266 38.6016C54.5625 38.3789 54.5625 38.1211 54.75 37.8867ZM15.4688 36C14.2031 36.0703 12.5977 35.3555 12.5156 33.9141C12.4688 33.082 13.7578 32.9883 13.8047 33.8203C13.8398 34.5234 14.9297 34.8164 15.5039 34.7109C16.2539 34.5703 16.2656 33.4688 16.2773 32.8711C16.2891 32.0391 17.5664 31.9453 17.5664 32.7774C17.543 34.1367 17.168 35.9063 15.4688 36ZM36.1523 30.4453C35.8242 31.6172 34.5938 33.2695 33.2344 33.2109C33.0117 33.4453 32.5898 33.5156 32.3086 33.293C31.9688 33.1641 31.8164 32.7891 31.875 32.4844C31.6055 31.8984 31.3008 31.3359 30.8789 30.8438C30.2812 30.1524 29.4844 29.5781 28.6992 29.1211C28.0078 28.7227 27.3281 28.3477 26.625 27.9961C26.2031 27.7852 25.6992 27.5742 25.3828 27.2109C25.2656 27.0703 25.2422 26.8945 25.2891 26.7305C25.1016 26.5195 25.0547 26.2031 25.3242 25.9453C26.4492 24.8789 28.1016 24.5391 29.6016 24.5625C31.1367 24.586 32.7773 24.8438 34.0898 25.6875C35.5547 26.6016 36.6445 28.6992 36.1523 30.4453Z" fill="#D6E5E5"/>
<path d="M6.70311 35.5313C6.51561 34.6641 7.06639 33.6914 7.62889 32.9063C7.37108 32.0039 5.8828 32.7891 5.3789 33.0821C5.06249 33.2696 4.54686 33.5157 4.37108 33.8672C4.0078 34.5586 4.18358 35.2149 4.35936 35.9297C4.59374 35.9063 4.83983 35.918 5.08593 35.9297C5.91796 35.9883 5.66015 37.2539 4.83983 37.1953C3.73827 37.1133 3.46874 37.711 3.84374 38.6602C4.0078 39.0703 4.24218 39.4571 4.58202 39.7266C4.72265 39.8438 4.78124 39.8789 4.91015 39.9024C4.88671 39.9024 4.96874 39.8789 4.9453 39.8907C5.05077 39.7969 5.16796 39.7383 5.27343 39.7149C5.44921 38.625 6.10546 37.5703 7.11327 37.2891C6.92577 36.9258 6.74999 36.5625 6.57421 36.1875C6.4453 35.9063 6.52733 35.6719 6.70311 35.5313Z" fill="#EF4823"/>
<path d="M34.9453 29.4141C34.8164 28.1133 34.0781 27 32.8828 26.4726C31.7695 25.9805 30.4922 25.7812 29.2734 25.8398C28.4062 25.8867 27.3867 26.0156 26.6367 26.5195C26.7539 26.5781 26.8594 26.6484 26.9766 26.707C27.2227 26.8359 27.5156 26.9297 27.75 27.0703C27.9844 27.2109 28.2305 27.3516 28.4766 27.4922C28.4883 27.1875 28.5234 26.8828 28.5937 26.5898C28.7812 25.7812 30.0469 26.0273 29.8594 26.8359C29.7539 27.2812 29.7539 27.7266 29.7539 28.1836C29.7539 28.1953 29.7539 28.2187 29.7539 28.2305C29.9297 28.3359 30.0937 28.4531 30.2578 28.5703C30.2812 28.582 30.293 28.6055 30.3164 28.6172C30.6797 27.9844 31.3242 27.7031 31.9453 27.3984C32.2617 27.2461 32.6602 27.4922 32.7656 27.7969C32.8945 28.1601 32.6836 28.4648 32.3672 28.6172C32.1445 28.7226 31.9805 28.793 31.7812 28.9219C31.6055 29.0391 31.5 29.1211 31.4414 29.2266C31.3945 29.3086 31.3359 29.3789 31.2656 29.4375C31.3594 29.5312 31.4531 29.625 31.5352 29.7187C31.5703 29.7187 31.5937 29.707 31.6289 29.707C32.1562 29.7187 32.707 29.8125 33.2227 29.625C34.0078 29.3437 34.4297 30.5625 33.6445 30.8437C33.2695 30.9727 32.8945 31.0078 32.5195 31.0078C32.7187 31.3242 32.9062 31.6641 33.0703 32.0156C33.1758 31.957 33.293 31.9336 33.4336 31.9453C33.2578 31.9336 33.5039 31.8984 33.5742 31.8398C33.668 31.7695 33.7734 31.7109 33.8555 31.6289C34.0664 31.4297 34.2656 31.2187 34.4297 30.9961C34.8047 30.5039 35.0039 30.0352 34.9453 29.4141Z" fill="#FEBF10"/>
<path d="M58.5703 26.0039C58.2422 25.4766 58.2188 25.125 58.207 24.5039C58.1953 23.8594 57.9844 23.25 57.5508 22.7812C56.5781 21.7148 55.3945 21.293 53.9883 21.4687C53.332 21.5508 52.6875 21.6211 52.0547 21.3867C51.5742 21.2109 51.5156 20.4961 51.1875 20.1328C50.1445 18.9844 48.668 19.5703 47.6016 20.3672C47.332 20.5664 46.5469 21.375 46.1953 21.2578C45.9844 21.1758 45.8672 20.8477 45.7734 20.6719C45.5859 20.3086 45.3633 20.0273 45.0703 19.7461C43.8398 18.5742 42.5391 19.7461 41.7656 20.7656C41.5664 21.0234 41.3906 21.2812 41.1797 21.5391C41.1328 21.5977 41.0742 21.6562 41.0039 21.6914C40.9805 21.6914 40.9453 21.6797 40.9102 21.6445C40.4531 21.3047 40.125 20.7539 39.7383 20.3437C38.8242 19.3945 37.125 19.3125 36.3164 20.4258C35.918 20.9766 35.8945 21.6445 36.082 22.2773C36.2344 22.793 36.5742 23.2148 36.832 23.6719C34.6172 23.1797 32.2734 23.0156 30.0703 22.9805C23.5195 22.8984 16.8516 24.6211 11.6484 28.7109C10.4766 29.625 9.43359 30.6562 8.49609 31.793C7.6875 30.832 6.03516 31.2891 4.98047 31.8281C4.40625 32.1328 3.66797 32.5312 3.31641 33.0937C2.66016 34.1602 2.85938 35.1914 3.11719 36.3281C2.95313 36.4453 2.80078 36.5977 2.67187 36.7969C2.23828 37.4414 2.33203 38.2969 2.57813 39C2.88281 39.8906 3.72656 41.0039 4.66406 41.1562C4.20703 42.0703 4.37109 43.207 4.83984 44.1328C5.4375 45.3281 6.41016 46.1719 7.6875 46.5703C8.19141 46.7344 8.70703 46.8281 9.23438 46.8867C9.28125 47.0156 9.38672 47.1328 9.5625 47.2031C10.9688 47.7656 12.1055 48.6328 13.0547 49.8164C13.9336 50.918 14.8359 52.0312 16.2188 52.5C17.8242 53.0391 19.6172 52.9805 21.293 52.9336C23.1094 52.8867 24.9258 52.8281 26.7422 52.7227C28.6523 52.6172 30.5625 52.3711 32.4727 52.1953C34.4063 52.0195 36.3398 51.832 38.2617 51.5859C40.125 51.3516 41.9648 50.9883 43.8047 50.6133C45.5508 50.2617 47.3203 49.9805 49.043 49.5469C50.2383 49.2539 51.3516 48.7148 52.1484 47.7422C53.1328 46.5352 53.3555 44.8945 54.0234 43.5117C54.082 43.3945 54.0938 43.2773 54.0938 43.1719C54.9727 42.6797 55.7695 42.0351 56.4258 41.2266C57.3984 40.043 58.043 38.3437 56.8008 37.1016C56.7188 37.0195 56.6367 36.9726 56.5664 36.9492C56.4258 36.4687 56.0625 36.0703 55.6406 35.7656C55.6172 35.707 55.6055 35.6602 55.582 35.6133C55.1133 34.3945 54.1406 33.5156 53.1445 32.7187C54.1641 31.9453 54.9609 30.8437 55.4297 29.625C55.418 30.1523 55.7344 30.6797 55.7813 31.2539C55.8281 31.793 54.5273 31.9453 54.1758 32.0625C53.3906 32.3203 53.8125 33.5391 54.5977 33.2812C55.5703 32.9648 56.707 32.7891 57.0352 31.6641C57.1992 31.1016 56.9414 30.4453 56.7539 29.9297C56.5898 29.4961 57.3047 29.2031 57.5977 29.0039C58.0781 28.6758 58.5703 28.3125 58.8398 27.7734C59.1563 27.1875 58.9102 26.5312 58.5703 26.0039ZM9.66797 41.168C10.1602 41.7773 10.7227 42.2109 11.3906 42.5977C11.0039 42.5742 10.6172 42.5508 10.2188 42.5156C9.39844 42.4453 8.58984 42.4101 7.78125 42.2226H7.76953C7.89844 41.8359 7.66406 41.3086 7.125 41.3203C6.59766 41.332 6.42188 40.7812 6.49219 40.1719C6.53906 40.2305 6.59766 40.2891 6.64453 40.3476C6.69141 40.3008 6.75 40.2422 6.79688 40.1953C6.70313 40.1133 6.60938 40.0312 6.51563 39.9609C6.65625 39.2812 7.07813 38.5781 7.6875 38.5195C8.05078 38.8945 8.39063 39.293 8.67188 39.7383C8.71875 39.8203 8.73047 39.8906 8.69531 39.9492C9.02344 40.3477 9.32813 40.7578 9.66797 41.168ZM4.94531 39.8789C4.95703 39.8672 4.88672 39.8906 4.91016 39.8906C4.78125 39.8789 4.72266 39.832 4.58203 39.7148C4.25391 39.4453 4.00781 39.0469 3.84375 38.6484C3.46875 37.6992 3.73828 37.1016 4.83984 37.1836C5.66016 37.2422 5.91797 35.9766 5.08594 35.918C4.83984 35.8945 4.59375 35.8945 4.35938 35.918C4.18359 35.2031 4.01953 34.5586 4.37109 33.8555C4.54688 33.5039 5.0625 33.2578 5.37891 33.0703C5.88281 32.7773 7.37109 31.9922 7.62891 32.8945C7.06641 33.6797 6.51563 34.6523 6.70313 35.5195C6.52734 35.6602 6.44531 35.8945 6.57422 36.1758C6.75 36.5508 6.92578 36.9141 7.11328 37.2773C6.10547 37.5703 5.46094 38.6133 5.27344 39.7031C5.15625 39.7266 5.03906 39.7851 4.94531 39.8789ZM50.8828 47.2617C49.875 48.293 48.1289 48.457 46.793 48.7148C43.0781 49.4414 39.3984 50.2031 35.6367 50.6016C31.8281 51 28.0078 51.3867 24.1875 51.5625C22.4297 51.6445 20.6602 51.7383 18.9023 51.6562C18.1055 51.6211 17.2383 51.5273 16.4883 51.2344C15.8086 50.9648 15.2578 50.4492 14.7891 49.8984C14.1328 49.1367 13.5586 48.3398 12.8203 47.6602C12.5859 47.4492 12.3281 47.25 12.0703 47.0625C13.8398 47.1328 15.6094 47.1211 17.3789 47.0742C21.1289 46.9805 24.8789 46.793 28.6289 46.7578C32.3086 46.7227 35.9883 46.6641 39.6563 46.3711C43.9336 46.0195 48.2227 45.2812 52.3125 43.957C52.3711 43.9336 52.4414 43.9102 52.5 43.8984C52.0781 45.0937 51.7617 46.3476 50.8828 47.2617ZM56.2617 38.6719C56.3555 39.5039 55.418 40.5234 54.9258 41.0156C53.8359 42.082 52.4883 42.6094 51.0469 43.0195C47.5664 44.0156 44.0508 44.6836 40.4531 45.0234C36.7852 45.375 33.1055 45.4453 29.4258 45.4805C25.6875 45.5156 21.9492 45.6445 18.2109 45.7734C15.2695 45.8672 12.2695 45.9727 9.33984 45.6094C8.29688 45.4805 7.18359 45.1758 6.50391 44.3203C6.14063 43.875 5.80078 43.2656 5.71875 42.6797C6.35156 43.1953 7.23047 43.4297 8.00391 43.582C9.09375 43.793 10.2305 43.8047 11.332 43.875C15.0586 44.1094 18.8438 44.0859 22.5703 43.9805C26.3555 43.875 30.1523 43.6875 33.9258 43.3711C36.5039 43.1602 39.0703 42.8789 41.625 42.5391C44.1563 42.1992 46.6641 41.6016 49.207 41.3789C51.2695 41.2031 53.5664 41.1562 55.2656 39.7969C55.6406 39.4687 56.0039 39.0937 56.2617 38.6719ZM31.8047 40.5234C32.7305 39.4453 34.4297 38.8477 35.6719 38.6016C36.7969 38.3789 38.0273 38.2383 39.1289 38.6367C40.3242 39.0703 41.0391 40.043 41.3789 41.2266C41.3789 41.2383 41.3906 41.25 41.3906 41.2617C40.3008 41.4141 39.2109 41.543 38.1211 41.6602C35.8008 41.918 33.4687 42.1289 31.1484 42.2812C31.1367 41.9648 31.1953 41.6719 31.2891 41.3906C31.6758 41.332 32.0039 40.9336 31.8047 40.5234ZM30.9375 39.5977C30.5156 39.2812 30.0469 39.0586 29.543 38.918C29.9883 37.793 31.2656 38.0391 32.1094 38.6484C31.6641 38.918 31.2656 39.2344 30.9375 39.5977ZM30.2109 40.6406C29.9648 41.1562 29.8359 41.7305 29.8594 42.3633C27.9375 42.4805 26.0039 42.5742 24.082 42.6328C24.9023 40.4883 28.3477 39.082 30.2109 40.6406ZM42.5977 40.793C42.3633 39.9844 41.9766 39.2578 41.4258 38.6602C41.8477 38.3789 42.3047 38.1445 42.7734 37.9219C43.3477 38.6484 43.5703 39.5977 43.957 40.4414C43.957 40.4531 43.957 40.4766 43.9688 40.4883C43.875 40.6055 43.8281 40.7578 43.8281 40.8984C43.8164 40.8984 43.8047 40.8984 43.793 40.8984C43.4063 40.957 43.0078 41.0156 42.6094 41.0742C42.6328 40.9922 42.6211 40.8984 42.5977 40.793ZM46.1953 40.4883C46.5586 40.0547 46.8633 39.5508 47.2031 39.1055C47.6016 38.5664 48.0352 38.1914 48.7383 38.3437C49.4883 38.5078 50.0859 39.3047 50.3789 39.9844C49.9453 40.0195 49.5234 40.043 49.1016 40.0781C48.1289 40.1602 47.168 40.3242 46.1953 40.4883ZM51.7031 32.1562C51.3398 32.3555 51.3281 32.9297 51.6328 33.1758C52.5352 33.8906 53.4844 34.582 54.1172 35.5547C54.375 35.9648 54.5156 36.4219 54.6211 36.8906C54.668 37.1133 54.7031 37.3477 54.7148 37.5703C54.7266 37.6523 54.7266 37.7461 54.7266 37.8281C54.7266 37.9219 54.6211 38.0391 54.7383 37.8867C54.5508 38.1211 54.5625 38.3789 54.668 38.5781C54.3516 38.8711 53.9766 39.1172 53.6953 39.2461C53.0508 39.5508 52.3711 39.7266 51.6563 39.832C51.6563 39.7617 51.6445 39.6914 51.6094 39.6094C50.9766 37.9922 49.207 36.4102 47.3906 37.2187C46.6875 37.5352 46.2422 38.2031 45.8203 38.8125C45.6211 39.1055 45.375 39.5391 45.0703 39.8437C44.5078 38.7539 44.2852 37.5352 43.3359 36.6445C43.1836 36.5039 42.8906 36.4219 42.6914 36.5156C41.918 36.8906 41.1211 37.2422 40.4297 37.7578C40.4063 37.7695 40.3945 37.7812 40.3711 37.8047C40.2305 37.7227 40.0781 37.6406 39.9258 37.5586C38.5547 36.9023 36.9961 37.0195 35.543 37.2891C34.8164 37.418 34.0195 37.6523 33.2695 37.9805C33.2344 37.9219 33.1875 37.8633 33.1289 37.8047C32.3672 37.1484 31.3945 36.7383 30.3867 36.8086C29.2734 36.8789 28.5586 37.7109 28.2188 38.707C25.9922 38.6836 23.6133 40.0195 22.8633 42.1055C22.793 42.3047 22.8164 42.4805 22.8867 42.6328C22.6289 42.6445 22.3594 42.6445 22.1016 42.6562C22.5703 41.8594 22.6641 40.7695 22.7578 39.9023C22.8984 38.6602 22.9102 37.4062 22.9102 36.1641C22.9102 35.1914 22.875 34.2187 22.7812 33.2578C22.6992 32.4492 22.5117 31.6641 22.3945 30.8555C22.2188 29.5898 22.0781 28.125 21.1758 27.1406C20.6133 26.5312 19.7695 27.5039 20.3203 28.1133C20.6602 28.4883 20.7656 29.0977 20.8828 29.5664C21.0234 30.1641 21.082 30.7851 21.1758 31.3828C21.2813 32.1211 21.4453 32.8359 21.5156 33.5742C21.6094 34.4648 21.6211 35.3672 21.6211 36.2578C21.6328 37.3477 21.6094 38.4258 21.5039 39.5039C21.4336 40.2891 21.4102 41.5781 20.8477 42.1875C20.707 42.3398 20.6602 42.5156 20.6836 42.668C18.9375 42.6914 17.1797 42.7031 15.4336 42.6797C14.4492 42.668 13.4766 42.6445 12.4922 42.6094C12.668 42.4922 12.7734 42.293 12.7148 41.9766C12.6445 41.5664 12.2813 41.3906 11.9648 41.4141C11.8945 41.3789 11.8359 41.332 11.7656 41.2969C11.5898 41.1914 11.4258 41.0977 11.2734 40.9687C10.7109 40.5234 10.3125 39.9023 9.91406 39.3164C9.55078 38.7656 9.11719 38.2734 8.76563 37.6992C8.42578 37.1367 8.14453 36.5391 7.86328 35.9531C8.01563 35.7539 8.07422 35.4844 7.91016 35.2148C7.95703 35.2969 7.91016 35.1211 7.92188 35.0508C7.95703 34.875 8.02734 34.7109 8.09766 34.5586C8.32031 34.0781 8.63672 33.6328 8.95313 33.1992C9.50391 32.4726 10.1016 31.7812 10.7461 31.125C13.0547 28.7812 16.1133 27.0352 19.1836 25.9453C25.2422 23.8008 32.2617 23.5898 38.4141 25.4414C41.1797 26.2734 44.0742 27.9141 45.7734 30.3164C45.8203 30.4453 45.9023 30.5508 46.0547 30.6328C46.1016 30.6562 46.1484 30.6797 46.1953 30.6914C46.6641 30.8789 47.1563 31.0195 47.6602 31.0312C47.8945 31.3359 48.3867 31.3125 48.6445 31.043C48.7031 30.9727 48.75 30.9023 48.7852 30.8086C49.5352 30.4922 50.1563 29.8945 50.7188 29.332C51.3984 28.6406 51.9375 27.8086 52.6875 27.1992C53.2266 26.7539 53.8359 26.4023 54.457 26.0742C55.0664 28.3945 53.7539 31.043 51.7031 32.1562ZM57.7031 27.2109C57.5742 27.5859 57.0469 27.8437 56.7422 28.043C56.3789 28.2891 55.9688 28.5703 55.7109 28.9219C55.6992 28.9336 55.6875 28.9453 55.6875 28.957C56.0508 27.6328 56.0391 26.2148 55.5 24.9609C55.3242 24.5508 54.9141 24.4453 54.5273 24.6445C53.8242 24.9961 53.1328 25.3711 52.4766 25.8164C51.7617 26.3086 51.2109 26.918 50.6484 27.5742C50.4258 27.832 50.2148 28.0781 49.9805 28.3125C50.4727 27.4336 50.7188 26.4375 51.4922 25.7344C52.1016 25.1719 51.1289 24.3281 50.5195 24.8789C50.0977 25.2656 49.7813 25.7461 49.5117 26.2617C49.2422 26.7656 49.1016 27.3984 48.7617 27.8555C48.4219 28.3125 47.8477 29.0508 47.7891 29.6367C47.7891 29.6836 47.7773 29.7187 47.7773 29.7656C47.4727 29.7773 47.168 29.707 46.8516 29.5898C46.1953 28.6758 45.4102 27.8789 44.5313 27.1992C44.9063 26.0742 44.9648 24.9375 44.9648 23.7422C44.9648 22.9102 43.6758 23.0156 43.6758 23.8359C43.6758 24.7148 43.6523 25.582 43.4297 26.4258C42.2227 25.6523 40.8984 25.0195 39.5742 24.5039C39.1758 24.3516 38.7656 24.2109 38.3555 24.082C38.2148 23.4961 37.9453 23.0039 37.6172 22.4883C37.3594 22.0664 36.9492 21.293 37.582 20.9766C38.6484 20.4492 39.3984 22.0664 40.0547 22.6172C40.4414 22.9453 40.8984 23.0391 41.3906 22.9336C42 22.793 42.3867 22.0781 42.7266 21.6211C43.0078 21.2578 43.3945 20.5898 43.9102 20.543C44.4258 20.4961 44.7891 21.6445 45.0469 21.9727C46.0547 23.2266 47.3789 22.1602 48.3164 21.4453C48.6914 21.1523 49.4648 20.6016 49.9688 20.7773C50.4609 20.9531 50.5313 21.7852 50.8711 22.1367C51.8555 23.1445 53.4141 22.793 54.6445 22.7109C55.3477 22.6641 55.8398 23.0273 56.3672 23.4492C56.9297 23.8945 56.918 24.4453 56.9297 25.1133C56.9297 25.4883 57.0234 25.8281 57.1875 26.168C57.3164 26.3906 57.7969 26.9414 57.7031 27.2109Z" fill="black"/>
<path d="M16.2657 32.8594C16.2657 33.4571 16.2422 34.5586 15.4922 34.6992C14.918 34.8047 13.8399 34.5235 13.793 33.8086C13.7461 32.9766 12.4571 33.0821 12.5039 33.9024C12.586 35.3321 14.1914 36.0586 15.4571 35.9883C17.1563 35.8946 17.5196 34.1367 17.5313 32.7539C17.5547 31.9219 16.2774 32.0274 16.2657 32.8594ZM25.1836 13.9102C24.9375 12.7031 24.375 11.8008 23.6133 10.8516C23.2735 10.4297 23.1328 10.1367 23.1446 9.60939C23.1446 9.41018 23.2032 9.21096 23.25 9.02346C23.2852 8.89455 23.4024 8.82424 23.2969 8.82424C24.1172 8.74221 24.0235 7.45314 23.2032 7.53518C22.0196 7.65236 21.8321 9.10549 21.8672 10.0547C21.8907 10.6992 22.2774 11.2266 22.6641 11.7071C23.1914 12.3633 23.6016 12.9727 23.8477 13.7813C24.0352 14.4258 24.1407 15.1758 23.8946 15.8086C23.6953 16.3242 23.3086 16.6875 22.9336 17.0625C22.6641 17.3438 22.336 17.7071 22.2774 18.1055C22.1953 18.7383 22.7461 19.043 23.2969 19.0078C23.836 18.9727 23.9883 18.3985 23.7891 18.0352C23.8242 17.9883 23.8711 17.9531 23.9063 17.918C24.1641 17.6367 24.4219 17.3906 24.6446 17.086C25.3242 16.1367 25.418 15.0469 25.1836 13.9102ZM30.2344 15.1289C30.8789 14.1328 30.9492 13.1016 30.6797 11.9649C30.4571 11.0039 29.918 10.0899 29.3789 9.28127C29.0157 8.73049 28.1367 7.68752 28.3828 6.96096C28.6407 6.18752 27.4922 5.60158 27.2227 6.38674C26.5782 8.29689 28.4766 9.97268 29.1914 11.5899C29.4492 12.1875 29.6133 12.8321 29.5547 13.4883C29.4961 14.1094 29.0039 14.6719 28.6758 15.1641C28.4063 15.5742 28.1367 16.0078 28.0782 16.5C28.0196 17.0156 28.2305 17.5196 28.3711 18.0117C28.6055 18.8086 29.8242 18.3867 29.5899 17.5899C29.4961 17.2735 29.2617 16.8516 29.3907 16.5117C29.5664 16.0313 29.9532 15.5625 30.2344 15.1289ZM33.8086 8.33205C33.4805 7.58205 32.2617 7.99221 32.5899 8.75392C33.1407 10.0195 33.7852 11.2735 33.961 12.6563C34.043 13.2656 33.9961 13.8516 33.8555 14.4492C33.7969 14.6836 33.6797 15.3633 33.375 15.3985C32.543 15.4688 32.6485 16.7578 33.4688 16.6875C34.8164 16.582 35.1914 14.8477 35.2617 13.7461C35.3907 11.8008 34.5703 10.0781 33.8086 8.33205ZM47.836 23.9414C46.9102 25.2188 46.1719 26.9063 46.2656 28.5235C46.3125 29.3555 47.6016 29.25 47.5547 28.4297C47.4727 27.1875 48.0821 25.793 48.7969 24.8086C49.2891 24.1289 48.3164 23.2735 47.836 23.9414ZM34.0899 25.6758C32.7774 24.8438 31.1367 24.5742 29.6016 24.5508C28.0899 24.5274 26.4375 24.8672 25.3242 25.9336C25.0547 26.1914 25.1016 26.4961 25.2891 26.7188C25.2422 26.8828 25.2657 27.0586 25.3828 27.1992C25.6992 27.5625 26.2032 27.7735 26.625 27.9844C27.3282 28.3477 28.0196 28.7227 28.6992 29.1094C29.4844 29.5664 30.2813 30.1406 30.8789 30.8321C31.3008 31.3242 31.6055 31.8867 31.875 32.4727C31.8164 32.7774 31.9688 33.1524 32.3086 33.2813C32.5899 33.5039 33.0117 33.4336 33.2344 33.1992C34.5938 33.2578 35.8242 31.6055 36.1524 30.4336C36.6446 28.6992 35.5547 26.6016 34.0899 25.6758ZM34.4414 30.9961C34.2657 31.2305 34.0664 31.4297 33.8672 31.6289C33.7852 31.711 33.6797 31.7696 33.586 31.8399C33.5039 31.8985 33.2578 31.9336 33.4453 31.9453C33.3047 31.9336 33.1875 31.9571 33.0821 32.0156C32.9063 31.6641 32.7305 31.3242 32.5313 31.0078C32.9063 31.0078 33.2813 30.9727 33.6563 30.8438C34.4414 30.5625 34.0196 29.3438 33.2344 29.625C32.7188 29.8125 32.168 29.7188 31.6407 29.7071C31.6055 29.7071 31.5821 29.7071 31.5469 29.7188C31.4532 29.625 31.3711 29.5313 31.2774 29.4375C31.3477 29.3789 31.4063 29.3086 31.4532 29.2266C31.5117 29.1094 31.6172 29.0274 31.793 28.9219C31.9922 28.793 32.1563 28.7227 32.3789 28.6172C32.6953 28.4649 32.9063 28.1602 32.7774 27.7969C32.6719 27.4922 32.2735 27.2461 31.9571 27.3985C31.3242 27.7149 30.6914 27.9844 30.3282 28.6172C30.3047 28.6055 30.293 28.5821 30.2696 28.5703C30.1055 28.4531 29.9414 28.336 29.7657 28.2305C29.7657 28.2188 29.7657 28.1953 29.7657 28.1836C29.7657 27.7266 29.7657 27.2813 29.8711 26.836C30.0586 26.0274 28.793 25.7813 28.6055 26.5899C28.5352 26.8828 28.5 27.1875 28.4883 27.4922C28.2422 27.3516 28.0078 27.211 27.7617 27.0703C27.5274 26.9297 27.2344 26.836 26.9883 26.7071C26.8711 26.6485 26.7539 26.5781 26.6485 26.5196C27.3985 26.0156 28.418 25.8867 29.2852 25.8399C30.5039 25.7813 31.7813 25.9805 32.8946 26.4727C34.1016 27 34.8399 28.1133 34.9571 29.4141C35.0039 30.0352 34.8047 30.5039 34.4414 30.9961Z" fill="black"/>
</svg>
