<svg width="164" height="164" viewBox="0 0 164 164" fill="none" xmlns="http://www.w3.org/2000/svg">
<path d="M127.26 22.1336C126.972 19.507 126.043 16.9445 123.513 15.7594C121.11 14.6703 118.355 14.6383 115.761 14.7984C112.366 14.9906 109.034 15.5672 105.639 15.7273C100.674 15.9516 95.8696 15.2789 90.9688 14.8625C87.7656 14.6063 83.5696 13.9336 81.0071 16.3359C81.5196 18.8664 81.3274 21.3969 81.1031 23.9594C80.911 26.3297 80.4305 29.4687 81.7438 31.6148C83.5055 34.5617 87.5735 35.4906 90.7766 35.5867C95.1649 35.7148 99.5211 35.2664 103.909 35.2664C108.522 35.2664 113.102 35.3945 117.683 35.7469C120.95 36.0031 125.402 36.0992 126.812 32.4477C127.997 29.2766 127.613 25.4328 127.26 22.1336ZM123.513 30.3016C123.513 31.0703 123.128 31.8711 122.327 32.0953C117.427 33.4406 112.334 33.9531 107.241 33.857C104.87 33.825 102.5 33.4406 100.13 33.4727C98.4961 33.5047 96.8625 33.6008 95.2289 33.5687C91.9938 33.5047 87.5735 33.3766 85.9399 30.0453C84.4344 27.0023 85.6516 23.5109 85.7156 20.3398C85.7156 19.8914 85.9078 19.475 86.1961 19.1227C86.3883 18.5461 86.8688 18.1297 87.6696 18.1297H103.461C107.305 18.1297 111.116 17.9055 114.96 17.7773C117.971 17.6812 121.591 17.9055 123.032 21.0445C124.313 23.9273 123.545 27.2586 123.513 30.3016Z" fill="#EF4823"/>
<path d="M47.8227 90.7766C47.6305 90.8727 47.4383 90.9367 47.2461 90.9688C47.0859 92.5063 46.7336 94.7805 48.143 95.2609C49.232 95.6453 52.5953 95.3891 53.1399 94.2039C54.7094 90.9367 50.2891 89.4313 47.8227 90.7766ZM79.982 76.1063C79.7899 76.2023 79.5977 76.2664 79.4055 76.2984C79.2453 77.8359 78.893 80.1102 80.3023 80.5906C81.3914 80.975 84.7547 80.7188 85.2992 79.5336C86.8688 76.2664 82.4484 74.7609 79.982 76.1063ZM83.2492 59.9625C82.1281 57.5922 79.6297 57.5281 77.3555 57.6883C69.2836 58.2969 61.2438 58.457 53.1399 58.457C51.8586 60.2508 50.5774 62.8773 51.4102 64.9594C51.8266 65.9844 52.7234 66.4969 53.7805 66.657C55.9586 67.0094 58.3609 66.657 60.5711 66.625C65.2156 66.5609 69.8281 66.5609 74.4406 66.0805C76.7789 65.8242 79.2774 65.9844 81.5195 65.2797C82.3203 65.0234 83.3453 64.7031 83.7297 63.8703C84.2422 62.6531 83.7617 61.0516 83.2492 59.9625ZM47.8227 104.454C47.6305 104.55 47.4383 104.614 47.2461 104.646C47.0859 106.184 46.7336 108.458 48.143 108.938C49.232 109.323 52.5953 109.066 53.1399 107.881C54.7094 104.646 50.2891 103.141 47.8227 104.454ZM80.0461 90.7766C79.8539 90.8727 79.6617 90.9367 79.4695 90.9688C79.3094 92.5063 78.957 94.7805 80.3664 95.2609C81.4555 95.6453 84.8188 95.3891 85.3633 94.2039C86.9328 90.9367 82.5125 89.4313 80.0461 90.7766ZM80.0461 104.454C79.8539 104.55 79.6617 104.614 79.4695 104.646C79.3094 106.184 78.957 108.458 80.3664 108.938C81.4555 109.323 84.8188 109.066 85.3633 107.881C86.9328 104.646 82.5125 103.141 80.0461 104.454ZM63.9664 90.7766C63.7742 90.8727 63.582 90.9367 63.3899 90.9688C63.2297 92.5063 62.8774 94.7805 64.2867 95.2609C65.3758 95.6453 68.7391 95.3891 69.2836 94.2039C70.8852 90.9367 66.4649 89.4313 63.9664 90.7766ZM63.9344 76.1063C63.7422 76.2023 63.55 76.2664 63.3578 76.2984C63.1977 77.8359 62.8453 80.1102 64.2547 80.5906C65.3438 80.975 68.707 80.7188 69.2516 79.5336C70.8211 76.2664 66.4008 74.7609 63.9344 76.1063Z" fill="#FEBF10"/>
<path d="M108.49 42.1531C108.554 41 108.65 39.8789 108.906 38.7578C106.888 38.7258 104.902 38.7258 102.884 38.7578C102.276 38.7578 101.667 38.7899 101.059 38.8219V44.9399C103.653 44.8438 106.216 44.8758 108.746 45.1961C108.458 44.2352 108.458 43.082 108.49 42.1531Z" fill="#EF4823"/>
<path d="M150.707 134.595C150.611 132.93 150.387 131.04 149.458 129.63C148.433 128.061 146.895 127.709 145.07 127.548C142.443 127.324 139.816 127.645 137.19 127.677C134.788 127.709 132.385 127.388 130.015 127.26C124.89 127.004 119.765 127.036 114.64 127.004C109.387 126.972 104.166 126.94 98.9125 127.1C93.6594 127.26 88.4383 127.741 83.1852 128.029C72.807 128.573 62.4289 128.285 52.0508 128.317C42.025 128.349 31.9672 128.509 22.0375 127.1C20.8844 130.015 22.0695 133.634 22.582 136.549C23.1586 139.88 23.1906 143.244 23.1906 146.607C25.4648 146.607 27.7711 146.639 30.0453 146.671C40.5195 146.863 50.8977 146.991 61.3719 146.383C71.8781 145.774 82.2883 145.486 92.7945 145.998C103.269 146.511 113.743 147.376 124.217 147.344C129.406 147.344 134.691 147.344 139.816 146.479C141.514 146.191 143.116 146.159 144.845 146.191C145.71 146.191 147.6 146.447 148.241 145.934C148.433 145.774 148.625 145.678 148.817 145.614C148.849 145.518 148.881 145.422 148.913 145.326C150.387 142.027 150.931 138.119 150.707 134.595ZM89.9438 139.848C87.8297 141.962 84.5305 141.738 81.9359 140.681C79.95 139.88 77.1633 137.83 78.5086 135.332C78.7328 134.916 79.0531 134.627 79.4375 134.499C80.3024 130.752 84.6266 131.392 87.4774 132.737C88.6305 133.282 91.0649 134.147 91.1609 135.652C91.225 137.094 91.0328 138.759 89.9438 139.848Z" fill="#127274"/>
<path d="M85.0109 135.556C84.4344 135.332 83.6977 135.044 83.057 135.14C82.993 135.14 82.9609 135.14 82.9289 135.172C82.8328 135.396 82.8328 135.62 82.8008 135.845C82.7367 136.325 82.5445 136.677 82.2562 136.902C82.2883 136.902 82.2883 136.934 82.2883 136.934C83.057 137.382 83.8578 137.702 84.7547 137.862C86.2281 138.119 87.3492 137.959 87.6055 136.805C86.7406 136.325 85.9078 135.877 85.0109 135.556ZM47.7586 76.1063C47.5664 76.2023 47.3742 76.2664 47.182 76.2984C47.0219 77.8359 46.6695 80.1102 48.0789 80.5906C49.168 80.975 52.5313 80.7188 53.0758 79.5336C54.6773 76.2664 50.257 74.7609 47.7586 76.1063Z" fill="#FEBF10"/>
<path d="M137.606 105.895V105.863C137.51 105.351 137.638 104.966 137.862 104.678C137.766 103.653 136.677 102.308 136.293 101.603C135.396 99.8735 134.531 98.1438 133.666 96.382C131.937 92.8586 130.239 89.3031 128.958 85.5875C127.1 80.1742 126.523 74.5047 125.562 68.8992C124.698 63.9024 123.48 58.2328 119.925 54.3891C115.152 49.232 107.945 48.3352 101.251 48.5914C96.382 48.7836 91.5453 49.3922 86.7086 49.6484C81.6156 49.9367 76.4906 49.9688 71.3976 49.6484C67.0094 49.3602 62.525 48.3031 58.1047 48.9117C54.0047 49.4883 50.5773 51.7945 48.207 55.1578C45.9648 58.3289 44.5555 62.0445 43.3703 65.7281C41.8328 70.5328 40.0391 75.2414 38.5656 80.0461C35.7789 89.0149 33.5047 98.1117 31.6148 107.305C32.9602 107.817 33.1844 109.803 32.0633 110.476C33.9211 114.159 37.6687 115.473 41.8969 115.633C45.068 115.761 48.2391 115.505 51.4102 115.505C56.6953 115.505 61.9805 115.377 67.2336 115.313C72.4226 115.216 77.6117 115.088 82.8008 115.184C87.7976 115.313 92.7625 115.697 97.7594 116.081C107.241 116.818 117.042 117.683 126.459 115.729C129.246 115.152 132.257 114.48 134.659 112.878C136.998 111.309 137.895 109.195 137.638 106.536C137.606 106.312 137.606 106.12 137.606 105.895ZM43.7547 75.7219C43.7547 74.793 44.3633 74.2164 45.068 73.9922C45.1961 73.6719 45.4203 73.3836 45.8047 73.1594C48.4312 71.718 51.7625 71.718 54.325 73.3836C56.9516 75.0813 57.8164 78.3484 56.2789 81.1352C54.7094 83.986 49.9047 84.9469 46.9898 83.9219C43.1781 82.5766 43.6906 78.9891 43.7547 75.7219ZM56.3109 109.483C54.7414 112.334 49.9367 113.295 47.0219 112.27C43.2102 110.956 43.7547 107.369 43.8187 104.102C43.8187 103.173 44.4273 102.596 45.132 102.372C45.2601 102.052 45.4844 101.763 45.8687 101.539C48.4953 100.098 51.8266 100.098 54.3891 101.763C56.9836 103.461 57.8484 106.728 56.3109 109.483ZM56.3109 95.8055C54.7414 98.6563 49.9367 99.6172 47.0219 98.5922C43.2102 97.2789 43.7547 93.6914 43.8187 90.4242C43.8187 89.4953 44.4273 88.9188 45.132 88.6945C45.2601 88.3742 45.4844 88.0859 45.8687 87.8617C48.4953 86.4203 51.8266 86.4203 54.3891 88.0859C56.9836 89.7836 57.8484 93.0188 56.3109 95.8055ZM52.3711 69.9563C45.5164 67.7141 47.4383 59.9625 50.8976 55.5102C51.3781 54.9016 51.9867 54.7734 52.5312 54.9336C52.5953 54.9336 52.6594 54.9336 52.7234 54.9336C58.9055 54.9336 65.1195 54.6774 71.3016 54.6133C76.7789 54.5492 84.2742 52.307 86.7086 59.1617C87.7016 61.9484 87.8937 65.3117 85.2992 67.2977C83.2172 68.9313 80.3023 69.1555 77.7719 69.3477C73.9602 69.6039 70.1805 70.0203 66.3367 70.0844C63.6781 70.1164 61.0195 70.1164 58.3289 70.1805C56.407 70.2445 54.2609 70.5649 52.3711 69.9563ZM59.8984 75.7219C59.8984 74.793 60.507 74.2164 61.2117 73.9922C61.3398 73.6719 61.5641 73.3836 61.9484 73.1594C64.575 71.718 67.9062 71.718 70.4687 73.3836C73.0953 75.0813 73.9602 78.3484 72.4227 81.1352C70.8531 83.986 66.0484 84.9469 63.1336 83.9219C59.3219 82.5766 59.8664 78.9891 59.8984 75.7219ZM72.4867 109.483C70.9172 112.334 66.1125 113.295 63.1977 112.27C59.3859 110.956 59.9305 107.369 59.9945 104.102C59.9945 103.173 60.6031 102.596 61.3078 102.372C61.4359 102.052 61.6602 101.763 62.0445 101.539C64.6711 100.098 68.0023 100.098 70.5648 101.763C73.1594 103.461 73.9922 106.728 72.4867 109.483ZM72.4867 95.8055C70.9172 98.6563 66.1125 99.6172 63.1977 98.5922C59.3859 97.2789 59.9305 93.6914 59.9945 90.4242C59.9945 89.4953 60.6031 88.9188 61.3078 88.6945C61.4359 88.3742 61.6602 88.0859 62.0445 87.8617C64.6711 86.4203 68.0023 86.4203 70.5648 88.0859C73.1594 89.7836 73.9922 93.0188 72.4867 95.8055ZM75.9461 75.7219C75.9461 74.793 76.5547 74.2164 77.2594 73.9922C77.3875 73.6719 77.6117 73.3836 77.9961 73.1594C80.6227 71.718 83.9539 71.718 86.5164 73.3836C89.143 75.0813 90.0078 78.3484 88.4703 81.1352C86.9008 83.986 82.0961 84.9469 79.1812 83.9219C75.3695 82.5766 75.9141 78.9891 75.9461 75.7219ZM88.5344 109.483C86.9648 112.334 82.1601 113.295 79.2453 112.27C75.4336 110.956 75.9781 107.369 76.0422 104.102C76.0422 103.173 76.6508 102.596 77.3555 102.372C77.4836 102.052 77.7078 101.763 78.0922 101.539C80.7187 100.098 84.05 100.098 86.6125 101.763C89.207 103.461 90.0719 106.728 88.5344 109.483ZM88.5344 95.8055C86.9648 98.6563 82.1601 99.6172 79.2453 98.5922C75.4336 97.2789 75.9781 93.6914 76.0422 90.4242C76.0422 89.4953 76.6508 88.9188 77.3555 88.6945C77.4836 88.3742 77.7078 88.0859 78.0922 87.8617C80.7187 86.4203 84.05 86.4203 86.6125 88.0859C89.207 89.7836 90.0719 93.0188 88.5344 95.8055ZM115.473 59.418C112.366 59.45 109.355 59.8024 106.248 59.5781C104.902 59.482 103.557 59.3859 102.212 59.418C101.411 59.45 100.354 59.3539 99.6492 59.7703C97.6953 60.9235 95.7094 58.0086 97.6633 56.8555C100.002 55.4781 103.109 55.8625 105.703 56.0227C108.906 56.2469 111.981 55.9586 115.184 55.8945C117.459 55.8625 117.747 59.3859 115.473 59.418Z" fill="#127274"/>
<path d="M63.9664 104.454C63.7742 104.55 63.582 104.614 63.3898 104.646C63.2297 106.184 62.8773 108.458 64.2867 108.938C65.3758 109.323 68.739 109.066 69.2836 107.881C70.8851 104.646 66.4648 103.141 63.9664 104.454Z" fill="#FEBF10"/>
<path d="M119.701 22.2938C118.42 20.5 114.608 21.2688 112.75 21.4289C108.906 21.7492 105.03 21.5891 101.155 21.5891H89.3351C89.239 21.7492 89.1429 21.8773 89.0148 22.0055C88.6945 24.2156 88.182 26.7141 89.0789 28.5398C89.5914 29.5969 91.4492 29.757 92.4422 29.8852C93.9476 30.0453 95.4851 30.0453 97.0226 30.0133C100.738 29.9172 104.39 30.3336 108.105 30.3016C112.109 30.2695 116.145 29.9813 120.053 29.0203C120.117 28.1234 120.181 27.2266 120.213 26.3297C120.245 25.1766 120.437 23.3508 119.701 22.2938Z" fill="#71C598"/>
<path d="M153.558 130.239C151.155 121.719 141.066 124.441 134.435 123.993C124.217 123.288 113.935 123.352 103.685 123.448C93.1789 123.545 82.7688 124.666 72.2625 124.794C63.9985 124.89 55.7024 124.762 47.4383 124.794C38.982 124.826 30.5258 124.762 22.1336 123.513C21.2688 123.384 20.6281 123.833 20.3078 124.441C19.7633 124.441 19.2188 124.73 18.9305 125.434C17.5531 128.83 18.2899 132.449 18.9305 135.909C19.6672 139.848 19.6992 143.82 19.6992 147.824C19.6992 148.657 20.1477 149.138 20.7242 149.298C21.0445 149.746 21.525 150.066 22.2297 150.066C32.6399 150.066 43.082 150.643 53.4922 150.259C63.9664 149.906 74.4086 148.945 84.9149 149.17C95.4211 149.394 105.863 150.291 116.338 150.675C121.591 150.867 126.812 150.771 132.033 150.707C136.293 150.643 140.457 149.618 144.717 149.682C146.383 149.714 148.785 149.97 150.195 148.817C150.547 148.529 150.739 148.177 150.835 147.824C151.348 147.76 151.796 147.472 152.052 146.863C154.295 141.834 155.031 135.524 153.558 130.239ZM148.977 145.262C148.945 145.358 148.913 145.454 148.881 145.55C148.689 145.614 148.497 145.71 148.305 145.87C147.664 146.383 145.806 146.127 144.909 146.127C143.18 146.127 141.578 146.127 139.88 146.415C134.723 147.28 129.47 147.28 124.281 147.28C113.775 147.312 103.333 146.447 92.8586 145.934C82.3524 145.422 71.9422 145.71 61.436 146.319C50.9938 146.927 40.5836 146.799 30.1094 146.607C27.8352 146.575 25.5289 146.543 23.2547 146.543C23.2547 143.18 23.2227 139.816 22.6461 136.485C22.1336 133.538 20.9484 129.951 22.1016 127.036C32.0313 128.445 42.0891 128.285 52.1149 128.253C62.493 128.221 72.8711 128.509 83.2492 127.965C88.5023 127.677 93.7234 127.196 98.9766 127.036C104.23 126.876 109.451 126.908 114.704 126.94C119.829 126.972 124.954 126.908 130.079 127.196C132.481 127.324 134.884 127.645 137.254 127.612C139.88 127.58 142.507 127.26 145.134 127.484C146.959 127.645 148.497 127.997 149.522 129.566C150.451 131.008 150.643 132.898 150.771 134.531C150.931 138.119 150.387 142.027 148.977 145.262Z" fill="black"/>
<path d="M91.1609 135.684C91.0648 134.211 88.6305 133.314 87.4773 132.77C84.6266 131.424 80.3023 130.784 79.4375 134.531C79.0852 134.659 78.7648 134.916 78.5086 135.364C77.1633 137.862 79.918 139.88 81.9359 140.713C84.5305 141.77 87.8297 141.995 89.9437 139.88C91.0328 138.759 91.225 137.094 91.1609 135.684ZM84.7227 137.83C83.8578 137.67 83.025 137.35 82.2562 136.902C82.2562 136.902 82.2563 136.902 82.2242 136.87C82.5125 136.645 82.7047 136.293 82.7687 135.812C82.8008 135.588 82.8008 135.364 82.8969 135.14C82.9289 135.14 82.9609 135.14 83.025 135.108C83.6656 135.012 84.4023 135.3 84.9789 135.524C85.8758 135.845 86.7086 136.293 87.5414 136.773C87.3172 137.959 86.1961 138.087 84.7227 137.83ZM86.7086 59.1617C84.2742 52.307 76.7789 54.5492 71.3016 54.6133C65.1195 54.6773 58.9055 54.9336 52.7234 54.9336C52.6594 54.9336 52.5953 54.9336 52.5313 54.9336C51.9867 54.7734 51.3781 54.9016 50.8977 55.5102C47.4383 59.9625 45.5164 67.682 52.3711 69.9562C54.2609 70.5648 56.407 70.2445 58.3289 70.1805C60.9875 70.1164 63.6461 70.1164 66.3367 70.0844C70.1805 70.0203 73.9602 69.6359 77.7719 69.3477C80.3344 69.1555 83.2172 68.9313 85.2992 67.2977C87.8937 65.3117 87.7016 61.9484 86.7086 59.1617ZM83.7297 63.8703C83.3453 64.7031 82.3203 65.0555 81.5195 65.2797C79.2773 65.9844 76.7789 65.8242 74.4406 66.0805C69.8281 66.5609 65.2156 66.5609 60.5711 66.625C58.3609 66.657 55.9906 67.0094 53.7805 66.657C52.7234 66.4969 51.7945 65.9844 51.4102 64.9594C50.5773 62.8773 51.8586 60.2508 53.1398 58.457C61.2437 58.457 69.2836 58.3289 77.3555 57.6883C79.6617 57.4961 82.1602 57.5922 83.2492 59.9625C83.7617 61.0516 84.2422 62.6531 83.7297 63.8703ZM115.184 55.8945C111.981 55.9266 108.906 56.2469 105.703 56.0227C103.109 55.8305 100.034 55.4781 97.6633 56.8555C95.7094 58.0086 97.6953 60.9234 99.6492 59.7703C100.354 59.3539 101.443 59.418 102.212 59.418C103.557 59.3859 104.902 59.482 106.248 59.5781C109.355 59.8023 112.366 59.482 115.473 59.418C117.747 59.3859 117.459 55.8625 115.184 55.8945ZM54.325 73.3836C51.7625 71.718 48.4313 71.75 45.8047 73.1594C45.4203 73.3836 45.1641 73.6719 45.068 73.9922C44.3633 74.2164 43.7867 74.793 43.7547 75.7219C43.7227 78.9891 43.1781 82.5766 46.9578 83.8898C49.8727 84.9148 54.6773 83.9539 56.2469 81.1031C57.7844 78.3484 56.9516 75.0812 54.325 73.3836ZM53.1078 79.5336C52.5633 80.7187 49.168 80.943 48.1109 80.5906C46.7016 80.0781 47.0219 77.8359 47.2141 76.2984C47.4062 76.2664 47.5984 76.2023 47.7906 76.1062C50.257 74.7609 54.6773 76.2664 53.1078 79.5336ZM70.4688 73.3836C67.9063 71.718 64.575 71.75 61.9484 73.1594C61.5641 73.3836 61.3078 73.6719 61.2117 73.9922C60.507 74.2164 59.9305 74.793 59.8984 75.7219C59.8664 78.9891 59.3219 82.5766 63.1016 83.8898C66.0164 84.9148 70.8211 83.9539 72.3906 81.1031C73.9602 78.3484 73.0953 75.0812 70.4688 73.3836ZM69.2516 79.5336C68.707 80.7187 65.3117 80.943 64.2547 80.5906C62.8453 80.0781 63.1656 77.8359 63.3578 76.2984C63.55 76.2664 63.7422 76.2023 63.9344 76.1062C66.4008 74.7609 70.8211 76.2664 69.2516 79.5336ZM86.5164 73.3836C83.9539 71.718 80.6227 71.75 77.9961 73.1594C77.6117 73.3836 77.3555 73.6719 77.2594 73.9922C76.5547 74.2164 75.9781 74.793 75.9461 75.7219C75.9141 78.9891 75.3695 82.5766 79.1492 83.8898C82.0641 84.9148 86.8688 83.9539 88.4383 81.1031C90.0078 78.3484 89.143 75.0812 86.5164 73.3836ZM85.3312 79.5336C84.7867 80.7187 81.3914 80.943 80.3344 80.5906C78.925 80.0781 79.2453 77.8359 79.4375 76.2984C79.6297 76.2664 79.8219 76.2023 80.0141 76.1062C82.4484 74.7609 86.8687 76.2664 85.3312 79.5336ZM54.357 88.0539C51.7945 86.3883 48.4633 86.4203 45.8367 87.8297C45.4523 88.0539 45.1961 88.3422 45.1 88.6625C44.3953 88.8867 43.8188 89.4633 43.7867 90.3922C43.7547 93.6594 43.2102 97.2469 46.9898 98.5602C49.9047 99.5852 54.7094 98.6242 56.2789 95.7734C57.8484 93.0187 56.9836 89.7836 54.357 88.0539ZM53.1719 94.2359C52.6273 95.4211 49.232 95.6453 48.175 95.293C46.7656 94.7805 47.0859 92.5383 47.2781 91.0008C47.4703 90.9687 47.6625 90.9047 47.8547 90.8086C50.2891 89.4312 54.7094 90.9367 53.1719 94.2359ZM70.5328 88.0539C67.9703 86.3883 64.6391 86.4203 62.0125 87.8297C61.6281 88.0539 61.3719 88.3422 61.2758 88.6625C60.5711 88.8867 59.9945 89.4633 59.9625 90.3922C59.9305 93.6594 59.3859 97.2469 63.1656 98.5602C66.0805 99.5852 70.8852 98.6242 72.4547 95.7734C73.9922 93.0187 73.1594 89.7836 70.5328 88.0539ZM69.3156 94.2359C68.7711 95.4211 65.3758 95.6453 64.3188 95.293C62.9094 94.7805 63.2297 92.5383 63.4219 91.0008C63.6141 90.9687 63.8063 90.9047 63.9984 90.8086C66.4648 89.4312 70.8852 90.9367 69.3156 94.2359ZM86.5805 88.0539C84.018 86.3883 80.6867 86.4203 78.0602 87.8297C77.6758 88.0539 77.4195 88.3422 77.3234 88.6625C76.6187 88.8867 76.0422 89.4633 76.0102 90.3922C75.9781 93.6594 75.4336 97.2469 79.2133 98.5602C82.1281 99.5852 86.9328 98.6242 88.5023 95.7734C90.0719 93.0187 89.207 89.7836 86.5805 88.0539ZM85.3633 94.2359C84.8188 95.4211 81.4234 95.6453 80.3664 95.293C78.957 94.7805 79.2773 92.5383 79.4695 91.0008C79.6617 90.9687 79.8539 90.9047 80.0461 90.8086C82.5125 89.4312 86.9328 90.9367 85.3633 94.2359ZM54.357 101.763C51.7945 100.098 48.4633 100.13 45.8367 101.539C45.4523 101.763 45.1961 102.052 45.1 102.372C44.3953 102.596 43.8188 103.173 43.7867 104.102C43.7547 107.369 43.2102 110.956 46.9898 112.27C49.9047 113.295 54.7094 112.334 56.2789 109.483C57.8484 106.728 56.9836 103.461 54.357 101.763ZM53.1719 107.913C52.6273 109.098 49.232 109.323 48.175 108.97C46.7656 108.458 47.0859 106.216 47.2781 104.678C47.4703 104.646 47.6625 104.582 47.8547 104.486C50.2891 103.141 54.7094 104.646 53.1719 107.913ZM70.5328 101.763C67.9703 100.098 64.6391 100.13 62.0125 101.539C61.6281 101.763 61.3719 102.052 61.2758 102.372C60.5711 102.596 59.9945 103.173 59.9625 104.102C59.9305 107.369 59.3859 110.956 63.1656 112.27C66.0805 113.295 70.8852 112.334 72.4547 109.483C73.9922 106.728 73.1594 103.461 70.5328 101.763ZM69.3156 107.913C68.7711 109.098 65.3758 109.323 64.3188 108.97C62.9094 108.458 63.2297 106.216 63.4219 104.678C63.6141 104.646 63.8063 104.582 63.9984 104.486C66.4648 103.141 70.8852 104.646 69.3156 107.913ZM86.5805 101.763C84.018 100.098 80.6867 100.13 78.0602 101.539C77.6758 101.763 77.4195 102.052 77.3234 102.372C76.6187 102.596 76.0422 103.173 76.0102 104.102C75.9781 107.369 75.4336 110.956 79.2133 112.27C82.1281 113.295 86.9328 112.334 88.5023 109.483C90.0719 106.728 89.207 103.461 86.5805 101.763ZM85.3633 107.913C84.8188 109.098 81.4234 109.323 80.3664 108.97C78.957 108.458 79.2773 106.216 79.4695 104.678C79.6617 104.646 79.8539 104.582 80.0461 104.486C82.5125 103.141 86.9328 104.646 85.3633 107.913Z" fill="black"/>
<path d="M140.553 101.988C139.592 100.034 138.535 98.1758 137.542 96.2219C135.332 91.8336 133.25 87.3813 131.745 82.6727C129.695 76.3305 129.534 69.4438 127.933 62.9734C126.299 56.5031 122.936 50.7375 116.85 47.5664C115.505 46.8617 114.095 46.3172 112.622 45.9328C112.782 45.4844 112.75 44.9719 112.334 44.4594C111.565 43.5305 112.013 40.3594 112.462 39.1742C112.494 39.0781 112.526 38.95 112.558 38.8539C114.063 38.918 115.569 39.0141 117.042 39.1422C120.63 39.4305 124.537 39.4625 127.58 37.2523C130.495 35.1063 131.008 30.9422 131.104 27.5789C131.2 24.3438 131.072 20.6602 129.855 17.6492C126.684 9.80156 116.818 11.0188 110.059 11.7555C103.845 12.4281 97.8875 12.1078 91.7055 11.3711C87.0609 10.8266 81.7117 10.5383 78.1883 14.1898C77.868 14.5102 77.7398 14.8625 77.7078 15.1828C77.4836 15.5672 77.3875 16.0477 77.5156 16.5602C79.0531 22.3258 75.6258 28.732 79.2133 34.1133C81.2633 37.1883 85.4914 38.5336 88.9828 38.918C91.8336 39.2383 94.7164 39.1422 97.5992 38.982V45.1641C94.6203 45.3883 91.6734 45.7406 88.8867 45.9328C84.1781 46.2531 79.4695 46.4133 74.7289 46.2531C70.2766 46.125 65.9203 45.3242 61.468 45.1641C57.4961 45.0359 53.8445 45.9008 50.4813 48.0148C47.3422 49.9688 45.1 53.1398 43.3703 56.343C41.6086 59.6422 40.5516 63.2938 39.3023 66.8172C37.7008 71.3336 36.1953 75.9141 34.7539 80.4945C31.9031 89.7195 29.6609 99.1047 27.7711 108.586C27.675 109.13 27.8031 109.611 28.0914 109.963C28.1234 110.252 28.2195 110.508 28.3477 110.7C29.3727 113.583 31.2625 115.889 33.9852 117.363C36.7078 118.804 39.943 119.092 42.9539 119.156C46.2852 119.252 49.6484 119.028 52.9797 118.996C58.2648 118.964 63.55 118.868 68.8031 118.772C73.9602 118.676 79.1492 118.58 84.3063 118.708C89.3992 118.836 94.4602 119.316 99.5531 119.701C108.874 120.405 118.355 121.014 127.548 119.06C131.008 118.323 134.595 117.363 137.446 115.184C140.361 112.974 141.546 109.643 141.162 106.12C141.578 104.71 141.194 103.333 140.553 101.988ZM90.7445 35.5867C87.5414 35.4906 83.4734 34.5617 81.7117 31.6148C80.4305 29.4688 80.9109 26.3297 81.0711 23.9594C81.2633 21.3969 81.4555 18.8344 80.975 16.3359C83.5375 13.9656 87.7656 14.6063 90.9367 14.8625C95.8375 15.2789 100.674 15.9516 105.607 15.7273C109.002 15.5672 112.334 14.9906 115.729 14.7984C118.291 14.6383 121.078 14.6703 123.48 15.7594C126.011 16.9125 126.94 19.507 127.228 22.1336C127.58 25.4328 127.965 29.2766 126.748 32.4156C125.338 36.0672 120.918 35.9391 117.619 35.7148C113.038 35.3945 108.458 35.2344 103.845 35.2344C99.5211 35.2664 95.1328 35.7148 90.7445 35.5867ZM108.746 45.1961C106.248 44.8758 103.653 44.8438 101.059 44.9398V38.8219C101.667 38.7898 102.276 38.7578 102.884 38.7578C104.902 38.7258 106.888 38.7258 108.906 38.7578C108.65 39.8469 108.522 41 108.49 42.1531C108.458 43.082 108.458 44.2352 108.746 45.1961ZM137.606 105.831V105.863C137.574 106.088 137.606 106.312 137.67 106.504C137.927 109.163 137.03 111.277 134.691 112.846C132.321 114.448 129.278 115.12 126.491 115.697C117.074 117.651 107.273 116.786 97.7914 116.049C92.8266 115.665 87.8297 115.248 82.8328 115.152C77.6438 115.024 72.4547 115.184 67.2656 115.28C61.9805 115.377 56.6953 115.473 51.4422 115.473C48.2711 115.473 45.1 115.697 41.9289 115.601C37.7008 115.441 33.9531 114.127 32.0953 110.444C33.2164 109.771 32.9922 107.785 31.6469 107.273C33.5367 98.0797 35.8109 88.9828 38.5977 80.0141C40.1031 75.2094 41.8969 70.5008 43.4023 65.6961C44.5875 62.0125 45.9969 58.2969 48.2391 55.1258C50.6094 51.7625 54.0047 49.4242 58.1367 48.8797C62.557 48.2711 67.0094 49.3281 71.4297 49.6164C76.5227 49.9688 81.6477 49.9047 86.7406 49.6164C91.6094 49.3602 96.4461 48.7516 101.283 48.5594C107.977 48.3031 115.184 49.2 119.957 54.357C123.512 58.2008 124.698 63.9023 125.595 68.8672C126.587 74.4727 127.132 80.1422 128.99 85.5555C130.271 89.2711 131.969 92.8266 133.698 96.35C134.563 98.0797 135.396 99.8414 136.325 101.571C136.709 102.276 137.766 103.621 137.895 104.646C137.638 104.934 137.51 105.351 137.606 105.831Z" fill="black"/>
<path d="M123 21.0125C121.559 17.8734 117.971 17.6492 114.928 17.7453C111.084 17.8734 107.273 18.0977 103.429 18.0977H87.6375C86.8367 18.0977 86.3563 18.5141 86.1641 19.0906C85.8758 19.443 85.7156 19.8594 85.6836 20.3078C85.6195 23.4789 84.4023 27.0023 85.9078 30.0133C87.5414 33.3766 91.9617 33.5047 95.1969 33.5367C96.8305 33.5687 98.4641 33.4727 100.098 33.4406C102.436 33.4086 104.838 33.7609 107.209 33.825C112.302 33.9211 117.395 33.4406 122.295 32.0633C123.096 31.8391 123.448 31.0062 123.48 30.2695C123.545 27.2586 124.313 23.9273 123 21.0125ZM120.213 26.3617C120.181 27.2586 120.117 28.1555 120.053 29.0523C116.145 30.0133 112.141 30.3336 108.105 30.3336C104.39 30.3656 100.738 29.9172 97.0227 30.0453C95.4852 30.0773 93.9797 30.0773 92.4422 29.9172C91.4492 29.7891 89.5914 29.6289 89.0789 28.5719C88.182 26.7461 88.6945 24.2477 89.0148 22.0375C89.143 21.9094 89.2391 21.7812 89.3352 21.6211H101.155C104.998 21.6211 108.906 21.7812 112.75 21.4609C114.608 21.3008 118.42 20.532 119.701 22.3258C120.438 23.3508 120.245 25.1766 120.213 26.3617Z" fill="black"/>
</svg>
