<svg width="60" height="60" viewBox="0 0 60 60" fill="none" xmlns="http://www.w3.org/2000/svg">
<path d="M30.9961 35.5195C29.7539 36.0469 28.6523 36.7969 27.3516 37.1953C26.4258 37.4766 25.7344 37.8398 25.2539 38.6953C24.8789 39.3398 24.3867 40.0898 24.0703 40.8516C24.3633 40.7578 24.6563 40.6641 24.9141 40.5586C26.6367 39.8672 28.3477 39.0352 29.7656 37.8164C29.8242 37.7695 29.8945 37.7344 29.9531 37.7109C30.2344 36.9141 30.6328 36.1523 31.1484 35.4609C31.1016 35.4727 31.0547 35.4961 30.9961 35.5195Z" fill="#74CCCF"/>
<path d="M51.0117 4.35938C49.6523 5.25 47.7891 5.4375 46.2305 5.60156C45.1055 5.71875 43.9805 5.80078 42.8672 5.84766C42.8789 5.91797 42.8906 5.97656 42.8789 6.04687C43.0078 6.17578 43.1484 6.29297 43.3008 6.39844C43.4648 6.52734 43.6406 6.64453 43.8047 6.77344C43.8867 6.83203 43.957 6.8789 44.0391 6.9375C45.4219 6.97265 46.8047 7.08984 48.1758 6.92578C49.3477 6.78515 50.5078 6.55078 51.668 6.35156C51.3984 5.73047 51.1406 5.03906 51.0117 4.35938Z" fill="#1E4384"/>
<path d="M33.8555 35.1914C34.0898 35.4961 34.3008 35.8359 34.5 36.1523C34.5117 36.0703 34.5234 35.9883 34.5352 35.9062C34.5703 35.6602 34.6055 35.4141 34.6523 35.168C34.3828 35.1797 34.1133 35.1797 33.8555 35.1914Z" fill="#74CCCF"/>
<path d="M29.1446 29.6367C27.8204 29.918 26.543 30.0586 25.2071 30.1289C23.9532 30.1992 22.6524 30.2578 21.4219 30.5625C20.9297 30.6914 20.3907 30.8203 19.9688 31.1367C19.7696 31.2891 19.6993 31.3945 19.6876 31.5586C22.7813 33.0586 26.2266 33.7266 29.6485 33.8906C31.2891 33.9727 32.9415 33.9609 34.5821 33.8789C34.6641 33.8789 34.7579 33.8672 34.8399 33.8672C35.0977 32.1211 35.3321 30.3633 35.5196 28.6055C33.3516 28.5469 31.254 29.1797 29.1446 29.6367ZM22.4649 42.1406C22.5118 41.3086 22.793 40.5352 23.1915 39.7969C23.5313 39.1641 23.8477 38.4961 24.2344 37.8867C24.9376 36.7969 25.8633 36.2813 27.0938 35.9297C27.7383 35.7422 28.336 35.4258 28.9336 35.0977C25.4063 34.8633 21.961 34.1719 18.7735 32.543C18.7032 35.1445 18.8321 37.7578 18.9844 40.3594C19.1485 43.1484 19.8399 45.8789 20.0508 48.668C20.0508 48.6914 20.0508 48.7031 20.0508 48.7266C21.0118 49.3945 22.2891 49.6875 23.3907 49.9101C24.4805 50.1211 25.5821 50.2734 26.6954 50.332C26.4493 49.8984 26.168 49.4766 25.8985 49.0781C25.3477 48.2461 24.8204 47.3789 24.3047 46.5117C23.8243 45.6914 23.2383 44.8711 22.8399 44.0039C22.6055 43.4766 22.3008 42.7852 22.4415 42.1992C22.4532 42.1758 22.4649 42.1523 22.4649 42.1406Z" fill="#F6851F"/>
<path d="M50.6602 15.5859C50.0625 15.1172 49.1602 14.9883 48.4336 14.8594C46.125 14.4375 43.8047 14.3789 41.4609 14.3672C41.4609 14.4258 41.4492 14.4844 41.4492 14.5547C41.3906 15.2695 41.3203 15.9961 41.2617 16.7109C41.2148 17.3086 41.25 18 41.0977 18.5859C41.0508 18.75 41.0039 18.9141 40.9336 19.0781C42.1055 18.8789 43.2773 18.5977 44.4375 18.2813C46.207 17.7891 48.1172 17.4492 49.7461 16.4883C49.8516 16.4297 49.9453 16.3711 50.0508 16.3008C50.0977 15.9609 50.3906 15.7617 50.6719 15.75C50.6836 15.7266 50.6953 15.6914 50.707 15.6563C50.707 15.6328 50.6836 15.5977 50.6602 15.5859ZM33.4688 36.9375C33.2109 36.5156 32.9648 36.0352 32.6133 35.6719C31.9336 36.4102 31.3945 37.3711 31.1133 38.2734C31.0781 38.4023 31.0078 38.5078 30.9258 38.5781C31.5352 40.1367 32.1914 41.8008 33.3984 42.9727C33.7148 41.0156 34.0313 39.0469 34.3477 37.0898C34.0781 37.2891 33.6914 37.3125 33.4688 36.9375Z" fill="#74CCCF"/>
<path d="M32.6953 44.0977C31.3125 42.8437 30.5391 41.0977 29.8594 39.375C28.6641 40.2539 27.3281 40.8984 25.9688 41.4961C25.4063 41.7422 24.8203 41.9414 24.2461 42.1523C24.0469 42.2227 23.7188 42.3633 23.7188 42.4336C23.7422 43.125 24.1875 43.7461 24.5273 44.3203C24.9961 45.1172 25.4531 45.9141 25.9336 46.7109C26.4141 47.4961 26.9883 48.2461 27.4336 49.0547C27.6914 49.5352 27.9961 49.9922 28.2188 50.4961C28.3945 50.6367 28.4883 50.8711 28.4766 51.082C28.5352 51.0703 28.6055 51.0586 28.6758 51.0703C29.9297 51.1758 31.793 50.4492 32.1328 49.125C32.1797 48.9375 32.2969 48.7969 32.4258 48.7266C32.543 48.1875 32.6602 47.6484 32.7656 47.0977C32.9414 46.1602 33.0586 45.2109 33.1992 44.2617C33.0352 44.2852 32.8594 44.2383 32.6953 44.0977Z" fill="#D6E5E5"/>
<path d="M37.207 35.0742C36.7969 35.0977 36.375 35.1094 35.9531 35.1211C35.918 35.3906 35.8711 35.6602 35.8242 35.9297C35.4258 38.543 34.9805 41.1445 34.5703 43.7461C34.3711 45.0117 34.2305 46.2774 33.9844 47.5313C33.7852 48.5156 33.5625 49.5 33.3516 50.4844C33.6211 50.5313 33.8906 50.5781 34.1484 50.6016C34.5469 50.6484 35.0859 50.7539 35.4844 50.6367C36.0937 50.461 36.0234 48.8672 36.1406 48.3047C36.5039 46.7109 36.9141 45.1406 37.207 43.5234C37.5117 41.8711 37.7461 40.2188 38.0156 38.5664C38.2031 37.3711 38.3672 36.1758 38.5078 34.9688C38.0859 35.0273 37.6406 35.0508 37.207 35.0742Z" fill="#1E4384"/>
<path d="M51.1172 45.457C51.0586 43.4766 50.4961 41.6016 49.9453 39.7266C49.9102 39.668 49.8984 39.5977 49.8867 39.5156C49.6758 38.8125 49.4766 38.1094 49.3125 37.3945C48.5156 37.3594 48.4219 36.1055 49.2422 36.1055H49.4062C49.3242 35.707 49.2422 35.3203 49.1719 34.9219C49.0078 33.9492 48.9844 32.9883 48.9844 32.0039C48.0937 32.7891 46.8398 33.3164 45.9141 33.668C44.8828 34.0547 43.8398 34.2773 42.75 34.4531C41.7773 34.6055 40.8047 34.7461 39.832 34.8516C39.668 36.293 39.4805 37.7344 39.2344 39.1641C40.3711 38.8945 41.5312 38.6602 42.7031 38.5781C43.8867 38.4961 45.3281 38.4961 46.1953 39.4219C46.582 39.4805 46.9219 39.6562 47.2266 40.0078C47.7891 40.6289 48.1992 41.3906 48.5742 42.1406C49.3476 43.6758 49.9922 45.2813 50.6016 46.8984C50.707 47.1797 50.5898 47.4727 50.3555 47.6484C50.1094 47.8242 49.875 48.0117 49.6406 48.2109C49.7227 48.1758 49.8047 48.1289 49.8867 48.082C50.9531 47.5195 51.1523 46.6172 51.1172 45.457Z" fill="#F6851F"/>
<path d="M52.957 45.4805C52.6523 42.5039 52.3242 39.5273 51.9492 36.5625C51.164 30.3281 50.3203 24.082 50.0976 17.7891C48.5507 18.6211 46.7578 18.9844 45.082 19.4414C43.7226 19.8164 42.3632 20.1445 40.9921 20.3672C41.1211 21.5859 40.9336 22.8633 40.8046 24.082C40.6757 25.2656 40.5703 26.4375 40.4882 27.6211C42.3398 27.1758 44.3437 27.0234 46.2304 27.1758C47.8242 27.3047 50.2031 27.8672 50.1328 29.918C50.1328 29.9883 50.1211 30.0586 50.1211 30.1289C50.2265 30.2227 50.2968 30.3633 50.2968 30.5508C50.2968 32.0625 50.2265 33.5508 50.5195 35.0391C50.789 36.4688 51.1523 37.875 51.1757 39.3398C51.832 41.5781 52.5 43.8047 52.4062 46.1953C52.3593 47.3906 51.8086 48.5156 50.7304 49.1016C49.6875 49.6758 48.5039 49.9219 47.4023 50.3672C47.2851 50.4141 47.1796 50.4258 47.0859 50.4141C46.7578 50.6602 46.4179 50.8945 46.0898 51.1406C45.5039 51.5742 44.9179 52.043 44.2617 52.3828C43.7812 52.6406 43.0781 53.0273 42.4921 52.8516C42.1054 52.7344 41.789 52.5352 41.5078 52.2773C40.0312 52.7578 38.0859 51.9375 36.914 50.918C36.6679 51.4453 36.2578 51.8555 35.5664 51.9258C34.5586 52.0313 33.457 51.8555 32.4726 51.6094C32.2851 51.5625 32.1328 51.4453 32.039 51.3047C31.0195 52.0664 29.6367 52.4297 28.4296 52.3125C28.1601 52.2891 28.0078 52.1367 27.9492 51.9492C27.6796 52.0078 27.3984 51.9258 27.2695 51.6094C25.8398 51.5742 24.3867 51.4102 22.9921 51.1055C21.4921 50.7891 19.7226 50.332 18.6328 49.1719C18.3164 48.832 18.4453 48.3867 18.7148 48.1523C18.457 45.4922 17.8476 42.8906 17.6836 40.207C17.5195 37.3125 17.3789 34.4062 17.5312 31.5C17.5546 31.0547 17.9882 30.5977 18.457 30.8672L18.4687 30.8789C19.1484 29.0742 22.9921 28.9219 24.4218 28.8398C25.7929 28.7578 27.1171 28.7109 28.4648 28.4297C30.8203 27.9375 33.1875 27.1758 35.625 27.2813C35.8359 25.0547 35.9648 22.8281 35.9648 20.5898C35.9648 20.5781 35.9648 20.5547 35.9648 20.543C35.9648 20.543 35.9648 20.543 35.9531 20.543C35.8593 20.6133 35.7421 20.6484 35.5898 20.6484C33.3164 20.6484 31.0429 20.6484 28.7695 20.4844C26.4492 20.3203 24.1875 19.8867 21.914 19.4531C20.8945 19.2539 19.7695 19.1719 18.7851 18.8555C18.2461 18.6797 17.6953 18.5039 17.1679 18.3164C17.0156 18.2578 16.8515 18.2109 16.6992 18.1523C16.1601 20.8008 15.9023 23.4961 15.832 26.1914C15.75 29.0977 15.7265 32.0039 15.9023 34.8984C16.0664 37.582 16.2773 40.2656 16.3593 42.9492C16.4179 44.6719 16.4531 46.4648 16.9687 48.1289C17.2851 49.125 17.7656 50.0859 18.539 50.8008C19.5117 51.6914 20.7304 52.207 21.9961 52.5117C25.5117 53.3438 29.1211 53.2383 32.707 53.1445C36.1406 53.0508 39.6093 53.3203 43.0312 52.8984C45.9726 52.5352 48.7734 51.7031 51.457 50.4844C51.5039 50.2383 51.6914 50.0039 51.9961 49.9336C52.7343 49.7813 52.8867 48.7148 52.957 48.1172C53.1093 47.2852 53.039 46.3711 52.957 45.4805Z" fill="#74CCCF"/>
<path d="M47.2031 28.6055C45.082 28.1836 42.6328 28.3711 40.5352 28.9219C40.4766 28.9336 40.4297 28.9453 40.3711 28.9453C40.3711 28.9688 40.3711 29.0039 40.3594 29.0274C40.2422 30.5391 40.1133 32.0391 39.9609 33.5508C39.9727 33.5508 39.9727 33.5508 39.9844 33.5508C42.4805 33.2696 44.9531 32.9883 47.1445 31.6875C47.7656 31.3242 48.75 30.75 48.832 29.9414C48.9258 29.086 47.8476 28.7344 47.2031 28.6055Z" fill="#F6851F"/>
<path d="M39.7149 20.5312C39.7031 20.5312 39.6797 20.5312 39.668 20.5312C39.6328 20.543 39.6094 20.5547 39.5742 20.5664C39.1172 20.7188 38.6602 20.7305 38.2031 20.6367C37.8984 20.6484 37.582 20.6484 37.2773 20.6484C37.2656 25.0547 36.7734 29.4375 36.1523 33.7969C36.9961 33.7617 37.8281 33.7265 38.6719 33.668C38.8711 31.8164 39.0234 29.9531 39.1641 28.0898C39.2695 26.6016 39.4102 25.1367 39.5625 23.6484C39.668 22.6289 39.8086 21.5742 39.7149 20.5312Z" fill="#1E4384"/>
<path d="M44.0977 39.8789C43.4883 39.8203 42.8555 39.8672 42.2461 39.9375C41.1914 40.0664 40.1602 40.2773 39.1289 40.5351C39.082 40.5469 39.0352 40.5586 39 40.5586C38.7187 42.1875 38.5078 43.8281 38.168 45.4453C38.168 45.4453 38.168 45.4453 38.168 45.4336C38.9297 44.1445 40.1953 43.0781 41.3086 42.1055C42.1875 41.3437 43.207 40.4414 44.3203 39.8906C44.2383 39.8906 44.168 39.8789 44.0977 39.8789Z" fill="#74CCCF"/>
<path d="M47.625 43.1133C47.2852 42.4219 46.9336 41.7071 46.4531 41.0977C46.3711 41.0039 46.3008 40.8985 46.207 40.8164C46.1367 40.7578 46.0664 40.711 46.1016 40.711C45.9727 40.6875 45.8555 40.6992 45.668 40.7578C44.2734 41.2032 43.0195 42.293 41.9531 43.2539C41.3672 43.7813 40.793 44.3203 40.2539 44.9063C40.0664 45.1172 39.8203 45.3867 39.6211 45.6211C39.8672 46.3477 40.3359 46.9688 40.6992 47.6485C40.9336 48.1055 41.0859 48.586 41.2617 49.0664C41.4492 49.6055 41.6367 50.168 41.918 50.6719C42.293 50.6602 42.6094 51.0938 42.5273 51.4922C42.6328 51.5625 42.7383 51.5977 42.8555 51.586C43.418 51.5039 43.9687 51.0821 44.4141 50.7657C44.918 50.4141 45.3984 50.0391 45.8906 49.6875C47.0742 48.8438 48.0938 47.8008 49.2422 46.9102C48.7383 45.6211 48.2227 44.3438 47.625 43.1133Z" fill="#D6E5E5"/>
<path d="M40.1602 49.875C39.9609 49.3359 39.8203 48.7266 39.5391 48.2227C39.1758 47.5781 38.7422 46.9688 38.4727 46.2773C38.2734 46.1953 38.1094 46.0313 38.0742 45.8203C37.793 47.0742 37.4766 48.3047 37.2656 49.5703C37.3477 49.6055 37.4414 49.6641 37.5117 49.7461C38.1211 50.4375 39.5508 51.1992 40.6758 51.1172C40.4766 50.7188 40.3125 50.2852 40.1602 49.875Z" fill="#74CCCF"/>
<path d="M24.0937 11.0391C22.9804 9.22269 21.2929 7.74613 19.4179 6.75004C17.6484 5.81254 15.6562 5.19144 13.6406 5.47269C12.0468 5.68363 10.5703 6.38676 9.33981 7.40629C5.99996 10.1602 4.18356 15.211 5.47262 19.418C5.76559 20.3672 6.17575 21.3282 6.80856 22.1016C7.3945 22.8047 8.13278 23.4141 8.87106 23.9414C10.0312 24.7852 12.6093 26.4844 13.8281 24.9024C14.0507 24.6094 14.3789 24.6211 14.6132 24.7735C14.7539 22.2657 15.0586 19.7579 15.6093 17.2969C15.6328 17.2032 15.6679 17.1211 15.7148 17.0508C15.8203 16.8047 16.0781 16.6055 16.3711 16.5938C16.6406 16.5821 16.8281 16.711 16.9336 16.8868C16.9804 16.9102 17.0273 16.9219 17.0742 16.9454C17.3086 17.0391 17.5429 17.1211 17.789 17.2032C18.1992 17.3438 18.6093 17.4727 19.0195 17.6133C19.7578 17.8594 20.5898 17.9297 21.3515 18.0703C22.0429 18.1993 22.7343 18.3399 23.4257 18.4688C23.4492 18.3985 23.4843 18.3399 23.5078 18.2696C23.5195 18.1407 23.5781 18.0235 23.6484 17.9414C24.6093 15.7032 25.4765 13.3008 24.0937 11.0391ZM15.2343 16.418C15.1406 16.4532 15.0351 16.4649 14.9414 16.4532C15.1054 16.8868 14.625 17.5196 14.0273 17.2969C13.9922 17.2852 13.957 17.2735 13.9218 17.25C13.9453 17.4493 13.8632 17.6485 13.6289 17.7774C13.3359 17.9414 13.0547 18.0821 12.75 18.211C13.0781 18.1641 13.4062 18.1641 13.7343 18.1875C13.7461 18.1875 13.7461 18.1875 13.7578 18.1875C14.1211 18.1993 14.4843 18.4805 14.4257 18.9375C14.2031 20.4493 13.664 21.8321 12.5039 22.875C11.7539 23.5547 10.2187 24.5274 9.44528 23.2969C8.68356 22.0782 9.0234 20.3672 10.0781 19.4297C10.3359 19.1954 10.6172 18.9961 10.9101 18.8321C10.8047 18.8555 10.6992 18.8789 10.582 18.9024C9.66793 19.0899 8.76559 19.2188 7.87496 18.8672C6.44528 18.3399 5.40231 16.6407 6.31637 15.1875C8.41403 11.836 11.8476 14.9649 14.3554 16.043C13.582 15.1055 12.5742 14.3789 11.7539 13.4883C11.0625 12.75 10.1132 11.6719 10.1601 10.5703C10.2656 8.55472 12.5742 8.39066 14.0976 8.01566C14.3789 7.94535 14.6836 8.00394 14.8476 8.26176C15.5273 9.32816 15.7851 10.6407 15.9492 11.8828C16.125 13.1719 16.1836 14.4727 16.1953 15.7852C16.1836 16.3477 15.6093 16.5704 15.2343 16.418ZM23.0156 16.1719C22.7109 17.3321 21.3515 17.5547 20.3203 17.5313C19.3125 17.4961 18.0117 17.3907 17.2265 16.6758C17.2148 16.6641 17.2031 16.6524 17.1914 16.6407C16.8984 16.5469 16.6289 16.2657 16.6757 15.9024C16.4648 15.8321 16.3007 15.6563 16.3007 15.3633C16.3007 14.9649 16.2773 14.5782 16.2539 14.1797C16.1718 12.5274 15.9961 10.6993 16.5117 9.10551C16.7226 8.43754 17.1211 7.73441 17.8359 7.48832C18.6562 7.21879 19.5234 7.53519 20.2148 7.99222C21.1172 8.57816 22.0312 9.39847 22.2187 10.5118C22.3711 11.3789 21.9843 12.211 21.4336 12.8672C21.2929 13.0313 21.1406 13.1954 20.9882 13.3477C21.3281 13.3243 21.6562 13.336 21.9843 13.418C23.2031 13.7344 23.2851 15.1641 23.0156 16.1719Z" fill="#F6851F"/>
<path d="M21.8086 14.8008C21.7617 14.6367 21.4805 14.6133 21.1992 14.6484C20.3438 14.7422 19.5352 15.082 18.75 15.3984C18.668 15.4336 18.5977 15.4453 18.5274 15.4453C18.4102 15.5625 18.293 15.6797 18.1875 15.7969C18.6797 16.1484 19.5235 16.2304 20.086 16.2422C20.4727 16.2539 21.6094 16.3359 21.7735 15.8672C21.8789 15.5742 21.8906 15.0937 21.8086 14.8008ZM20.9649 10.6875C20.7188 9.82029 19.8281 9.1406 19.0313 8.81248C18.7852 8.70701 18.457 8.64842 18.3399 8.69529C18.1758 8.75388 18.0586 8.83592 17.9649 9.0117C17.6485 9.58592 17.5664 10.2773 17.5195 10.9336C17.4375 12.1523 17.543 13.3594 17.5899 14.5781C17.8008 14.3789 18.0117 14.2031 18.2227 14.039C18.8672 13.5117 19.5586 13.0195 20.1446 12.4101C20.5313 12 21.1524 11.332 20.9649 10.6875ZM11.0391 20.3086C10.7461 20.5898 10.4531 20.9297 10.3711 21.3398C10.2891 21.7031 10.2539 22.289 10.5117 22.6054C10.7578 22.9101 11.918 21.6679 12.0469 21.4922C12.5508 20.8359 12.832 20.2031 13.0078 19.4648C12.293 19.5234 11.5313 19.8398 11.0391 20.3086ZM14.707 12.3164C14.5781 11.332 14.4375 10.2422 13.9805 9.33982C12.9024 9.5156 11.1094 9.80857 11.5313 10.9219C12.1406 12.5156 13.6875 13.5234 14.8828 14.7304C14.8594 13.9219 14.8008 13.1133 14.707 12.3164ZM10.8047 15.5742C9.98439 15.164 8.57814 14.4961 7.79298 15.3398C7.40626 15.75 7.10158 16.2773 7.35939 16.8515C7.57033 17.3203 8.07423 17.6601 8.56642 17.7656C9.93751 18.0586 11.6485 17.3906 12.8438 16.7344C12.1641 16.3594 11.5078 15.9258 10.8047 15.5742Z" fill="#F6851F"/>
<path d="M39.4102 10.6055C39.4102 10.6289 39.4219 10.6406 39.4219 10.6641C39.5977 11.6367 39.3516 12.6445 39.1289 13.5938C38.707 15.3516 38.5547 17.2266 37.9922 18.9492C38.0977 19.0547 38.168 19.1719 38.1797 19.3125C38.2266 19.3359 38.2734 19.3477 38.3203 19.3594C38.6484 19.3477 38.9648 19.3242 39.293 19.2891C39.3164 19.2656 39.3398 19.2539 39.3633 19.2305C39.9727 18.6094 39.9023 17.6953 39.9727 16.8867C40.1484 14.8477 40.3477 12.8203 40.3828 10.7813C40.0547 10.7461 39.7266 10.6875 39.4102 10.6055ZM42.8555 7.67578C42.5742 7.47656 42.293 7.26563 42.0469 7.03125C41.8008 6.79688 41.5898 6.55078 41.5312 6.19922C41.5078 6.09375 41.5195 5.98828 41.5547 5.89453C41.3086 5.90625 41.0508 5.90625 40.793 5.91797C40.8398 6.14063 40.7695 6.38672 40.5234 6.52734C40.4883 6.55078 40.4414 6.57422 40.4062 6.59766C41.1797 7.14844 42.0234 7.60547 42.8672 8.03906C42.8555 7.91016 42.8555 7.79297 42.8555 7.67578Z" fill="#1E4384"/>
<path d="M23.3203 7.05469C23.3086 6.97266 23.3086 6.96094 23.3086 7.00781C23.2852 6.9375 23.2734 6.87891 23.25 6.80859C23.2383 6.77344 23.2266 6.76172 23.2266 6.75C23.2031 6.71484 23.1914 6.67969 23.168 6.65625C23.1562 6.65625 23.1328 6.62109 23.1094 6.59766C23.1094 6.59766 23.0977 6.59766 23.0977 6.58594C22.9336 6.60937 22.7812 6.71484 22.5937 6.86719C22.4766 6.97266 22.3125 6.99609 22.1602 6.97266C22.5234 7.25391 22.875 7.55859 23.2031 7.875C23.2148 7.85156 23.2266 7.82812 23.2383 7.80469C23.3086 7.65234 23.3555 7.44141 23.3437 7.25391C23.332 7.19531 23.332 7.125 23.3203 7.05469ZM26.4844 14.3437C26.3437 14.3789 26.2148 14.3672 26.0977 14.332C25.9453 15.8438 25.3594 17.2734 24.7617 18.6562C24.7617 18.668 24.75 18.6914 24.75 18.7031C28.1602 19.2773 31.5586 19.4063 35.0039 19.4063C35.1328 19.2891 35.3086 19.207 35.5313 19.2422C35.8711 19.2891 36.1992 19.3125 36.5391 19.3359C36.5391 19.2539 36.5508 19.1602 36.5859 19.0547C36.9492 18.1641 37.0898 17.1914 37.2656 16.2422C37.4297 15.3516 37.5938 14.4609 37.8047 13.5937C34.1016 12.9492 30.0937 13.4414 26.4844 14.3437Z" fill="#74CCCF"/>
<path d="M39.3398 7.42969C39.3984 7.73438 39.4102 8.02734 39.2813 8.29688C39.1523 8.58984 38.8945 8.77734 38.6133 8.90625C38.6367 8.91797 38.6602 8.92969 38.6719 8.94141C39.4102 9.35156 40.2422 9.51563 41.0742 9.5625C41.1445 9.55078 41.2148 9.53906 41.2852 9.51562C41.3437 9.24609 41.4727 9.01172 41.6719 8.87109C40.8633 8.4375 40.0781 7.96875 39.3398 7.42969Z" fill="#1E4384"/>
<path d="M28.8164 10.043C28.7812 9.25783 28.1836 8.46095 27.4922 8.32033C27.082 8.63673 26.5664 8.85939 25.9687 8.9297C25.418 8.98829 25.043 8.26173 25.4297 7.86329C25.8516 7.41798 26.4023 7.12501 26.9766 7.03126C27.2461 6.63283 27.293 6.10548 26.9883 5.56642C26.2734 4.28908 24.9141 4.4297 23.8125 5.13283C23.3086 5.44923 22.5 4.88673 22.875 4.31251C23.0273 4.06642 23.2031 3.73829 23.1914 3.53908C23.1797 3.37501 23.1562 3.28126 23.0391 3.17579C22.7109 2.88283 22.1836 2.75392 21.668 2.77736C20.4258 2.83595 19.3477 3.53908 19.5117 4.89845C19.5352 5.07423 19.4883 5.21486 19.418 5.32033C20.1797 5.68361 20.9297 6.1172 21.6211 6.60939C21.4922 6.32814 21.6094 6.02345 21.8555 5.81251C22.5703 5.20314 23.6602 5.07423 24.2344 5.95314C24.7031 6.66798 24.7383 7.62892 24.375 8.39064C24.2812 8.57814 24.1406 8.68361 23.9883 8.73048C24.2812 9.07033 24.5625 9.42189 24.8086 9.78517C25.2305 10.3945 25.5586 11.0391 25.793 11.707C25.9687 11.7188 26.1328 11.7891 26.2734 11.9649C26.5898 12.3867 27.5625 11.7891 27.8555 11.5781C28.3476 11.2266 28.8516 10.6992 28.8164 10.043Z" fill="#EF4823"/>
<path d="M54.3281 46.5821C54.2109 43.7344 53.7656 40.875 53.4258 38.0625C52.5586 31.0313 51.5508 24.0117 51.3633 16.9219C51.9141 16.4063 52.2539 15.7149 51.8437 14.9766C51.3867 14.1797 50.1445 13.9219 49.3359 13.7344C46.793 13.1367 44.168 13.1016 41.5664 13.0899C41.6133 12.3516 41.6484 11.6016 41.6602 10.8633C41.8359 10.8516 41.9648 10.7813 42.0469 10.6758C42.3281 10.6055 42.5391 10.3594 42.5508 10.0664C42.5625 10.0664 42.5625 10.0664 42.5742 10.0664C42.9844 10.0899 43.2539 9.96096 43.5352 9.67971C43.9453 9.25784 44.0742 8.76565 44.1094 8.23831C45.5039 8.27347 46.8867 8.36721 48.2812 8.22659C49.7578 8.07425 51.1992 7.71096 52.6758 7.52346C53.0508 7.47659 53.4258 7.06643 53.2383 6.668C52.9687 6.11722 52.7578 5.55472 52.5586 4.9805C52.418 4.57034 52.2305 4.11331 52.207 3.668C52.1836 3.2344 51.8203 3.0469 51.4805 3.1055C51.293 2.87112 50.9766 2.76565 50.6719 3.01175C49.418 4.05472 47.5078 4.18362 45.9609 4.34768C43.7109 4.58206 41.4727 4.66409 39.1992 4.66409C38.6719 4.66409 38.4609 5.3555 38.7422 5.71878C38.6016 5.71878 38.4609 5.71878 38.3203 5.71878C38.0039 5.71878 37.6641 6.08206 37.7227 6.41018C37.8164 6.84378 37.9805 7.32425 38.0508 7.7344C37.7461 7.86331 37.418 7.94534 37.1016 8.02737C36.7852 8.1094 36.5625 8.543 36.7031 8.84768C36.8906 9.25784 37.125 9.57425 37.4414 9.89065C37.7344 10.1836 38.0039 10.3711 38.1094 10.7813C38.2383 11.2852 38.1914 11.8242 38.0742 12.3516C35.0156 11.8008 31.7812 11.9883 28.6875 12.5508C29.4844 11.9649 30.0586 11.0742 30.0703 10.0664C30.082 8.92971 29.4492 7.94534 28.5117 7.34768C28.4297 7.30081 28.3477 7.25393 28.2773 7.21878C28.5117 6.59768 28.5 5.88284 28.1836 5.14456C27.8086 4.27737 27.1055 3.69143 26.2266 3.39847C25.6406 3.21097 25.0313 3.24612 24.4453 3.4219C24.4336 3.09378 24.3281 2.76565 24.1172 2.47268C23.5898 1.75784 22.6641 1.53518 21.8203 1.50003C19.8633 1.40628 18.082 2.81253 18.2109 4.82815C18.0937 4.793 17.9883 4.74612 17.8711 4.71097C15.5039 3.91409 12.9961 3.96097 10.7227 5.01565C8.68359 5.96487 7.06641 7.59378 5.85937 9.49221C4.53516 11.5782 3.79688 14.0742 3.79688 16.5469C3.79688 18.4688 4.25391 20.3789 5.22656 22.0664C6.17578 23.7071 7.88672 24.961 9.50391 25.875C11.0039 26.7188 13.1953 27.3867 14.5547 26.0274C14.3789 30.7149 14.7187 35.4492 14.9883 40.1133C15.1406 42.7266 15.0234 45.3985 15.6211 47.9649C16.1484 50.2383 17.5313 52.0782 19.6406 53.0977C22.0781 54.2696 25.0312 54.4453 27.6797 54.5274C30.668 54.6211 33.668 54.3985 36.6562 54.4102C39.5039 54.4219 42.2812 54.4571 45.0937 53.9297C47.8477 53.4141 50.4961 52.4766 53.0039 51.2344C53.2734 51.0938 53.3906 50.8477 53.3906 50.6016C54.3281 49.6407 54.3867 47.8946 54.3281 46.5821ZM48.4453 14.8594C49.1602 14.9883 50.0742 15.1172 50.6719 15.586C50.6953 15.5977 50.707 15.6328 50.7305 15.6563C50.7187 15.6797 50.707 15.7266 50.6953 15.75C50.4023 15.7735 50.1211 15.961 50.0742 16.3008C49.9687 16.3711 49.8633 16.4297 49.7695 16.4883C48.1406 17.4492 46.2305 17.7891 44.4609 18.2813C43.3008 18.6094 42.1289 18.8789 40.957 19.0782C41.0156 18.9141 41.0742 18.75 41.1211 18.586C41.2734 18 41.2383 17.3203 41.2852 16.711C41.3437 15.9961 41.4141 15.2696 41.4727 14.5547C41.4727 14.4961 41.4844 14.4375 41.4844 14.3672C43.8164 14.3789 46.125 14.4375 48.4453 14.8594ZM46.2305 5.60159C47.7891 5.43753 49.6523 5.25003 51.0117 4.3594C51.1406 5.02737 51.3984 5.7305 51.6914 6.36331C50.5312 6.55081 49.3711 6.7969 48.1992 6.93753C46.8281 7.10159 45.4336 6.9844 44.0625 6.94925C43.9805 6.89065 43.8984 6.84378 43.8281 6.78518C43.6523 6.668 43.4883 6.53909 43.3242 6.41018C43.1836 6.293 43.043 6.17581 42.9023 6.05862C42.9023 5.98831 42.9023 5.918 42.8906 5.8594C43.9922 5.80081 45.1055 5.71878 46.2305 5.60159ZM40.5117 6.52737C40.7578 6.38675 40.8281 6.15237 40.7812 5.918C41.0391 5.918 41.2852 5.90628 41.543 5.89456C41.5078 5.98831 41.5078 6.09378 41.5195 6.19925C41.5781 6.55081 41.7891 6.78518 42.0352 7.03128C42.2812 7.26565 42.5625 7.47659 42.8437 7.67581C42.8437 7.793 42.8555 7.91018 42.8437 8.02737C42 7.59378 41.1562 7.13675 40.3828 6.58597C40.4297 6.57425 40.4766 6.55081 40.5117 6.52737ZM39.2812 8.28518C39.3984 8.01565 39.3984 7.72268 39.3398 7.418C40.0781 7.95706 40.8633 8.43753 41.6719 8.8594C41.4727 9.00003 41.3437 9.2344 41.2852 9.50393C41.2148 9.51565 41.1445 9.53909 41.0742 9.55081C40.2422 9.50393 39.4102 9.33987 38.6719 8.92971C38.6484 8.918 38.625 8.90628 38.6133 8.89456C38.9062 8.76565 39.1523 8.57815 39.2812 8.28518ZM39.1289 13.5938C39.3633 12.6446 39.5977 11.6367 39.4219 10.6641C39.4219 10.6407 39.4102 10.6289 39.4102 10.6055C39.7266 10.6875 40.0547 10.7461 40.3828 10.7813C40.3477 12.8203 40.1367 14.8594 39.9727 16.8867C39.9023 17.6953 39.9727 18.6094 39.3633 19.2305C39.3398 19.2539 39.3164 19.2774 39.293 19.2891C38.9766 19.3242 38.6484 19.3477 38.3203 19.3594C38.2734 19.3477 38.2266 19.3242 38.1797 19.3125C38.168 19.1719 38.0977 19.0547 37.9922 18.9492C38.5547 17.2266 38.707 15.3516 39.1289 13.5938ZM49.3125 37.3946C49.4766 38.1094 49.6875 38.8125 49.8867 39.5157C49.8984 39.5977 49.9219 39.668 49.9453 39.7266C50.4961 41.6016 51.0703 43.4766 51.1172 45.4571C51.1523 46.6172 50.9414 47.5196 49.8867 48.1055C49.8047 48.1524 49.7227 48.1875 49.6406 48.2344C49.875 48.0352 50.1094 47.8477 50.3555 47.6719C50.5898 47.5078 50.707 47.2032 50.6016 46.9219C49.9922 45.3047 49.3594 43.6992 48.5742 42.1641C48.1992 41.4141 47.8008 40.6524 47.2266 40.0313C46.9219 39.6914 46.582 39.5039 46.1953 39.4453C45.3281 38.5196 43.8867 38.5196 42.7031 38.6016C41.5312 38.6836 40.3711 38.918 39.2344 39.1875C39.4687 37.7578 39.668 36.3164 39.832 34.875C40.8047 34.7696 41.7891 34.6289 42.75 34.4766C43.8398 34.3008 44.8828 34.0899 45.9141 33.6914C46.8398 33.3399 48.082 32.8008 48.9844 32.0274C48.9844 33 49.0078 33.9727 49.1719 34.9453C49.2422 35.3438 49.3242 35.7305 49.4062 36.1289H49.2422C48.4219 36.1172 48.5156 37.3594 49.3125 37.3946ZM41.9062 50.6719C41.625 50.168 41.4375 49.6055 41.25 49.0664C41.0859 48.586 40.9219 48.0938 40.6875 47.6485C40.3359 46.9688 39.8555 46.3477 39.6094 45.6211C39.8086 45.375 40.0547 45.1055 40.2422 44.9063C40.7812 44.3321 41.3555 43.7813 41.9414 43.2539C43.0078 42.293 44.2617 41.2032 45.6562 40.7578C45.8437 40.6992 45.9609 40.6875 46.0898 40.711C46.0547 40.711 46.125 40.7461 46.1953 40.8164C46.2891 40.8985 46.3594 40.9922 46.4414 41.0977C46.9219 41.7071 47.2734 42.4219 47.6133 43.1133C48.2109 44.3555 48.7266 45.6328 49.2187 46.9102C48.082 47.8125 47.0625 48.8438 45.8672 49.6875C45.375 50.0391 44.8945 50.4141 44.3906 50.7657C43.9336 51.0821 43.3945 51.4922 42.832 51.586C42.7148 51.6094 42.6094 51.5625 42.5039 51.4922C42.5859 51.0938 42.2812 50.6719 41.9062 50.6719ZM34.582 33.8672C32.9414 33.9492 31.2891 33.961 29.6484 33.8789C26.2266 33.7149 22.7812 33.0469 19.6875 31.5469C19.6992 31.3828 19.7695 31.2774 19.9687 31.125C20.3789 30.8086 20.9297 30.6797 21.4219 30.5508C22.6523 30.2461 23.9531 30.1875 25.207 30.1172C26.5547 30.0469 27.8203 29.918 29.1445 29.625C31.2539 29.1797 33.3516 28.5469 35.5195 28.5938C35.332 30.3516 35.0977 32.0977 34.8398 33.8555C34.7578 33.8672 34.6641 33.8672 34.582 33.8672ZM34.6406 35.168C34.6055 35.4141 34.5703 35.6602 34.5234 35.9063C34.5117 35.9883 34.5 36.0703 34.4883 36.1524C34.2891 35.8242 34.0781 35.4961 33.8437 35.1914C34.1133 35.1797 34.3828 35.1797 34.6406 35.168ZM31.1602 35.4492C30.6562 36.1407 30.2461 36.9024 29.9648 37.6992C29.8945 37.7227 29.8359 37.7461 29.7773 37.8047C28.3594 39.0235 26.6484 39.8555 24.9258 40.5469C24.668 40.6524 24.375 40.7461 24.082 40.8399C24.3984 40.0782 24.8906 39.3399 25.2656 38.6836C25.7578 37.8282 26.4492 37.4649 27.3633 37.1836C28.6641 36.7852 29.7656 36.0352 31.0078 35.5078C31.0547 35.4961 31.1016 35.4727 31.1602 35.4492ZM28.9336 35.0977C28.3359 35.4258 27.7383 35.7422 27.0937 35.9297C25.8633 36.2813 24.9375 36.7969 24.2344 37.8867C23.8477 38.4844 23.5312 39.1641 23.1914 39.7969C22.8047 40.5352 22.5234 41.3086 22.4648 42.1407C22.4648 42.1641 22.4531 42.1758 22.4414 42.1992C22.2891 42.7969 22.5937 43.4766 22.8398 44.0039C23.2266 44.8711 23.8125 45.6914 24.3047 46.5117C24.8203 47.3789 25.3359 48.2344 25.8984 49.0782C26.168 49.4766 26.4492 49.8985 26.6953 50.3321C25.582 50.2735 24.4805 50.1211 23.3906 49.9102C22.2891 49.6875 21.0117 49.4063 20.0508 48.7266C20.0508 48.7032 20.0508 48.6914 20.0508 48.668C19.8398 45.8789 19.1484 43.1602 18.9844 40.3594C18.832 37.7578 18.7031 35.1563 18.7734 32.543C21.9609 34.1719 25.418 34.8633 28.9336 35.0977ZM25.9219 46.6992C25.4414 45.9141 24.9844 45.1055 24.5156 44.3086C24.1758 43.7344 23.7305 43.1133 23.707 42.4219C23.707 42.3633 24.0469 42.211 24.2344 42.1407C24.8086 41.9297 25.3945 41.7305 25.957 41.4844C27.3164 40.875 28.6523 40.2422 29.8477 39.3633C30.5391 41.0742 31.3125 42.8321 32.6836 44.086C32.8477 44.2383 33.0234 44.2735 33.1875 44.25C33.0469 45.1992 32.9297 46.1367 32.7539 47.086C32.6602 47.625 32.543 48.1758 32.4141 48.7149C32.2734 48.7969 32.168 48.9258 32.1211 49.1133C31.7812 50.4492 29.9062 51.1758 28.6641 51.0586C28.5937 51.0469 28.5234 51.0586 28.4648 51.0703C28.4766 50.8477 28.3828 50.625 28.207 50.4844C27.9727 49.9922 27.6797 49.5235 27.4219 49.043C26.9766 48.2461 26.4023 47.4961 25.9219 46.6992ZM30.9258 38.5899C31.0078 38.5196 31.0781 38.4141 31.1133 38.2852C31.3945 37.3711 31.9336 36.4102 32.6133 35.6836C32.9648 36.0469 33.2109 36.5274 33.4687 36.9492C33.6914 37.3125 34.0781 37.3008 34.3477 37.1016C34.043 39.0703 33.7148 41.0274 33.3984 42.9844C32.1914 41.8125 31.5352 40.1485 30.9258 38.5899ZM33.9961 47.543C34.2422 46.2891 34.3828 45.0235 34.582 43.7578C34.9922 41.1563 35.4375 38.543 35.8359 35.9414C35.8828 35.6719 35.918 35.4024 35.9648 35.1328C36.3867 35.1211 36.7969 35.0977 37.2187 35.086C37.6641 35.0625 38.0977 35.0391 38.543 35.0039C38.4023 36.211 38.2383 37.4063 38.0508 38.6016C37.793 40.2539 37.5469 41.918 37.2422 43.5586C36.9492 45.1641 36.5391 46.7461 36.1758 48.3399C36.0469 48.8907 36.1289 50.4844 35.5195 50.6719C35.1211 50.7891 34.582 50.6836 34.1836 50.6367C33.9141 50.6016 33.6445 50.5664 33.3867 50.5196C33.5742 49.5117 33.7969 48.5274 33.9961 47.543ZM38.6719 33.668C37.8281 33.7266 36.9961 33.7617 36.1523 33.7969C36.7852 29.4375 37.2656 25.0547 37.2773 20.6485C37.5937 20.6485 37.8984 20.6485 38.2031 20.6367C38.6484 20.7305 39.1172 20.7305 39.5742 20.5664C39.6094 20.5547 39.6328 20.543 39.668 20.5313C39.6797 20.5313 39.7031 20.5313 39.7148 20.5313C39.8086 21.5625 39.668 22.6289 39.5625 23.6602C39.4102 25.1367 39.2695 26.6133 39.1641 28.1016C39.0234 29.9532 38.8711 31.8164 38.6719 33.668ZM42.2461 39.9375C42.8555 39.8672 43.4766 39.8203 44.0977 39.8789C44.168 39.8907 44.2383 39.8907 44.3086 39.9024C43.1953 40.4532 42.1758 41.3555 41.2969 42.1172C40.1836 43.0899 38.918 44.1563 38.1562 45.4453C38.1562 45.4453 38.1562 45.4453 38.1562 45.4571C38.4961 43.8399 38.707 42.1992 38.9883 40.5703C39.0352 40.5703 39.0703 40.5586 39.1172 40.5469C40.1602 40.2774 41.1914 40.0547 42.2461 39.9375ZM38.0859 45.8203C38.1211 46.0313 38.2852 46.1953 38.4844 46.2774C38.7539 46.9688 39.1875 47.5782 39.5508 48.2227C39.832 48.7266 39.9727 49.336 40.1719 49.875C40.3242 50.2852 40.4883 50.7188 40.6875 51.1172C39.5742 51.1992 38.1328 50.4375 37.5234 49.7461C37.4531 49.6641 37.3711 49.6055 37.2773 49.5703C37.4883 48.3047 37.8047 47.0742 38.0859 45.8203ZM48.8437 29.9297C48.7617 30.7383 47.7773 31.3125 47.1562 31.6758C44.9531 32.9766 42.4805 33.2578 39.9961 33.5391C39.9844 33.5391 39.9844 33.5391 39.9727 33.5391C40.125 32.0391 40.2539 30.5274 40.3711 29.0157C40.3711 28.9922 40.3711 28.9571 40.3828 28.9336C40.4297 28.9336 40.4883 28.9219 40.5469 28.9102C42.6328 28.3594 45.082 28.1602 47.2148 28.5938C47.8477 28.7344 48.9258 29.086 48.8437 29.9297ZM37.8047 13.6055C37.5937 14.4844 37.418 15.375 37.2656 16.2539C37.0898 17.1914 36.9492 18.1758 36.5859 19.0664C36.5508 19.1602 36.5273 19.2539 36.5391 19.3477C36.1992 19.3242 35.8711 19.3008 35.5313 19.2539C35.3086 19.2305 35.1328 19.3008 35.0039 19.418C31.5469 19.4063 28.1602 19.2891 24.75 18.7149C24.75 18.7032 24.7617 18.6797 24.7617 18.668C25.3594 17.2735 25.9453 15.8555 26.0977 14.3438C26.2148 14.3789 26.3437 14.3907 26.4844 14.3555C30.0937 13.4414 34.1016 12.9492 37.8047 13.6055ZM19.5234 4.88675C19.3594 3.52737 20.4375 2.82425 21.6797 2.76565C22.1953 2.74222 22.7227 2.87112 23.0508 3.16409C23.1562 3.25784 23.1914 3.35159 23.2031 3.52737C23.2148 3.72659 23.0391 4.06643 22.8867 4.30081C22.5117 4.87503 23.3203 5.43753 23.8242 5.12112C24.9258 4.418 26.2969 4.28909 27 5.55472C27.3047 6.09378 27.2578 6.62112 26.9883 7.01956C26.4141 7.11331 25.8633 7.40628 25.4414 7.85159C25.0547 8.26175 25.418 8.97659 25.9805 8.918C26.5781 8.84768 27.0937 8.63675 27.5039 8.30862C28.1953 8.44925 28.793 9.24612 28.8281 10.0313C28.8633 10.6992 28.3594 11.2149 27.8672 11.5782C27.5742 11.7891 26.6133 12.3867 26.2852 11.9649C26.1562 11.7891 25.9805 11.7071 25.8047 11.7071C25.582 11.0391 25.2422 10.3946 24.8203 9.78518C24.5742 9.4219 24.293 9.07034 24 8.7305C24.1523 8.69534 24.293 8.58987 24.3867 8.39065C24.75 7.62893 24.7148 6.668 24.2461 5.95315C23.6719 5.07425 22.5938 5.20315 21.8672 5.81253C21.6328 6.01175 21.5039 6.31643 21.6328 6.6094C20.9297 6.11722 20.1914 5.68362 19.4297 5.32034C19.5 5.20315 19.5469 5.06253 19.5234 4.88675ZM23.0977 6.6094C23.1211 6.63284 23.1445 6.65628 23.1563 6.668C23.1797 6.70315 23.2031 6.72659 23.2148 6.76175C23.2148 6.77347 23.2266 6.78518 23.2383 6.82034C23.2617 6.87893 23.2852 6.94925 23.2969 7.01956C23.2852 6.97268 23.2969 6.9844 23.3086 7.06643C23.3203 7.13675 23.3203 7.20706 23.332 7.27737C23.3438 7.46487 23.2969 7.67581 23.2266 7.82815C23.2148 7.85159 23.2031 7.87503 23.1914 7.89847C22.8633 7.58206 22.5117 7.27737 22.1484 6.99612C22.3008 7.01956 22.4648 6.99612 22.582 6.89065C22.7695 6.72659 22.9219 6.62112 23.0977 6.6094C23.0977 6.59768 23.0977 6.59768 23.0977 6.6094C23.0977 6.6094 23.0859 6.6094 23.0977 6.6094ZM15.6094 17.2969C15.0586 19.7696 14.7539 22.2657 14.6133 24.7735C14.3789 24.6094 14.0508 24.6094 13.8281 24.9024C12.6094 26.4844 10.0312 24.7852 8.87109 23.9414C8.13281 23.4141 7.39453 22.8047 6.80859 22.1016C6.16406 21.3282 5.75391 20.3672 5.47266 19.418C4.18359 15.211 6 10.1602 9.33984 7.40628C10.5703 6.38675 12.0469 5.69534 13.6406 5.47268C15.6562 5.20315 17.6484 5.81253 19.418 6.75003C21.293 7.74612 22.9805 9.22268 24.0938 11.0391C25.4766 13.3008 24.6094 15.7032 23.6602 17.9297C23.5898 18.0235 23.5312 18.1289 23.5195 18.2578C23.4961 18.3282 23.4609 18.3867 23.4375 18.4571C22.7461 18.3282 22.0547 18.1992 21.3633 18.0586C20.6016 17.918 19.7695 17.836 19.0312 17.6016C18.6211 17.4727 18.2109 17.3321 17.8008 17.1914C17.5664 17.1094 17.3203 17.0274 17.0859 16.9336C17.0391 16.9102 16.9922 16.8985 16.9453 16.875C16.8398 16.6992 16.6406 16.5821 16.3828 16.5821C16.0898 16.5938 15.8437 16.793 15.7266 17.0391C15.668 17.1211 15.6328 17.2032 15.6094 17.2969ZM53.0156 48.1875C52.957 48.7852 52.793 49.8516 52.0547 50.0039C51.7383 50.0625 51.5625 50.2969 51.5156 50.5547C48.832 51.7735 46.0195 52.6055 43.0898 52.9688C39.6797 53.3907 36.1992 53.1211 32.7656 53.2149C29.1797 53.3203 25.5703 53.4141 22.0547 52.5821C20.7773 52.2774 19.5703 51.7617 18.5977 50.8711C17.8125 50.1563 17.332 49.1953 17.0273 48.1992C16.5 46.5469 16.4766 44.7422 16.418 43.0196C16.3242 40.336 16.125 37.6524 15.9609 34.9688C15.7852 32.0625 15.8086 29.168 15.8906 26.2617C15.9609 23.5664 16.2187 20.8711 16.7578 18.2227C16.9219 18.2813 17.0742 18.3282 17.2266 18.3867C17.7656 18.5742 18.3047 18.75 18.8437 18.9258C19.8281 19.2422 20.9531 19.336 21.9727 19.5235C24.2461 19.9571 26.5078 20.3907 28.8281 20.5547C31.0898 20.7188 33.375 20.7188 35.6484 20.7188C35.8008 20.7188 35.918 20.6719 36.0117 20.6133C36.0117 20.6133 36.0117 20.6133 36.0234 20.6133C36.0234 20.625 36.0234 20.6367 36.0234 20.6602C36.0234 22.8985 35.8828 25.125 35.6836 27.3516C33.2461 27.2461 30.8789 28.0078 28.5234 28.5C27.1758 28.7813 25.8516 28.8164 24.4805 28.9102C23.0508 29.0039 19.207 29.1446 18.5273 30.9492L18.5156 30.9375C18.0469 30.668 17.6133 31.125 17.5898 31.5703C17.4375 34.4766 17.5664 37.3711 17.7422 40.2774C17.8945 42.9492 18.5156 45.5625 18.7734 48.2227C18.5039 48.4453 18.375 48.9024 18.6914 49.2422C19.7812 50.4024 21.5508 50.8594 23.0508 51.1758C24.4453 51.4688 25.8984 51.6328 27.3281 51.6797C27.457 51.9844 27.7383 52.0782 28.0078 52.0196C28.0664 52.2071 28.2187 52.3594 28.4883 52.3828C29.6953 52.4883 31.0781 52.1367 32.0977 51.375C32.1914 51.5274 32.3437 51.6446 32.5312 51.6797C33.5156 51.9141 34.6172 52.1016 35.625 51.9961C36.3164 51.9258 36.7266 51.5157 36.9727 50.9883C38.1445 52.0078 40.0898 52.8282 41.5664 52.3477C41.8359 52.6055 42.1641 52.8047 42.5508 52.9219C43.125 53.0977 43.8281 52.711 44.3203 52.4532C44.9648 52.1016 45.5625 51.6446 46.1484 51.211C46.4766 50.9649 46.8164 50.7305 47.1445 50.4844C47.2383 50.4961 47.3555 50.4844 47.4609 50.4375C48.5625 49.9922 49.7344 49.7461 50.7891 49.1719C51.8672 48.5742 52.418 47.461 52.4648 46.2657C52.5586 43.8867 51.8906 41.6602 51.2344 39.4102C51.2109 37.9453 50.8477 36.5391 50.5781 35.1094C50.2852 33.6211 50.3555 32.1211 50.3555 30.6211C50.3555 30.4336 50.2852 30.293 50.1797 30.1992C50.1914 30.1289 50.1914 30.0586 50.1914 29.9883C50.2617 27.9375 47.8711 27.375 46.2891 27.2461C44.4023 27.0938 42.3984 27.2344 40.5469 27.6914C40.6406 26.5078 40.7344 25.336 40.8633 24.1524C40.9922 22.9453 41.168 21.668 41.0508 20.4375C42.4219 20.2149 43.7812 19.8867 45.1406 19.5117C46.8047 19.0547 48.6094 18.6914 50.1562 17.8594C50.3789 24.1524 51.2227 30.3985 52.0078 36.6328C52.3828 39.5977 52.7109 42.5742 53.0156 45.5508C53.0391 46.3711 53.1094 47.2852 53.0156 48.1875Z" fill="black"/>
<path d="M15.9492 11.8945C15.7851 10.6641 15.5273 9.33984 14.8476 8.27344C14.6836 8.01563 14.3789 7.95703 14.0976 8.02734C12.5742 8.40234 10.2656 8.56641 10.1601 10.582C10.1015 11.6836 11.0625 12.7617 11.7539 13.5C12.5742 14.3906 13.582 15.1172 14.3554 16.0547C11.8476 14.9766 8.40232 11.8477 6.31638 15.1992C5.40232 16.6641 6.44528 18.3516 7.88669 18.9141C8.77732 19.2539 9.67966 19.1367 10.5937 18.9492C10.6992 18.9258 10.8047 18.9023 10.9218 18.8789C10.6289 19.0547 10.3476 19.2539 10.0898 19.4766C9.03513 20.4023 8.69528 22.125 9.457 23.3437C10.2304 24.5742 11.7656 23.6016 12.5156 22.9219C13.6758 21.8672 14.2148 20.4961 14.4375 18.9844C14.5078 18.5273 14.1328 18.2461 13.7695 18.2344C13.7578 18.2344 13.7578 18.2344 13.7461 18.2344C13.4062 18.2109 13.0781 18.2109 12.7617 18.2578C13.0547 18.1289 13.3476 17.9766 13.6406 17.8242C13.875 17.6953 13.957 17.4961 13.9336 17.2969C13.9687 17.3086 14.0039 17.332 14.039 17.3437C14.6367 17.5664 15.1054 16.9453 14.9531 16.5C15.0586 16.5117 15.1523 16.4883 15.2461 16.4648C15.6328 16.6172 16.1953 16.3945 16.1953 15.8437C16.1836 14.4844 16.1133 13.1836 15.9492 11.8945ZM13.0078 19.4648C12.832 20.2031 12.5508 20.8359 12.0468 21.4922C11.9179 21.668 10.7578 22.9102 10.5117 22.6055C10.2656 22.2891 10.3008 21.7031 10.3711 21.3398C10.4531 20.9297 10.7461 20.5898 11.039 20.3086C11.5312 19.8398 12.2929 19.5234 13.0078 19.4648ZM8.5781 17.7656C8.08591 17.6602 7.582 17.3086 7.37107 16.8516C7.11325 16.2891 7.41794 15.7617 7.80466 15.3398C8.58982 14.4961 9.98435 15.1641 10.8164 15.5742C11.5195 15.9258 12.1758 16.3594 12.8554 16.7344C11.6601 17.3906 9.94919 18.0703 8.5781 17.7656ZM11.5312 10.9219C11.1093 9.82031 12.9023 9.52734 13.9804 9.33984C14.4375 10.2422 14.5781 11.332 14.707 12.3164C14.8125 13.1133 14.8593 13.9219 14.8828 14.7305C13.6758 13.5234 12.1406 12.5156 11.5312 10.9219ZM21.9961 13.418C21.6797 13.3359 21.3398 13.3242 21 13.3477C21.1523 13.1953 21.3047 13.0313 21.4453 12.8672C21.9961 12.2227 22.3828 11.3789 22.2304 10.5117C22.0312 9.39844 21.1289 8.57813 20.2265 7.99219C19.5351 7.54688 18.6679 7.21875 17.8476 7.48828C17.1328 7.72266 16.7461 8.42578 16.5234 9.10547C16.0078 10.7109 16.1836 12.5273 16.2656 14.1797C16.289 14.5781 16.3008 14.9648 16.3125 15.3633C16.3125 15.6563 16.4765 15.832 16.6875 15.9023C16.6406 16.2656 16.8984 16.5469 17.2031 16.6406C17.2148 16.6523 17.2265 16.6641 17.2383 16.6758C18.0234 17.3906 19.3242 17.4961 20.332 17.5313C21.3633 17.5664 22.7226 17.332 23.0273 16.1719C23.2851 15.1641 23.2031 13.7344 21.9961 13.418ZM17.5078 10.9336C17.5547 10.2773 17.6367 9.58594 17.9531 9.01172C18.0468 8.83594 18.1758 8.74219 18.3281 8.69531C18.4453 8.66016 18.7734 8.71875 19.0195 8.8125C19.8281 9.15234 20.707 9.82031 20.9531 10.6875C21.1406 11.332 20.5195 11.9883 20.1211 12.4102C19.5351 13.0078 18.8437 13.5 18.1992 14.0391C17.9883 14.2148 17.7773 14.3906 17.5664 14.5781C17.5429 13.3594 17.4258 12.1523 17.5078 10.9336ZM21.7734 15.8555C21.6093 16.3242 20.4843 16.2422 20.0859 16.2305C19.5234 16.2187 18.6797 16.1367 18.1875 15.7852C18.2929 15.668 18.3984 15.5391 18.5273 15.4336C18.5976 15.4336 18.6679 15.4102 18.75 15.3867C19.5351 15.0703 20.3554 14.7305 21.1992 14.6367C21.4804 14.6016 21.75 14.625 21.8086 14.7891C21.8906 15.0937 21.8789 15.5742 21.7734 15.8555Z" fill="black"/>
</svg>
