<svg width="48" height="48" viewBox="0 0 48 48" fill="none" xmlns="http://www.w3.org/2000/svg">
<path d="M21 4.00001C16 3.00001 12 7.00001 7.99998 10C1.99998 16 1.99998 25 4.99998 33C8.99998 42 19 46 28 44C38 42 46 32 45 22C44 10 32 2.00001 21 4.00001Z" fill="#FEBF10"/>
<path d="M23.347 45.014C15.263 45.014 7.78602 40.499 4.54302 33.203C0.99402 23.74 2.12902 15.164 7.64602 9.64598C8.28602 9.15998 8.87202 8.69798 9.46102 8.23398C12.951 5.48898 16.559 2.65198 21.003 3.48998C26.697 2.48398 32.72 4.01998 37.542 7.71598C42.205 11.289 45.03 16.347 45.497 21.958C46.509 32.079 38.541 42.401 28.097 44.49C26.509 44.843 24.917 45.014 23.347 45.014ZM19.446 4.34498C16.023 4.34498 13.008 6.71798 10.081 9.02098C9.48502 9.48998 8.89302 9.95598 8.30002 10.4C3.12602 15.582 2.07402 23.772 5.46802 32.824C9.13602 41.077 18.573 45.583 27.891 43.512C37.864 41.517 45.466 31.69 44.502 22.05C44.058 16.716 41.37 11.91 36.934 8.51098C32.31 4.96698 26.533 3.50298 21.089 4.49198C21.027 4.50298 20.963 4.50198 20.901 4.49098C20.408 4.39198 19.923 4.34498 19.446 4.34498Z" fill="#010101"/>
<path d="M13.78 20.762C13.707 20.762 13.634 20.746 13.564 20.713C13.315 20.593 13.21 20.295 13.33 20.046C13.986 18.682 15.386 17.724 16.895 17.606C18.407 17.491 19.936 18.216 20.797 19.462C20.954 19.689 20.897 20.001 20.67 20.158C20.442 20.313 20.131 20.258 19.974 20.031C19.312 19.073 18.132 18.511 16.974 18.603C15.813 18.694 14.736 19.431 14.232 20.48C14.145 20.658 13.966 20.762 13.78 20.762Z" fill="#010101"/>
<path d="M33.768 20.569C33.626 20.569 33.485 20.509 33.386 20.393C32.394 19.224 30.668 18.686 29.189 19.087C28.72 19.214 28.189 19.502 28.105 19.93C28.051 20.201 27.788 20.377 27.518 20.324C27.247 20.27 27.071 20.008 27.124 19.737C27.271 18.992 27.946 18.388 28.929 18.122C30.798 17.615 32.896 18.269 34.15 19.746C34.329 19.957 34.303 20.272 34.092 20.451C33.997 20.53 33.882 20.569 33.768 20.569Z" fill="#010101"/>
<path d="M24.266 32.621C24.817 34.863 26.6 36.8 28.341 37.524C29.073 37.828 30.001 37.892 30.583 37.146C31.176 36.386 31.099 35.107 30.636 34.313C30.172 33.519 29.116 32.534 28.401 32.136L24.266 32.621Z" fill="#ED2224"/>
<path d="M31.068 34.061C30.618 33.291 29.759 32.462 29.054 31.964C29.617 31.453 30.057 30.813 30.286 30.085C30.369 29.822 30.223 29.541 29.959 29.458C29.697 29.375 29.416 29.521 29.332 29.785C29.064 30.638 28.444 31.357 27.632 31.76C26.961 32.092 26.143 32.231 25.141 32.182C23.135 32.086 21.176 31.346 19.474 30.041C19.255 29.874 18.941 29.915 18.773 30.134C18.605 30.353 18.647 30.667 18.866 30.835C20.385 32 22.098 32.747 23.876 33.043C24.509 35.18 26.221 37.185 28.149 37.986C28.558 38.156 28.956 38.24 29.328 38.24C29.994 38.24 30.574 37.972 30.977 37.454C31.719 36.502 31.606 34.982 31.068 34.061ZM30.189 36.838C29.721 37.438 28.951 37.236 28.533 37.062C27.214 36.514 25.663 35.04 24.966 33.17C25.008 33.173 25.05 33.179 25.093 33.181C25.239 33.188 25.382 33.191 25.521 33.191C26.511 33.191 27.35 33.015 28.075 32.656C28.113 32.637 28.144 32.609 28.181 32.589C28.8 32.941 29.785 33.85 30.204 34.565C30.568 35.188 30.648 36.249 30.189 36.838Z" fill="#010101"/>
<path d="M27.891 34.327C28.279 34.733 28.666 35.14 29.054 35.546Z" fill="#ED2224"/>
<path d="M29.054 36.046C28.922 36.046 28.79 35.994 28.692 35.891L27.529 34.672C27.339 34.472 27.346 34.156 27.546 33.965C27.745 33.775 28.063 33.781 28.253 33.982L29.416 35.201C29.606 35.401 29.599 35.717 29.399 35.908C29.302 36 29.178 36.046 29.054 36.046Z" fill="#010101"/>
<path d="M36.7089 25.096C35.8389 24.693 34.7149 25.099 34.2039 25.911C33.6929 26.723 33.7709 27.829 34.2889 28.636C34.8069 29.443 35.7099 29.959 36.6539 30.13C37.5039 30.284 38.5199 30.101 38.9639 29.36C39.3369 28.737 39.1739 27.905 38.7589 27.309C38.3429 26.713 37.7199 26.3 37.1119 25.902L36.7089 25.096Z" fill="#F6851F"/>
<path d="M37.2099 30.678C36.9849 30.678 36.7669 30.657 36.5649 30.621C35.4179 30.413 34.435 29.788 33.868 28.906C33.222 27.9 33.1859 26.59 33.7799 25.645C34.4399 24.596 35.8469 24.145 36.9189 24.643C37.1689 24.759 37.2779 25.057 37.1619 25.307C37.1459 25.341 37.126 25.373 37.104 25.402C37.206 25.407 37.2979 25.427 37.3849 25.484C37.9979 25.885 38.6929 26.339 39.1689 27.024C39.7499 27.857 39.837 28.875 39.393 29.618C38.92 30.407 38.0219 30.678 37.2099 30.678ZM35.971 25.438C35.459 25.438 34.9179 25.716 34.6279 26.177C34.2429 26.79 34.2769 27.69 34.7109 28.365C35.1219 29.006 35.882 29.481 36.744 29.636C37.404 29.756 38.215 29.637 38.536 29.102C38.812 28.641 38.6409 28.012 38.3499 27.594C37.9839 27.069 37.402 26.688 36.839 26.32C36.608 26.169 36.543 25.859 36.694 25.628C36.701 25.617 36.709 25.607 36.716 25.596C36.651 25.596 36.57 25.582 36.499 25.55C36.335 25.474 36.155 25.438 35.971 25.438Z" fill="#010101"/>
<path d="M11.229 26.371C10.744 26.221 10.251 26.069 9.74399 26.059C9.23599 26.049 8.70299 26.198 8.35599 26.568C7.84299 27.116 7.86899 27.988 8.12499 28.694C8.50099 29.732 9.31399 30.604 10.324 31.051C11.333 31.499 12.525 31.516 13.547 31.098C14.259 30.807 14.914 30.271 15.144 29.536C15.43 28.62 14.974 27.59 14.23 26.984C13.486 26.378 12.511 26.131 11.557 26.035L11.229 26.371Z" fill="#F6851F"/>
<path d="M11.991 31.902C11.351 31.902 10.712 31.771 10.12 31.508C8.978 31.002 8.079 30.039 7.654 28.864C7.366 28.07 7.303 26.959 7.991 26.226C8.402 25.788 9.024 25.534 9.755 25.559C10.232 25.569 10.69 25.686 11.109 25.811C11.199 25.632 11.39 25.523 11.606 25.538C12.866 25.665 13.827 26.012 14.545 26.597C15.518 27.389 15.95 28.631 15.62 29.685C15.369 30.49 14.682 31.173 13.736 31.56C13.179 31.789 12.584 31.902 11.991 31.902ZM9.691 26.559C9.282 26.559 8.93 26.686 8.72 26.91C8.342 27.314 8.407 28.008 8.594 28.524C8.923 29.43 9.644 30.204 10.525 30.594C11.406 30.984 12.465 31.001 13.356 30.636C14.025 30.362 14.502 29.907 14.665 29.388C14.871 28.73 14.561 27.902 13.912 27.373C13.385 26.943 12.658 26.675 11.694 26.555C11.6 26.796 11.335 26.929 11.081 26.849C10.636 26.711 10.175 26.568 9.733 26.559C9.719 26.559 9.706 26.559 9.691 26.559Z" fill="#010101"/>
</svg>
