<svg width="60" height="60" viewBox="0 0 60 60" fill="none" xmlns="http://www.w3.org/2000/svg">
<path d="M32.2734 27.082C31.1367 27.0469 30 26.918 28.8984 26.6133C27.9844 26.3672 26.8594 26.1211 26.1094 25.5117C24.7031 24.3516 25.1836 22.6055 25.6641 21.1055C26.2969 19.125 26.9531 17.1562 27.0234 15.082C26.8711 15.1172 26.7188 15.1523 26.5781 15.1875C26.4023 15.2344 25.8633 15.3047 25.7812 15.5039C25.4883 16.2773 25.6758 17.2148 25.6406 18.0117C25.5938 19.1484 25.3008 20.2969 25.0078 21.3984C24.8086 22.1836 24.5742 22.957 24.3047 23.707C24.3867 23.8008 24.4453 23.9297 24.4453 24.0703C24.4336 24.4101 24.3633 24.6211 24.1641 24.9023C24 25.1367 23.7656 25.1836 23.5664 25.125C23.5547 25.125 23.5312 25.1367 23.5195 25.1367C21.8906 26.3672 20.2852 27.6094 18.4688 28.5703C16.7461 29.4726 14.9883 30.5976 13.0078 30.7383C13.043 31.0312 13.0664 31.3359 13.0664 31.6289C15.1523 31.3945 17.25 30.6328 19.1484 29.7891C20.7656 29.0742 22.7227 28.043 23.5781 26.4141C23.6719 26.2266 23.8828 26.0508 24.1055 26.0625C25.6172 26.1094 26.8594 26.9297 28.3008 27.2109C29.8945 27.5156 31.4531 27.8203 33.0586 27.9492C33.8203 28.0078 34.582 28.0664 35.3438 28.0781C36.0469 28.0781 36.9141 28.1367 37.5937 27.9258C38.2031 27.7383 38.4023 27.0703 38.5078 26.4141C36.4453 26.7187 34.3711 27.1406 32.2734 27.082Z" fill="#FCBF95"/>
<path d="M53.4492 30.1406C51.7617 32.332 49.2656 33.8555 46.6289 34.6289C45.1055 35.0742 43.5469 35.2969 41.9531 35.25C40.1602 35.2031 38.3906 34.9336 36.6094 34.8516C34.8516 34.7695 33.1523 34.9102 31.4883 35.4844C29.9883 36 28.582 36.7031 27.1758 37.4297C24.2812 38.918 21.3984 40.2773 18.082 40.3945C16.2656 40.4648 14.4609 40.2891 12.668 40.0664C11.7187 39.9492 10.7578 39.8203 9.80859 39.7383C8.95312 39.6562 8.08594 39.5273 7.21875 39.5273C7.08984 39.6445 6.91406 39.6914 6.69141 39.6328C5.68359 39.3633 4.64062 38.9766 3.73828 38.4023C3.89062 38.7773 4.03125 39.1523 4.16016 39.5391C4.65234 41.0976 5.09766 42.668 5.77734 44.1562C9.30469 45.9726 13.207 46.9336 17.1797 47.0273C19.0313 47.0742 20.8945 46.9453 22.6758 46.418C24.3867 45.9141 26.0039 45.1406 27.5039 44.168C30.2109 42.4101 32.8125 40.2187 36.1641 39.9141C37.875 39.7617 39.293 40.207 40.8164 40.9453C42.2695 41.6601 43.8047 42.1172 45.4219 41.625C46.9688 41.1562 48.3516 40.207 49.5234 39.1055C50.5898 38.1094 51.75 37.0195 52.5 35.7539C53.2734 34.4297 53.4961 33.0352 53.6133 31.5234C53.6602 30.9258 53.6953 30.3398 53.7422 29.7422C53.6484 29.8711 53.5547 30 53.4492 30.1406Z" fill="#EF4823"/>
<path d="M36.8087 15.0234C35.2852 15.2695 33.3633 16.1015 32.5079 17.4843C32.1446 18.0703 31.8985 18.7851 32.6719 19.1367C33.4219 19.4765 34.3126 19.5117 35.1212 19.4531C35.3907 19.4296 35.5899 19.5585 35.6954 19.7343C36.3399 19.6757 36.9727 19.5585 37.6172 19.3359C38.6485 18.996 39.8321 18.2929 39.9258 17.0859C40.1016 15.2226 38.2852 14.7773 36.8087 15.0234Z" fill="#FCBF95"/>
<path d="M51.0468 16.8047C49.2656 14.2969 47.1679 11.9765 44.5078 10.3828C41.8593 8.80076 38.9179 7.94529 35.8593 7.68748C32.7656 7.41795 29.5312 7.78123 26.7187 9.18748C23.8476 10.6172 21.6328 13.1133 19.5351 15.4805C17.4023 17.8828 15.2695 20.2148 12.6679 22.1367C10.4648 23.7539 8.07418 25.1953 6.10543 27.1055C4.26559 28.8867 2.42574 31.4297 2.58981 34.1367C2.60152 34.2422 2.61324 34.3594 2.62496 34.4648C2.80074 34.5469 2.92965 34.7109 2.90621 34.9805C2.89449 35.1562 2.89449 35.332 2.90621 35.5078C3.57418 37.0195 5.14449 37.875 6.80856 38.3437C6.89059 38.2851 7.00777 38.2617 7.13668 38.2617C8.19137 38.2617 9.24606 38.414 10.289 38.5195C11.3203 38.625 12.3398 38.7656 13.3593 38.8828C15.4921 39.1289 17.6601 39.3164 19.7929 38.9648C23.3789 38.3906 26.3789 36.2226 29.6601 34.8398C31.1718 34.1953 32.7539 33.6914 34.4062 33.5976C36.164 33.4922 37.9218 33.6914 39.6797 33.8437C41.4375 33.9961 43.207 34.1015 44.9531 33.75C46.289 33.4805 47.6367 33.0234 48.832 32.3672C51.2461 31.043 53.4726 28.875 53.9648 26.0508C54.5273 22.6992 52.9336 19.4531 51.0468 16.8047ZM39.914 25.7578C39.7265 26.789 39.5976 28.3359 38.5429 28.8984C37.9218 29.2265 37.2187 29.2851 36.5273 29.3203C35.6953 29.3672 34.8632 29.3437 34.0312 29.2851C32.3086 29.1797 30.5976 28.9922 28.9218 28.6406C28.1132 28.4648 27.3398 28.2773 26.5664 27.9844C25.9101 27.7383 25.2304 27.4453 24.5273 27.3515C23.4843 28.9922 21.5859 30.082 19.8632 30.8672C17.5898 31.9101 15.0117 32.8125 12.5039 32.9531C12.1757 32.9765 11.8125 32.7187 11.8125 32.3555C11.8125 31.7226 11.8125 31.1015 11.6953 30.4805C11.6367 30.1289 11.8359 29.918 12.0937 29.8476C12.1523 29.625 12.3398 29.4492 12.6445 29.4375C14.6484 29.3906 16.5586 28.1601 18.2578 27.2226C19.875 26.332 21.3164 25.1836 22.7929 24.082C22.8867 23.7422 23.0859 23.3906 23.1914 23.1094C23.4375 22.3945 23.6484 21.668 23.8359 20.9297C24.1289 19.7226 24.4101 18.5273 24.3984 17.2851C24.3867 16.4414 24.2695 15.1875 24.9375 14.5547C25.5937 13.9219 26.6601 13.8984 27.4922 13.664C27.8789 13.5586 28.3359 13.7812 28.3476 14.2265C28.4296 16.3828 27.914 18.457 27.2461 20.4844C26.9062 21.5273 25.8047 23.6836 26.9882 24.539C27.7382 25.0664 28.875 25.3008 29.7656 25.4883C30.7734 25.7109 31.8047 25.8164 32.8359 25.793C35.0039 25.7344 37.125 25.2773 39.2578 24.9961C39.6562 24.9375 39.9843 25.3711 39.914 25.7578ZM40.8398 18.4453C39.4687 20.7539 36.5039 21.0586 34.0781 21.0703H34.0664H33.8554C33.539 21.0703 33.3281 20.8828 33.2343 20.6484C32.3554 20.4961 31.5351 20.1328 31.1015 19.3945C30.0937 17.6836 32.0976 15.75 33.4218 14.9531C34.9453 14.0273 37.0429 13.289 38.8359 13.7929C39.6328 14.0156 40.4062 14.4609 40.8047 15.2109C41.3086 16.207 41.4257 17.4609 40.8398 18.4453Z" fill="#EF4754"/>
<path d="M55.2657 25.6289C55.418 24.2813 55.2774 22.8867 54.8907 21.5156C54.0118 18.4336 51.9844 15.6563 49.8985 13.2773C47.9063 11.0156 45.4688 9.1875 42.6915 8.00391C39.8672 6.78516 36.7149 6.29297 33.6563 6.31641C30.5626 6.33985 27.4688 7.125 24.8321 8.76563C22.1368 10.4414 20.004 12.9961 17.918 15.3516C16.8516 16.5586 15.7618 17.7539 14.6016 18.8672C13.5001 19.9219 12.2696 20.8359 11.0274 21.7266C7.50005 24.2344 3.5274 26.707 1.89849 30.9258C1.28912 32.5078 1.06646 34.2422 1.64068 35.8242C1.76959 37.125 2.37896 38.3555 2.82427 39.5742C3.42193 41.2031 3.80865 42.8906 4.52349 44.4844C4.69927 44.8711 4.81646 45.1055 5.20318 45.3164C5.56646 45.5039 5.94146 45.6914 6.31646 45.8555C7.11334 46.2305 7.93365 46.5469 8.76568 46.8398C10.3477 47.3906 11.9766 47.7773 13.629 48.0234C16.8282 48.5039 20.1563 48.5156 23.2852 47.5898C24.7383 47.1563 26.1211 46.5 27.4219 45.7383C28.8282 44.918 30.0938 43.8867 31.4766 43.0313C32.7774 42.2344 34.1954 41.5547 35.7071 41.2852C37.2657 40.9922 38.6719 41.2969 40.0782 42.0117C41.3555 42.668 42.6915 43.1367 44.1446 43.125C45.6797 43.1133 47.1563 42.4336 48.4219 41.625C49.6524 40.8398 50.7305 39.7969 51.7266 38.7305C52.6172 37.7695 53.461 36.8203 54.0352 35.625C54.6563 34.3359 54.7969 32.9414 54.9141 31.5352C55.0547 29.7305 55.1251 27.9141 55.3946 26.1094C55.418 25.9102 55.3594 25.7578 55.2657 25.6289ZM53.6133 31.5117C53.4961 33.0234 53.2735 34.418 52.5001 35.7422C51.7618 37.0078 50.5899 38.0977 49.5235 39.0938C48.3516 40.1953 46.9688 41.1445 45.4219 41.6133C43.8165 42.0938 42.2813 41.6367 40.8165 40.9336C39.293 40.1953 37.8751 39.75 36.1641 39.9023C32.8008 40.207 30.211 42.3984 27.504 44.1562C26.004 45.1289 24.3985 45.9023 22.6758 46.4063C20.8946 46.9336 19.0313 47.0625 17.1797 47.0156C13.2071 46.9219 9.30474 45.9609 5.7774 44.1445C5.08599 42.6563 4.6524 41.0859 4.16021 39.5273C4.04302 39.1523 3.89068 38.7656 3.73834 38.3906C4.64068 38.9766 5.69537 39.3633 6.69146 39.6211C6.91412 39.6797 7.0899 39.6211 7.2188 39.5156C8.07427 39.5156 8.94146 39.6445 9.80865 39.7266C10.7696 39.8203 11.7188 39.9375 12.668 40.0547C14.461 40.2773 16.2657 40.4531 18.0821 40.3828C21.3985 40.2539 24.2813 38.9062 27.1758 37.418C28.5821 36.6914 30.0001 35.9883 31.4883 35.4727C33.1641 34.8867 34.8516 34.7578 36.6094 34.8398C38.3907 34.9219 40.1602 35.1914 41.9532 35.2383C43.5469 35.2852 45.1055 35.0625 46.629 34.6172C49.2657 33.8438 51.7618 32.3203 53.4493 30.1289C53.5547 29.9883 53.6485 29.8594 53.7422 29.7188C53.7071 30.3281 53.6719 30.9258 53.6133 31.5117ZM53.9532 26.0273C53.461 28.8516 51.2344 31.0195 48.8204 32.3438C47.6251 33 46.2774 33.457 44.9415 33.7266C43.2071 34.0781 41.4258 33.9727 39.668 33.8203C37.9102 33.668 36.1641 33.4688 34.3946 33.5742C32.7422 33.668 31.1602 34.1719 29.6485 34.8164C26.3672 36.1992 23.3672 38.3672 19.7813 38.9414C17.6485 39.2812 15.4805 39.1055 13.3477 38.8594C12.3282 38.7422 11.2969 38.6016 10.2774 38.4961C9.23443 38.3906 8.17974 38.2383 7.12505 38.2383C6.99615 38.2383 6.87896 38.2734 6.79693 38.3203C5.14459 37.8516 3.56256 36.9961 2.89459 35.4844C2.88287 35.3086 2.88287 35.1328 2.89459 34.957C2.90631 34.6875 2.78912 34.5234 2.61334 34.4414C2.60162 34.3359 2.5899 34.2305 2.57818 34.1133C2.41412 31.4063 4.25396 28.8633 6.0938 27.082C8.06255 25.1719 10.4532 23.7305 12.6563 22.1133C15.2579 20.2031 17.3907 17.8594 19.5235 15.457C21.6211 13.0898 23.836 10.5938 26.7071 9.16407C29.5196 7.76953 32.754 7.39453 35.8477 7.66407C38.9063 7.92188 41.8594 8.77735 44.4961 10.3594C47.1563 11.9531 49.254 14.2852 51.0352 16.7813C52.9336 19.4531 54.5274 22.6992 53.9532 26.0273Z" fill="#010101"/>
<path d="M40.793 15.2227C40.3946 14.4609 39.6211 14.0156 38.8242 13.8047C37.0313 13.3125 34.9453 14.0508 33.4102 14.9648C32.0977 15.7617 30.082 17.6953 31.0899 19.4063C31.5234 20.1445 32.3438 20.4961 33.2227 20.6602C33.3164 20.8945 33.5274 21.082 33.8438 21.082H34.0547H34.0664C36.5039 21.0703 39.457 20.7539 40.8281 18.457C41.4258 17.4609 41.3086 16.207 40.793 15.2227ZM39.9375 17.0742C39.832 18.2813 38.6485 18.9727 37.6289 19.3242C36.9844 19.5352 36.3516 19.6524 35.707 19.7227C35.6016 19.5469 35.4024 19.418 35.1328 19.4414C34.3242 19.5117 33.4336 19.4649 32.6836 19.125C31.9102 18.7734 32.1563 18.0703 32.5195 17.4727C33.375 16.1016 35.2969 15.2695 36.8203 15.0117C38.2852 14.7773 40.1016 15.2227 39.9375 17.0742Z" fill="#010101"/>
<path d="M39.2344 24.9961C37.0899 25.2773 34.9805 25.7344 32.8126 25.793C31.7813 25.8164 30.7501 25.7109 29.7422 25.4883C28.8633 25.3008 27.7149 25.0664 26.9649 24.5391C25.7696 23.6836 26.8711 21.5273 27.2227 20.4844C27.8907 18.457 28.4063 16.3828 28.3243 14.2266C28.3126 13.7813 27.8555 13.5586 27.4688 13.6641C26.6368 13.8867 25.5704 13.9219 24.9141 14.5547C24.2461 15.1992 24.3633 16.4531 24.3751 17.2852C24.3868 18.5273 24.1172 19.7227 23.8126 20.9297C23.6368 21.668 23.4141 22.3945 23.168 23.1094C23.0743 23.3906 22.8751 23.7422 22.7696 24.082C21.3047 25.1953 19.8516 26.332 18.2344 27.2227C16.5235 28.1719 14.625 29.4023 12.6211 29.4375C12.3165 29.4492 12.1407 29.625 12.0704 29.8476C11.8125 29.918 11.6133 30.1289 11.6719 30.4805C11.7891 31.1016 11.7891 31.7226 11.7891 32.3555C11.7891 32.707 12.1524 32.9648 12.4805 32.9531C15 32.8125 17.5665 31.9101 19.8399 30.8672C21.5508 30.082 23.461 28.9922 24.504 27.3516C25.2071 27.4336 25.8868 27.7266 26.543 27.9844C27.3165 28.2773 28.0899 28.4648 28.8985 28.6406C30.586 29.0039 32.2969 29.1797 34.0079 29.2851C34.8399 29.332 35.6719 29.3555 36.504 29.3203C37.1954 29.2851 37.9102 29.2266 38.5196 28.8984C39.586 28.3359 39.7032 26.7891 39.8907 25.7578C39.9844 25.3711 39.6563 24.9375 39.2344 24.9961ZM37.6055 27.9141C36.9258 28.125 36.0587 28.0664 35.3555 28.0664C34.5938 28.0664 33.8321 28.0078 33.0704 27.9375C31.4532 27.8086 29.8946 27.4922 28.3126 27.1992C26.8594 26.9297 25.629 26.0977 24.1172 26.0508C23.8946 26.0391 23.6836 26.2266 23.5899 26.4023C22.7344 28.0195 20.7774 29.0508 19.1602 29.7773C17.2618 30.6211 15.1641 31.3711 13.0782 31.6172C13.0665 31.3125 13.0547 31.0195 13.0196 30.7266C15 30.5859 16.7579 29.4609 18.4805 28.5586C20.2969 27.5976 21.9024 26.3555 23.5313 25.125C23.543 25.125 23.5665 25.1133 23.5782 25.1133C23.7774 25.1836 24.0118 25.1367 24.1758 24.8906C24.3751 24.6094 24.4336 24.3984 24.4571 24.0586C24.4571 23.918 24.4102 23.7891 24.3165 23.6953C24.586 22.9336 24.8204 22.1602 25.0196 21.3867C25.3008 20.2852 25.6055 19.1367 25.6524 18C25.6876 17.1914 25.5001 16.2539 25.793 15.4922C25.8633 15.293 26.4141 15.2227 26.5899 15.1758C26.7422 15.1406 26.8829 15.1055 27.0352 15.0703C26.9649 17.1445 26.2969 19.125 25.6758 21.0937C25.1954 22.5937 24.7149 24.3281 26.1211 25.5C26.8594 26.1094 27.9961 26.3555 28.9102 26.6016C30.0118 26.9062 31.1368 27.0352 32.2852 27.0703C34.3829 27.1289 36.4688 26.707 38.5313 26.3906C38.4141 27.0469 38.2032 27.7266 37.6055 27.9141Z" fill="#010101"/>
</svg>
