<svg width="92" height="92" viewBox="0 0 92 92" fill="none" xmlns="http://www.w3.org/2000/svg">
<path d="M71.4437 27.5281C71.4437 27.5281 71.4617 27.5281 71.4437 27.5281C71.4797 27.5102 71.4977 27.4922 71.4977 27.4742C71.4797 27.4922 71.4617 27.5102 71.4437 27.5281Z" fill="#74CCCF"/>
<path d="M71.4977 27.4922C71.4797 27.5102 71.4797 27.5102 71.4617 27.5281C71.5695 27.4742 71.5875 27.4203 71.4977 27.4922Z" fill="black"/>
<path d="M64.3641 69.8984C63.5195 68.2094 62.0641 66.6281 60.8961 64.957C60.3391 66.3406 59.5484 67.6164 58.8656 68.9461C58.093 70.4914 57.3562 72.1445 58.0031 73.8695C58.3984 74.9477 59.0992 75.7922 59.9797 76.4211C59.8898 75.5945 59.8539 74.768 59.9617 73.9414C60.0336 73.4563 60.6266 72.9891 61.1117 73.1688C62.4414 73.618 63.25 75.0555 63.807 76.2594C63.9328 76.5469 64.0586 76.8883 64.1484 77.2477C64.5617 76.8164 64.8852 76.2773 65.0828 75.6305C65.6578 73.6898 65.2445 71.6594 64.3641 69.8984Z" fill="#F6851F"/>
<path d="M72.8992 27.8336C72.8992 27.7797 72.8812 27.7078 72.8812 27.6539C72.5398 25.9289 70.6711 24.3836 69.2695 23.4852C67.3109 22.2274 65.2086 21.868 62.9266 21.5984C59.0633 21.1492 55.1641 21.275 51.2828 21.4906C51.1391 21.7781 50.8875 21.9938 50.5101 21.9938H49.9711C49.6117 21.9938 49.3422 21.832 49.1805 21.6164C47.9406 21.6883 46.7008 21.7781 45.4789 21.832C42.6039 21.9938 39.7289 22.0117 36.8539 21.9758C34.1226 21.9399 31.3734 21.85 28.6422 22.0836C26.3422 22.2813 24.2039 22.6227 22.2812 23.9703C20.8617 24.9586 19.4242 26.2883 18.9391 27.9953C20.1969 27.9055 21.4547 27.9055 22.6945 27.9235C29.0016 27.9953 35.2547 28.8399 41.5617 29.0016C47.4195 29.1453 53.2773 28.9117 59.1351 28.5883C60.6625 28.4985 62.1898 28.3367 63.7172 28.3727C65.1008 28.4086 66.4844 28.4985 67.868 28.4805C69.2695 28.4805 70.6891 28.3727 72.0906 28.2289C72.3961 28.193 72.7016 28.175 73.007 28.157C72.9531 28.0852 72.9172 27.9774 72.8992 27.8336Z" fill="#BCBCBC"/>
<path d="M29.7563 76.6727C29.4328 77.0859 29.1992 77.6609 29.1094 78.1461C29.3789 78.0922 29.6664 78.0383 29.9359 78.0024C29.9 77.5711 29.8461 77.1219 29.7563 76.6727Z" fill="#F6851F"/>
<path d="M32.5414 69.5031C32.182 68.7305 31.8406 67.9578 31.5531 67.1492C30.493 68.5508 28.9656 69.7188 27.6898 71.0305C26.6656 72.1086 25.9469 73.2586 26.0187 74.7859C26.0547 75.6305 26.1805 77.7867 27.0969 78.3977C27.2945 76.5648 28.3906 74.3547 30.4031 74.2109C30.9961 74.175 31.3555 74.5883 31.4633 75.1274C31.643 76.0258 31.8047 76.9242 31.8945 77.8227C33.2062 77.6789 34.2125 77.3375 34.3383 75.7922C34.5359 73.5461 33.4578 71.4617 32.5414 69.5031Z" fill="#F6851F"/>
<path d="M60.3391 81.2367C56.6555 81.6859 53.0078 81.7219 49.3063 81.9016C45.7125 82.0633 42.0649 82.5664 38.4531 82.3328C34.9313 82.0992 31.4274 81.093 27.8695 81.3086C27.6719 81.3266 27.4922 81.2727 27.3484 81.2008C27.3844 81.3266 27.4024 81.4524 27.4383 81.5961C27.6359 82.8539 25.6594 82.9977 25.4617 81.7398C25.3539 81.0211 24.7969 80.5539 24.0961 80.4461C23.6109 80.3742 23.1258 80.4102 22.6586 80.5899C22.3711 80.7156 22.0477 81.0031 22.0117 81.1109C21.7242 82.225 23.1797 83.2672 24.1859 83.5367C25.9828 84.0039 27.8875 84.0039 29.7383 83.968C30.5469 83.95 31.3555 83.9141 32.1641 83.9141C33.4399 83.9141 34.7516 84.1656 36.0453 84.2734C38.8305 84.507 41.6156 84.6687 44.4008 84.7047C47.3477 84.7406 50.2945 84.4531 53.2235 84.3094C58.8836 84.0219 64.5617 83.7703 70.2219 83.4289V79.8172C66.9156 80.2664 63.6274 80.8234 60.3391 81.2367Z" fill="#127274"/>
<path d="M16.0461 45.982C16.118 46.3953 16.3156 46.7727 16.5852 47.1141C16.5852 46.3953 16.6031 45.6766 16.6211 44.9578C16.6211 44.7961 16.6391 44.6164 16.6391 44.4547C16.2258 44.85 15.9383 45.3531 16.0461 45.982Z" fill="#F6851F"/>
<path d="M16.1899 42.2984C16.3695 42.1906 16.5492 42.1367 16.7289 42.1367C16.7649 41.5437 16.8008 40.9508 16.8367 40.3578C15.1656 40.5914 13.8359 41.7953 12.9016 43.1969C12.0391 44.4726 11.0867 46.4492 11.3203 48.0305C11.5 49.2883 12.668 49.9351 13.7461 50.4023C14.6805 50.7976 15.6508 51.1211 16.6031 51.4805C16.5852 50.8695 16.5852 50.2766 16.5852 49.6656C15.3633 48.857 14.2313 47.6711 14.0875 46.1258C13.9258 44.4727 14.8422 43.1609 16.1899 42.2984ZM54.7867 18.3281C54.661 18.0406 54.5172 17.7531 54.3555 17.4836C54.0141 16.9445 53.6188 16.4234 53.1516 15.9563C52.1813 15.0219 51.0852 14.2672 49.8274 13.7281C47.7789 12.8656 45.5508 12.5961 43.3586 13.1172C40.1961 13.8719 34.8235 15.9922 35.2008 19.9992C36.3688 20.0172 37.5188 20.0352 38.6867 20.0352C38.6688 19.8555 38.6867 19.6758 38.7766 19.4781C40.0703 16.7289 43.0172 14.9141 46.0539 15.1477C47.4375 15.2555 48.6414 15.8844 49.4321 17.0523C49.9531 17.825 50.3305 18.6875 50.7617 19.532C52.0375 19.4602 53.3133 19.3883 54.6071 19.3523C54.643 19.1008 54.7508 18.8492 54.9305 18.6695C54.8766 18.5797 54.8406 18.4539 54.7867 18.3281Z" fill="#14B6B9"/>
<path d="M74.4445 30.1875C73.3125 30.0617 72.1984 30.2953 71.0484 30.3492C69.575 30.4211 68.1375 30.5109 66.6641 30.457C63.4836 30.3492 60.357 30.5289 57.1945 30.6906C51.3547 30.9781 45.4969 31.1938 39.657 30.9242C36.7281 30.7984 33.8352 30.475 30.9242 30.2773C27.8875 30.0617 24.8328 29.9 21.7781 29.918C20.4844 29.918 19.1727 29.9539 17.8789 30.1156C17.4477 30.1695 17.2141 30.1875 16.8906 30.2953C17.3398 30.7625 18.0766 31.0141 18.6695 31.1758C20.4484 31.6609 22.2992 31.8227 24.132 31.8766C26.2523 31.9484 28.3906 32.0023 30.5289 32.0203C36.225 32.0563 41.9391 31.8766 47.6352 31.9484C53.5109 32.0023 59.3867 32.1281 65.2625 32.1641C67.5984 32.182 70.0062 32.3617 72.3422 32.1461C73.7078 32.0203 74.4625 31.4094 75.0375 30.3852C74.7859 30.3492 74.5883 30.2953 74.4445 30.1875Z" fill="#BCBCBC"/>
<path d="M62.1539 77.3555C62.118 77.2476 62.0641 77.1578 62.0281 77.05C62.0461 77.2297 62.082 77.4273 62.1 77.607C62.1539 77.6969 62.1898 77.7867 62.2078 77.8766C62.2258 77.8226 62.2437 77.7687 62.2797 77.7148C62.2437 77.5891 62.2078 77.4633 62.1539 77.3555Z" fill="#F6851F"/>
<path d="M73.2406 57.3742C72.9352 49.6117 71.5875 41.7414 73.025 34.0328H73.007C70.8687 34.3383 68.6047 34.1406 66.4484 34.1226C63.5016 34.1047 60.5367 34.0687 57.5898 34.0328C51.768 33.9609 45.9461 33.8351 40.1242 33.8711C35.0211 33.907 29.9539 33.9609 24.8688 33.8531C23.0539 33.8172 21.2031 33.7273 19.4063 33.368C19.4422 35.0031 19.2445 36.6562 19.0469 38.2914C18.7774 40.3398 18.6516 42.3883 18.5977 44.4726C18.4719 48.9109 18.5438 53.3672 18.8492 57.7875C19.0109 60.0156 19.2086 62.2258 19.4961 64.4359C19.7117 66.2148 19.7656 68.0117 19.9992 69.8086C20.2149 71.4437 20.5024 73.6539 21.7242 74.8937C22.5328 75.7203 23.6469 76.3672 24.4016 77.2656C24.3117 76.9422 24.2578 76.6367 24.2039 76.3312C23.9164 74.5523 24.0063 72.8273 24.9945 71.264C26.5938 68.7484 30.6008 67.0414 30.8523 63.8609C30.8344 63.6273 30.8344 63.3937 30.8523 63.1601C30.9063 61.9203 32.7031 61.7047 32.8289 63.0164C32.8648 63.3219 32.8648 63.6094 32.8469 63.8789C33.1703 68.2992 37.2313 72.0187 36.243 76.6187C35.8656 78.3437 34.6977 79.332 33.0266 79.6734C34.8594 79.925 36.6742 80.2484 38.507 80.3742C42.1547 80.6258 45.8383 80.0687 49.4859 79.925C53.0977 79.7992 56.6734 79.7094 60.2672 79.2601C60.2492 79.1883 60.2492 79.1344 60.2492 79.0445C60.2492 78.9547 60.2492 78.9008 60.2492 78.8289C57.0148 77.3734 54.8586 73.6359 56.2242 70.15C57.2484 67.5445 59.1891 65.1008 59.5125 62.3875C59.1352 61.3633 58.9734 60.2851 59.207 59.1172C59.3867 58.1648 60.8063 58.039 61.1117 58.9734C61.4711 60.0336 61.6328 61.1117 61.5789 62.1898C62.2078 63.5195 63.2859 64.7414 64.1305 65.8375C65.4961 67.6523 66.682 69.575 67.1672 71.8211C67.5984 73.8156 67.4367 75.882 66.3586 77.6609C66.1789 77.9664 65.9633 78.2359 65.7477 78.4875C65.8375 78.4695 65.9273 78.4695 66.0172 78.4515C66.0891 78.164 66.2687 77.9125 66.6281 77.7687C70.0781 76.439 71.4258 72.4859 72.2883 69.2156C73.2406 65.3523 73.4023 61.3633 73.2406 57.3742ZM42.9094 79.7992C42.532 80.0687 41.9211 79.9969 41.5977 79.6375C41.2922 79.6555 40.9688 79.5656 40.7172 79.2601C39.1898 77.3914 37.5188 75.3609 37.1234 72.8992C36.782 70.7789 37.4109 68.7305 38.5789 66.9695C39.6391 65.3523 40.8609 63.825 41.7234 62.082C42.1188 61.3094 42.55 60.3211 42.55 59.4226C42.1727 58.8297 41.8852 58.1828 41.6875 57.464C41.4359 56.6015 42.532 55.6133 43.2688 56.3859C43.9516 57.1047 44.3109 57.8773 44.4367 58.6859C45.407 60.0875 46.8266 61.1476 48.1742 62.2437C50.0609 63.789 51.8219 65.55 52.343 68.0117C53.5469 73.7078 46.6289 77.032 42.9094 79.7992Z" fill="#BCBCBC"/>
<path d="M80.482 45.0297C80.3563 43.5742 79.8352 42.0828 78.6492 41.2023C77.4273 40.2859 75.7922 40.4656 74.3547 40.9508C74.3547 41.3461 74.3547 41.7414 74.3547 42.1367C76.0258 41.4719 77.4273 43.0352 77.7867 44.8141C77.9844 45.8562 77.8586 46.9344 77.4813 47.9227C77.1578 48.7852 76.5109 49.3242 75.7922 49.8633C75.4148 50.1508 75.0375 50.0969 74.75 49.8992C74.7859 50.3664 74.8219 50.8516 74.8578 51.3187C74.9477 51.3008 75.0555 51.3008 75.1633 51.3008C78.7031 51.5883 80.7336 48.2461 80.482 45.0297Z" fill="#14B6B9"/>
<path d="M50.1328 67.4906C49.2523 65.4242 47.2937 64.0945 45.6047 62.7109C45.1016 62.2977 44.6164 61.8664 44.1492 61.3992C43.5383 63.2859 42.2086 65.1547 41.1844 66.6102C40.1242 68.1375 38.9023 69.7367 38.9742 71.7312C39.0281 73.4023 39.8008 74.8398 40.7711 76.1695C40.6992 75.4508 40.6992 74.75 40.843 74.0492C41.2383 72.2703 42.4242 71.0125 43.9156 70.0602C44.4906 69.6828 45.4609 70.0242 45.4609 70.7969C45.443 72.5039 45.2633 74.175 45.0477 75.8641C46.0719 75.1453 47.0961 74.4086 47.9945 73.5461C49.7734 71.9289 51.175 69.9344 50.1328 67.4906Z" fill="#F6851F"/>
<path d="M42.9992 76.6188C43.143 75.4508 43.3047 74.3008 43.4125 73.1328C43.0711 73.6 42.8195 74.1391 42.7656 74.7859C42.6937 75.6125 42.8195 76.457 42.9812 77.3016C43.0172 77.2656 43.0711 77.2477 43.107 77.2117C43.0172 77.068 42.9633 76.8523 42.9992 76.6188Z" fill="#F6851F"/>
<path d="M52.3609 68.0297C51.8399 65.568 50.0609 63.807 48.1922 62.2617C46.8625 61.1656 45.425 60.1055 44.4547 58.7039C44.3289 57.8953 43.9516 57.1227 43.2867 56.4039C42.55 55.6312 41.4539 56.6016 41.7055 57.482C41.9031 58.1828 42.2086 58.8297 42.568 59.4406C42.568 60.357 42.1367 61.3273 41.7414 62.1C40.8789 63.825 39.657 65.3703 38.5969 66.9875C37.4289 68.7484 36.8 70.7969 37.1414 72.9172C37.5367 75.3789 39.2078 77.4094 40.7352 79.2781C40.9867 79.5836 41.2922 79.6734 41.6156 79.6555C41.9391 79.9969 42.55 80.0867 42.9273 79.8172C46.6289 77.032 53.5469 73.7078 52.3609 68.0297ZM43.107 77.2297C43.0711 77.2656 43.0172 77.2836 42.9813 77.3195C42.8016 76.493 42.6758 75.6484 42.7656 74.8039C42.8195 74.157 43.0711 73.618 43.4125 73.1508C43.3047 74.3188 43.143 75.4688 42.9992 76.6367C42.9633 76.8523 43.0172 77.068 43.107 77.2297ZM48.0305 73.5641C47.1141 74.4266 46.1078 75.1633 45.0836 75.882C45.2992 74.193 45.4789 72.5219 45.4969 70.8148C45.4969 70.0422 44.5445 69.7008 43.9516 70.0781C42.4422 71.0305 41.2563 72.2883 40.8789 74.0672C40.7352 74.75 40.7172 75.4688 40.807 76.1875C39.8547 74.8578 39.082 73.4203 39.0102 71.7492C38.9383 69.7727 40.1422 68.1734 41.2203 66.6281C42.2266 65.1727 43.5563 63.3039 44.1852 61.4172C44.6523 61.8844 45.1375 62.3156 45.6406 62.7289C47.3117 64.1125 49.2883 65.4422 50.1688 67.5086C51.175 69.9344 49.7734 71.9289 48.0305 73.5641Z" fill="#010101"/>
<path d="M82.4586 44.9938C82.3687 43.0172 81.5422 40.9328 79.9609 39.693C78.3617 38.4352 76.3312 38.3453 74.4445 38.8484C74.5523 37.0875 74.768 35.3445 75.1273 33.6016C75.1633 33.4578 75.1633 33.3141 75.1273 33.1883C76.0617 32.5234 76.7266 31.5352 77.1937 30.3492C77.4812 29.6125 76.9062 28.9836 76.3133 28.9117C76.1875 28.6781 75.9719 28.4805 75.6844 28.3906C75.3789 28.3008 75.0914 28.2469 74.7859 28.2109C74.8578 28.0672 74.8937 27.8875 74.8578 27.6719C74.6062 25.7852 73.2945 24.2758 71.9289 23.0359C70.5633 21.8141 68.8562 20.7359 67.0594 20.3047C63.807 19.5141 60.4469 19.2805 57.0867 19.2984C57.1406 18.6695 56.7633 17.9149 56.5477 17.4297C55.8469 15.8484 54.6789 14.5188 53.3133 13.4766C50.8156 11.5539 47.4555 10.5477 44.3289 10.943C39.9086 11.5 32.7391 14.5906 33.2063 19.9813C33.0625 19.9813 32.9367 19.9813 32.793 19.9813C30.1516 19.9813 27.4383 20.0531 24.8508 20.6641C22.8563 21.1313 21.0773 22.2992 19.568 23.6649C18.2563 24.8508 17.1242 26.468 16.8906 28.2649C16.0461 28.4086 15.0758 28.7141 14.8063 29.4867C14.6625 29.8641 14.7703 30.2234 14.968 30.493C14.8781 30.7445 14.9141 31.0141 15.1477 31.3016C15.7586 32.0563 16.5672 32.5234 17.4477 32.8649C17.5734 34.7156 17.3219 36.5484 17.0883 38.3813C12.7039 38.4891 9.36172 43.8438 9.36172 47.8508C9.36172 51.6961 13.9258 52.4508 16.693 53.6547C16.7469 55.3258 16.8367 56.9789 16.9625 58.65C17.1242 60.8602 17.3578 63.0703 17.6273 65.2805C17.8609 67.1313 17.8789 69 18.1664 70.8508C18.4359 72.5758 18.9031 74.4445 19.9633 75.882C20.7539 76.9242 22.0836 77.5531 22.8922 78.5594C22.407 78.6313 21.9219 78.793 21.4547 79.0445C18.3641 80.6797 20.8258 84.4891 23.1977 85.3156C24.9766 85.9445 26.9172 85.9805 28.7859 85.9984C29.6305 85.9984 30.475 85.9805 31.3375 85.9445C32.4516 85.9086 33.5477 86.0524 34.6617 86.1602C37.4109 86.4297 40.1602 86.5914 42.9094 86.6813C45.8203 86.7711 48.6953 86.5734 51.5883 86.4117C58.1469 86.0524 64.7234 85.8008 71.282 85.3875C71.857 85.3516 72.1984 84.8664 72.1984 84.3273V78.6672C72.1984 78.1461 71.6414 77.6969 71.1383 77.7508C70.7609 77.8047 70.3836 77.8406 70.0062 77.8945C70.4375 77.4813 70.8328 77.05 71.2101 76.5649C72.3601 75.0555 72.9172 73.3664 73.5461 71.6055C74.9476 67.6883 75.307 63.5375 75.2891 59.4227C75.2711 57.3922 75.1633 55.3438 75.0195 53.2953C77.2117 53.4031 79.2602 52.7024 80.6977 50.9774C82.0094 49.3063 82.5484 47.0961 82.4586 44.9938ZM16.6211 44.9578C16.6031 45.6766 16.5852 46.3953 16.5852 47.1141C16.3156 46.7906 16.118 46.3953 16.0461 45.982C15.9383 45.3531 16.2258 44.85 16.6391 44.4547C16.6391 44.6164 16.6211 44.7961 16.6211 44.9578ZM16.7289 42.1367C16.5492 42.1367 16.3695 42.1906 16.1898 42.2984C14.8422 43.1609 13.9258 44.4727 14.0695 46.1258C14.2133 47.6711 15.3453 48.857 16.5672 49.6656C16.5672 50.2766 16.5852 50.8695 16.5852 51.4805C15.6328 51.1211 14.6625 50.8156 13.7281 50.4024C12.65 49.9531 11.482 49.3063 11.3024 48.0305C11.0867 46.4492 12.0211 44.4727 12.8836 43.1969C13.818 41.7953 15.1656 40.5914 16.8188 40.3578C16.8008 40.9688 16.7648 41.5438 16.7289 42.1367ZM43.3586 13.1352C45.5328 12.6141 47.7609 12.8836 49.8273 13.7461C51.0672 14.2672 52.1812 15.0219 53.1516 15.9742C53.6187 16.4234 53.9961 16.9445 54.3555 17.5016C54.5172 17.7711 54.6609 18.0586 54.7867 18.3461C54.8406 18.4719 54.8945 18.5977 54.9305 18.7234C54.7508 18.9031 54.625 19.1547 54.607 19.4063C53.3133 19.4422 52.0375 19.5141 50.7617 19.5859C50.3484 18.7414 49.9711 17.8789 49.432 17.1063C48.6414 15.9563 47.4375 15.3094 46.0539 15.2016C42.9992 14.968 40.0703 16.7828 38.7766 19.532C38.6867 19.7297 38.6688 19.9094 38.6867 20.0891C37.5188 20.0891 36.3687 20.0531 35.2008 20.0531C34.8414 16.0102 40.1961 13.8899 43.3586 13.1352ZM48.6953 19.6758C46.1617 19.8375 43.6461 19.9813 41.1125 20.0352C40.9688 20.0352 40.843 20.0352 40.6992 20.0352C41.7773 18.0945 43.9336 16.8727 46.1797 17.1602C47.4375 17.3399 48.1383 18.4899 48.6953 19.6758ZM22.2813 24.0063C24.2219 22.6586 26.3422 22.3172 28.6422 22.1195C31.3734 21.8859 34.1227 21.9758 36.8539 22.0117C39.7289 22.0477 42.6039 22.0117 45.4789 21.868C46.7187 21.7961 47.9406 21.7242 49.1805 21.6524C49.3602 21.868 49.6297 22.0297 49.9711 22.0297H50.5102C50.8875 22.0297 51.1391 21.8141 51.2828 21.5266C55.1641 21.3109 59.0453 21.1852 62.9266 21.6344C65.2086 21.9039 67.3289 22.2633 69.2695 23.5211C70.6711 24.4195 72.5398 25.9469 72.8812 27.6899C72.8812 27.7438 72.8992 27.8156 72.8992 27.8695C72.9172 27.9953 72.9531 28.1211 73.007 28.2109C72.7016 28.2289 72.3961 28.2649 72.0906 28.2828C70.6891 28.4266 69.2875 28.5164 67.868 28.5344C66.4844 28.5344 65.1008 28.4445 63.7172 28.4266C62.1898 28.3906 60.6625 28.5524 59.1352 28.6422C53.2773 28.9656 47.4195 29.1992 41.5617 29.0555C35.2547 28.8938 29.0016 28.0492 22.6945 27.9774C21.4367 27.9594 20.1789 27.9594 18.9391 28.0492C19.4242 26.3242 20.8617 24.9945 22.2813 24.0063ZM70.2039 79.8352V83.4469C64.5437 83.8063 58.8836 84.0398 53.2055 84.3273C50.2766 84.4711 47.3117 84.7586 44.3828 84.7227C41.5977 84.6867 38.8125 84.525 36.0273 84.2914C34.7516 84.1836 33.4398 83.932 32.1461 83.932C31.3375 83.932 30.5289 83.968 29.7203 83.9859C27.8695 84.0219 25.9828 84.0219 24.168 83.5547C23.1617 83.2852 21.7242 82.243 21.9938 81.1289C22.0297 81.0211 22.3531 80.7336 22.6406 80.6078C23.0898 80.4102 23.593 80.3742 24.0781 80.4641C24.7789 80.5719 25.3359 81.0391 25.4438 81.7578C25.6414 82.9977 27.618 82.8719 27.4203 81.6141C27.4023 81.4883 27.3664 81.3445 27.3305 81.2188C27.4742 81.2906 27.6539 81.3266 27.8516 81.3266C31.4094 81.1109 34.8953 82.1172 38.4352 82.3508C42.0469 82.6023 45.6766 82.0992 49.2883 81.9195C52.9898 81.7399 56.6375 81.7039 60.3211 81.2547C63.6273 80.8234 66.9156 80.2664 70.2039 79.8352ZM27.1148 78.3977C26.1984 77.7867 26.0727 75.6305 26.0367 74.7859C25.9648 73.2586 26.6836 72.1086 27.7078 71.0305C28.9656 69.7008 30.5109 68.5508 31.5711 67.1492C31.8586 67.9399 32.2 68.7305 32.5594 69.5031C33.4758 71.4617 34.5359 73.5641 34.3563 75.7922C34.2305 77.3375 33.2242 77.6789 31.9125 77.8227C31.8227 76.9242 31.6609 76.0258 31.4813 75.1274C31.3734 74.5883 31.0141 74.175 30.4211 74.2109C28.4086 74.3547 27.2945 76.5648 27.1148 78.3977ZM29.9539 78.0024C29.6664 78.0383 29.3969 78.0922 29.1273 78.1461C29.2352 77.6609 29.4508 77.068 29.7742 76.6727C29.8461 77.1219 29.9 77.5711 29.9539 78.0024ZM59.9977 76.4211C59.1172 75.7922 58.4164 74.9297 58.0211 73.8695C57.3742 72.1445 58.1109 70.4914 58.8836 68.9461C59.5664 67.6164 60.357 66.3586 60.9141 64.957C62.082 66.6281 63.5195 68.2094 64.382 69.8984C65.2625 71.6594 65.6758 73.6898 65.1187 75.6125C64.9391 76.2594 64.6156 76.7984 64.1844 77.2297C64.0945 76.8703 63.9687 76.5289 63.843 76.2414C63.2859 75.0375 62.4773 73.6 61.1477 73.1508C60.6625 72.9891 60.0516 73.4563 59.9977 73.9234C59.8719 74.768 59.9078 75.5945 59.9977 76.4211ZM62.2797 77.6969C62.2437 77.7508 62.2258 77.8047 62.2078 77.8586C62.1898 77.7688 62.1539 77.6789 62.1 77.5891C62.082 77.4094 62.0461 77.2117 62.0281 77.032C62.0641 77.1399 62.118 77.2297 62.1539 77.3375C62.2078 77.4633 62.2437 77.5891 62.2797 77.6969ZM72.2164 69.2156C71.3539 72.4859 70.0062 76.4391 66.5562 77.7688C66.2148 77.9125 66.0172 78.1641 65.9453 78.4516C65.8555 78.4695 65.7656 78.4695 65.6758 78.4875C65.9094 78.2359 66.107 77.9484 66.2867 77.6609C67.3828 75.882 67.5266 73.8156 67.0953 71.8211C66.6281 69.575 65.4242 67.6524 64.0586 65.8375C63.232 64.7414 62.1359 63.5195 61.507 62.1899C61.5609 61.1117 61.3992 60.0336 61.0398 58.9734C60.7344 58.0391 59.3148 58.1469 59.1352 59.1172C58.9195 60.3031 59.0633 61.3813 59.4406 62.3875C59.1172 65.1188 57.1766 67.5445 56.1523 70.15C54.8047 73.6359 56.943 77.3734 60.1773 78.8289C60.1773 78.9008 60.1773 78.9727 60.1773 79.0445C60.1773 79.1164 60.1953 79.1883 60.1953 79.2602C56.6016 79.7094 53.0258 79.7813 49.4141 79.925C45.7664 80.0688 42.1008 80.6258 38.4352 80.3742C36.6023 80.2484 34.7695 79.925 32.9547 79.6734C34.6258 79.332 35.7938 78.3438 36.1711 76.6188C37.1773 72.0188 33.1164 68.2813 32.775 63.8789C32.793 63.6094 32.793 63.3219 32.757 63.0164C32.6313 61.7227 30.8344 61.9203 30.7805 63.1602C30.7625 63.3938 30.7805 63.6274 30.7805 63.8609C30.5289 67.0414 26.5219 68.7484 24.9227 71.2641C23.9344 72.8274 23.8266 74.5523 24.132 76.3313C24.1859 76.6367 24.2398 76.9422 24.3297 77.2656C23.575 76.3672 22.4609 75.7203 21.6523 74.8938C20.4305 73.6539 20.143 71.4438 19.9273 69.8086C19.6938 68.0297 19.6398 66.2328 19.4242 64.4359C19.1547 62.2258 18.9391 59.9977 18.7773 57.7875C18.4719 53.3492 18.4 48.9109 18.5258 44.4727C18.5797 42.4063 18.7055 40.3578 18.975 38.2914C19.1906 36.6742 19.3883 35.0211 19.3344 33.368C21.1313 33.7274 22.982 33.7992 24.7969 33.8531C29.882 33.9609 34.9672 33.907 40.0523 33.8711C45.8742 33.8352 51.6961 33.9609 57.518 34.0328C60.4648 34.0688 63.4297 34.1047 66.3766 34.1227C68.5328 34.1406 70.7969 34.3383 72.9351 34.0328H72.9531C71.5156 41.7414 72.8633 49.6117 73.1687 57.3742C73.4023 61.3633 73.2406 65.3524 72.2164 69.2156ZM72.3242 32.1281C69.9883 32.3438 67.5805 32.1641 65.2445 32.1461C59.3687 32.1102 53.493 32.0024 47.6172 31.9305C41.9031 31.8766 36.207 32.0383 30.5109 32.0024C28.3906 31.9844 26.2523 31.9125 24.1141 31.8586C22.2813 31.8047 20.4305 31.643 18.6516 31.1578C18.0586 30.9961 17.3219 30.7445 16.8727 30.2774C17.2141 30.1695 17.4477 30.1516 17.8609 30.0977C19.1547 29.9359 20.4484 29.918 21.7602 29.9C24.8148 29.882 27.8695 30.0438 30.9063 30.2594C33.8172 30.457 36.7281 30.7805 39.6391 30.9063C45.4789 31.1758 51.3367 30.9602 57.1766 30.6727C60.357 30.5109 63.4836 30.3313 66.6461 30.4391C68.1195 30.493 69.575 30.4031 71.0305 30.3313C72.1805 30.2774 73.3125 30.0438 74.4266 30.1695C74.5703 30.2774 74.768 30.3492 75.0016 30.3492C74.4445 31.3914 73.6719 32.0024 72.3242 32.1281ZM74.6242 48.282C74.5344 46.9883 74.4445 45.6766 74.4086 44.3828C74.5164 44.3469 74.6062 44.293 74.7141 44.2211C75.0195 43.9875 75.1453 43.7719 75.3969 44.0774C75.7203 44.4906 75.8461 45.0477 75.9 45.5508C76.0258 46.7188 75.5766 47.5633 74.6961 48.2461C74.6602 48.2461 74.6422 48.2641 74.6242 48.282ZM75.1453 51.3188C75.0375 51.3188 74.9297 51.3188 74.8398 51.3367C74.8039 50.8695 74.768 50.3844 74.732 49.9172C75.0195 50.1148 75.3969 50.1688 75.7742 49.8813C76.493 49.3422 77.1398 48.7852 77.4633 47.9406C77.8406 46.9523 77.9664 45.8742 77.7687 44.832C77.4273 43.0531 76.0258 41.4719 74.3367 42.1547C74.3367 41.7594 74.3367 41.3641 74.3367 40.9688C75.7742 40.4836 77.3914 40.3039 78.6312 41.2203C79.8172 42.1008 80.3383 43.5922 80.4641 45.0477C80.7336 48.2461 78.7031 51.5883 75.1453 51.3188Z" fill="#010101"/>
</svg>
