<svg width="164" height="164" viewBox="0 0 164 164" fill="none" xmlns="http://www.w3.org/2000/svg">
<path d="M107.369 46.9898C105.511 47.4383 103.813 48.3031 102.02 48.9437C100.13 49.6484 98.1758 49.9687 96.1898 50.3211C91.8016 51.1539 87.4133 51.5383 82.9609 51.5703C78.6047 51.6023 74.1844 51.8266 69.8281 51.3461C67.9383 51.1539 66.1445 50.7375 64.3188 50.225C62.6531 49.7445 60.9555 49.2 59.1938 49.3281C58.8734 49.3602 58.5852 49.2961 58.3609 49.2C58.2649 49.9047 58.1688 50.6094 58.0406 51.3461C58.5211 51.4742 58.9375 51.8266 59.0977 52.4352C59.6102 54.1328 62.3328 54.5172 63.8063 54.7414C65.8242 55.0937 67.8742 55.1898 69.9242 55.382C73.3516 55.6703 76.7789 55.7023 80.2063 55.8305C82.2883 55.8945 84.3703 56.0867 86.4524 56.0547C90.3281 56.0227 94.2039 55.8945 98.0477 55.4461C99.8414 55.2219 101.699 54.9977 103.429 54.4531C104.102 54.2289 104.646 54.0687 105.159 53.7164C105.223 53.6523 105.287 53.6203 105.287 53.5883C105.351 52.6273 106.088 52.0828 106.888 51.9867C106.984 50.7375 107.177 49.4883 107.273 48.2391C107.369 47.7906 107.369 47.3742 107.369 46.9898C107.369 46.9578 107.369 46.9898 107.369 46.9898ZM102.564 20.6922C97.5672 18.2258 91.257 18.1297 85.8438 18.8664C80.8469 19.5391 75.818 20.5641 70.7891 20.9164C67.2336 21.1727 62.8774 21.1086 59.8344 23.2547C58.1688 24.4398 56.6313 26.3297 56.5031 28.4437C56.4711 29.0203 56.6633 29.5008 57.1438 29.725C58.2008 30.2055 59.45 29.9812 60.5391 29.7891C61.4039 29.6289 61.9805 30.0773 62.2047 30.6859C70.5969 31.3266 78.925 32.7359 87.3813 32.6719C92.3141 32.6398 97.7273 32.4477 102.34 30.4617C104.23 29.6289 106.184 28.3156 106.312 26.0414C106.472 23.607 104.582 21.6852 102.564 20.6922ZM107.753 56.1828C105.959 57.9125 102.372 58.393 100.322 58.6812C95.9336 59.3219 91.4492 59.5141 86.9969 59.5461C80.8789 59.6102 74.6649 59.2258 68.5469 58.7773C65.4719 58.5531 60.475 58.425 57.6563 56.2469C57.7203 57.3359 57.8805 58.425 58.0727 59.482C58.1688 59.5461 58.2328 59.6102 58.3289 59.6742C63.4859 64.6391 72.1344 64.4148 78.7969 64.3508C83.8258 64.3187 88.7586 63.518 93.6594 62.4609C98.4961 61.4359 103.429 60.5391 108.138 59.0016C108.586 58.8414 108.97 58.8734 109.291 59.0016C108.778 58.0727 108.202 57.1437 107.753 56.1828Z" fill="#FEBF10"/>
<path d="M107.785 30.9102C106.536 32.2555 104.934 33.2164 103.205 33.8891C98.3359 35.8109 92.8586 36.1313 87.6695 36.1633C82.993 36.1953 78.3805 35.9711 73.7359 35.4266C68.5789 34.85 63.4539 34.1133 58.2648 33.9211C57.6242 33.8891 57.1758 33.6008 56.8555 33.2164C56.2148 33.0562 55.6062 32.8 55.0938 32.4797C55.2219 33.0883 55.5102 33.6969 55.7344 34.2414C56.2148 34.2414 56.6953 34.4977 57.0477 35.0422C61.468 42.2492 71.2055 42.1852 78.6687 42.057C83.7297 41.9609 88.7906 41.6086 93.7875 40.6477C98.0797 39.8469 102.82 38.95 106.504 36.4836C107.145 36.0352 107.817 36.0992 108.33 36.4195C108.362 36.1953 108.394 35.9711 108.458 35.7469C108.65 34.1453 108.266 32.5117 107.785 30.9102Z" fill="#FEBF10"/>
<path d="M56.2789 79.7258C53.4602 81.0391 50.2891 81.6156 47.182 81.8398C43.018 82.0961 38.8539 81.8398 34.6898 82.2242C30.2055 82.6406 25.657 83.3133 21.1727 82.8008C18.7703 82.5125 15.9195 81.8719 13.7414 80.3984C13.8055 81.4234 14.1898 82.5125 14.6063 83.4734C14.9586 83.4734 15.343 83.6336 15.6953 84.018C18.0977 86.6445 22.0055 86.9328 25.3367 87.5414C29.4367 88.2781 33.3766 89.0469 37.5727 89.0469C41.6086 89.0148 45.6766 88.8547 49.5844 87.7656C52.2109 87.0289 54.7734 85.9078 57.4641 85.3312C57.0156 83.4734 56.5992 81.6156 56.2789 79.7258Z" fill="#F6851F"/>
<path d="M55.4461 71.3336C55.4141 70.1164 55.4141 68.8672 55.382 67.65C55.1578 67.618 54.9016 67.5859 54.6773 67.5859C54.357 67.5539 54.5172 67.618 54.6453 67.65C54.9336 67.7141 54.8055 67.682 54.6453 67.65C54.5492 67.618 54.4211 67.618 54.2289 67.5539C51.8586 67.0734 49.4883 66.6891 47.0859 66.4969C42.2812 66.1125 37.3805 66.0484 32.5758 66.4008C30.1094 66.593 27.643 66.8492 25.1766 67.2977C23.1586 67.65 21.0125 68.0023 19.1227 68.8992C17.0086 69.8922 14.2219 71.782 13.9336 74.3125C13.5492 77.5477 18.45 78.893 20.7883 79.2133C25.1445 79.8219 29.5328 79.1813 33.8891 78.7648C40.9039 78.1242 49.3922 79.6938 55.7344 76.0422C55.5742 74.4727 55.4781 72.9031 55.4461 71.3336Z" fill="#FEBF10"/>
<path d="M59.9945 100.29C59.9945 99.3289 59.9625 98.368 59.9305 97.407C59.8344 97.4711 59.7383 97.5031 59.6102 97.5672C54.1008 99.6172 48.0148 99.6172 42.2172 99.7773C38.6937 99.8734 35.1383 100.194 31.6148 100.194C27.8351 100.194 20.3398 100.162 16.7203 97.0867C16.7844 97.375 16.8484 97.6633 16.9445 97.9516C17.3609 99.2008 17.6492 100.418 17.9055 101.667C18.2578 101.763 18.5781 101.955 18.8664 102.308C20.7883 104.71 24.4719 105.255 27.3227 105.575C30.718 105.927 34.1133 105.831 37.5086 105.767C42.1211 105.639 46.7336 105.639 51.3461 105.127C53.1719 104.934 54.9016 104.614 56.6953 104.198C57.8484 103.941 59.0336 103.557 60.1867 103.461C60.0906 102.404 60.0266 101.379 59.9945 100.29Z" fill="#F6851F"/>
<path d="M59.3219 92.3461C59.0016 91.1289 58.6492 89.9117 58.3289 88.6945C58.2969 88.6945 58.2648 88.6945 58.2328 88.7266C54.9656 89.3352 51.8906 90.8727 48.6555 91.6094C44.5555 92.5383 40.2953 92.6023 36.1312 92.5703C31.6148 92.5062 27.2586 91.3852 22.8062 90.7125C20.6922 90.3922 18.418 89.8797 16.4 88.9187C16.5281 89.5273 16.5922 90.1039 16.6242 90.7125C17.457 90.7125 18.1937 91.225 18.1937 92.282C18.1617 94.8125 21.1727 95.6453 23.3187 96.0617C26.5539 96.7023 29.8851 96.7984 33.1844 96.7023C36.4516 96.6062 39.6867 96.382 42.9539 96.2859C48.1109 96.1578 53.5562 96.1258 58.425 94.3C58.8734 94.1398 59.2898 94.1398 59.6422 94.3C59.6101 93.5953 59.482 92.9867 59.3219 92.3461ZM144.301 110.828C139.432 112.686 134.435 113.07 129.342 113.711C119.028 114.992 108.682 116.241 98.2719 115.953C98.1437 115.953 98.0156 115.921 97.8875 115.921C98.0477 116.049 98.1758 116.209 98.3039 116.434C99.8094 119.092 104.55 118.355 107.112 118.58C109.675 118.804 112.27 119.22 114.864 119.156C117.427 119.06 120.021 118.708 122.584 118.42C127.805 117.811 132.994 116.946 137.991 115.313C140.553 114.48 145.422 114.64 146.831 111.853C147.248 110.988 148.08 110.796 148.785 110.956C148.817 110.059 148.849 109.195 148.849 108.298C147.536 109.323 145.934 110.188 144.301 110.828Z" fill="#FEBF10"/>
<path d="M139.72 118.42C134.243 120.213 128.573 121.238 122.872 121.879C119.765 122.231 116.562 122.744 113.391 122.584C110.796 122.455 108.234 122.039 105.639 121.943C103.301 121.847 100.482 121.879 98.2398 120.886C98.3039 121.334 98.3359 121.751 98.3039 122.231C98.3039 122.295 98.3039 122.359 98.3039 122.423C98.432 122.52 98.5281 122.648 98.6242 122.808C100.802 126.107 104.774 126.748 108.426 126.812C113.198 126.908 118.035 126.876 122.808 126.523C125.53 126.331 128.285 126.043 130.976 125.562C133.41 125.114 135.78 124.345 138.183 123.897C139.624 123.641 141.066 123.256 142.443 122.808C143.212 122.552 144.012 122.295 144.749 121.943C145.262 121.687 145.614 121.046 145.358 121.847C145.806 120.405 147.568 120.245 148.433 120.95C148.497 120.566 148.529 120.181 148.561 119.797C148.561 118.259 148.593 116.69 148.657 115.152C146.351 117.33 142.731 117.427 139.72 118.42Z" fill="#FEBF10"/>
<path d="M148.113 128.605C147.728 127.356 147.44 125.947 147.632 124.634C147.632 124.505 147.664 124.409 147.696 124.281C145.742 126.043 142.123 126.652 139.945 127.132C134.531 128.285 129.278 129.598 123.737 130.015C118.227 130.399 112.558 130.623 107.016 130.239C103.685 130.015 100.45 129.214 97.9516 127.196C97.9516 127.324 97.9516 127.452 97.9516 127.58C97.9836 128.573 98.1117 129.598 98.2078 130.591C98.7203 130.559 99.2649 130.784 99.6172 131.424C101.027 133.987 105.159 134.499 107.753 134.884C112.141 135.524 116.722 135.684 121.142 135.556C126.139 135.396 131.296 135.492 136.165 134.243C138.535 133.634 141.002 132.994 143.212 131.937C143.788 131.68 144.333 131.296 144.845 130.976C145.038 130.848 145.23 130.752 145.422 130.623C145.678 129.663 146.703 128.766 147.952 129.246C148.145 129.31 148.305 129.406 148.433 129.502C148.305 129.214 148.209 128.926 148.113 128.605ZM111.341 85.6836C111.277 84.05 111.116 82.4164 111.052 80.7828C109.547 81.9359 107.465 82.6727 106.055 83.1852C101.763 84.7547 97.0867 85.4914 92.6024 86.3242C87.0609 87.3492 81.5516 87.7656 75.9461 87.0289C70.8211 86.3563 65.8242 85.075 60.7953 83.8258C60.9555 84.4984 61.1156 85.1711 61.2758 85.8438C63.7742 90.2 68.8672 91.3852 73.5438 91.7375C78.6367 92.0898 83.6336 91.2891 88.6945 91.2891C92.3461 91.2891 96.0297 90.9367 99.6172 90.3922C101.667 90.0719 103.749 89.7195 105.703 89.0148C106.408 88.7586 107.113 88.5023 107.721 88.0539C108.009 87.8297 108.009 87.8938 108.202 87.6375C108.17 87.7016 108.17 87.6375 108.202 87.6375C108.202 87.6375 108.202 87.6375 108.234 87.6055C108.234 87.6055 108.234 87.6375 108.202 87.6375C108.202 87.6375 108.234 87.6695 108.234 87.7656C108.33 86.0039 110.476 85.4594 111.373 86.3563C111.341 86.1 111.341 85.9078 111.341 85.6836Z" fill="#FEBF10"/>
<path d="M111.981 71.0133C110.444 72.6469 107.401 73.3516 105.319 73.6719C98.7203 74.6969 92.1219 75.85 85.4594 76.3305C80.1742 76.7148 74.7609 76.7789 69.4758 76.3305C65.9523 76.0422 62.1727 75.4336 59.0336 73.6719C59.0656 74.0242 59.0977 74.4086 59.1297 74.7609C60.0586 75.2734 60.5711 76.7789 59.5781 77.7398C59.7063 78.5086 59.8664 79.3094 60.0266 80.0781C60.1547 80.0781 60.2508 80.1102 60.3789 80.1422C65.1836 81.2953 69.9883 82.6406 74.8891 83.3773C79.918 84.1461 84.8828 84.1141 89.9117 83.3133C92.6023 82.8649 95.293 82.3203 97.9516 81.7438C99.7453 81.3594 101.571 81.0711 103.301 80.4945C104.678 80.0461 106.055 79.5656 107.337 78.925C107.913 78.6367 108.522 78.3164 109.034 77.9C109.195 77.7719 109.515 77.2914 109.515 77.5477C109.451 76.2984 110.476 75.6578 111.437 75.7219C111.725 74.1203 112.045 72.5508 111.981 71.0133ZM113.038 94.1398C113.006 92.6344 112.462 91.4492 112.013 90.0399C111.853 89.4953 111.693 88.9188 111.597 88.3422C110.668 92.0578 105.095 92.9547 101.891 93.5633C97.6953 94.332 93.3391 94.7805 89.0789 94.8125C83.3773 94.8445 77.7719 95.7414 72.0703 95.1649C68.8672 94.8445 65.568 94.0438 62.8453 92.4102C63.0375 93.4352 63.1336 94.4922 63.1977 95.5172C63.3578 95.6133 63.55 95.7414 63.7102 95.9016C67.65 100.194 73.9602 100.098 79.3414 100.194C85.7797 100.29 92.6344 101.443 98.7844 99.1047C99.5531 98.8164 100.226 99.0727 100.61 99.5531C102.02 98.7203 103.525 98.0477 105.127 97.4391C107.753 96.4781 110.476 95.6774 113.198 95.0367C113.134 94.7805 113.038 94.4922 113.038 94.1398Z" fill="#FEBF10"/>
<path d="M110.636 66.0805C110.476 65.4719 110.348 64.8633 110.284 64.2227C110.22 63.4859 110.187 62.6531 110.123 61.8203C109.931 62.0445 109.675 62.2688 109.323 62.3648C104.102 64.0945 98.6242 65.0875 93.243 66.1766C88.182 67.2016 83.1531 67.9063 77.9961 67.9063C71.75 67.8742 64.2867 67.8102 58.7453 64.4469C58.7773 64.8313 58.8094 65.2156 58.8094 65.632C58.9055 65.9203 58.9055 66.2086 58.8414 66.5289C58.8734 67.4258 58.8734 68.3547 58.9055 69.2516C58.9375 69.2836 58.9695 69.2836 59.0016 69.3156C61.9805 71.9742 66.4008 72.5508 70.2125 72.8391C74.3766 73.1594 78.6367 73.1594 82.8008 72.9352C88.6945 72.6469 94.5562 71.782 100.386 70.8852C102.5 70.5648 104.678 70.3727 106.76 69.8281C107.465 69.6359 108.266 69.4758 108.874 69.0914C109.451 68.707 109.483 68.7391 109.323 68.3227C108.842 67.1375 109.675 66.2727 110.636 66.0805ZM107.529 39.975C103.493 42.3773 98.5602 43.3703 94.0117 44.1711C88.6305 45.132 83.1531 45.5805 77.6758 45.5805C71.0133 45.5805 63.2937 45.2922 57.8805 41.2242C58.2648 42.7617 58.5211 44.3313 58.5531 45.8688C58.6492 45.8367 58.7773 45.8047 58.9055 45.8047C62.493 45.5484 65.7922 47.3102 69.3156 47.7586C73.5437 48.3031 77.8039 48.1109 82.0641 48.0469C86.5164 48.0148 90.9047 47.7266 95.325 46.8937C97.375 46.5094 99.393 46.1891 101.347 45.3883C102.948 44.7477 104.518 44.043 106.216 43.6266C106.6 43.5305 106.92 43.5625 107.241 43.6586C107.241 43.6266 107.241 43.5945 107.241 43.5625C107.145 42.3133 107.305 41.1281 107.529 39.975ZM78.7969 103.653C73.6078 103.557 67.7461 103.365 63.4219 100.29C63.4539 101.443 63.518 102.628 63.6781 103.781C64.2867 103.653 64.9273 103.845 65.3437 104.55C67.5859 108.234 73.3516 108.906 77.2594 109.323C79.982 109.611 82.6727 109.515 85.3633 108.97C86.7406 108.682 88.0219 108.426 89.3992 108.298C90.168 108.234 91.3531 108.298 92.0258 107.913C92.3141 107.753 92.6023 107.689 92.8906 107.689C93.1148 107.145 93.4031 106.6 93.7234 106.12C94.332 105.191 94.9727 104.358 95.6773 103.589C90.1359 104.518 84.3383 103.749 78.7969 103.653ZM140.041 96.4461C134.98 95.7094 129.759 95.9016 124.73 96.6063C120.405 97.2148 116.049 97.9195 111.821 99.0406C108.522 99.9375 104.742 100.866 101.859 102.788C99.8094 104.134 97.7594 105.991 96.5742 108.202C96.1898 108.906 95.7094 109.899 95.9656 110.476C96.1898 110.956 97.6953 111.116 98.3359 111.148C99.2008 111.18 99.7773 111.725 100.034 112.366C100.962 112.141 101.891 112.109 102.82 112.109C103.237 112.109 103.621 112.205 103.941 112.43C113.295 112.205 122.552 110.956 131.841 109.963C135.108 109.611 138.407 109.098 141.578 108.041C143.948 107.273 147.312 106.12 148.401 103.621C150.483 98.7523 143.276 96.9266 140.041 96.4461ZM94.4922 138.215C86.2602 139.112 76.0422 140.137 68.675 136.005C68.675 136.037 68.643 136.069 68.643 136.101C68.6109 136.165 68.5789 136.261 68.5148 136.325C70.2766 138.215 72.4227 139.752 74.7289 140.873C80.8148 143.788 88.2461 144.781 94.8766 143.116C94.332 141.45 94.3641 139.848 94.4922 138.215ZM96.4781 114.416C96.382 114.384 96.2539 114.384 96.1578 114.352C96.2539 114.8 96.35 115.248 96.5102 115.665C96.7344 115.601 96.9906 115.569 97.2469 115.601C96.8305 115.312 96.5742 114.864 96.4781 114.416Z" fill="#FEBF10"/>
<path d="M148.977 133.346C148.945 132.866 148.977 132.321 148.945 131.809C148.689 132.417 148.177 132.994 147.664 133.346C145.838 134.595 143.884 135.588 141.77 136.293C138.855 137.254 135.877 138.055 132.834 138.471C129.855 138.855 126.908 138.823 123.897 139.016C118.355 139.368 112.558 139.24 107.048 138.375C104.198 137.927 100.546 137.254 98.1758 135.236C98.0476 136.197 97.9195 137.19 97.8234 138.151C98.4961 138.279 99.1047 138.791 99.2328 139.656C99.6812 143.052 104.39 143.948 107.145 144.333C111.309 144.941 115.601 144.845 119.829 144.557C126.299 144.109 132.609 142.859 139.016 141.866C140.585 141.61 142.155 141.546 143.724 141.354C144.589 141.258 145.454 141.162 146.287 140.97C146.639 140.873 146.991 140.809 147.312 140.681C147.312 140.681 147.312 140.681 147.344 140.681C147.856 139.816 148.849 139.752 149.586 140.201C149.618 137.927 149.138 135.684 148.977 133.346Z" fill="#F6851F"/>
<path d="M94.5563 128.509C91.4492 129.054 88.3422 128.958 85.1711 128.83C82.2562 128.702 79.3414 128.798 76.4266 128.541C71.9422 128.157 67.618 126.94 64.2227 124.089C64.3828 125.05 64.5109 125.979 64.6391 126.94C64.7031 127.324 64.7352 127.741 64.7992 128.125C65.2156 128.189 65.632 128.413 65.9523 128.862C69.0914 133.442 74.6969 134.948 79.982 135.332C84.9469 135.684 89.8797 135.14 94.8125 134.627C94.8125 134.435 94.8125 134.243 94.8445 134.051C94.8445 132.193 94.6524 130.367 94.5563 128.509ZM145.71 144.653C143.692 144.973 141.642 145.07 139.624 145.358C136.101 145.838 132.641 146.639 129.118 147.12C125.498 147.632 121.879 148.016 118.259 148.177C113.679 148.369 108.874 148.497 104.39 147.408C102.948 147.055 101.507 146.575 100.226 145.902C100.898 146.927 101.635 147.92 102.5 148.753C102.852 148.625 103.301 148.625 103.717 148.785C106.248 149.746 108.65 151.155 111.373 151.444C114.512 151.796 117.907 151.604 121.046 151.54C124.73 151.476 128.477 151.091 132.161 150.675C135.684 150.259 139.304 149.714 142.667 148.465C144.589 147.76 147.6 146.511 147.632 144.269C146.959 144.461 146.255 144.557 145.71 144.653ZM94.0438 119.188C93.8195 119.348 93.4992 119.445 93.1469 119.477C83.8898 119.893 70.6609 123.48 63.4859 115.825C63.4219 116.946 63.3898 118.099 63.518 119.22C64.0305 119.188 64.575 119.38 64.9914 119.925C68.0664 123.801 73.2234 124.954 77.9641 125.178C80.6547 125.306 83.3453 125.306 86.0359 125.402C88.7906 125.498 91.6414 125.627 94.332 125.018C94.3961 125.018 94.4281 124.986 94.4922 124.986C94.5242 124.345 94.5883 123.705 94.7164 123.032C94.9406 121.687 94.5242 120.405 94.0438 119.188ZM60.6352 107.497C60.6031 107.305 60.6031 107.145 60.5711 106.984C60.5391 106.984 60.507 106.984 60.475 106.984C59.1297 107.112 57.7844 107.561 56.4711 107.849C54.2609 108.362 52.0508 108.618 49.7766 108.81C45.2922 109.195 40.8398 109.195 36.3555 109.323C30.8781 109.451 23.5109 109.835 18.5781 106.632C18.6742 107.625 18.7383 108.586 18.7703 109.579C19.7953 109.547 20.9164 110.316 20.7563 111.629C20.7242 111.821 20.7563 111.917 20.9164 112.141C21.0766 112.334 21.4289 112.622 21.7812 112.846C22.9344 113.455 24.1516 113.839 25.4328 114.127C28.6039 114.832 31.8711 115.12 35.1062 115.248C38.3414 115.377 41.5766 115.409 44.8117 115.12C47.9187 114.832 50.9617 114.223 54.0367 113.871C55.318 113.711 56.6633 113.423 57.9125 113.423C58.0086 113.423 58.1367 113.423 58.2328 113.423C58.5852 113.102 59.0656 112.942 59.7062 113.134C59.8984 113.198 60.0906 113.262 60.2508 113.327C60.5391 111.373 60.8273 109.419 60.6352 107.497ZM59.9305 116.786C59.3859 116.914 58.7133 116.882 58.2008 116.882C56.7594 116.882 55.1258 117.17 53.7164 117.427C50.4812 118.003 47.182 118.484 43.9148 118.676C40.4875 118.9 37.0281 118.836 33.5688 118.612C29.8531 118.387 26.0734 118.099 22.518 116.914C21.3648 116.53 20.1797 115.985 19.2188 115.28C19.4109 116.722 19.6992 118.131 20.1156 119.573C23.0945 120.79 25.7852 122.167 29.0203 122.712C32.4477 123.288 35.907 123.352 39.3984 123.32C46.4133 123.288 53.3 121.879 60.1547 120.566C59.9945 119.316 59.9305 118.067 59.9305 116.786ZM60.6352 124.025C53.3 125.434 45.9969 126.844 38.4695 126.812C34.9141 126.812 31.2625 126.748 27.7711 126.043C25.4328 125.562 23.3187 124.73 21.2047 123.833C21.3648 124.538 21.493 125.21 21.6211 125.915C22.0055 125.915 22.3898 126.011 22.7742 126.299C27.3867 129.855 34.2094 129.983 39.7508 130.015C43.4664 130.047 47.2781 130.111 50.9617 129.566C54.3891 129.054 57.8164 128.061 61.3078 128.445C61.1156 126.972 60.8594 125.498 60.6352 124.025Z" fill="#FEBF10"/>
<path d="M92.5383 113.038C92.5703 112.686 92.6664 112.366 92.8266 112.109C92.7625 111.949 92.6664 111.789 92.6023 111.629C92.5703 111.565 92.5703 111.469 92.5383 111.405C91.7375 111.629 90.9047 111.693 90.0719 111.789C88.5344 111.949 87.093 112.238 85.5875 112.494C82.4164 113.07 79.3414 113.134 76.1703 112.75C72.1984 112.27 67.2656 111.405 64.1266 108.586C64.1266 109.387 64.0625 110.155 63.9664 110.956C64.2227 111.084 64.4469 111.277 64.6391 111.597C67.4578 116.113 72.9031 117.138 77.868 117.106C82.8969 117.106 87.8297 116.145 92.8266 115.921C92.6344 114.992 92.4742 114.031 92.5383 113.038ZM61.8844 131.616C61.5641 131.841 61.1477 131.969 60.6352 131.937C56.7594 131.52 52.7875 133.09 48.9438 133.378C45.3883 133.634 41.8008 133.634 38.2773 133.538C32.8641 133.378 26.9383 132.93 22.1977 130.143C22.3578 130.784 22.55 131.424 22.9023 131.969C23.6711 133.218 24.7602 134.019 26.0734 134.659C33.4406 138.279 42.025 139.592 50.1609 139.304C53.2039 139.208 56.3109 139.016 59.2578 138.279C60.8273 137.895 62.6852 137.35 64.0625 136.325C63.0695 134.852 62.3648 133.314 61.8844 131.616Z" fill="#FEBF10"/>
<path d="M54.6453 67.618C54.7734 67.65 54.9336 67.682 54.6453 67.618V67.618ZM108.202 87.6055C108.234 87.6055 108.234 87.6055 108.202 87.6055C108.234 87.6055 108.202 87.6055 108.202 87.6055ZM108.202 87.6055C108.202 87.6055 108.17 87.6695 108.202 87.6055V87.6055Z" fill="black"/>
<path d="M152.597 134.179C152.437 132.77 152.565 131.264 152.212 129.887C151.828 128.349 151.252 126.972 151.091 125.37C150.963 124.025 151.828 122.455 152.052 121.11C152.309 119.412 152.116 117.523 152.18 115.825C152.277 112.141 152.437 108.458 152.437 104.742C152.437 104.23 152.245 103.845 151.988 103.589C152.245 102.436 152.212 101.155 151.828 99.7453C150.355 94.5883 143.564 93.243 139.016 92.7625C134.787 92.3141 130.463 92.3781 126.267 92.8266C123.032 93.1789 119.765 93.6594 116.53 94.3C116.562 94.1719 116.562 94.0117 116.562 93.8516C116.498 91.0648 115.056 88.6625 114.896 85.9078C114.736 83.1531 114.352 80.1742 114.736 77.4516C115.088 74.8891 115.761 72.4227 115.409 69.7961C115.184 68.1305 114.32 66.6891 113.967 65.0555C113.615 63.4219 113.647 61.7562 113.359 60.1227C112.91 57.6883 110.956 55.9266 110.508 53.5563C110.22 52.0508 110.668 50.4172 110.796 48.9117C110.956 47.2461 110.956 45.6125 110.796 43.9469C110.508 41.1281 111.501 38.6938 111.949 35.9711C112.462 32.7359 110.796 29.757 110.155 26.65C110.091 26.3617 109.995 26.1055 109.835 25.9133C109.803 24.4078 109.323 22.8703 108.618 21.557C105.927 16.6242 98.8484 15.5031 93.8195 15.1508C88.3422 14.7984 83.057 15.7914 77.6437 16.5922C74.2164 17.1047 70.7891 17.425 67.3297 17.7133C64.4789 17.9695 61.5 18.45 58.9375 19.7953C55.7984 21.4289 53.0758 24.8883 53.0437 28.5398C53.0437 28.5719 53.0437 28.6039 53.0437 28.668C52.6594 28.7961 52.307 29.0844 52.0828 29.5328C51.1539 31.4227 51.5383 33.2484 52.275 35.1383C53.2039 37.5406 54.0047 40.007 54.6133 42.5055C55.7984 47.4062 53.9086 52.0187 54.1969 56.9195C54.325 59.1937 54.9016 61.4359 55.1898 63.7102C55.2219 63.8703 55.2219 63.9984 55.2219 64.1586C55.1578 64.1586 55.0937 64.1586 55.0617 64.1586C52.6594 63.9984 50.225 63.3258 47.8227 63.1016C43.082 62.6852 38.2453 62.6531 33.5047 62.8773C28.8281 63.1336 24.1836 63.8063 19.6672 65.0234C16.6883 65.8242 13.7094 67.8422 11.9797 70.4047C10.5062 72.5187 10.0898 74.9531 11.0828 77.2594C9.54531 80.3664 10.9547 83.6016 12.2039 86.7406C13.9336 91.1609 12.5883 95.9016 14.1258 100.354C15.7273 104.998 15.2148 110.091 15.6633 114.896C16.1117 119.541 17.9375 123.929 18.5141 128.573C18.9305 132.097 20.0195 135.076 23.1586 137.03C26.8742 139.368 31.5187 140.617 35.7789 141.578C42.6016 143.084 49.8086 143.276 56.6953 142.347C59.8344 141.93 63.6461 141.13 66.3047 139.08C66.4969 139.272 66.657 139.464 66.8492 139.624C74.1844 146.799 86.5805 149.137 96.4781 146.415C97.5672 148.401 98.9125 150.291 100.546 151.732C101.123 152.245 101.795 152.277 102.308 152.02C104.934 153.045 107.401 154.327 110.22 154.871C111.885 155.191 113.679 155.063 115.345 155.063C117.138 155.095 118.964 155.127 120.758 155.095C124.954 155.063 129.214 154.615 133.378 154.102C137.414 153.59 141.546 152.885 145.294 151.252C148.241 149.97 151.091 147.792 151.187 144.397C151.924 144.333 152.565 143.884 152.757 143.02C153.398 140.041 152.917 137.158 152.597 134.179ZM148.112 128.605C148.209 128.894 148.305 129.214 148.401 129.502C148.273 129.406 148.112 129.342 147.92 129.246C146.703 128.766 145.646 129.662 145.39 130.623C145.198 130.752 145.005 130.88 144.813 130.976C144.269 131.296 143.724 131.68 143.18 131.937C140.97 132.994 138.503 133.634 136.133 134.243C131.264 135.492 126.107 135.428 121.11 135.556C116.69 135.684 112.109 135.524 107.721 134.884C105.127 134.499 100.995 133.987 99.5851 131.424C99.2328 130.784 98.6883 130.559 98.1758 130.591C98.0797 129.598 97.9836 128.573 97.9195 127.58C97.9195 127.452 97.9195 127.324 97.9195 127.196C100.418 129.214 103.653 130.015 106.984 130.239C112.526 130.591 118.195 130.399 123.705 130.015C129.278 129.63 134.499 128.285 139.912 127.132C142.123 126.652 145.71 126.043 147.664 124.281C147.632 124.409 147.632 124.505 147.6 124.634C147.44 125.979 147.728 127.356 148.112 128.605ZM145.422 121.847C145.678 121.046 145.326 121.687 144.813 121.943C144.077 122.295 143.276 122.552 142.507 122.808C141.098 123.256 139.688 123.641 138.247 123.897C135.812 124.345 133.474 125.146 131.04 125.562C128.349 126.043 125.595 126.331 122.872 126.523C118.099 126.876 113.262 126.908 108.49 126.812C104.806 126.716 100.834 126.075 98.6883 122.808C98.5922 122.648 98.4641 122.52 98.368 122.423C98.368 122.359 98.368 122.295 98.368 122.231C98.4 121.783 98.368 121.334 98.3039 120.886C100.546 121.879 103.365 121.847 105.703 121.943C108.298 122.039 110.86 122.455 113.455 122.584C116.594 122.744 119.797 122.199 122.936 121.879C128.637 121.238 134.339 120.213 139.784 118.42C142.795 117.427 146.415 117.33 148.753 115.152C148.721 116.69 148.689 118.259 148.657 119.797C148.657 120.181 148.625 120.566 148.529 120.95C147.632 120.245 145.87 120.405 145.422 121.847ZM146.831 111.789C145.422 114.576 140.553 114.416 137.991 115.248C132.994 116.882 127.773 117.747 122.584 118.355C120.021 118.644 117.427 118.996 114.864 119.092C112.27 119.188 109.675 118.772 107.112 118.516C104.55 118.291 99.8094 119.028 98.3039 116.37C98.1758 116.145 98.0476 115.985 97.8875 115.857C98.0156 115.889 98.1437 115.889 98.2719 115.889C108.682 116.177 119.028 114.928 129.342 113.647C134.435 113.006 139.432 112.622 144.301 110.764C145.966 110.123 147.536 109.291 148.881 108.202C148.849 109.098 148.849 109.963 148.817 110.86C148.08 110.732 147.28 110.956 146.831 111.789ZM113.038 94.1398C113.038 94.4922 113.134 94.7805 113.295 95.0047C110.54 95.6453 107.817 96.4461 105.223 97.407C103.621 97.9836 102.116 98.6883 100.706 99.5211C100.29 99.0406 99.6492 98.7844 98.8805 99.0727C92.6984 101.411 85.8437 100.258 79.4375 100.162C74.0562 100.066 67.7461 100.162 63.8062 95.8695C63.6461 95.6773 63.4859 95.5812 63.2937 95.4852C63.2297 94.4602 63.1336 93.4031 62.9414 92.3781C65.6641 94.0117 68.9633 94.8125 72.1664 95.1328C77.868 95.7094 83.4734 94.8125 89.175 94.7805C93.4352 94.7805 97.7914 94.3 101.987 93.5312C105.159 92.9547 110.732 92.0258 111.693 88.3102C111.789 88.8867 111.917 89.4312 112.109 90.0078C112.462 91.4492 113.006 92.6344 113.038 94.1398ZM108.202 87.6055C108.009 87.8617 108.041 87.7976 107.721 88.0219C107.112 88.4703 106.408 88.7266 105.703 88.9828C103.749 89.6875 101.667 90.0719 99.6172 90.3602C96.0297 90.9047 92.3461 91.257 88.6945 91.257C83.6336 91.2891 78.6367 92.0898 73.5437 91.7055C68.8352 91.3852 63.7422 90.168 61.2758 85.8117C61.1156 85.1391 60.9555 84.4664 60.7953 83.7938C65.7922 85.0109 70.8211 86.3242 75.9461 86.9969C81.5836 87.7336 87.0609 87.3172 92.6023 86.2922C97.0867 85.4594 101.763 84.7227 106.055 83.1531C107.465 82.6406 109.547 81.8719 111.052 80.7508C111.116 82.3844 111.277 84.018 111.341 85.6516C111.341 85.8758 111.373 86.1 111.373 86.2922C110.476 85.3633 108.33 85.9398 108.234 87.7016C108.234 87.6375 108.234 87.6055 108.202 87.6055ZM111.437 75.6258C110.476 75.5938 109.451 76.2344 109.515 77.4516C109.515 77.1633 109.195 77.6758 109.034 77.8039C108.522 78.2203 107.913 78.5406 107.337 78.8289C106.023 79.4695 104.678 79.95 103.301 80.3984C101.571 80.975 99.7453 81.2633 97.9515 81.6477C95.293 82.2242 92.6023 82.7687 89.9117 83.2172C84.8828 84.05 79.95 84.05 74.8891 83.2812C69.9883 82.5445 65.1836 81.2312 60.3789 80.0461C60.2508 80.0141 60.1227 80.0141 60.0266 79.982C59.8664 79.2133 59.7383 78.4125 59.5781 77.6437C60.5711 76.6828 60.0906 75.2094 59.1297 74.6648C59.0977 74.3125 59.0656 73.9281 59.0336 73.5758C62.1727 75.3375 65.9523 75.9141 69.4758 76.2344C74.7609 76.6828 80.1742 76.6187 85.4594 76.2344C92.1219 75.7539 98.7203 74.6008 105.319 73.5758C107.369 73.2555 110.444 72.5508 111.981 70.9172C112.045 72.5508 111.725 74.1203 111.437 75.6258ZM110.091 61.7883C110.155 62.6211 110.187 63.4539 110.252 64.1906C110.316 64.8312 110.444 65.4398 110.604 66.0484C109.643 66.2406 108.81 67.1055 109.259 68.2906C109.419 68.707 109.387 68.707 108.81 69.0594C108.202 69.4438 107.401 69.6359 106.696 69.7961C104.614 70.3406 102.436 70.5008 100.322 70.8531C94.4922 71.782 88.6305 72.6148 82.7367 72.9031C78.5726 73.1273 74.3125 73.1273 70.1484 72.807C66.3367 72.5187 61.9164 71.9102 58.9375 69.2836C58.9055 69.2516 58.8734 69.2516 58.8414 69.2195C58.8414 68.3227 58.8094 67.3938 58.7773 66.4969C58.8414 66.1766 58.8414 65.8883 58.7453 65.6C58.7133 65.2156 58.7133 64.8313 58.6812 64.4148C64.2547 67.7781 71.6859 67.8742 77.932 67.8742C83.0891 67.9062 88.15 67.1695 93.1789 66.1445C98.5601 65.0555 104.037 64.0625 109.259 62.3328C109.643 62.2367 109.931 62.0445 110.091 61.7883ZM109.291 59.0336C108.97 58.9055 108.554 58.8734 108.137 59.0336C103.429 60.6031 98.5281 61.468 93.6594 62.493C88.7586 63.55 83.7937 64.3508 78.7969 64.3828C72.1344 64.4148 63.4539 64.6391 58.3289 59.7062C58.2328 59.6422 58.1687 59.5781 58.0727 59.5141C57.8805 58.425 57.7203 57.368 57.6562 56.2789C60.475 58.4891 65.4719 58.5852 68.5469 58.8094C74.6648 59.2578 80.8789 59.6422 86.9969 59.5781C91.4492 59.5461 95.9336 59.3539 100.322 58.7133C102.404 58.393 105.959 57.9125 107.753 56.2148C108.202 57.1437 108.778 58.0727 109.291 59.0336ZM107.209 43.5945C107.209 43.6266 107.209 43.6586 107.209 43.6906C106.92 43.5945 106.568 43.5625 106.184 43.6586C104.486 44.075 102.916 44.7797 101.315 45.4203C99.3609 46.1891 97.343 46.5414 95.293 46.9258C90.9047 47.7586 86.5164 48.0148 82.032 48.0789C77.7719 48.1109 73.5117 48.3031 69.2836 47.7906C65.7922 47.3422 62.4609 45.5805 58.8734 45.8367C58.7453 45.8367 58.6172 45.8688 58.5211 45.9008C58.4891 44.3313 58.2008 42.7938 57.8484 41.2563C63.2617 45.3242 70.9812 45.6445 77.6437 45.6125C83.1211 45.6125 88.5984 45.1641 93.9797 44.2031C98.5601 43.3703 103.461 42.4094 107.497 40.007C107.305 41.1281 107.145 42.3133 107.209 43.5945ZM107.369 46.9578C107.369 47.3742 107.369 47.7586 107.337 48.175C107.241 49.4242 107.048 50.6734 106.952 51.9227C106.184 52.0188 105.415 52.5633 105.351 53.5242C105.319 53.5563 105.287 53.5883 105.223 53.6523C104.71 54.0047 104.166 54.1969 103.493 54.3891C101.763 54.9336 99.9054 55.1898 98.1117 55.382C94.268 55.8305 90.3922 55.9586 86.5164 55.9906C84.4344 56.0227 82.3523 55.8625 80.2703 55.7664C76.843 55.6383 73.4156 55.6063 69.9883 55.318C67.9383 55.1578 65.8883 55.0297 63.8703 54.6773C62.3969 54.4211 59.6742 54.0367 59.1617 52.3711C58.9695 51.7305 58.5531 51.4102 58.1047 51.282C58.2008 50.5773 58.3289 49.8727 58.425 49.1359C58.6492 49.232 58.9375 49.2961 59.2578 49.2641C60.9875 49.1359 62.7172 49.6805 64.3828 50.1609C66.2086 50.6734 68.0023 51.0898 69.8922 51.282C74.2484 51.7625 78.6687 51.5383 83.025 51.5063C87.4773 51.4742 91.8656 51.0898 96.2539 50.257C98.2398 49.8727 100.194 49.5523 102.084 48.8797C103.813 48.2711 105.511 47.4383 107.369 46.9578C107.369 46.9898 107.369 46.9578 107.369 46.9578ZM56.5031 28.4438C56.6312 26.3297 58.1687 24.4398 59.8344 23.2547C62.8773 21.1086 67.2336 21.1727 70.7891 20.9164C75.85 20.5641 80.8469 19.5391 85.8437 18.8664C91.257 18.1297 97.5672 18.1938 102.564 20.6922C104.582 21.6852 106.472 23.607 106.312 26.0414C106.184 28.2836 104.23 29.6289 102.34 30.4617C97.7273 32.4797 92.3461 32.6398 87.3812 32.6719C78.925 32.7359 70.5969 31.3266 62.2047 30.6859C61.9805 30.0773 61.4039 29.6289 60.5391 29.7891C59.45 29.9813 58.2008 30.2375 57.1437 29.725C56.6633 29.5008 56.4711 29.0203 56.5031 28.4438ZM55.0617 32.4797C55.6062 32.8 56.1828 33.0562 56.8234 33.2164C57.1437 33.6328 57.5922 33.9211 58.2328 33.9211C63.4219 34.1133 68.5469 34.85 73.7039 35.4266C78.3484 35.9391 82.9609 36.1633 87.6375 36.1633C92.8266 36.1313 98.3039 35.7789 103.173 33.8891C104.902 33.2164 106.504 32.2555 107.753 30.9102C108.234 32.5117 108.586 34.1453 108.33 35.7789C108.298 36.0031 108.266 36.2273 108.202 36.4516C107.689 36.1313 107.016 36.0672 106.376 36.5156C102.692 38.982 97.9515 39.8789 93.6594 40.6797C88.6945 41.6086 83.6016 41.993 78.5406 42.0891C71.0773 42.2172 61.3398 42.2812 56.9195 35.0742C56.5672 34.5297 56.0867 34.2734 55.6062 34.2734C55.4461 33.6969 55.1578 33.0883 55.0617 32.4797ZM13.9336 74.3125C14.2219 71.782 17.0086 69.8602 19.1227 68.8992C20.9805 68.0344 23.1586 67.682 25.1766 67.2977C27.6109 66.8492 30.0773 66.593 32.5758 66.4008C37.3805 66.0484 42.2812 66.1125 47.0859 66.4969C49.4883 66.6891 51.8906 67.0414 54.2289 67.5539C54.4211 67.5859 54.5492 67.618 54.6453 67.65C54.5172 67.618 54.357 67.5539 54.6773 67.5859C54.9016 67.618 55.1578 67.618 55.382 67.65C55.4141 68.8672 55.4141 70.1164 55.4461 71.3336C55.4781 72.9031 55.6062 74.4727 55.7664 76.0422C49.3922 79.6937 40.9359 78.1242 33.9211 78.7648C29.5648 79.1812 25.1766 79.8219 20.8203 79.2133C18.45 78.893 13.5492 77.5797 13.9336 74.3125ZM14.6062 83.5055C14.1898 82.5445 13.7734 81.4555 13.7414 80.4305C15.9195 81.9039 18.7703 82.5445 21.1727 82.8328C25.6891 83.3453 30.2055 82.6726 34.6898 82.2562C38.8539 81.8719 43.018 82.1281 47.182 81.8719C50.2891 81.6797 53.4602 81.0711 56.2789 79.7578C56.5992 81.6156 56.9836 83.4734 57.432 85.3312C54.7414 85.9078 52.2109 87.0289 49.5523 87.7656C45.6445 88.8867 41.5766 89.0148 37.5406 89.0469C33.3766 89.0789 29.4047 88.3101 25.3047 87.5414C22.0055 86.9328 18.0977 86.6445 15.6633 84.018C15.343 83.6656 14.9906 83.5055 14.6062 83.5055ZM16.432 88.8867C18.418 89.8797 20.7242 90.3922 22.8383 90.6805C27.2906 91.3531 31.6148 92.4742 36.1633 92.5383C40.3273 92.6023 44.5875 92.5062 48.6875 91.5773C51.9226 90.8406 54.9977 89.3031 58.2648 88.6945C58.2969 88.6945 58.3289 88.6945 58.3609 88.6625C58.6812 89.8797 59.0336 91.0969 59.3539 92.3141C59.5141 92.9547 59.6422 93.5953 59.7383 94.2359C59.3859 94.0758 58.9695 94.0758 58.5211 94.2359C53.6203 96.0617 48.207 96.0937 43.05 96.2219C39.7828 96.318 36.5477 96.5422 33.2805 96.6383C29.9812 96.7344 26.65 96.6383 23.4148 95.9977C21.2687 95.5812 18.2578 94.7484 18.2898 92.218C18.3219 91.1609 17.5531 90.6484 16.7203 90.6484C16.6242 90.1039 16.5281 89.4953 16.432 88.8867ZM17.9055 101.667C17.6812 100.418 17.3609 99.2008 16.9445 97.9516C16.8484 97.6633 16.7844 97.375 16.7203 97.0867C20.3398 100.162 27.8031 100.194 31.6148 100.194C35.1703 100.194 38.6937 99.8734 42.2172 99.7773C48.0148 99.6172 54.1008 99.6492 59.6102 97.5672C59.7383 97.5352 59.8344 97.4711 59.9305 97.407C59.9625 98.368 59.9625 99.3289 59.9945 100.29C60.0266 101.347 60.0906 102.404 60.1867 103.429C59.0016 103.525 57.8164 103.909 56.6953 104.166C54.9016 104.582 53.1719 104.87 51.3461 105.095C46.7336 105.607 42.1531 105.607 37.5086 105.735C34.1133 105.831 30.718 105.927 27.3227 105.543C24.4719 105.255 20.7562 104.678 18.8664 102.276C18.6102 101.955 18.2578 101.763 17.9055 101.667ZM18.5781 106.6C23.5109 109.803 30.8781 109.419 36.3555 109.291C40.8398 109.195 45.3242 109.195 49.7766 108.778C52.0187 108.586 54.2609 108.33 56.4711 107.817C57.7844 107.497 59.1297 107.08 60.475 106.952C60.507 106.952 60.5391 106.952 60.5711 106.952C60.6031 107.112 60.6031 107.305 60.6352 107.465C60.8273 109.387 60.5391 111.341 60.2508 113.263C60.0906 113.198 59.8984 113.134 59.7062 113.07C59.0977 112.878 58.5852 113.038 58.2328 113.359C58.1367 113.359 58.0086 113.359 57.9125 113.359C56.6312 113.359 55.2859 113.679 54.0367 113.807C50.9617 114.159 47.8867 114.768 44.8117 115.056C41.5766 115.345 38.3414 115.312 35.1062 115.184C31.8711 115.056 28.6039 114.768 25.4328 114.063C24.1516 113.775 22.9344 113.423 21.7812 112.782C21.3969 112.59 21.0766 112.302 20.9164 112.077C20.7242 111.853 20.7242 111.757 20.7562 111.565C20.9164 110.252 19.7953 109.451 18.7703 109.515C18.7062 108.586 18.6422 107.593 18.5781 106.6ZM19.2187 115.28C20.1797 116.017 21.3648 116.53 22.518 116.914C26.0414 118.099 29.8531 118.387 33.5687 118.612C36.9961 118.804 40.4555 118.868 43.9148 118.676C47.182 118.452 50.4812 118.003 53.7164 117.427C55.1258 117.17 56.7594 116.914 58.2008 116.882C58.7133 116.882 59.3859 116.914 59.9305 116.786C59.8984 118.035 59.9945 119.316 60.1227 120.566C53.268 121.879 46.3812 123.256 39.3664 123.32C35.907 123.352 32.4156 123.288 28.9883 122.712C25.7531 122.167 23.0625 120.79 20.0836 119.573C19.7312 118.163 19.4109 116.722 19.2187 115.28ZM21.2047 123.833C23.3187 124.73 25.4328 125.562 27.7711 126.043C31.2945 126.748 34.9141 126.812 38.4695 126.812C45.9969 126.844 53.268 125.434 60.6352 124.025C60.8594 125.498 61.1156 126.972 61.3078 128.445C57.8164 128.061 54.3891 129.086 50.9617 129.566C47.2781 130.111 43.4664 130.047 39.7508 130.015C34.2094 129.983 27.3547 129.823 22.7742 126.299C22.3898 126.011 22.0055 125.915 21.6211 125.915C21.493 125.242 21.3648 124.537 21.2047 123.833ZM59.2258 138.247C56.2789 138.984 53.1398 139.176 50.1289 139.272C41.9609 139.56 33.4086 138.247 26.0414 134.627C24.7281 133.987 23.6391 133.186 22.8703 131.937C22.518 131.392 22.3258 130.752 22.1656 130.111C26.9383 132.898 32.832 133.346 38.2453 133.506C41.8008 133.602 45.3883 133.602 48.9117 133.346C52.7555 133.058 56.7594 131.488 60.6031 131.905C61.1156 131.969 61.532 131.841 61.8523 131.584C62.3328 133.282 63.0375 134.82 63.9984 136.261C62.6852 137.318 60.8273 137.862 59.2258 138.247ZM92.8906 115.953C87.8937 116.177 82.9609 117.106 77.932 117.138C72.9672 117.138 67.5219 116.145 64.7031 111.629C64.5109 111.309 64.2867 111.116 64.0305 110.988C64.0945 110.187 64.1586 109.419 64.1906 108.618C67.3297 111.437 72.2625 112.302 76.2344 112.782C79.4055 113.166 82.4805 113.102 85.6516 112.526C87.157 112.237 88.5984 111.949 90.1359 111.821C90.9687 111.725 91.8016 111.661 92.6023 111.437C92.6344 111.501 92.6344 111.597 92.6664 111.661C92.7305 111.821 92.7945 111.981 92.8906 112.141C92.7305 112.398 92.6023 112.718 92.6023 113.07C92.4742 114.031 92.6344 114.992 92.8906 115.953ZM93.1469 119.477C93.4992 119.445 93.8195 119.348 94.0437 119.188C94.5242 120.437 94.9406 121.687 94.7164 123.064C94.6203 123.705 94.5242 124.377 94.4922 125.018C94.4281 125.018 94.3961 125.018 94.332 125.05C91.6094 125.627 88.7906 125.53 86.0359 125.434C83.3453 125.338 80.6547 125.338 77.9641 125.21C73.2555 124.986 68.0664 123.833 64.9914 119.957C64.575 119.445 64.0305 119.252 63.518 119.252C63.3898 118.099 63.4219 116.978 63.4859 115.857C70.6609 123.448 83.8898 119.861 93.1469 119.477ZM65.9523 128.894C65.632 128.445 65.2156 128.221 64.7992 128.157C64.7672 127.773 64.7031 127.356 64.6391 126.972C64.5109 126.011 64.3508 125.082 64.2227 124.121C67.5859 126.972 71.9422 128.189 76.4266 128.573C79.3414 128.83 82.2562 128.734 85.1711 128.862C88.3422 128.99 91.4492 129.054 94.5562 128.541C94.6844 130.367 94.8445 132.225 94.8125 134.083C94.8125 134.275 94.8125 134.467 94.7805 134.659C89.8476 135.204 84.9148 135.748 79.95 135.364C74.6969 134.948 69.1234 133.474 65.9523 128.894ZM74.7289 140.873C72.4227 139.784 70.2766 138.215 68.5148 136.325C68.5469 136.261 68.6109 136.165 68.643 136.101C68.675 136.069 68.675 136.037 68.675 136.005C76.0422 140.137 86.2601 139.112 94.4922 138.215C94.3641 139.848 94.332 141.482 94.8766 143.148C88.2461 144.781 80.8148 143.788 74.7289 140.873ZM93.7234 106.087C93.4031 106.568 93.1148 107.112 92.8906 107.657C92.6023 107.657 92.314 107.721 92.0258 107.881C91.3211 108.266 90.168 108.202 89.3992 108.266C88.0219 108.394 86.7086 108.65 85.3633 108.938C82.6727 109.483 79.982 109.579 77.2594 109.291C73.3516 108.874 67.618 108.202 65.3437 104.518C64.9273 103.813 64.2867 103.621 63.6781 103.749C63.55 102.596 63.4859 101.411 63.4219 100.258C67.7461 103.333 73.6078 103.557 78.7969 103.621C84.3383 103.717 90.1359 104.454 95.6453 103.525C94.9726 104.326 94.3 105.159 93.7234 106.087ZM95.9336 110.444C95.6773 109.867 96.1578 108.874 96.5422 108.17C97.7273 105.991 99.7773 104.134 101.827 102.756C104.71 100.866 108.49 99.9055 111.789 99.0086C116.017 97.8875 120.341 97.1508 124.698 96.5742C129.759 95.8695 134.98 95.6773 140.009 96.4141C143.276 96.8945 150.451 98.7203 148.337 103.589C147.248 106.087 143.884 107.241 141.514 108.009C138.375 109.034 135.076 109.579 131.777 109.931C122.487 110.924 113.198 112.173 103.877 112.398C103.557 112.205 103.173 112.077 102.756 112.077C101.795 112.077 100.866 112.141 99.9695 112.334C99.7133 111.693 99.1367 111.148 98.2719 111.116C97.6953 111.116 96.1578 110.956 95.9336 110.444ZM96.5101 115.665C96.382 115.216 96.2539 114.8 96.1578 114.352C96.2539 114.384 96.35 114.384 96.4781 114.416C96.5742 114.864 96.8305 115.312 97.2469 115.601C96.9906 115.569 96.7344 115.601 96.5101 115.665ZM142.667 148.497C139.304 149.746 135.716 150.291 132.161 150.707C128.477 151.155 124.73 151.508 121.046 151.572C117.875 151.636 114.512 151.828 111.373 151.476C108.65 151.187 106.248 149.778 103.717 148.817C103.269 148.657 102.852 148.657 102.5 148.785C101.635 147.984 100.898 146.991 100.226 145.934C101.507 146.607 102.948 147.087 104.39 147.44C108.874 148.497 113.679 148.401 118.259 148.209C121.911 148.048 125.53 147.664 129.118 147.152C132.641 146.671 136.101 145.87 139.624 145.39C141.642 145.102 143.692 145.005 145.71 144.685C146.255 144.589 146.959 144.493 147.632 144.333C147.6 146.511 144.589 147.792 142.667 148.497ZM149.522 140.233C148.785 139.784 147.792 139.816 147.28 140.713C147.28 140.713 147.28 140.713 147.248 140.713C146.927 140.841 146.575 140.905 146.223 141.002C145.39 141.194 144.525 141.29 143.66 141.386C142.091 141.578 140.521 141.642 138.952 141.898C132.545 142.891 126.267 144.141 119.765 144.589C115.569 144.877 111.277 144.973 107.08 144.365C104.326 143.98 99.6172 143.084 99.1687 139.688C99.0406 138.823 98.432 138.311 97.7594 138.183C97.8234 137.222 97.9836 136.229 98.1117 135.268C100.45 137.286 104.134 137.959 106.984 138.407C112.462 139.272 118.291 139.368 123.833 139.048C126.812 138.855 129.791 138.92 132.77 138.503C135.812 138.087 138.791 137.286 141.706 136.325C143.82 135.652 145.774 134.627 147.6 133.378C148.145 133.026 148.625 132.449 148.881 131.841C148.913 132.353 148.881 132.866 148.913 133.378C149.137 135.684 149.618 137.927 149.522 140.233Z" fill="black"/>
</svg>
