<svg width="60" height="60" viewBox="0 0 60 60" fill="none" xmlns="http://www.w3.org/2000/svg">
<path d="M40.6172 27.4805C39.668 27.8906 38.6602 28.1133 37.6523 28.3125C34.1602 29.0039 30.5742 28.5703 27.082 28.1484C23.4492 27.7031 19.7813 27.6094 16.125 27.4922C17.4258 29.6602 19.5586 30.9492 21.7383 32.2031C23.0508 32.9531 24.4219 33.7617 25.9336 34.0195C27.3398 34.2656 28.7344 34.4648 30.1758 34.418C33.082 34.3242 35.9297 33.4453 38.2148 31.5937C39.2109 30.7852 40.207 29.9297 40.8047 28.7695C41.0742 28.2305 41.2617 27.668 41.3789 27.082C41.1328 27.2461 40.8633 27.375 40.6172 27.4805Z" fill="#EF4823"/>
<path d="M40.8281 25.4297C39.9609 25.0547 38.8594 25.1484 37.9453 25.1836C36.6914 25.2422 35.4492 25.2773 34.1953 25.2656C30.9023 25.2422 27.6328 25.1484 24.3398 25.3828C22.6758 25.5117 21.0117 25.6172 19.3477 25.8281C18.5859 25.9336 17.8125 26.039 17.0625 26.2265C19.3594 26.3086 21.6563 26.3906 23.9414 26.5547C26.5664 26.7422 29.1797 27.164 31.8047 27.3164C34.0781 27.4453 36.3516 27.3398 38.5547 26.789C39.2461 26.6132 39.9844 26.414 40.582 26.039C40.957 25.8281 41.332 25.6523 40.8281 25.4297Z" fill="#EF4823"/>
<path d="M38.9648 5.0156C38.3906 4.78122 37.7578 4.67575 37.1484 4.60544C35.789 4.4531 34.3945 4.47654 33.0234 4.52341C31.1719 4.582 29.332 4.7695 27.4805 4.74607C25.6172 4.72263 23.7656 4.48825 21.9023 4.51169C20.3672 4.53513 18.7851 4.68747 17.3437 5.26169C16.6172 5.55466 15.8789 5.9531 15.2695 6.46872C14.7539 6.90232 14.707 7.2656 15.1172 7.66403C17.8359 7.52341 20.543 7.72263 23.2617 7.74607C25.9453 7.7695 28.6289 7.61716 31.3125 7.53513C33.0703 7.48825 34.8398 7.3945 36.5508 7.03122C37.2656 6.87888 37.9804 6.69138 38.6601 6.42185C39.0586 6.25778 39.5976 6.07028 39.8672 5.707C40.0195 5.48435 39.1054 5.06247 38.9648 5.0156Z" fill="#D6E5E5"/>
<path d="M45.3398 22.9336C45.2812 17.3086 43.8281 11.4492 40.6406 6.76172C40.5703 6.83203 40.4883 6.90234 40.3945 6.97266C39.375 7.6875 38.0742 8.02734 36.8672 8.27344C33.3984 9 29.8359 8.75391 26.3203 8.96484C22.5352 9.1875 18.7383 8.74219 14.9531 8.96484C14.7773 8.97656 14.6367 8.92969 14.5312 8.84766C14.5195 8.83594 14.4961 8.82422 14.4844 8.8125C14.3672 8.71875 14.25 8.61328 14.1445 8.50781C12.1523 13.9453 10.793 19.957 12.2578 25.6641C12.8906 28.1367 13.9922 30.6211 15.9141 32.3555C18.2695 34.4883 21.457 34.8633 24.3984 35.6953C24.9727 35.8594 25.0078 36.5742 24.668 36.8672C24.7266 37.9805 26.0508 38.543 26.8477 39.0469C27.7969 39.6445 28.1719 40.875 28.1953 41.9414C28.207 42.6211 28.3359 43.3008 28.3594 43.9805C28.3828 44.6133 28.3945 45.2578 28.3828 45.8906C28.3711 47.2148 28.3125 48.5391 28.3125 49.8633C28.3125 50.6953 27.0234 50.7891 27.0234 49.957C27.0234 49.2773 27.0469 48.5977 27.0586 47.918C26.4258 48.0234 25.7812 48 25.1484 48.0586C24.1875 48.1406 23.2031 48.2812 22.2656 48.4922C21.2227 48.7266 20.1914 49.0195 19.207 49.4414C18.5039 49.7461 17.6836 50.0508 17.168 50.6484C16.4531 51.4805 16.8398 52.4414 17.5898 53.0977C18.5742 53.9648 19.793 54.3633 21.0937 54.4453C22.9453 54.5625 24.7969 54.6094 26.6484 54.5977C28.2891 54.5859 30.0234 54.6445 31.6406 54.3984C33.3047 54.1406 34.9922 53.7187 36.5273 53.0508C37.2422 52.7461 38.0625 52.3711 38.5547 51.7383C38.9766 51.2109 38.8477 50.6602 38.3086 50.1328C36.4922 48.3281 33.5156 49.2656 31.2773 48.5508C31.2539 48.5391 31.2422 48.5391 31.2187 48.5273C31.2187 48.6562 31.2187 48.7852 31.2187 48.9258C31.2187 49.7578 29.9297 49.8516 29.9297 49.0195C29.9297 46.4297 29.7773 43.7461 30.5742 41.25C30.9609 40.043 31.4648 39.0234 32.6602 38.4727C33.1523 38.2383 33.7266 37.9687 33.9258 37.418C34.1016 36.9375 34.043 36.3984 34.0312 35.8945C34.0312 35.5078 34.3125 35.2734 34.6172 35.2266C34.7109 35.1445 34.8281 35.0977 34.9805 35.0859C36.5508 34.957 38.0742 34.3008 39.457 33.5742C40.6641 32.9414 41.8945 32.2617 42.8555 31.3008C45.0352 29.1328 45.3633 25.8633 45.3398 22.9336ZM42.8086 25.9688C42.7383 27.2813 42.4336 28.6172 41.7305 29.7422C40.9687 30.9609 39.9141 31.9219 38.7773 32.7891C36.293 34.6875 33.2109 35.6836 30.082 35.707C28.4883 35.7188 26.8359 35.5898 25.2891 35.1914C23.6719 34.7812 22.2539 33.9727 20.8125 33.1523C18.1758 31.6523 15.8086 29.9883 14.4961 27.1523C14.3789 26.9063 14.4375 26.6953 14.5664 26.5547C14.6016 25.4414 16.2773 25.0898 17.1562 24.8906C18.8906 24.5156 20.6719 24.3633 22.4414 24.2227C24.3398 24.082 26.25 23.918 28.1602 23.9063C31.1719 23.8828 34.1953 24.0938 37.1953 23.918C38.2148 23.8594 39.2461 23.8008 40.2539 23.9531C40.8281 24.0352 41.5781 24.2461 42.0117 24.6914C42.3867 24.5977 42.8203 24.7852 42.8203 25.2422C42.832 25.5 42.8203 25.7344 42.8086 25.9688Z" fill="#D6E5E5"/>
<path d="M41.6367 5.94141C41.5313 5.78906 41.4258 5.63672 41.3203 5.49609C41.25 5.40234 41.168 5.33203 41.0742 5.28516C40.9688 4.94531 40.7461 4.62891 40.4063 4.34766C39.3985 3.55078 37.9805 3.36328 36.7383 3.26953C35.3321 3.16406 33.8907 3.1875 32.4844 3.24609C30.3282 3.32813 28.1953 3.51563 26.0391 3.41016C24.0235 3.31641 22.0078 3.11719 19.9922 3.32812C18.2227 3.51562 16.4532 4.03125 15 5.08594C14.461 5.48438 13.8633 5.89453 13.6289 6.55078C13.5235 6.60938 13.4297 6.70313 13.3711 6.85547C11.0508 12.8555 9.46878 19.3594 10.9453 25.7695C11.543 28.3945 12.7266 30.9141 14.5899 32.8828C16.8633 35.2734 20.0625 35.918 23.1328 36.6914C23.2149 36.7148 23.3086 36.7383 23.3907 36.7617C23.4258 37.8398 24.0586 38.6836 24.8907 39.3984C25.3008 39.75 25.8282 39.8906 26.25 40.207C26.7305 40.5586 26.8477 41.3203 26.8946 41.8594C27.0117 43.1719 27.1055 44.4727 27.1055 45.7852C27.1055 46.0664 27.1055 46.3359 27.0938 46.6172C26.4961 46.7695 25.8516 46.7461 25.2422 46.7813C24.3633 46.8281 23.4844 46.9805 22.6289 47.1328C20.9297 47.4492 19.2539 47.9531 17.7071 48.7383C16.6875 49.2539 15.7383 50.0273 15.5157 51.2109C15.3282 52.207 15.8438 53.1328 16.4883 53.8477C18.3867 55.957 21.5039 55.8281 24.0938 55.8867C25.9453 55.9336 27.7852 55.9219 29.6367 55.8398C30.6797 55.793 31.6992 55.7461 32.7305 55.5352C34.1719 55.2422 35.6133 54.8672 36.9727 54.293C38.168 53.7891 39.6446 53.0391 40.043 51.7031C40.5469 50.0508 38.8242 48.5977 37.4414 48.1289C35.5313 47.4844 33.4688 47.9297 31.5469 47.3203C31.4297 47.2852 31.3242 47.2852 31.2305 47.2969C31.2188 45.2109 31.2657 43.1016 32.0039 41.1328C32.2266 40.5352 32.5196 40.0078 33.1172 39.7266C33.6211 39.4805 34.0664 39.2695 34.4883 38.8828C35.2383 38.2031 35.3438 37.3008 35.3555 36.375C36.8907 36.1992 38.3438 35.6016 39.7266 34.9219C41.0625 34.2656 42.3633 33.5273 43.4766 32.5313C45.9141 30.3516 46.5 27.1758 46.6289 24.0352C46.8516 17.7891 45.1641 11.1211 41.6367 5.94141ZM15.2696 6.45703C15.8789 5.94141 16.6172 5.54297 17.3438 5.25C18.7852 4.67578 20.3672 4.52344 21.9024 4.5C23.7657 4.47656 25.6172 4.71094 27.4805 4.73438C29.3321 4.75781 31.1719 4.57031 33.0235 4.51172C34.3946 4.46484 35.7891 4.45313 37.1485 4.59375C37.7696 4.66406 38.3907 4.76953 38.9649 5.00391C39.1055 5.0625 40.0196 5.48438 39.8555 5.69531C39.586 6.05859 39.0469 6.24609 38.6485 6.41016C37.9688 6.67969 37.2539 6.87891 36.5391 7.01953C34.8164 7.38281 33.0469 7.47656 31.3008 7.52344C28.6172 7.60547 25.9336 7.74609 23.25 7.73438C20.5313 7.71094 17.8242 7.52344 15.1055 7.65234C14.7188 7.26563 14.7539 6.90234 15.2696 6.45703ZM42.8672 31.3125C41.9063 32.2852 40.6758 32.9648 39.4688 33.5859C38.086 34.3125 36.5625 34.9688 34.9922 35.0977C34.8399 35.1094 34.7227 35.168 34.6289 35.2383C34.3242 35.2852 34.043 35.5195 34.043 35.9063C34.043 36.4102 34.1016 36.9492 33.9375 37.4297C33.7383 37.9805 33.1758 38.2617 32.6719 38.4844C31.4766 39.0352 30.9727 40.0547 30.586 41.2617C29.7891 43.7578 29.9414 46.4414 29.9414 49.0313C29.9414 49.8633 31.2305 49.7578 31.2305 48.9375C31.2305 48.8086 31.2305 48.6797 31.2305 48.5391C31.2539 48.5508 31.2657 48.5508 31.2891 48.5625C33.5274 49.2773 36.5039 48.3398 38.3203 50.1445C38.8477 50.6719 38.9766 51.2344 38.5664 51.75C38.0625 52.3711 37.2539 52.7578 36.5391 53.0625C34.9922 53.7305 33.3047 54.1641 31.6524 54.4102C30.0352 54.6563 28.3008 54.5977 26.6602 54.6094C24.8086 54.6211 22.9571 54.5742 21.1055 54.457C19.8164 54.375 18.586 53.9766 17.6016 53.1094C16.8516 52.4414 16.4649 51.4922 17.1797 50.6602C17.6953 50.0625 18.5039 49.7461 19.2188 49.4531C20.2032 49.0313 21.2344 48.7383 22.2774 48.5039C23.2266 48.293 24.1992 48.1523 25.1602 48.0703C25.8047 48.0234 26.4492 48.0352 27.0703 47.9297C27.0469 48.6094 27.0352 49.2891 27.0352 49.9688C27.0352 50.8008 28.3242 50.6953 28.3242 49.875C28.3242 48.5508 28.3828 47.2266 28.3946 45.9023C28.4063 45.2695 28.3946 44.625 28.3711 43.9922C28.3477 43.3125 28.2188 42.6328 28.2071 41.9531C28.1953 40.875 27.8086 39.6563 26.8594 39.0586C26.0625 38.5547 24.7383 37.9922 24.6797 36.8789C25.0078 36.5859 24.9844 35.8711 24.4102 35.707C21.4571 34.875 18.2813 34.5 15.9258 32.3672C14.0039 30.6328 12.9024 28.1484 12.2696 25.6758C10.8047 19.957 12.1641 13.9453 14.1563 8.51953C14.2617 8.625 14.3672 8.73047 14.4961 8.82422C14.5078 8.83594 14.5313 8.84766 14.543 8.85938C14.6485 8.94141 14.7891 8.98828 14.9649 8.97656C18.75 8.75391 22.5469 9.19922 26.3321 8.97656C29.8477 8.76563 33.4102 9.01172 36.8789 8.28516C38.086 8.03906 39.3867 7.69922 40.4063 6.98437C40.5 6.91406 40.5821 6.84375 40.6524 6.77344C43.8399 11.4727 45.3047 17.3203 45.3516 22.9453C45.3633 25.8633 45.0352 29.1328 42.8672 31.3125Z" fill="black"/>
<path d="M42.0352 24.7031C41.6016 24.2578 40.8633 24.0469 40.2774 23.9648C39.2695 23.8125 38.2266 23.8711 37.2188 23.9297C34.207 24.1055 31.1953 23.8945 28.1836 23.918C26.2734 23.9297 24.375 24.082 22.4649 24.2344C20.6953 24.375 18.9258 24.5273 17.1797 24.9023C16.2891 25.0898 14.625 25.4531 14.5899 26.5664C14.4609 26.707 14.4024 26.918 14.5195 27.1641C15.832 30 18.1992 31.6641 20.8359 33.1641C22.2774 33.9844 23.6953 34.793 25.3125 35.2031C26.8594 35.5898 28.5117 35.7305 30.1055 35.7188C33.2344 35.6836 36.3047 34.6992 38.8008 32.8008C39.9375 31.9336 40.9805 30.9727 41.7539 29.7539C42.457 28.6289 42.7617 27.293 42.832 25.9805C42.8438 25.7461 42.8555 25.5 42.8555 25.2656C42.832 24.8086 42.3984 24.6211 42.0352 24.7031ZM19.3477 25.8398C21 25.6172 22.6758 25.5117 24.3399 25.3945C27.6328 25.1484 30.9023 25.2422 34.1953 25.2773C35.4492 25.2891 36.6914 25.2539 37.9453 25.1953C38.8711 25.1484 39.9609 25.0664 40.8281 25.4414C41.332 25.6523 40.957 25.8398 40.5938 26.0742C39.9844 26.4492 39.2461 26.6602 38.5664 26.8242C36.3516 27.375 34.0781 27.4805 31.8164 27.3516C29.1797 27.1992 26.5781 26.7773 23.9531 26.5898C21.668 26.4258 19.3711 26.332 17.0742 26.2617C17.8125 26.0508 18.5859 25.9453 19.3477 25.8398ZM40.793 28.7812C40.207 29.9414 39.1992 30.7969 38.2031 31.6055C35.918 33.457 33.082 34.3359 30.1641 34.4297C28.7344 34.4766 27.3399 34.2656 25.9219 34.0313C24.4102 33.7734 23.0391 32.9648 21.7266 32.2148C19.5469 30.9609 17.4024 29.6719 16.1133 27.5039C19.7695 27.6211 23.4375 27.7148 27.0703 28.1602C30.5625 28.582 34.1484 29.0156 37.6406 28.3242C38.6484 28.125 39.6563 27.9023 40.6055 27.4922C40.8516 27.3867 41.1211 27.2578 41.3672 27.0937C41.2617 27.668 41.0742 28.2305 40.793 28.7812Z" fill="black"/>
</svg>
