<svg width="60" height="60" viewBox="0 0 60 60" fill="none" xmlns="http://www.w3.org/2000/svg">
<path d="M23.2266 43.2187C22.9453 40.6875 22.5 38.1797 22.0313 35.6836C21.7852 34.3828 21.5273 33.082 21.2461 31.7813C21.1172 31.1484 21.0234 30.5039 20.9297 29.8594C20.7188 29.7891 20.5195 29.6602 20.3438 29.4844C19.957 29.1094 19.8281 28.2422 19.207 28.3008C19.0898 28.3125 18.9961 28.2891 18.9141 28.2539C18.9141 28.2656 18.9023 28.2656 18.9023 28.2773C18.8086 28.3828 18.6562 28.4766 18.5039 28.4766C18.4453 28.4766 18.375 28.4766 18.3047 28.4648C18.4922 29.5195 18.5625 30.5977 18.6328 31.6406C18.8086 34.2773 19.2656 36.8203 19.7109 39.4219C20.1797 42.1875 20.625 45.0938 20.0625 47.8828C20.0625 47.9063 20.0508 47.9297 20.0508 47.9648C20.168 47.8711 20.3203 47.8242 20.5195 47.8945C21.6328 48.2578 22.7344 48.4922 23.8477 48.6445C23.7656 46.8398 23.4375 45.0117 23.2266 43.2187ZM27.8906 36.7852C27.8437 34.5937 27.6328 32.4141 27.3633 30.2344C26.3906 30.1992 25.582 29.8477 24.7031 29.4375C24.3047 29.25 23.8945 28.9922 23.4375 29.0859C23.0039 29.1797 22.7461 29.3789 22.3828 29.625C22.2891 29.6953 22.1953 29.7422 22.1016 29.7891C22.2188 30.5508 22.3359 31.3125 22.5 32.0625C22.7695 33.3047 23.0039 34.5469 23.2383 35.8008C23.707 38.2969 24.1523 40.8047 24.4219 43.3359C24.6094 45.1406 24.9609 46.957 25.0078 48.7617C26.0273 48.8555 27.0586 48.9023 28.1133 48.9258C28.1602 48.9258 28.1953 48.9258 28.2422 48.9258C28.2422 44.8945 27.9727 40.8398 27.8906 36.7852Z" fill="#FEBF10"/>
<path d="M45.1407 48.5625C45.0235 48.4336 44.9766 48.2813 44.9766 48.1406C44.4024 48.0938 43.8399 47.9883 43.3008 47.8125C43.0078 47.7188 42.75 47.4609 42.8321 47.1211C42.8672 46.9805 42.9024 46.8516 42.9961 46.7461C43.0078 46.7227 43.0313 46.7109 43.0313 46.6992C43.1016 46.5117 43.2539 46.3945 43.418 46.3594C42.8672 45.1289 42.3985 43.582 43.0664 42.5391C42.8203 42.375 42.6211 42.1523 42.4571 41.8828C41.7305 40.6523 42.3047 39.457 42.293 38.1563C42.2813 36.3047 42.0938 34.4297 41.9766 32.5781C41.8828 31.1367 41.8125 29.6836 41.7774 28.2422C41.625 28.3594 41.4258 28.3945 41.2032 28.2656C40.8867 28.0898 40.6289 27.8672 40.3594 27.6328C40.2891 27.5742 40.2188 27.5039 40.125 27.4688C40.1367 27.4805 40.0899 27.4922 40.0313 27.5273C40.0196 27.5273 40.0196 27.5391 40.0078 27.5391C39.9258 27.6563 39.7969 27.75 39.6563 27.7852C39.6328 27.8086 39.6094 27.8203 39.5743 27.8438C39.6094 27.9492 39.6211 28.0664 39.586 28.1953C39.5039 28.5352 39.211 28.7461 38.918 28.8984C38.6602 29.0273 38.3789 29.1797 38.0742 29.3086C38.8828 35.3555 39.8789 41.3789 39.9258 47.4961C39.9258 47.5195 39.9258 47.543 39.9258 47.5664V47.7891C40.2305 47.7305 40.5235 47.6367 40.7696 47.4727C41.4024 47.0508 42.0586 48.0234 41.4258 48.4453C40.9453 48.7734 40.336 48.8555 39.7735 48.9492C39.5157 48.9961 38.6133 49.0195 38.461 49.2774C38.0743 49.9219 37.0196 49.4063 37.4063 48.7617C37.7227 48.2344 38.2149 48.0586 38.7539 47.9649C38.7422 41.7773 37.7461 35.6719 36.9258 29.5547C36.7852 29.5195 36.6797 29.4375 36.6094 29.332C36.4571 29.4023 36.2696 29.4141 36.0938 29.332C36.0469 29.3086 35.9883 29.2852 35.9297 29.2617C35.918 29.2617 35.9063 29.25 35.8711 29.25C35.8008 29.2266 35.7188 29.2148 35.6485 29.1914C35.4375 29.1211 35.25 29.0508 35.0742 28.8984C35.0625 28.8867 35.0508 28.875 35.0391 28.8633C34.9805 28.8516 34.9102 28.8398 34.8516 28.8164C34.6758 28.7344 34.4766 28.6875 34.2774 28.6992C34.3008 28.8281 34.2891 28.9688 34.2305 29.0742C33.8907 29.6719 33.1875 30.2227 32.4141 30.4922C32.6368 32.1445 32.8594 33.7969 33.0352 35.4492C33.4571 39.5156 33.586 43.6641 33.586 47.7539C33.586 48.5039 32.4141 48.5977 32.4141 47.8477C32.4141 43.6875 32.2852 39.457 31.8399 35.3203C31.6758 33.7734 31.4649 32.2266 31.2539 30.6797C30.9961 30.6563 30.75 30.5859 30.5274 30.4688C30 30.1875 29.5547 29.7773 29.0157 29.5078C28.7461 29.3789 28.5469 29.332 28.3946 29.3672C28.4414 29.7539 28.4883 30.1406 28.5352 30.5273C28.7813 32.6602 29.0039 34.8047 29.0274 36.9609C29.0625 40.9688 29.3789 44.9766 29.3789 48.9961C29.3789 49.0078 29.3789 49.0195 29.3789 49.0313C29.8828 49.0547 30.3868 49.0664 30.8907 49.043C31.6407 49.0195 32.5899 49.0313 33.211 48.5508C33.8086 48.0938 34.4649 49.0664 33.8672 49.5234C33.1641 50.0742 32.1446 50.168 31.2891 50.2031C30.2813 50.2383 29.2852 50.1797 28.2774 50.1563C25.5118 50.0977 22.8868 49.957 20.2383 49.0899C20.0274 49.0195 19.8985 48.8672 19.8399 48.6914C19.5586 49.8281 19.2305 51 19.4297 52.1602C19.6641 53.4961 20.543 54.5977 21.75 55.1953C23.0157 55.8281 24.3985 56.0039 25.8047 56.0039C27.6914 56.0039 29.5782 56.0508 31.4649 56.0508C34.1836 56.0508 37.0078 56.0977 39.6563 55.3945C41.5313 54.8906 43.5235 54.1758 45 52.875C45.5508 52.3828 46.0664 51.7383 46.1485 50.9766C46.2774 50.0391 45.7266 49.1953 45.1407 48.5625Z" fill="#FEBF10"/>
<path d="M38.3437 12.6445C37.6172 12.832 37.2305 11.7305 37.957 11.543C38.414 11.4258 38.6953 11.1094 38.7656 10.6289C38.8125 10.3359 38.8359 9.90235 38.5898 9.6797C38.1094 9.23439 37.3476 9.31642 36.7617 9.48048C36.3867 9.57423 36.0234 9.36329 35.9883 8.97657C35.9062 8.21485 36.0117 7.13673 35.4961 6.4922C34.7812 5.58985 33.4687 6.08204 32.5898 6.38673C32.0859 6.56251 31.5586 6.71485 31.0547 6.8672C30.8086 6.94923 30.5273 7.04298 30.2578 6.96095C29.9648 6.87892 29.8125 6.6797 29.6601 6.4336C29.4375 6.08204 29.1328 5.81251 28.8281 5.53126C28.1367 4.91017 27.3515 4.32423 26.4258 4.11329C25.4648 3.89064 24.4336 3.91407 23.4726 4.16017C21.914 4.5586 20.0156 5.40235 20.1094 7.28907C20.1328 7.73439 19.6758 8.06251 19.2656 7.86329C17.039 6.78517 14.1562 7.83985 12.3867 9.35157C11.5781 10.043 10.8164 10.9922 10.7109 12.0938C10.6055 13.2774 11.4492 14.168 12.3515 14.8008C12.6562 15.0117 12.5976 15.5508 12.293 15.7266C11.3672 16.2656 10.4414 17.1094 10.5703 18.2813C10.6992 19.4063 11.4961 20.2852 12.3398 20.9649C12.539 21.1289 12.5859 21.4336 12.4805 21.668C11.9297 22.793 11.3437 24.6914 12.7383 25.4531C12.9375 25.5586 13.0312 25.7344 13.043 25.9102C15.6562 25.6758 15.832 22.3945 14.9062 20.3789C14.789 20.1094 14.9765 19.6992 15.2695 19.6289C16.7109 19.3125 19.6289 16.9805 18.0703 15.5039C18.0117 15.457 17.9414 15.3984 17.8828 15.3516C17.332 14.8242 18.0586 14.0156 18.6562 14.4727C18.7031 14.5078 18.75 14.543 18.7851 14.5781C19.2422 14.8945 20.2383 15.2461 20.5664 14.7774C20.543 14.707 20.5312 14.6367 20.5312 14.5664C20.2734 14.4961 20.0625 14.2617 20.1445 13.9219C20.3555 13.125 21.0234 12.4219 21.832 12.2461C22.2305 11.9414 22.7578 11.8828 23.2148 12.2813C23.4492 12.4805 23.625 12.7266 23.7539 12.9961C23.9297 13.3125 24 13.7109 23.918 14.1563C23.789 14.9063 22.664 14.6719 22.7695 13.9336C22.793 13.793 22.7578 13.6524 22.7109 13.5234C22.6406 13.4297 22.5117 13.3828 22.3711 13.3828C22.2305 13.5352 22.0312 13.5703 21.8555 13.5469C21.7031 13.6289 21.5742 13.7344 21.4687 13.8516C21.668 13.8984 21.832 14.0508 21.832 14.3203C23.1328 14.918 24.7383 14.8945 26.1328 14.8828C28.1719 14.8711 30.1992 15.082 32.2383 14.9414C33.6445 14.8477 35.0976 14.7422 36.4453 14.2852C37.4414 13.957 38.4609 13.4414 38.8359 12.4453C38.707 12.5156 38.5312 12.5859 38.3437 12.6445ZM22.0781 10.7578C21.9961 11.2852 21.6797 11.7656 21.1758 11.9766C20.5195 12.2461 19.8164 11.8945 19.289 11.5078C19.0781 11.3555 19.043 11.0391 19.1601 10.8047C19.0547 10.5938 19.1015 10.3477 19.2422 10.1484C19.5 9.79689 19.793 9.44532 20.168 9.21095C20.4609 9.03517 20.7539 8.94142 21.0937 8.97657C21.3867 9.00001 21.6211 9.18751 21.8086 9.41017C22.0898 9.76173 22.1484 10.3125 22.0781 10.7578ZM27.6797 10.0078C27.3984 11.918 23.9648 13.0078 23.6484 10.5703C23.625 10.3477 23.6953 10.1953 23.8242 10.0899C23.9062 9.10548 24.7265 8.26173 25.7109 8.1211C26.8125 7.96876 27.8437 8.88282 27.6797 10.0078ZM31.3476 14.3438C30.4922 14.6484 29.6015 14.3086 29.2031 13.5117C29.039 13.4414 28.9219 13.2891 28.9336 13.043C28.957 12.2109 29.3437 11.2266 30.2578 11.0274C31.0781 10.8516 31.8984 11.168 32.2383 11.9766C32.6133 12.8555 32.3086 13.9922 31.3476 14.3438ZM35.4023 10.3711C35.3086 10.6992 35.1094 10.9336 34.793 11.0742C34.5234 11.1914 34.1953 11.168 33.9258 11.1211C33.5273 11.0391 33.1406 10.8867 32.7773 10.7109C32.4844 10.5703 32.3789 10.207 32.5078 9.92579C32.4492 9.8086 32.4258 9.6797 32.4609 9.55079C32.5664 9.14064 32.7305 8.80079 33.0586 8.51954C33.293 8.32032 33.5976 8.27345 33.8906 8.29689C34.1484 8.32032 34.3828 8.44923 34.582 8.60157C34.9336 8.84767 35.2265 9.25782 35.3555 9.66798C35.414 9.87892 35.4609 10.1484 35.4023 10.3711Z" fill="#D6E5E5"/>
<path d="M30.3984 22.9805C30.2695 22.9922 30.1406 23.0039 30.0117 23.0156C28.7695 23.1211 27.5273 23.0742 26.2852 23.0508C24.7148 23.0156 23.1328 23.2149 21.5508 23.2149C20.6719 23.2149 19.8047 23.1563 18.9375 23.0039C18.1523 22.875 17.3789 22.7227 16.582 22.6875C16.582 23.2031 16.5117 23.7188 16.3945 24.211C16.4883 24.2461 16.582 24.3047 16.6641 24.4102C17.3438 25.2774 17.7773 26.2617 18.0586 27.3047C18.0586 27.3047 18.0586 27.3047 18.0703 27.3047C18.1406 27.2696 18.2109 27.2344 18.2813 27.1992C18.3867 27.1641 18.4922 27.1406 18.5977 27.1406C18.7031 27.1406 18.8086 27.1524 18.9023 27.1992C18.9609 27.1641 19.043 27.1406 19.125 27.1406C19.7227 27.0821 20.168 27.293 20.5078 27.6797C20.3906 27.1758 20.2617 26.6836 20.1328 26.1797C20.0156 25.7344 19.8516 25.2422 19.8164 24.7852C19.7578 24.0352 20.9297 23.9414 20.9883 24.6914C21.0234 25.0664 21.2344 25.7227 21.3516 26.1914C21.5273 26.8946 21.7148 27.5977 21.8555 28.3008C21.8789 28.3946 21.8906 28.4883 21.9141 28.5703C22.043 28.4649 22.1719 28.336 22.2891 28.2656C24.0234 27.211 25.418 28.8281 27.082 29.0391C27.1172 28.9805 27.1523 28.9219 27.1992 28.8633C27.1055 28.2305 26.9883 27.6094 26.8242 26.9883C26.6016 26.086 26.4141 25.2071 26.5078 24.2696C26.5781 23.5196 27.7266 23.7422 27.6563 24.4922C27.5859 25.2305 27.75 25.9453 27.9375 26.6485C27.9844 26.4375 28.1484 26.2617 28.4414 26.2617C29.1914 26.2617 29.2852 27.4336 28.5352 27.4336C28.3359 27.4336 28.1836 27.3516 28.0898 27.2344C28.1016 27.2813 28.1133 27.3281 28.125 27.3867C28.1836 27.6328 28.2305 27.8789 28.2773 28.125C28.3125 28.125 28.3477 28.1133 28.3828 28.1133C28.9805 28.0899 29.5195 28.336 30 28.6524C30.293 28.8399 30.7617 29.2852 31.1484 29.4141C30.8437 27.2813 30.5625 25.1367 30.3984 22.9805ZM25.0078 10.3125C25.0195 10.4766 24.9727 10.6055 24.9023 10.6992C25.2188 11.1797 26.4023 10.4297 26.5078 9.96096C26.7539 8.88284 24.9258 9.26955 25.0078 10.3125ZM20.918 10.2539C20.9063 10.2188 20.8945 10.1836 20.8828 10.1485C20.8711 10.1485 20.8594 10.1602 20.8477 10.1602C20.8008 10.1836 20.7539 10.2188 20.707 10.2539C20.6836 10.2774 20.6602 10.2891 20.6367 10.3125C20.5781 10.3594 20.5313 10.418 20.4844 10.4649C20.4023 10.5586 20.332 10.6406 20.25 10.7344C20.2617 10.7461 20.2734 10.7461 20.2852 10.7578C20.3555 10.793 20.4141 10.8281 20.4844 10.8516C20.543 10.8633 20.6016 10.875 20.6602 10.8867C20.6836 10.8867 20.6953 10.8867 20.7188 10.8867C20.7305 10.8867 20.7422 10.875 20.7422 10.875C20.7539 10.8633 20.7773 10.8516 20.7891 10.8399C20.8008 10.8281 20.8008 10.8281 20.8125 10.8164C20.8125 10.8047 20.8242 10.8047 20.8242 10.793C20.8477 10.7578 20.8594 10.711 20.8828 10.6758C20.9063 10.6055 20.918 10.5235 20.9297 10.4414C20.9297 10.3946 20.9297 10.3242 20.918 10.2539ZM34.1836 9.90237C34.1484 9.84377 34.125 9.7969 34.0898 9.75002C34.0664 9.71487 34.043 9.69143 34.0195 9.66799C33.9844 9.62112 33.9375 9.58596 33.8906 9.53909C33.8789 9.52737 33.8555 9.51565 33.832 9.49221C33.8086 9.48049 33.7734 9.45705 33.75 9.44534C33.7383 9.45705 33.7383 9.45706 33.7266 9.46877C33.6914 9.53909 33.6563 9.6094 33.6211 9.69143C33.6094 9.71487 33.6094 9.73831 33.5977 9.76174C33.5977 9.77346 33.5859 9.78518 33.5859 9.78518C33.668 9.82034 33.7617 9.85549 33.8555 9.89065C33.9727 9.9258 34.0898 9.96096 34.207 9.97268C34.207 9.94924 34.1953 9.9258 34.1836 9.90237Z" fill="#D6E5E5"/>
<path d="M51.4453 36.6914C51.4453 34.8398 51.4453 32.9883 51.3516 31.1484C51.2695 29.543 51.1406 27.9375 50.8359 26.3672C50.5781 25.0312 50.2148 23.625 49.4531 22.4883C48.6328 21.2461 47.4727 20.543 45.9844 20.4023C44.5547 20.2617 43.1133 20.5195 41.7188 20.8477C41.625 20.9062 41.5313 20.9648 41.4492 21.0117C40.8047 21.375 40.1602 20.4492 40.7578 20.0625C40.8164 19.9453 40.9219 19.8398 41.1094 19.793C41.1328 19.7812 41.1562 19.7812 41.1797 19.7812C41.2617 19.7109 41.3438 19.6406 41.4258 19.5703C41.4375 17.918 41.4961 16.2891 41.4258 14.625C41.4023 14.0156 41.2969 13.3594 40.9805 12.832C40.8164 12.5625 40.6406 12.3164 40.3945 12.1289C40.4414 12.1641 40.3594 12.1406 40.3008 12.1172C40.2539 12.1406 40.1953 12.1523 40.1367 12.1641C40.1367 12.1758 40.1367 12.1875 40.1367 12.1992C39.6328 15.4102 35.4023 15.8555 32.8125 16.0547C30.5625 16.2187 28.3359 16.0312 26.0859 16.0312C24.5977 16.0312 22.9102 16.0312 21.5039 15.4336C21.1055 15.9727 20.4141 16.1836 19.6992 16.1367C19.8867 17.8945 17.9648 19.875 16.2539 20.5664C16.3594 20.8828 16.4414 21.2109 16.5 21.5508C18.1055 21.6094 19.6523 22.0781 21.2695 22.0781C22.1836 22.0781 23.0977 22.0781 24.0117 22.0312C24.668 21.9961 25.3242 21.9023 25.9805 21.9141C27.1523 21.9375 28.3242 21.9961 29.4961 21.9141C30.3398 21.8555 31.6172 21.8437 32.2852 21.2227C32.8359 20.707 33.7148 21.4805 33.1641 21.9961C32.7188 22.4062 32.168 22.6641 31.582 22.8164C31.7461 24.9844 32.0273 27.1406 32.332 29.2852C32.6367 29.1562 32.9297 28.9805 33.1289 28.7461C33.0234 28.3008 33.1875 27.8555 33.6914 27.6562C34.2539 27.4336 34.9102 27.5273 35.4492 27.7617C35.5195 27.7969 35.5898 27.8437 35.6367 27.8906C35.7422 27.9023 35.8477 27.9492 35.9297 28.0312C35.9414 28.0312 35.9531 28.043 35.9648 28.043C36 28.0547 36.0938 28.0781 36.1055 28.0898C36.3047 28.1484 36.4922 28.207 36.6797 28.2891C36.7383 28.3125 36.7969 28.3594 36.832 28.4062C36.5977 26.6016 36.3867 24.8086 36.2227 22.9922C36.1406 23.0391 36.0469 23.0625 35.9297 23.0625C35.1797 23.0625 35.0859 21.8906 35.8359 21.8906C36.0469 21.8906 36.1992 21.9727 36.3047 22.1016C36.5977 21.7617 37.3008 21.8437 37.3477 22.4297C37.3945 22.9453 37.4414 23.4727 37.4883 23.9883C37.6992 24.1992 37.7344 24.5742 37.5703 24.7969C37.6875 25.8984 37.8164 26.9883 37.9688 28.0898C37.9805 28.0898 37.9805 28.0781 37.9922 28.0781C38.1328 28.0195 38.2148 27.9844 38.3086 27.9375C38.3086 27.9258 38.3086 27.9141 38.3086 27.8906C38.2617 27.7031 38.2852 27.4922 38.4258 27.3516C38.6602 27.1172 38.9414 26.8125 39.2695 26.6836C39.3047 26.6367 39.3516 26.5898 39.4102 26.5547C39.832 26.2617 40.3242 26.2031 40.7813 26.4727C41.1328 26.6836 41.3906 27.0234 41.7539 27.2227C41.7656 27.2344 41.7773 27.2344 41.7891 27.2461C41.7891 27.1406 41.7891 27.0234 41.7891 26.918C41.7891 26.4727 42.1992 26.2617 42.5391 26.3203C42.5391 26.1562 42.6094 25.9922 42.75 25.8633C45.2578 23.6836 47.2148 28.1953 47.7422 30.0117C48.5625 32.7773 48.8672 35.6953 47.8125 38.4258C47.4727 39.293 47.0391 40.1367 46.5234 40.9102C46.0898 41.5547 45.5391 42.3047 44.8125 42.6562C44.7539 42.7969 44.6367 42.9258 44.4727 43.0078C43.2773 43.5469 44.6836 46.0312 45.0469 46.7578C45.0937 46.8398 45.1055 46.9219 45.1172 47.0039C45.7617 47.0508 46.418 47.0156 47.0625 46.875C48.2695 46.6289 49.5117 46.0664 50.3203 45.1055C51.2344 44.0156 51.4453 42.5391 51.5039 41.1563C51.5391 39.6445 51.4453 38.168 51.4453 36.6914ZM34.875 26.7422C34.7813 26.8477 34.6289 26.9414 34.4766 26.9414H34.3008C34.1367 26.9414 33.9961 26.9062 33.8672 26.8008C33.75 26.6953 33.6797 26.5547 33.668 26.4023C33.6562 26.25 33.7031 26.0859 33.8086 25.9687C33.9023 25.8633 34.0547 25.7695 34.207 25.7695H34.3828C34.5469 25.7695 34.6875 25.8047 34.8164 25.9102C34.9336 26.0156 35.0039 26.1562 35.0156 26.3086C35.0391 26.4609 34.9805 26.625 34.875 26.7422ZM34.4883 21.0234C33.6797 21.0586 32.9531 20.6367 32.6602 19.8633C32.6602 19.8516 32.6602 19.8516 32.6484 19.8398C32.3555 19.7344 32.1328 19.418 32.332 19.0547C32.7539 18.293 33.5859 17.8828 34.4414 17.9766C35.1914 18.0469 35.9414 18.6328 35.8945 19.4531C35.8711 20.2617 35.3555 20.9883 34.4883 21.0234ZM38.543 19.9805C38.543 20.1445 38.5078 20.2852 38.4023 20.4141C38.2969 20.5312 38.1562 20.6016 38.0039 20.6133C37.8516 20.625 37.6875 20.5781 37.5703 20.4727C37.4648 20.3789 37.3711 20.2266 37.3711 20.0742V19.8984C37.3711 19.7344 37.4063 19.5938 37.5117 19.4648C37.6172 19.3477 37.7578 19.2773 37.9102 19.2656C38.0625 19.2539 38.2266 19.3008 38.3438 19.4063C38.4492 19.5 38.543 19.6523 38.543 19.8047V19.9805ZM31.0781 12.293C30.9375 12.1172 30.7266 12.082 30.5156 12.1758C30.293 12.2695 30.1641 12.5156 30.1172 12.7734C30.1641 12.832 30.2109 12.8906 30.2461 12.9727C30.375 13.3008 30.7734 13.3945 31.0547 13.1836C31.3125 12.9844 31.2656 12.5273 31.0781 12.293Z" fill="#D6E5E5"/>
<path d="M34.7227 19.4063C34.5703 18.9961 34.0195 19.0898 33.668 19.3125C33.7031 19.3594 33.7383 19.418 33.7617 19.4766C33.9375 19.9336 34.9336 20.0039 34.7227 19.4063Z" fill="#D6E5E5"/>
<path d="M52.6641 38.8359C52.582 35.3906 52.6992 31.9218 52.3477 28.4882C52.0781 25.8398 51.5391 22.8984 49.6875 20.8593C47.9063 18.914 45.0938 18.996 42.6211 19.4648C42.6211 19.4179 42.6211 19.371 42.6211 19.3242C42.6211 18.9492 42.6445 18.5859 42.6563 18.2109C42.7031 16.9335 42.668 15.6796 42.6094 14.4023C42.5742 13.4765 42.2695 12.5273 41.707 11.789C41.3555 11.3203 40.5938 10.7226 39.9375 10.9101C40.0547 10.3828 40.0078 9.82026 39.7735 9.33979C39.2695 8.32026 38.1563 8.12104 37.125 8.23823C37.0547 7.48823 36.9844 6.73823 36.6328 6.04682C36.1172 5.02729 34.8047 4.69917 33.7617 4.85151C32.6953 5.00385 31.6992 5.58979 30.6563 5.80073C30.5508 5.64838 30.4453 5.49604 30.3281 5.35542C29.9414 4.9101 29.4844 4.51167 29.0156 4.14838C27.1875 2.70698 24.9141 2.54292 22.7227 3.17573C21 3.66792 19.3711 4.76948 19.0313 6.51557C16.4297 5.7187 13.4297 6.91401 11.4727 8.64838C10.4649 9.53901 9.65627 10.7695 9.57424 12.1406C9.50392 13.371 10.1367 14.4257 11.0039 15.2226C10.0899 15.9374 9.46877 16.8984 9.43361 18.1171C9.38674 19.4765 10.3008 20.6953 11.2852 21.5742C10.5821 23.2499 10.3946 25.3828 12.1406 26.4374C12.1406 26.7421 12.3516 27.082 12.75 27.0937C14.2969 27.1523 15.3516 26.4374 15.961 25.3945C17.5313 27.6679 17.4141 30.7031 17.625 33.3515C17.8594 36.4335 18.668 39.4453 19.0196 42.5039C19.2071 44.0976 19.2774 45.7265 19.0196 47.3203C18.7617 48.9023 18.1875 50.4023 18.3281 52.0312C18.5977 55.1132 21.4922 56.7421 24.2813 57.082C25.9571 57.2812 27.6914 57.1757 29.3672 57.1874C31.2656 57.2109 33.1641 57.2109 35.0625 57.1406C37.336 57.0468 39.4688 56.7656 41.625 56.0156C43.418 55.3945 45.3633 54.5039 46.582 52.9804C47.8125 51.4453 47.5196 49.6054 46.3594 48.1523C47.8594 48.0234 49.3242 47.4843 50.4844 46.5703C52.7578 44.707 52.7227 41.5429 52.6641 38.8359ZM14.918 20.3671C15.8321 22.3828 15.6563 25.664 13.0547 25.8984C13.043 25.7226 12.9492 25.5468 12.75 25.4414C11.3555 24.6914 11.9414 22.7812 12.4922 21.6562C12.6094 21.4335 12.5625 21.1171 12.3516 20.9531C11.5078 20.2734 10.6992 19.3945 10.5821 18.2695C10.4531 17.0976 11.3789 16.2656 12.293 15.7265C12.5977 15.5507 12.6563 15.0117 12.3516 14.8007C11.4492 14.1679 10.6055 13.2773 10.711 12.0937C10.8047 10.9921 11.5781 10.0429 12.3867 9.35151C14.1563 7.83979 17.0391 6.7851 19.2656 7.86323C19.6758 8.06245 20.1328 7.73432 20.1094 7.28901C20.0156 5.40229 21.9258 4.55854 23.4727 4.1601C24.4219 3.91401 25.4649 3.89057 26.4258 4.11323C27.3516 4.32416 28.1367 4.9101 28.8281 5.5312C29.1328 5.80073 29.4375 6.08198 29.6602 6.43354C29.8125 6.67963 29.9649 6.87885 30.2578 6.96088C30.5156 7.0312 30.7969 6.93745 31.0547 6.86713C31.5703 6.71479 32.086 6.56245 32.5899 6.38667C33.4688 6.08198 34.7813 5.58979 35.4961 6.49213C36 7.12495 35.9063 8.21479 35.9883 8.97651C36.0352 9.37495 36.3985 9.58588 36.7617 9.48042C37.3477 9.32807 38.1094 9.23432 38.5899 9.67963C38.836 9.90229 38.8125 10.3359 38.7656 10.6289C38.6953 11.0976 38.4141 11.414 37.957 11.5429C37.2305 11.7304 37.6172 12.832 38.3438 12.6445C38.5313 12.5976 38.7071 12.5156 38.8594 12.4218C38.4844 13.4179 37.4649 13.9335 36.4688 14.2617C35.1211 14.707 33.668 14.8124 32.2617 14.9179C30.2227 15.0585 28.1953 14.8476 26.1563 14.8593C24.7617 14.871 23.168 14.8945 21.8555 14.2968C21.8555 14.0273 21.6914 13.8749 21.4922 13.8281C21.5977 13.7109 21.7383 13.6054 21.8789 13.5234C22.0547 13.5585 22.2539 13.5117 22.3946 13.3593C22.5352 13.3593 22.6641 13.3945 22.7344 13.4999C22.793 13.6289 22.8164 13.7812 22.793 13.9101C22.6875 14.6484 23.8125 14.8828 23.9414 14.1328C24.0117 13.6757 23.9531 13.289 23.7774 12.9726C23.6485 12.7031 23.4727 12.457 23.2383 12.2578C22.7696 11.8593 22.2539 11.9179 21.8555 12.2226C21.0352 12.3984 20.3672 13.1015 20.168 13.8984C20.0742 14.2382 20.2852 14.4726 20.5547 14.5429C20.5547 14.6132 20.5664 14.6835 20.5899 14.7539C20.2617 15.2109 19.2656 14.871 18.8086 14.5546C18.7617 14.5195 18.7266 14.4843 18.6797 14.4492C18.082 13.9921 17.3555 14.8124 17.9063 15.3281C17.9649 15.3867 18.0235 15.4335 18.0938 15.4804C19.6524 16.957 16.7344 19.289 15.293 19.6054C14.9883 19.6874 14.8008 20.0976 14.918 20.3671ZM18.0586 27.3046C18.0586 27.3046 18.0586 27.3164 18.0586 27.3046C17.7656 26.2617 17.3438 25.2773 16.6524 24.4101C16.5703 24.3046 16.4766 24.246 16.3828 24.2109C16.5117 23.7304 16.5703 23.2148 16.5703 22.6874C17.3672 22.7226 18.1406 22.8749 18.9258 23.0039C19.793 23.1445 20.6602 23.2148 21.5391 23.2148C23.1211 23.2148 24.7031 23.0156 26.2735 23.0507C27.5156 23.0859 28.7578 23.121 30 23.0156C30.1289 23.0039 30.2578 22.9921 30.3867 22.9804C30.5625 25.1367 30.8321 27.2812 31.125 29.414C30.75 29.2851 30.2695 28.8398 29.9766 28.6523C29.4844 28.3359 28.9453 28.0898 28.3594 28.1132C28.3242 28.1132 28.2891 28.1132 28.2539 28.1249C28.2071 27.8789 28.1602 27.6328 28.1016 27.3867C28.0899 27.3398 28.0781 27.2929 28.0664 27.2343C28.1719 27.3515 28.3242 27.4335 28.5117 27.4335C29.2617 27.4335 29.168 26.2617 28.418 26.2617C28.125 26.2617 27.961 26.4374 27.9141 26.6484C27.7383 25.9453 27.5625 25.2187 27.6328 24.4921C27.7031 23.7421 26.5547 23.5195 26.4844 24.2695C26.3906 25.207 26.5664 26.0859 26.8008 26.9882C26.9531 27.6093 27.0703 28.2304 27.1758 28.8632C27.1406 28.9218 27.0938 28.9804 27.0586 29.039C25.3945 28.8281 23.9883 27.2109 22.2656 28.2656C22.1485 28.3359 22.0196 28.4531 21.8906 28.5703C21.8672 28.4765 21.8555 28.3828 21.8321 28.3007C21.6914 27.5976 21.5039 26.8945 21.3281 26.1914C21.211 25.7226 21 25.0664 20.9649 24.6914C20.9063 23.9414 19.7344 24.0234 19.793 24.7851C19.8281 25.2539 20.0039 25.7343 20.1094 26.1796C20.2383 26.6835 20.3555 27.1757 20.4844 27.6796C20.1446 27.2929 19.6992 27.082 19.1016 27.1406C19.0196 27.1523 18.9492 27.1757 18.8789 27.1992C18.7852 27.1523 18.6797 27.1289 18.5742 27.1406C18.4688 27.1406 18.3633 27.1757 18.2578 27.1992C18.1992 27.2343 18.1289 27.2695 18.0586 27.3046ZM28.2422 48.9492C28.1953 48.9492 28.1602 48.9492 28.1133 48.9492C27.0586 48.9257 26.0274 48.8789 25.0078 48.7851C24.9492 46.9687 24.6094 45.1523 24.4219 43.3593C24.1524 40.8281 23.7188 38.3203 23.2383 35.8242C23.0039 34.5703 22.7696 33.3281 22.5 32.0859C22.336 31.3359 22.2188 30.5742 22.1016 29.8124C22.1953 29.7656 22.3008 29.707 22.3828 29.6484C22.7344 29.4023 22.9922 29.1914 23.4375 29.1093C23.8946 29.0156 24.3047 29.2734 24.7031 29.4609C25.582 29.871 26.3906 30.2109 27.3633 30.2578C27.6211 32.4374 27.8438 34.6171 27.8906 36.8085C27.9727 40.8398 28.2422 44.8945 28.2422 48.9492ZM18.6328 31.6523C18.5625 30.6093 18.4922 29.5312 18.3047 28.4765C18.375 28.4882 18.4336 28.4882 18.5039 28.4882C18.6445 28.4882 18.8086 28.3945 18.9024 28.289C18.9141 28.2773 18.9141 28.2773 18.9141 28.2656C18.9961 28.3007 19.0899 28.3242 19.207 28.3124C19.8281 28.2539 19.9688 29.1328 20.3438 29.496C20.5196 29.6718 20.7188 29.789 20.9297 29.871C21.0235 30.5156 21.1172 31.1601 21.2461 31.7929C21.5156 33.0937 21.7852 34.3828 22.0313 35.6953C22.5 38.1914 22.9453 40.6992 23.2266 43.2304C23.4258 45.0234 23.7539 46.8515 23.836 48.6562C22.7227 48.5039 21.6211 48.2695 20.5078 47.9062C20.3086 47.8359 20.1563 47.8828 20.0391 47.9765C20.0391 47.9531 20.0508 47.9296 20.0508 47.8945C20.625 45.1171 20.1797 42.1992 19.6992 39.4335C19.2656 36.832 18.8086 34.289 18.6328 31.6523ZM46.1836 50.9414C46.1016 51.7031 45.5977 52.3476 45.0352 52.8398C43.5586 54.1406 41.5664 54.8437 39.6914 55.3593C37.043 56.0742 34.2188 56.0156 31.5 56.0156C29.6133 56.0156 27.7266 55.9804 25.8399 55.9687C24.4453 55.9687 23.0508 55.7929 21.7852 55.1601C20.5781 54.5624 19.6992 53.4609 19.4649 52.1249C19.2656 50.9648 19.5938 49.7929 19.875 48.6562C19.9336 48.832 20.0625 48.9843 20.2735 49.0546C22.9219 49.9218 25.5469 50.0624 28.3125 50.121C29.3203 50.1445 30.3164 50.2148 31.3242 50.1679C32.1914 50.1328 33.1992 50.039 33.9024 49.4882C34.5 49.0312 33.8438 48.0585 33.2461 48.5156C32.625 48.996 31.6758 48.9843 30.9258 49.0078C30.4219 49.0195 29.918 49.0078 29.4141 48.996C29.4141 48.9843 29.4141 48.9726 29.4141 48.9609C29.4141 44.9414 29.0977 40.9335 29.0625 36.9257C29.0391 34.7812 28.8281 32.6249 28.5703 30.4921C28.5235 30.1054 28.4766 29.7187 28.4297 29.332C28.5938 29.2851 28.793 29.332 29.0508 29.4726C29.5899 29.7421 30.0352 30.1523 30.5625 30.4335C30.7852 30.5507 31.0313 30.621 31.2891 30.6445C31.5 32.1914 31.711 33.7382 31.875 35.2851C32.3203 39.4218 32.4492 43.6523 32.4492 47.8124C32.4492 48.5624 33.6211 48.4687 33.6211 47.7187C33.6211 43.6289 33.4922 39.4921 33.0703 35.414C32.9063 33.7617 32.6836 32.1093 32.4492 30.457C33.2227 30.1874 33.9258 29.6367 34.2656 29.039C34.336 28.9218 34.336 28.7929 34.3125 28.664C34.5117 28.6523 34.711 28.6992 34.8867 28.7812C34.9571 28.8046 35.0156 28.8281 35.0742 28.8281C35.086 28.8398 35.0977 28.8515 35.1094 28.8632C35.2852 29.0156 35.461 29.0859 35.6836 29.1562C35.7539 29.1796 35.836 29.2031 35.9063 29.2148C35.9414 29.2265 35.9531 29.2265 35.9649 29.2265C36.0235 29.2499 36.0703 29.2734 36.1289 29.2968C36.293 29.3789 36.4805 29.3671 36.6446 29.2968C36.7149 29.4023 36.8203 29.4843 36.961 29.5195C37.7813 35.6367 38.7891 41.7421 38.7891 47.9296C38.25 48.0234 37.7578 48.1992 37.4414 48.7265C37.043 49.371 38.0977 49.8867 38.4961 49.2421C38.6485 48.9843 39.5508 48.9609 39.8086 48.914C40.3711 48.8203 40.9805 48.7382 41.461 48.4101C42.0938 47.9882 41.4375 47.0156 40.8047 47.4374C40.5586 47.6015 40.2656 47.6953 39.961 47.7539V47.5312C39.961 47.5078 39.961 47.4843 39.961 47.4609C39.9141 41.3554 38.918 35.3203 38.1094 29.2734C38.4141 29.1445 38.6953 29.0039 38.9531 28.8632C39.2461 28.7109 39.5391 28.4882 39.6211 28.1601C39.6563 28.0312 39.6445 27.914 39.6094 27.8085C39.6328 27.7851 39.6563 27.7734 39.6914 27.7499C39.8438 27.7148 39.961 27.621 40.043 27.5039C40.0547 27.5039 40.0547 27.4921 40.0664 27.4921C40.125 27.4453 40.1719 27.4453 40.1602 27.4335C40.2422 27.4687 40.3125 27.539 40.3946 27.5976C40.6641 27.832 40.9219 28.0664 41.2383 28.2304C41.461 28.3476 41.6602 28.3124 41.8125 28.207C41.8477 29.6601 41.918 31.1015 42.0117 32.5429C42.1289 34.3945 42.3047 36.2695 42.3281 38.121C42.3399 39.4218 41.7656 40.6289 42.4922 41.8476C42.6563 42.1171 42.8555 42.3398 43.1016 42.5039C42.4336 43.5468 42.9141 45.0937 43.4531 46.3242C43.2891 46.371 43.1367 46.4765 43.0664 46.664C43.0547 46.6757 43.043 46.6874 43.0313 46.7109C42.9375 46.8281 42.9024 46.957 42.8672 47.0859C42.7735 47.4257 43.043 47.6835 43.336 47.7773C43.875 47.9531 44.4375 48.0585 45.0117 48.1054C45.0117 48.246 45.0586 48.3984 45.1758 48.5273C45.7266 49.1953 46.2774 50.039 46.1836 50.9414ZM43.3945 36.2929C43.3242 35.3203 43.2891 34.3476 43.2305 33.3867C43.0899 31.2304 42.961 29.0859 42.961 26.9296C43.1016 26.9648 43.2539 26.9414 43.4063 26.8124C44.1211 26.1914 44.6836 26.5898 45.1875 27.2695C45.7852 28.0546 46.1719 28.9921 46.4883 29.9179C47.3789 32.4726 47.7188 35.4023 46.7227 37.957C46.3828 38.8242 45.9492 39.6679 45.4102 40.4296C45.1641 40.7812 44.4024 41.8476 43.8985 41.6718C42.7969 41.2851 43.3477 39.4101 43.4414 38.6132C43.5352 37.8398 43.4531 37.0546 43.3945 36.2929ZM51.4805 41.121C51.4219 42.5039 51.211 43.9804 50.2969 45.0703C49.4883 46.0312 48.2461 46.5937 47.0391 46.8398C46.3945 46.9687 45.7383 47.0156 45.0938 46.9687C45.0938 46.8867 45.0703 46.8046 45.0235 46.7226C44.6602 45.996 43.2539 43.5117 44.4492 42.9726C44.625 42.8906 44.7305 42.7734 44.7891 42.621C45.5156 42.2578 46.0664 41.5195 46.5 40.8749C47.0156 40.1015 47.461 39.2695 47.7891 38.3906C48.8438 35.6601 48.5391 32.7421 47.7188 29.9765C47.1797 28.1601 45.2227 23.6484 42.7266 25.8281C42.5742 25.957 42.5156 26.121 42.5156 26.2851C42.1758 26.2265 41.7656 26.4374 41.7656 26.8828C41.7656 26.9882 41.7656 27.1054 41.7656 27.2109C41.7539 27.1992 41.7422 27.1992 41.7305 27.1874C41.3672 26.9882 41.1094 26.6484 40.7578 26.4374C40.3008 26.1679 39.8086 26.2265 39.3867 26.5195C39.3281 26.5546 39.2813 26.6015 39.2461 26.6484C38.918 26.7773 38.6367 27.082 38.4024 27.3164C38.2617 27.457 38.2266 27.6679 38.2852 27.8554C38.2852 27.8671 38.2852 27.8789 38.2852 27.9023C38.1914 27.9492 38.1094 27.9843 37.9688 28.0429C37.957 28.0429 37.957 28.0546 37.9453 28.0546C37.8047 26.9531 37.6758 25.8632 37.5469 24.7617C37.711 24.539 37.6758 24.164 37.4649 23.9531C37.418 23.4374 37.3594 22.9101 37.3242 22.3945C37.2774 21.8203 36.5742 21.7382 36.2813 22.0664C36.1758 21.9374 36.0235 21.8554 35.8125 21.8554C35.0625 21.8554 35.1563 23.0273 35.9063 23.0273C36.0235 23.0273 36.1172 23.0039 36.1992 22.957C36.3633 24.7617 36.5742 26.5664 36.8086 28.371C36.7617 28.3242 36.7149 28.289 36.6563 28.2539C36.4688 28.1718 36.2813 28.1015 36.082 28.0546C36.0703 28.0546 35.9766 28.0195 35.9414 28.0078C35.9297 28.0078 35.918 27.996 35.9063 27.996C35.8242 27.9257 35.7188 27.8789 35.6133 27.8554C35.5664 27.8085 35.5078 27.7617 35.4258 27.7265C34.875 27.4804 34.2305 27.3984 33.668 27.621C33.1641 27.8203 33 28.2656 33.1055 28.7109C32.9063 28.9453 32.6133 29.1328 32.3086 29.2499C32.0156 27.0937 31.7344 24.9492 31.5586 22.7812C32.1445 22.6289 32.6953 22.3828 33.1406 21.9609C33.6914 21.4453 32.8008 20.6718 32.2617 21.1874C31.5938 21.8085 30.3281 21.8203 29.4727 21.8789C28.3008 21.9492 27.1289 21.9023 25.957 21.8789C25.3008 21.8671 24.6446 21.9609 23.9883 21.996C23.0742 22.0429 22.1602 22.0429 21.2461 22.0429C19.6406 22.0429 18.0821 21.5742 16.4766 21.5156C16.418 21.1757 16.336 20.8476 16.2305 20.5312C17.9414 19.8515 19.8633 17.8593 19.6758 16.1015C20.3906 16.1601 21.0821 15.9374 21.4805 15.3984C22.8867 16.0078 24.5742 15.996 26.0625 15.996C28.3125 15.996 30.5391 16.1953 32.7891 16.0195C35.3672 15.832 39.5977 15.3749 40.1133 12.164C40.1133 12.1523 40.1133 12.1406 40.1133 12.1289C40.1719 12.1289 40.2305 12.1054 40.2774 12.082C40.3477 12.1054 40.418 12.1289 40.3711 12.0937C40.6172 12.2812 40.793 12.539 40.957 12.7968C41.2735 13.3242 41.3789 13.9921 41.4024 14.5898C41.4727 16.2421 41.4141 17.8828 41.4024 19.5351C41.3203 19.6054 41.2383 19.6757 41.1563 19.746C41.1328 19.7578 41.1094 19.7578 41.086 19.7578C40.9102 19.8046 40.793 19.8984 40.7344 20.0273C40.1367 20.414 40.7813 21.3398 41.4258 20.9765C41.5078 20.9296 41.6016 20.871 41.6953 20.8124C43.0899 20.4726 44.5313 20.2148 45.961 20.3671C47.4492 20.5195 48.6094 21.2109 49.4297 22.4531C50.1797 23.6015 50.5547 25.0078 50.8125 26.332C51.1172 27.914 51.2461 29.5078 51.3281 31.1132C51.4219 32.9648 51.4219 34.8046 51.4219 36.6562C51.4453 38.1679 51.5391 39.6445 51.4805 41.121Z" fill="#010101"/>
<path d="M25.7227 8.12108C24.7383 8.27342 23.9063 9.10545 23.836 10.0898C23.7071 10.1953 23.625 10.3476 23.6602 10.5703C23.9649 13.0078 27.4102 11.918 27.6914 10.0078C27.8438 8.8828 26.8125 7.96874 25.7227 8.12108ZM26.5078 9.96092C26.4024 10.4297 25.2188 11.1797 24.9024 10.6992C24.9727 10.6055 25.0196 10.4765 25.0078 10.3125C24.9258 9.26952 26.7539 8.8828 26.5078 9.96092ZM21.7969 9.39842C21.6094 9.17577 21.375 8.99999 21.0821 8.96483C20.7422 8.92967 20.4492 9.02342 20.1563 9.1992C19.7813 9.43358 19.4883 9.78514 19.2305 10.1367C19.0899 10.3359 19.043 10.582 19.1485 10.793C19.043 11.0273 19.0664 11.332 19.2774 11.4961C19.8047 11.8828 20.5078 12.2344 21.1641 11.9648C21.668 11.7539 21.9844 11.2734 22.0664 10.7461C22.1485 10.3125 22.0899 9.7617 21.7969 9.39842ZM20.8946 10.6875C20.8828 10.7226 20.8594 10.7695 20.836 10.8047C20.836 10.8164 20.8242 10.8164 20.8242 10.8281C20.8242 10.8398 20.8125 10.8398 20.8008 10.8515C20.7891 10.8633 20.7774 10.875 20.7539 10.8867C20.7422 10.8867 20.7305 10.8984 20.7305 10.8984C20.7071 10.8984 20.6953 10.8984 20.6719 10.8984C20.6133 10.8867 20.5547 10.875 20.4961 10.8633C20.4258 10.8398 20.3555 10.8047 20.2969 10.7695C20.2852 10.7578 20.2735 10.7578 20.2617 10.7461C20.3321 10.6523 20.4141 10.5586 20.4961 10.4765C20.543 10.418 20.6016 10.3711 20.6485 10.3242C20.6719 10.3008 20.6953 10.289 20.7188 10.2656C20.7656 10.2305 20.8125 10.207 20.8594 10.1719C20.8711 10.1719 20.8828 10.1601 20.8946 10.1601C20.9063 10.1953 20.918 10.2305 20.9297 10.2656C20.9414 10.3359 20.9414 10.4062 20.9414 10.4765C20.9297 10.5351 20.9063 10.6172 20.8946 10.6875ZM38.3438 19.4062C38.2266 19.3008 38.0625 19.2539 37.9102 19.2656C37.7578 19.2773 37.6172 19.3476 37.5117 19.4648C37.4063 19.5937 37.3711 19.7344 37.3711 19.8984V20.0742C37.3711 20.2148 37.4649 20.3789 37.5703 20.4726C37.6875 20.5781 37.8516 20.625 38.0039 20.6133C38.1563 20.6015 38.2969 20.5312 38.4024 20.414C38.5078 20.2851 38.543 20.1445 38.543 19.9805V19.8047C38.543 19.6523 38.4492 19.5 38.3438 19.4062ZM34.8281 25.9101C34.6992 25.8047 34.5586 25.7695 34.3945 25.7695H34.2188C34.0781 25.7695 33.9141 25.8633 33.8203 25.9687C33.7149 26.0859 33.668 26.25 33.6797 26.4023C33.6914 26.5547 33.7617 26.6953 33.8789 26.8008C34.0078 26.9062 34.1485 26.9414 34.3125 26.9414H34.4883C34.6289 26.9414 34.793 26.8476 34.8867 26.7422C34.9922 26.625 35.0391 26.4609 35.0274 26.3086C35.0156 26.1562 34.9336 26.0156 34.8281 25.9101ZM34.4414 17.9765C33.586 17.8945 32.7539 18.3047 32.332 19.0547C32.1328 19.418 32.3555 19.7226 32.6485 19.8398C32.6485 19.8515 32.6485 19.8515 32.6602 19.8633C32.9531 20.6367 33.6797 21.0586 34.4883 21.0234C35.3672 20.9883 35.8711 20.2617 35.9063 19.4531C35.9414 18.6328 35.1914 18.0586 34.4414 17.9765ZM33.7617 19.4765C33.7383 19.4062 33.7031 19.3594 33.668 19.3125C34.0313 19.0898 34.582 18.9961 34.7227 19.4062C34.9336 20.0039 33.9375 19.9336 33.7617 19.4765ZM32.2383 11.9648C31.8985 11.1562 31.0781 10.8398 30.2578 11.0156C29.3438 11.2148 28.957 12.1992 28.9336 13.0312C28.9219 13.2773 29.0391 13.4297 29.2031 13.5C29.5899 14.2969 30.4922 14.6484 31.3477 14.332C32.3086 13.9922 32.6133 12.8555 32.2383 11.9648ZM31.0547 13.1836C30.7735 13.3945 30.375 13.3008 30.2461 12.9726C30.211 12.8906 30.1758 12.8203 30.1172 12.7734C30.1641 12.5156 30.2813 12.2695 30.5156 12.1758C30.7266 12.082 30.9375 12.1172 31.0781 12.293C31.2656 12.5273 31.3125 12.9844 31.0547 13.1836ZM35.3438 9.65624C35.2149 9.24608 34.9219 8.83592 34.5703 8.58983C34.3711 8.4492 34.1367 8.30858 33.8789 8.28514C33.586 8.2617 33.2813 8.30858 33.0469 8.5078C32.7305 8.78905 32.5664 9.12889 32.4492 9.53905C32.4141 9.66795 32.4375 9.79686 32.4961 9.91405C32.3555 10.1953 32.4727 10.5586 32.7656 10.6992C33.1289 10.875 33.5156 11.0273 33.9141 11.1094C34.1953 11.168 34.5235 11.1797 34.7813 11.0625C35.0977 10.9336 35.2969 10.6875 35.3906 10.3594C35.461 10.1484 35.4141 9.87889 35.3438 9.65624ZM33.8672 9.89061C33.7735 9.85545 33.6914 9.83202 33.5977 9.78514C33.5977 9.77342 33.6094 9.77342 33.6094 9.7617C33.6211 9.73827 33.6211 9.71483 33.6328 9.69139C33.6563 9.62108 33.6914 9.53905 33.7383 9.46874C33.75 9.45702 33.75 9.45702 33.7617 9.4453C33.7852 9.45702 33.8203 9.46874 33.8438 9.49217C33.8672 9.50389 33.8789 9.51561 33.9024 9.53905C33.9492 9.5742 33.9961 9.62108 34.0313 9.66795C34.0547 9.69139 34.0781 9.72655 34.1016 9.74999C34.1367 9.79686 34.1719 9.85545 34.1953 9.90233C34.207 9.92577 34.2188 9.9492 34.2188 9.97264C34.1016 9.96092 33.9844 9.92577 33.8672 9.89061Z" fill="#010101"/>
</svg>
