<svg width="60" height="60" viewBox="0 0 60 60" fill="none" xmlns="http://www.w3.org/2000/svg">
<path d="M53.707 45.5157C53.5195 44.461 52.5469 43.711 51.7031 43.1719C50.5664 42.4571 49.3477 41.8829 48.1289 41.3438C46.8867 40.8047 45.668 40.2188 44.4375 39.668C41.4492 38.3555 38.4141 37.1837 35.9766 34.9454C35.9648 34.9688 35.9531 34.9922 35.9414 35.0274C35.5195 35.8477 34.875 36.6797 34.0898 37.2305C36.4453 38.6368 37.8398 40.9688 39.4805 43.1016C41.2852 45.4571 43.7695 47.3438 46.6172 48.2579C47.7188 48.6094 48.75 48.8555 49.9102 48.668C50.8711 48.504 51.8555 48.1758 52.6406 47.6016C53.3086 47.1212 53.8711 46.4063 53.707 45.5157Z" fill="#C56528"/>
<path d="M33.9727 31.793C33.3984 31.3594 32.8945 30.8438 32.3789 30.3399C32.3555 30.3164 32.332 30.293 32.3203 30.2696C30.9727 31.7344 29.8125 33.3867 28.6992 35.0391C28.7227 35.0625 28.7578 35.086 28.7813 35.1211C29.3672 35.8125 30.2578 36.3633 31.1836 36.2461C31.5 36.211 31.6992 36.3633 31.793 36.586C33.3984 37.0196 34.9336 34.8164 35.1328 33.3399C34.5937 32.9297 34.1367 32.4492 33.9727 31.793ZM28.6641 26.7422C28.6641 26.7305 28.6758 26.7188 28.6758 26.7071C28.6758 26.7071 28.6641 26.7071 28.6641 26.6953C28.4766 26.1914 28.1133 25.6524 27.668 25.3594C27.2109 25.0547 26.6133 25.1836 26.1094 25.0664C25.3828 24.9024 25.2539 24.1875 24.8672 23.6719C24.5273 23.2149 23.543 23.543 23.0859 23.5899C21.75 23.7539 20.8008 23.1914 20.1094 22.0664C19.8047 21.5625 19.5117 21.0352 18.9492 20.7891C18.3867 20.543 17.7539 20.5781 17.168 20.461C16.5469 20.3438 16.0312 20.1094 15.7266 19.5235C15.457 19.0078 15.3281 18.4219 15.0117 17.9297C14.25 16.7344 12.1641 17.4375 10.9687 17.2383C9.76172 17.0274 9.23437 15.9375 8.15625 15.5039C6.9375 15.0117 5.63672 15.3985 4.47656 15.9141C5.22656 17.4024 6.59766 18.6094 7.73437 19.793C9.22266 21.3399 10.7227 22.875 12.3047 24.3164C14.0273 25.8867 15.8672 27.3281 17.707 28.7696C19.4414 30.1289 21.1992 31.4649 23.0859 32.6133C23.1797 32.6719 23.2617 32.7422 23.332 32.8242C24.2813 31.875 25.2188 30.9141 26.168 29.9649C26.8359 29.2969 27.4805 28.5469 28.2188 27.961C28.4531 27.7735 28.6992 27.5742 28.9336 27.3867C28.6992 27.2813 28.5703 27.0469 28.6641 26.7422Z" fill="#BCBCBC"/>
<path d="M53.2617 13.746C52.4883 12.5273 51.3867 11.5898 50.332 10.6288C49.2305 9.60931 48.164 8.54291 47.0156 7.58197C45.9375 6.67962 44.6367 5.68353 43.1953 5.50775C42 5.36712 40.8047 5.789 39.7969 6.42181C37.6875 7.75775 35.9297 9.85541 34.8515 12.1054C34.1015 13.6757 33.6562 15.2695 33.6094 17.0156C33.5625 18.7031 33.7265 20.3906 33.8086 22.0781C33.8203 22.289 33.7383 22.4531 33.6211 22.5703C33.4805 24.9609 31.418 26.9882 29.6953 28.4296C27.457 30.2929 25.4765 32.4843 23.4258 34.5351C21.5976 36.3632 19.6875 38.0624 17.7305 39.7499C15.7851 41.414 13.8164 43.1015 12.164 45.0703C11.2031 46.207 10.0664 47.5312 9.71483 49.0195C9.41014 50.332 9.96092 52.0195 11.4961 52.1835C12.832 52.3242 14.168 51.4687 15.1289 50.6249C16.2773 49.6171 17.2031 48.3632 18.0937 47.121C19.1367 45.6562 20.25 44.2382 21.3633 42.832C22.4648 41.4257 23.6484 40.0781 24.7031 38.6367C26.5078 36.1757 28.0547 33.539 29.9414 31.1367C31.7812 28.7929 34.1015 26.2851 37.0781 25.4765C39.9844 24.6796 43.0664 25.1484 45.8789 23.9296C48.0469 22.9921 50.1914 21.6562 51.832 19.9335C53.4375 18.2226 54.6562 15.9609 53.2617 13.746ZM36.4453 17.4257C36.3984 18.164 35.2265 18.2109 35.1562 17.4257C34.8281 13.1835 38.0156 9.03509 41.918 7.62884C42.2226 7.52337 42.6562 7.68744 42.7383 8.02728C42.9961 9.12884 43.6875 10.0781 43.207 11.2382C42.8789 12.0234 42.1523 12.6796 41.5547 13.2656C40.8515 13.9452 40.2656 14.6484 39.668 15.4335C39.0117 16.289 38.3203 17.1679 37.3945 17.7421C36.9961 17.9648 36.5976 17.7421 36.4453 17.4257ZM39.0117 20.8242H38.6133C38.2265 20.8242 38.0039 20.5429 37.9453 20.2499C37.5351 20.2968 37.1133 20.0156 37.2656 19.5351C37.664 18.3046 38.6015 17.414 39.5273 16.5585C40.582 15.5742 41.6836 14.6484 42.75 13.6874C43.207 13.2656 43.5469 12.8437 43.9101 12.3515C44.2383 11.8945 44.5781 11.4492 45.0234 11.1093C45.8672 10.4531 47.0859 10.3945 47.8125 11.2851C48.457 12.082 48.4922 13.3593 48.0351 14.2617C47.5078 15.3163 46.4883 15.9023 45.5508 16.5468C44.3906 17.3554 43.289 18.246 42.0937 19.0077C41.4844 19.3945 40.8633 19.7695 40.2305 20.1093C40.0312 20.2148 39.7734 20.3788 39.5156 20.5312C39.457 20.6835 39.293 20.8242 39.0117 20.8242ZM48.1406 20.1796C45.9609 21.7968 43.3359 22.9101 40.6055 22.9452C40.3476 22.9452 40.1601 22.8281 40.0547 22.664C39.8437 22.5468 39.6914 22.3124 39.75 22.0077C39.9492 20.8593 41.1445 20.0742 42.0586 19.5117C43.0312 18.914 44.1328 18.4453 45.0117 17.707C46.0195 16.8632 46.9219 15.8906 47.9765 15.1054C48.914 14.414 50.0039 13.7577 51.2109 13.9335C51.5156 13.9804 51.6797 14.2382 51.7265 14.5195C52.1719 16.8398 49.793 18.9374 48.1406 20.1796Z" fill="#74CCCF"/>
<path d="M50.7422 41.1563C49.4414 40.4883 48.0703 39.9492 46.7461 39.3399C43.3242 37.793 39.5508 36.5274 36.75 33.9375C36.6211 33.8203 36.4922 33.7734 36.3633 33.7617C36.375 33.6797 36.3985 33.5977 36.4102 33.5156C36.4453 33.293 36.4922 33.0117 36.4102 32.7891C36.3047 32.4844 35.9531 32.332 35.7188 32.1445C35.5078 31.9688 35.3203 31.7813 35.2266 31.5234C35.168 31.3594 35.2149 31.2188 35.1094 31.0664C35.0156 30.9375 34.875 30.8555 34.7461 30.7617C34.2071 30.3516 33.7266 29.8477 33.2461 29.3672C33.2344 29.3555 33.2344 29.3555 33.2227 29.3438C33.4688 29.1094 33.7149 28.8867 33.9727 28.6641C35.2383 27.5859 36.6211 26.7891 38.2617 26.4727C39.7852 26.168 41.3672 26.1914 42.9024 26.0039C45.4336 25.6992 47.7305 24.5742 49.8399 23.1797C51.8321 21.8555 53.8828 20.0977 54.7969 17.8242C55.2305 16.7461 55.2891 15.6445 55.0078 14.5195C54.668 13.1485 53.6719 12.0235 52.6992 11.0508C51.6797 10.043 50.6016 9.09376 49.5586 8.12111C48.4102 7.04298 47.25 5.97657 45.8906 5.15626C44.7539 4.46486 43.4883 4.07814 42.1524 4.19532C40.9102 4.31251 39.7266 4.88673 38.7071 5.57814C36.6094 6.99611 34.9102 9.15236 33.7735 11.3906C33.0117 12.8906 32.543 14.4375 32.4024 16.1133C32.25 17.7774 32.3789 19.4531 32.4844 21.1172C32.5078 21.4336 32.5196 21.75 32.543 22.0664C32.4492 22.1719 32.3789 22.3242 32.3672 22.5C32.3438 23.2149 31.9805 23.8242 31.6289 24.4219C31.2071 25.1484 30.6211 25.793 30.0352 26.3906C30.0117 26.4141 30 26.4258 29.9766 26.4375C29.836 25.6172 28.9805 24.668 28.4297 24.3047C27.8906 23.9414 27.3516 23.8828 26.7188 23.8359C26.4141 23.8125 26.3672 23.7188 26.2266 23.4492C26.0508 23.1328 25.8985 22.8516 25.6406 22.582C24.6797 21.5859 23.0391 22.6055 21.9141 22.1719C21.4571 21.9961 21.1992 21.3633 20.9531 20.9649C20.6016 20.4024 20.1797 20.0508 19.6406 19.6758C19.1485 19.3477 18.4336 19.3125 17.8711 19.2422C17.6016 19.207 17.3086 19.1836 17.0508 19.1016C16.8281 19.0195 16.7227 18.6211 16.6406 18.4336C16.418 17.8711 16.2071 17.3086 15.8203 16.8399C15.3281 16.2539 14.5899 16.0547 13.8516 15.9961C12.75 15.9024 11.3086 16.3477 10.4063 15.5625C9.91409 15.1406 9.46877 14.7188 8.89455 14.4141C8.21487 14.0508 7.41799 13.9453 6.66799 13.9805C5.53127 14.0274 4.42971 14.4844 3.43362 14.9766C3.12893 15.1289 2.90627 15.4453 3.03518 15.7969C3.72658 17.5899 5.20315 19.0078 6.51565 20.3555C8.08596 21.9727 9.64455 23.5781 11.2969 25.1133C13.0547 26.7539 14.9649 28.2305 16.8633 29.707C18.5156 31.0078 20.2031 32.2734 21.9727 33.3984C21.9375 33.5977 22.0196 33.7969 22.1719 33.9375C20.9883 35.0977 19.7813 36.2461 18.5274 37.336C16.0547 39.4805 13.4766 41.543 11.3321 44.0156C9.48049 46.1485 7.12502 49.3008 9.10549 52.0899C10.9219 54.6445 14.3203 53.0508 16.125 51.4102C17.2617 50.3789 18.1758 49.1602 19.0664 47.918C20.1211 46.4531 21.2227 45.0469 22.336 43.6289C23.4375 42.2227 24.6094 40.8633 25.6758 39.4336C26.4844 38.3438 27.2227 37.2188 27.9727 36.0938C28.7227 36.8789 29.7188 37.4766 30.8086 37.5117C30.8555 37.5469 30.9024 37.5703 30.9492 37.6055C31.6875 37.9453 32.4141 37.9453 33.0821 37.7227C33.0703 37.9453 33.1641 38.168 33.4102 38.3086C35.9531 39.7852 37.3008 42.5625 39.1524 44.7422C41.2031 47.1563 44.0391 48.8789 47.086 49.7227C49.1485 50.2969 51.3399 49.9219 53.1563 48.7852C54.9961 47.6367 55.6524 45.4219 54.2344 43.6406C53.3438 42.5391 51.9961 41.8008 50.7422 41.1563ZM17.7071 28.7695C15.8672 27.3281 14.0274 25.8984 12.3047 24.3164C10.7227 22.8633 9.22268 21.3281 7.7344 19.793C6.59768 18.6211 5.2383 17.4141 4.47658 15.9141C5.63674 15.3985 6.93752 15.0117 8.15627 15.5039C9.2344 15.9492 9.76174 17.0391 10.9688 17.2383C12.1641 17.4375 14.25 16.7344 15.0117 17.9297C15.3164 18.4102 15.4571 19.0078 15.7266 19.5234C16.0313 20.1094 16.5469 20.3438 17.168 20.4609C17.7539 20.5664 18.3867 20.543 18.9492 20.7891C19.5117 21.0352 19.8047 21.5625 20.1094 22.0664C20.8008 23.1914 21.75 23.7422 23.086 23.5899C23.5547 23.5313 24.5274 23.2149 24.8672 23.6719C25.2539 24.1875 25.3828 24.9024 26.1094 25.0664C26.6133 25.1836 27.211 25.0547 27.668 25.3594C28.1133 25.6641 28.4883 26.2031 28.6641 26.6953C28.6641 26.707 28.6758 26.707 28.6758 26.707C28.6758 26.7188 28.6641 26.7305 28.6641 26.7422C28.5586 27.0586 28.6992 27.2813 28.9219 27.3867C28.6875 27.5859 28.4531 27.7734 28.2071 27.9609C27.4688 28.5469 26.8242 29.2969 26.1563 29.9649C25.2071 30.9141 24.2696 31.875 23.3203 32.8242C23.25 32.7422 23.168 32.6602 23.0742 32.6133C21.1992 31.4766 19.4414 30.1289 17.7071 28.7695ZM24.7031 38.6133C23.6485 40.0547 22.4649 41.4024 21.3633 42.8086C20.25 44.2266 19.1485 45.6445 18.0938 47.0977C17.2031 48.3399 16.2891 49.5938 15.1289 50.6016C14.168 51.4453 12.8438 52.3008 11.4961 52.1602C9.96096 51.9961 9.41018 50.3086 9.71487 48.9961C10.0547 47.5078 11.2031 46.1836 12.1641 45.0469C13.8164 43.0781 15.7852 41.3906 17.7305 39.7266C19.6992 38.0508 21.5977 36.3399 23.4258 34.5117C25.4766 32.461 27.4571 30.2695 29.6953 28.4063C31.4297 26.9649 33.4805 24.9375 33.6211 22.5469C33.7383 22.4297 33.8203 22.2656 33.8086 22.0547C33.7266 20.3672 33.5625 18.6797 33.6094 16.9922C33.6563 15.2461 34.1016 13.6524 34.8516 12.082C35.9297 9.83204 37.6875 7.73439 39.7969 6.39845C40.8047 5.76564 41.9883 5.34376 43.1953 5.48439C44.6367 5.66017 45.9375 6.65626 47.0156 7.55861C48.1641 8.51954 49.2305 9.58595 50.3321 10.6055C51.3867 11.5781 52.4883 12.5039 53.2617 13.7227C54.668 15.9375 53.4375 18.1992 51.8321 19.8867C50.1914 21.5977 48.0469 22.9453 45.8789 23.8828C43.0664 25.0899 39.9844 24.6328 37.0781 25.4297C34.1133 26.2383 31.7813 28.7461 29.9414 31.0899C28.0547 33.5039 26.5078 36.1524 24.7031 38.6133ZM31.793 36.5742C31.6992 36.3516 31.4883 36.1992 31.1836 36.2344C30.2578 36.3516 29.3672 35.8008 28.7813 35.1094C28.7578 35.086 28.7344 35.0508 28.6992 35.0274C29.8125 33.375 30.9727 31.7227 32.3203 30.2578C32.3438 30.2813 32.3555 30.3047 32.3789 30.3281C32.8828 30.832 33.3985 31.3594 33.9727 31.7813C34.125 32.4375 34.5938 32.918 35.1328 33.3164C34.9336 34.8047 33.4102 37.0078 31.793 36.5742ZM52.6172 47.6133C51.8203 48.1875 50.836 48.5156 49.8867 48.6797C48.7383 48.8672 47.6953 48.6328 46.5938 48.2695C43.7461 47.3555 41.2617 45.4688 39.4571 43.1133C37.8281 40.9922 36.4336 38.6484 34.0664 37.2422C34.8516 36.6914 35.5078 35.8594 35.918 35.0391C35.9297 35.0156 35.9414 34.9922 35.9531 34.957C38.3906 37.1953 41.4258 38.3555 44.4141 39.6797C45.6563 40.2305 46.875 40.8047 48.1055 41.3555C49.336 41.8945 50.5547 42.4688 51.6797 43.1836C52.5352 43.7227 53.4961 44.4727 53.6836 45.5274C53.8711 46.4063 53.3086 47.1211 52.6172 47.6133Z" fill="#010101"/>
<path d="M42.7383 8.01564C42.6563 7.6758 42.2227 7.51173 41.918 7.6172C38.0156 9.02345 34.8281 13.1719 35.1563 17.4141C35.2149 18.211 36.3984 18.1524 36.4453 17.4141C36.5977 17.7305 36.9961 17.9649 37.3945 17.7188C38.332 17.1563 39.0234 16.2774 39.668 15.4102C40.2656 14.625 40.8516 13.9219 41.5547 13.2422C42.1524 12.6563 42.8789 12.0117 43.207 11.2149C43.6875 10.0664 42.9961 9.1172 42.7383 8.01564ZM41.9297 10.9219C41.543 11.6016 40.8281 12.1758 40.2656 12.7149C39 13.9336 38.2031 15.7266 36.6797 16.6524C36.5625 16.7227 36.4805 16.8164 36.4336 16.9219C36.375 13.6172 38.7774 10.4297 41.7422 9.08205C41.9883 9.70314 42.2695 10.3242 41.9297 10.9219ZM47.8242 11.2617C47.0977 10.3711 45.8789 10.4297 45.0352 11.086C44.5899 11.4258 44.25 11.8828 43.9219 12.3281C43.5586 12.832 43.2305 13.2539 42.7617 13.6641C41.6953 14.6367 40.5938 15.5625 39.5391 16.5352C38.6133 17.3906 37.6758 18.293 37.2774 19.5117C37.125 20.0039 37.5469 20.2735 37.957 20.2266C38.0039 20.5195 38.2383 20.8008 38.625 20.8008H39.0234C39.293 20.8008 39.4688 20.6602 39.5508 20.4727C39.8086 20.332 40.0664 20.168 40.2656 20.0508C40.8985 19.711 41.5195 19.336 42.1289 18.9492C43.3242 18.1875 44.4258 17.2969 45.586 16.4883C46.5235 15.8438 47.5313 15.2578 48.0703 14.2031C48.5039 13.336 48.4805 12.0586 47.8242 11.2617ZM46.6758 14.0274C46.125 14.7539 45.2227 15.1641 44.5078 15.7031C43.5352 16.418 42.5742 17.1445 41.5547 17.8125C41.0625 18.1406 40.5586 18.4453 40.0547 18.7266C39.8203 18.8555 39.5859 18.9844 39.3516 19.1016C39.1992 19.1836 38.8711 19.418 38.6484 19.5C39.0117 18.7149 39.7734 18.082 40.3828 17.5078C41.2383 16.711 42.082 15.9141 42.9844 15.1641C43.4063 14.8125 43.8164 14.4492 44.2149 14.0742C44.5195 13.7813 44.7305 13.3945 44.9766 13.0547C45.3164 12.5742 46.0899 11.4375 46.7813 12.0117C47.3321 12.4805 47.0391 13.5586 46.6758 14.0274ZM51.7383 14.5078C51.6914 14.2266 51.5274 13.9688 51.2227 13.9219C50.0156 13.7461 48.9141 14.3906 47.9883 15.0938C46.9336 15.8789 46.0313 16.8516 45.0235 17.6953C44.1445 18.4336 43.043 18.9024 42.0703 19.5C41.1563 20.0625 39.9492 20.8477 39.7617 21.9961C39.7031 22.3008 39.8555 22.5352 40.0664 22.6524C40.1719 22.8164 40.3594 22.9453 40.6172 22.9336C43.3594 22.9102 45.9844 21.7969 48.1524 20.168C49.793 18.9375 52.1719 16.8399 51.7383 14.5078ZM47.2969 19.1953C45.5508 20.4961 43.5 21.3985 41.332 21.6094C41.7774 21.0938 42.5625 20.6953 43.0313 20.4141C43.9219 19.875 44.9063 19.4297 45.7266 18.7735C46.5821 18.0703 47.3555 17.2735 48.211 16.5586C48.8086 16.0664 49.6406 15.3516 50.4844 15.211C50.3438 16.8516 48.4805 18.3164 47.2969 19.1953Z" fill="#010101"/>
</svg>
