<svg width="48" height="48" viewBox="0 0 48 48" fill="none" xmlns="http://www.w3.org/2000/svg">
<path d="M16.5656 24.9468C15.6469 24.1312 14.2406 23.7843 13.05 24.1031C11.7281 24.45 10.95 25.4625 10.9875 26.8406C10.9969 27.1218 10.8094 27.3 10.6031 27.3562C11.0906 28.7625 12.5344 29.6156 14.0625 29.7375C15.15 29.8218 16.5094 29.4937 17.1 28.4812C17.7469 27.3468 17.5594 25.8187 16.5656 24.9468ZM40.875 22.7906C39.9094 21.9093 38.4187 22.0312 37.3312 22.6218C36.1031 23.2968 35.2125 24.4687 35.175 25.8843C35.2125 26.7 35.4844 27.4781 36.1594 27.975C36.7219 28.3781 37.4625 28.5093 38.1375 28.4625C39.3375 28.3687 40.6219 27.7593 41.25 26.6906C41.9437 25.5375 41.925 23.7562 40.875 22.7906Z" fill="#F6851F"/>
<path d="M44.8031 16.9969C43.95 14.8031 42.7219 12.7406 41.2312 10.9125C38.2312 7.22811 34.0219 4.24686 29.2687 3.43123C24.1594 2.54061 18.7219 4.39686 14.6062 7.40623C12.4875 8.95311 10.5844 10.8562 9.27187 13.1437C8.52187 14.4469 7.94061 15.8156 7.47186 17.2312C6.95624 18.1687 6.59062 19.2 6.30937 20.2219C6.03749 21.2062 5.84999 22.2281 5.75624 23.25C5.73749 23.3344 5.70936 23.4281 5.68124 23.5125C5.66249 23.5687 5.64374 23.6156 5.61562 23.6531C5.55937 24.15 5.52187 24.6469 5.52187 25.1625C5.51249 26.8406 5.70936 28.5281 6.11249 30.15C7.13436 34.2937 9.30936 38.3906 12.7687 40.9969C14.8031 42.525 17.2125 43.3031 19.7156 43.5937C22.4625 43.9219 25.3031 43.8187 28.0312 43.4344C30.7406 43.05 33.4781 42.375 35.9156 41.1C38.1 39.9562 39.9 38.3812 41.4 36.4219C44.175 32.7844 45.8437 28.1812 45.9094 23.5969C45.9375 21.3656 45.6187 19.0969 44.8031 16.9969ZM18.3375 28.1812C17.9062 29.4844 16.8562 30.3562 15.525 30.6469C12.7687 31.2469 9.55312 29.5594 9.40312 26.5406C9.38437 26.1469 9.74061 25.9594 10.0312 26.0062C10.2844 24.6375 11.2031 23.5219 12.6375 23.1375C14.1937 22.725 16.0406 23.0437 17.25 24.1594C18.3281 25.1625 18.8062 26.7562 18.3375 28.1812ZM19.9312 20.8594C19.6125 19.9875 18.5719 19.425 17.6906 19.3219C17.2687 19.275 17.1656 19.3125 16.7906 19.5281C16.65 19.6125 16.5094 19.6875 16.3781 19.7906C16.4906 20.1375 16.2656 20.5875 15.825 20.4469C15.1875 20.25 15.0094 19.6406 15.5156 19.1625C15.75 18.9469 16.0219 18.7781 16.3031 18.6187C16.5187 18.5062 16.7719 18.3187 17.0156 18.2906C18.5437 18.1125 20.3719 19.0219 20.9156 20.5125C21.1312 21.1406 20.1562 21.4781 19.9312 20.8594ZM28.7437 32.175C28.5656 32.9156 28.2656 33.6937 27.6844 34.2094C26.9719 34.8375 25.8844 34.8656 25.0875 34.3687C24.2062 33.8156 23.6344 32.9531 23.175 32.0344C22.875 31.4531 23.7281 30.8625 24.0281 31.4531C24.3469 32.0906 24.7125 32.7656 25.2656 33.2344C25.7062 33.6 26.4187 33.9 26.9344 33.4969C27.3094 33.1969 27.5344 32.6812 27.6656 32.2219C27.7312 31.9969 27.7781 31.7719 27.8062 31.5469C27.825 31.4062 27.825 31.4906 27.8156 31.3687C27.8156 31.35 27.8156 31.3219 27.8062 31.3031C27.825 31.4906 27.9562 31.6219 28.1812 31.6969C27.5531 31.5 27.7406 30.4875 28.3781 30.6844C29.025 30.8812 28.8656 31.6781 28.7437 32.175ZM32.925 19.7156C32.925 20.3812 31.8937 20.4562 31.8937 19.7906V19.2281C31.8937 18.975 32.0156 18.8156 32.2406 18.7031C33.0187 18.3187 33.9281 18 34.8094 18.1312C35.6625 18.2531 36.3094 18.7594 36.7781 19.4625C37.1437 20.0156 36.2906 20.5969 35.925 20.0437C35.175 18.9 34.0125 19.05 32.925 19.5187V19.7156V19.7156ZM42.6844 25.8094C42.4125 27.2344 41.4375 28.35 40.1531 28.9781C38.9719 29.5594 37.5187 29.7187 36.2812 29.2125C35.0531 28.7156 34.35 27.6094 34.1812 26.3437C34.1625 26.2969 34.1531 26.2312 34.1437 26.1656C34.0875 24.3937 35.0625 22.7437 36.6 21.8625C37.9406 21.0937 39.6937 20.7937 41.0625 21.6562C42.4125 22.5 42.975 24.2906 42.6844 25.8094Z" fill="#FEBF10"/>
<path d="M45.9844 17.4281C45.2719 15.225 44.1 13.1437 42.7406 11.2781C39.9281 7.42498 35.9625 4.33123 31.3781 2.93436C26.475 1.43436 21.2719 2.54061 16.8281 4.88436C13.9031 6.42186 11.2125 8.63436 9.29064 11.3344C8.14689 12.9469 7.31252 14.7375 6.66564 16.5937C6.63752 16.6219 6.60002 16.6594 6.57189 16.6969C6.46877 16.8562 6.37502 17.025 6.28127 17.2031C6.00939 17.7 5.83127 18.2719 5.65314 18.7969C5.59689 18.9656 5.49377 19.2094 5.42814 19.4719C5.39064 19.5281 5.36252 19.5844 5.34377 19.6687C5.10002 20.8594 4.80002 22.0406 4.65939 23.25C4.53752 24.2906 4.51877 25.3312 4.56564 26.3812C4.66877 28.5469 5.13752 30.7125 5.85939 32.7562C7.27502 36.7594 9.85314 40.5094 13.5469 42.7031C15.8156 44.0531 18.5344 44.5594 21.1406 44.7094C23.8969 44.8687 26.6813 44.6906 29.3906 44.2125C32.0438 43.7437 34.6406 42.9375 37.0031 41.6156C39.1031 40.4437 40.8281 38.775 42.2719 36.8625C45.0281 33.1969 46.6219 28.6687 46.8375 24.0937C46.9594 21.8437 46.6781 19.575 45.9844 17.4281ZM45.9094 23.6156C45.8438 28.2 44.1656 32.8031 41.4 36.4406C39.9094 38.4 38.1 39.975 35.9156 41.1187C33.4781 42.3937 30.7406 43.0687 28.0313 43.4531C25.3031 43.8375 22.4531 43.9312 19.7156 43.6125C17.2031 43.3125 14.7938 42.5437 12.7688 41.0156C9.30002 38.4094 7.12502 34.3125 6.11252 30.1687C5.70939 28.5375 5.52189 26.8594 5.52189 25.1812C5.52189 24.675 5.55939 24.1687 5.61564 23.6719C5.64377 23.6344 5.66252 23.5875 5.68127 23.5312C5.70939 23.4469 5.73752 23.3531 5.75627 23.2687C5.85002 22.2469 6.03752 21.225 6.30939 20.2406C6.59064 19.2187 6.95627 18.1875 7.47189 17.25C7.94064 15.8344 8.52189 14.4656 9.27189 13.1625C10.5844 10.8844 12.4875 8.97186 14.6063 7.42498C18.7313 4.40623 24.1594 2.54998 29.2781 3.44061C34.0219 4.26561 38.2406 7.24686 41.2406 10.9219C42.7313 12.75 43.9594 14.8125 44.8125 17.0062C45.6188 19.0969 45.9375 21.3656 45.9094 23.6156Z" fill="#010101"/>
<path d="M20.8969 20.5219C20.3438 19.0407 18.525 18.1219 16.9969 18.3C16.7531 18.3282 16.5 18.5063 16.2844 18.6282C16.0031 18.7782 15.7313 18.9469 15.4969 19.1719C14.9906 19.6407 15.1781 20.25 15.8063 20.4563C16.2469 20.5969 16.4719 20.1469 16.3594 19.8C16.4906 19.7063 16.6313 19.6219 16.7719 19.5375C17.1375 19.3219 17.25 19.2844 17.6719 19.3313C18.5531 19.4344 19.5938 19.9969 19.9125 20.8688C20.1563 21.4782 21.1313 21.1407 20.8969 20.5219ZM36.7781 19.4625C36.3094 18.7594 35.6625 18.2532 34.8094 18.1313C33.9281 18 33.0281 18.3188 32.2406 18.7032C32.0156 18.8157 31.8938 18.975 31.8938 19.2282V19.7907C31.8938 20.4563 32.925 20.3719 32.925 19.7157V19.5188C34.0125 19.05 35.1656 18.9 35.925 20.0438C36.2906 20.5969 37.1438 20.0157 36.7781 19.4625ZM28.3875 30.6844C27.75 30.4875 27.5625 31.5 28.1906 31.6969C27.9563 31.6313 27.8344 31.5 27.8156 31.3032C27.8156 31.3219 27.825 31.35 27.825 31.3688C27.8344 31.4813 27.825 31.4063 27.8156 31.5469C27.7875 31.7719 27.7313 31.9969 27.675 32.2219C27.5531 32.6813 27.3281 33.1969 26.9438 33.4969C26.4281 33.9094 25.7156 33.6094 25.275 33.2344C24.7219 32.775 24.3563 32.0907 24.0375 31.4532C23.7375 30.8625 22.8844 31.4438 23.1844 32.0344C23.6438 32.9532 24.2156 33.8156 25.0969 34.3688C25.8938 34.875 26.9813 34.8375 27.6938 34.2094C28.275 33.6938 28.575 32.9157 28.7531 32.175C28.8656 31.6782 29.025 30.8813 28.3875 30.6844ZM17.25 24.1688C16.0406 23.0532 14.1938 22.7344 12.6375 23.1469C11.2031 23.5313 10.2844 24.6469 10.0313 26.0157C9.73126 25.9688 9.38438 26.1563 9.40313 26.55C9.56251 29.5688 12.7781 31.2563 15.525 30.6563C16.8656 30.3657 17.9156 29.4938 18.3375 28.1907C18.8063 26.7563 18.3281 25.1625 17.25 24.1688ZM17.0906 28.4813C16.5 29.4938 15.1406 29.8219 14.0531 29.7375C12.5344 29.625 11.0906 28.7625 10.5938 27.3563C10.8094 27.3 10.9875 27.1219 10.9781 26.8407C10.9406 25.4625 11.7188 24.45 13.0406 24.1032C14.2313 23.7844 15.6375 24.1313 16.5563 24.9469C17.5594 25.8188 17.7469 27.3469 17.0906 28.4813ZM41.0719 21.6563C39.7031 20.7938 37.9406 21.0938 36.6094 21.8625C35.0719 22.7438 34.0969 24.3938 34.1531 26.1657C34.1531 26.2313 34.1719 26.2875 34.1906 26.3438C34.35 27.6094 35.0625 28.7157 36.2906 29.2125C37.5281 29.7094 38.9813 29.55 40.1625 28.9782C41.4469 28.35 42.4219 27.225 42.6938 25.8094C42.975 24.2907 42.4125 22.5 41.0719 21.6563ZM41.2594 26.7C40.6313 27.7688 39.3469 28.3782 38.1469 28.4719C37.4625 28.5282 36.7313 28.3969 36.1688 27.9844C35.4844 27.4875 35.2219 26.7094 35.1844 25.8938C35.2125 24.4782 36.1125 23.3063 37.3406 22.6313C38.4281 22.0313 39.9188 21.9188 40.8844 22.8C41.925 23.7563 41.9438 25.5375 41.2594 26.7Z" fill="#010101"/>
</svg>
