<svg xmlns="http://www.w3.org/2000/svg" xmlns:xlink="http://www.w3.org/1999/xlink" viewBox="0 0 100 100"><path fill="#fefdef" d="M83,43.5V77c0,3.866-3.134,7-7,7H25c-3.866,0-7-3.134-7-7V43.5H83z"/><path fill="#ceccbe" d="M84,27v-4c0-3.866-3.134-7-7-7H24c-3.866,0-7,3.134-7,7v4H84z"/><path fill="#c7dff1" d="M21,43.5v18h0.5v15c0,2.209,1.791,4,4,4h35v-37H21z"/><path fill="#c7dff1" d="M79.5,43.5v33c0,2.209-1.791,4-4,4H63v-37H79.5z"/><path fill="#f37e98" d="M62.5,43.5c0,2.209-1.791,4-4,4s-4-1.791-4-4v-16h8V43.5z"/><path fill="#f37e98" d="M78.5,43.5c0,2.209-1.791,4-4,4s-4-1.791-4-4v-16h8V43.5z"/><path fill="#f37e98" d="M46.5,43.5c0,2.209-1.791,4-4,4s-4-1.791-4-4v-16h8V43.5z"/><path fill="#f37e98" d="M30.5,43.5c0,2.209-1.791,4-4,4s-4-1.791-4-4v-16h8V43.5z"/><path fill="#fff" d="M38.5,43.5c0,2.209-1.791,4-4,4s-4-1.791-4-4v-16h8V43.5z"/><path fill="#fff" d="M54.5,43.5c0,2.209-1.791,4-4,4s-4-1.791-4-4v-16h8V43.5z"/><path fill="#fff" d="M70.5,43.5c0,2.209-1.791,4-4,4s-4-1.791-4-4v-16h8V43.5z"/><path fill="#fff" d="M78.5,27.5v16c0,2.209,1.791,4,4,4s4-1.791,4-4l-3-16H78.5z"/><path fill="#fff" d="M22.5,27.5v16c0,2.209-1.791,4-4,4s-4-1.791-4-4l3-16H22.5z"/><polygon fill="#fefdef" points="51.282,58 31.58,61.091 32.298,66 52,62.909"/><circle cx="76" cy="62" r="1.5" fill="#fefdef"/><circle cx="25.5" cy="21.5" r="2" fill="#f37e98"/><circle cx="32.5" cy="21.5" r="2" fill="#f9e65c"/><circle cx="39.5" cy="21.5" r="2" fill="#a1d3a2"/><g><path fill="#1f212b" d="M75.5,81h-12c-0.276,0-0.5-0.224-0.5-0.5v-22c0-0.276,0.224-0.5,0.5-0.5s0.5,0.224,0.5,0.5V80h11.5 c1.93,0,3.5-1.57,3.5-3.5v-30c0-0.276,0.224-0.5,0.5-0.5s0.5,0.224,0.5,0.5v30C80,78.981,77.981,81,75.5,81z"/><path fill="#1f212b" d="M76,85H25c-4.411,0-8-3.589-8-8V47h2v30c0,3.309,2.691,6,6,6h51c3.309,0,6-2.691,6-6V47h2v30 C84,81.411,80.411,85,76,85z"/><path fill="#1f212b" d="M84,28H17c-0.553,0-1-0.447-1-1v-4c0-4.411,3.589-8,8-8h53c4.411,0,8,3.589,8,8v4 C85,27.553,84.553,28,84,28z M18,26h65v-3c0-3.309-2.691-6-6-6H24c-3.309,0-6,2.691-6,6V26z"/><path fill="#1f212b" d="M50.5,48c-2.481,0-4.5-2.019-4.5-4.5h1c0,1.93,1.57,3.5,3.5,3.5s3.5-1.57,3.5-3.5h1 C55,45.981,52.981,48,50.5,48z"/><path fill="#1f212b" d="M58.5,48c-2.481,0-4.5-2.019-4.5-4.5v-16h1v16c0,1.93,1.57,3.5,3.5,3.5s3.5-1.57,3.5-3.5h1 C63,45.981,60.981,48,58.5,48z"/><path fill="#1f212b" d="M66.5,48c-2.481,0-4.5-2.019-4.5-4.5v-16h1v16c0,1.93,1.57,3.5,3.5,3.5s3.5-1.57,3.5-3.5h1 C71,45.981,68.981,48,66.5,48z"/><path fill="#1f212b" d="M74.5,48c-2.481,0-4.5-2.019-4.5-4.5v-16h1v16c0,1.93,1.57,3.5,3.5,3.5s3.5-1.57,3.5-3.5h1 C79,45.981,76.981,48,74.5,48z"/><path fill="#1f212b" d="M42.5,48c-2.481,0-4.5-2.019-4.5-4.5h1c0,1.93,1.57,3.5,3.5,3.5s3.5-1.57,3.5-3.5v-16h1v16 C47,45.981,44.981,48,42.5,48z"/><path fill="#1f212b" d="M34.5,48c-2.481,0-4.5-2.019-4.5-4.5h1c0,1.93,1.57,3.5,3.5,3.5s3.5-1.57,3.5-3.5v-16h1v16 C39,45.981,36.981,48,34.5,48z"/><path fill="#1f212b" d="M26.5,48c-2.481,0-4.5-2.019-4.5-4.5h1c0,1.93,1.57,3.5,3.5,3.5s3.5-1.57,3.5-3.5v-16h1v16 C31,45.981,28.981,48,26.5,48z"/><path fill="#1f212b" d="M63.5,52c-0.276,0-0.5-0.224-0.5-0.5v-5.354c0-0.276,0.224-0.5,0.5-0.5s0.5,0.224,0.5,0.5V51.5 C64,51.776,63.776,52,63.5,52z"/><path fill="#1f212b" d="M63.5,56c-0.276,0-0.5-0.224-0.5-0.5v-2c0-0.276,0.224-0.5,0.5-0.5s0.5,0.224,0.5,0.5v2 C64,55.776,63.776,56,63.5,56z"/><path fill="#1f212b" d="M75.5,81h-12c-0.276,0-0.5-0.224-0.5-0.5v-22c0-0.276,0.224-0.5,0.5-0.5s0.5,0.224,0.5,0.5V80h11.5 c1.93,0,3.5-1.57,3.5-3.5v-30c0-0.276,0.224-0.5,0.5-0.5s0.5,0.224,0.5,0.5v30C80,78.981,77.981,81,75.5,81z"/><path fill="#1f212b" d="M82.5,48c-2.481,0-4.5-2.019-4.5-4.5v-16h1v16c0,1.93,1.57,3.5,3.5,3.5s3.5-1.57,3.5-3.5 l-2.991-15.908l0.982-0.184l3,16C87,45.981,84.981,48,82.5,48z"/><path fill="#1f212b" d="M18.5,48c-2.481,0-4.5-2.019-4.5-4.5l3.009-16.092l0.982,0.184l-3,16C15,45.43,16.57,47,18.5,47 s3.5-1.57,3.5-3.5v-16h1v16C23,45.981,20.981,48,18.5,48z"/><path fill="#1f212b" d="M18,46.95c-1.664-0.241-2.957-1.644-2.999-3.363l2.986-15.966l-1.966-0.367l-3.004,16.063L13,43.5 c0,2.863,2.201,5.221,5,5.475V46.95z"/><path fill="#1f212b" d="M84.974,27.224l-1.966,0.369l2.982,15.905c-0.018,0.949-0.385,1.828-1.039,2.484 c-0.534,0.536-1.216,0.862-1.952,0.969v2c1.272-0.116,2.457-0.642,3.369-1.557c1.052-1.056,1.628-2.473,1.623-3.989L84.974,27.224z"/><path fill="#1f212b" d="M76,64c-1.103,0-2-0.897-2-2s0.897-2,2-2s2,0.897,2,2S77.103,64,76,64z M76,61c-0.552,0-1,0.448-1,1 s0.448,1,1,1s1-0.448,1-1S76.552,61,76,61z"/><path fill="#1f212b" d="M25.5,24c-1.379,0-2.5-1.121-2.5-2.5s1.121-2.5,2.5-2.5s2.5,1.121,2.5,2.5S26.879,24,25.5,24z M25.5,20c-0.827,0-1.5,0.673-1.5,1.5s0.673,1.5,1.5,1.5s1.5-0.673,1.5-1.5S26.327,20,25.5,20z"/><path fill="#1f212b" d="M32.5,24c-1.379,0-2.5-1.121-2.5-2.5s1.121-2.5,2.5-2.5s2.5,1.121,2.5,2.5S33.879,24,32.5,24z M32.5,20c-0.827,0-1.5,0.673-1.5,1.5s0.673,1.5,1.5,1.5s1.5-0.673,1.5-1.5S33.327,20,32.5,20z"/><path fill="#1f212b" d="M39.5,24c-1.379,0-2.5-1.121-2.5-2.5s1.121-2.5,2.5-2.5s2.5,1.121,2.5,2.5S40.879,24,39.5,24z M39.5,20c-0.827,0-1.5,0.673-1.5,1.5s0.673,1.5,1.5,1.5s1.5-0.673,1.5-1.5S40.327,20,39.5,20z"/><path fill="#1f212b" d="M60.5,81h-35c-2.481,0-4.5-2.019-4.5-4.5v-15c0-0.276,0.224-0.5,0.5-0.5s0.5,0.224,0.5,0.5v15 c0,1.93,1.57,3.5,3.5,3.5H60V46.965c0-0.276,0.224-0.5,0.5-0.5s0.5,0.224,0.5,0.5V80.5C61,80.776,60.776,81,60.5,81z"/><path fill="#1f212b" d="M21.5,59c-0.276,0-0.5-0.224-0.5-0.5v-5c0-0.276,0.224-0.5,0.5-0.5s0.5,0.224,0.5,0.5v5 C22,58.776,21.776,59,21.5,59z"/><path fill="#1f212b" d="M21.5,51c-0.276,0-0.5-0.224-0.5-0.5v-1c0-0.276,0.224-0.5,0.5-0.5s0.5,0.224,0.5,0.5v1 C22,50.776,21.776,51,21.5,51z"/><path fill="#1f212b" d="M32.298,66.5c-0.106,0-0.21-0.034-0.297-0.098c-0.107-0.079-0.179-0.198-0.198-0.33l-0.718-4.909 c-0.039-0.271,0.146-0.523,0.418-0.566l19.702-3.091c0.133-0.019,0.267,0.014,0.374,0.092c0.107,0.079,0.179,0.198,0.198,0.33 l0.718,4.909c0.039,0.271-0.146,0.523-0.418,0.566l-19.702,3.091C32.35,66.498,32.323,66.5,32.298,66.5z M32.146,61.508l0.573,3.92 l18.714-2.936l-0.573-3.92L32.146,61.508z"/><path fill="#1f212b" d="M37.033,60.646l-0.705-0.709l4.319-4.291c0.152-0.151,0.384-0.188,0.574-0.094l5.537,2.744 l-0.443,0.896l-5.217-2.586L37.033,60.646z"/><circle cx="41" cy="56" r="1" fill="#1f212b"/><rect width="72" height="1" x="14.5" y="43" fill="#1f212b"/></g></svg>